<?xml version="1.0" encoding="utf-8"?>
<!-- Generator: Adobe Illustrator 16.0.0, SVG Export Plug-In . SVG Version: 6.00 Build 0)  -->
<!DOCTYPE svg PUBLIC "-//W3C//DTD SVG 1.1//EN" "http://www.w3.org/Graphics/SVG/1.1/DTD/svg11.dtd">
<svg version="1.1" id="Layer_1" xmlns="http://www.w3.org/2000/svg" xmlns:xlink="http://www.w3.org/1999/xlink" x="0px" y="0px"
	 width="251.743px" height="257.768px" viewBox="0 0 251.743 257.768" enable-background="new 0 0 251.743 257.768"
	 xml:space="preserve">
<g>
	<g>
		<path fill="none" stroke="#000000" stroke-width="40" d="M180.042,72.749h-10.139l44.198,118.17h12.08v48.599h-77.296v-48.599
			h6.524l-2.899-9.631H99.134l-3.135,9.631h6.51v48.599H25.561v-48.599h12.063L81.762,72.75h-8.682V24.5h106.962V72.749
			L180.042,72.749z M138.606,140.302l-12.805-34.056l-12.797,34.056H138.606z"/>
	</g>
	<g>
		<path fill="#FFFFFF" d="M180.042,72.749h-10.139l44.198,118.17h12.08v48.599h-77.296v-48.599h6.524l-2.899-9.631H99.134
			l-3.135,9.631h6.51v48.599H25.561v-48.599h12.063L81.762,72.75h-8.682V24.5h106.962V72.749L180.042,72.749z M138.606,140.302
			l-12.805-34.056l-12.797,34.056H138.606z"/>
	</g>
	<g>
		<path fill="none" stroke="#9D9FA1" stroke-width="11.5" d="M180.042,72.749h-10.139l44.198,118.17h12.08v48.599h-77.296v-48.599
			h6.524l-2.899-9.631H99.134l-3.135,9.631h6.51v48.599H25.561v-48.599h12.063L81.762,72.75h-8.682V24.5h106.962V72.749
			L180.042,72.749z M138.606,140.302l-12.805-34.056l-12.797,34.056H138.606z"/>
	</g>
</g>
</svg>
