<?xml version="1.0" encoding="UTF-8" standalone="no"?>
<!-- Created with Inkscape (http://www.inkscape.org/) -->

<svg
   xmlns:dc="http://purl.org/dc/elements/1.1/"
   xmlns:cc="http://creativecommons.org/ns#"
   xmlns:rdf="http://www.w3.org/1999/02/22-rdf-syntax-ns#"
   xmlns:svg="http://www.w3.org/2000/svg"
   xmlns="http://www.w3.org/2000/svg"
   xmlns:xlink="http://www.w3.org/1999/xlink"
   xmlns:sodipodi="http://sodipodi.sourceforge.net/DTD/sodipodi-0.dtd"
   xmlns:inkscape="http://www.inkscape.org/namespaces/inkscape"
   width="700"
   height="500"
   viewBox="0 0 700.00001 500.00001"
   id="svg2"
   version="1.1"
   inkscape:version="0.91 r13725"
   sodipodi:docname="rug1_front_final.svg">
  <defs
     id="defs4" />
  <sodipodi:namedview
     id="base"
     pagecolor="#ffffff"
     bordercolor="#666666"
     borderopacity="1.0"
     inkscape:pageopacity="0.0"
     inkscape:pageshadow="2"
     inkscape:zoom="0.64888096"
     inkscape:cx="321.59792"
     inkscape:cy="41.519035"
     inkscape:document-units="px"
     inkscape:current-layer="layer2"
     showgrid="false"
     units="px"
     inkscape:window-width="1304"
     inkscape:window-height="746"
     inkscape:window-x="54"
     inkscape:window-y="-8"
     inkscape:window-maximized="1" />
  <metadata
     id="metadata7">
    <rdf:RDF>
      <cc:Work
         rdf:about="">
        <dc:format>image/svg+xml</dc:format>
        <dc:type
           rdf:resource="http://purl.org/dc/dcmitype/StillImage" />
        <dc:title></dc:title>
      </cc:Work>
    </rdf:RDF>
  </metadata>
  <g
     inkscape:groupmode="layer"
     id="layer2"
     inkscape:label="Layer 2">
    <path
       style="fill:#ff0000"
       id="path3352"
       d="m 314.85407,167.30517 c -0.36133,-0.94878 -10.89667,-7.40354 -11.17266,-8.38093 -0.42816,-1.80073 -6.88375,-7.36703 -7.27956,-9.17505 -0.44544,-2.29045 5.20616,-4.92754 4.51467,-7.15459 0.30991,-4.3523 0.54702,-5.50484 0.26573,-9.11367 -0.16205,-3.28907 0.0676,-6.59319 -1.15776,-9.67016 -0.36454,-1.9088 -1.27892,-6.63734 -1.46447,-8.56788 -0.41794,-11.29827 -0.28394,-10.41362 -0.89786,-15.567276 -2.07947,-9.892297 -1.14882,-9.495386 -1.5438,-15.909786 -0.44146,-5.871345 -0.67323,-4.614336 -0.79406,-9.655886 -0.46608,-2.877019 -0.006,-2.603209 -0.19841,-7.040397 -0.75982,-2.637669 -0.75016,-5.197417 -0.33506,-13.529425 -0.41188,-6.054949 0.67985,-5.907234 1.21843,-8.126277 2.17153,-7.878255 1.48922,-11.597156 11.07448,-16.340318 3.20292,-3.188365 2.79327,-2.022713 6.5683,-4.606233 0.89668,-0.762888 13.34366,-9.933012 14.18911,-10.749642 2.87713,-2.312737 10.73953,-10.6462703 13.6672,-10.6987873 2.00912,-0.0028 12.63667,1.0607319 14.64385,1.1542419 1.37871,0.03818 7.30421,3.9491737 9.05368,6.4329994 2.57443,2.859104 5.39889,4.858123 9.10554,8.929836 1.58657,1.828004 3.22116,2.217517 4.89642,2.844228 2.19291,1.670275 3.97752,3.777405 6.04861,4.736203 1.29253,0.595219 3.61614,2.491979 4.75476,3.348065 0.78628,0.635803 5.23216,3.054814 5.97184,3.744677 0.93106,0.829113 2.73427,1.857901 3.79609,2.493116 0.78101,0.454621 6.50508,6.226911 7.28312,6.684594 1.50204,5.771097 3.52091,7.399056 5.51111,13.650044 0.57735,2.30931 1.88565,4.58194 3.78547,11.391646 0,0 1.67918,3.54627 2.24972,8.731946 1.84776,5.300499 2.51227,8.581934 2.48894,16.112232 -0.25594,4.149903 -0.27204,3.156062 -0.25594,4.149903 -0.11984,4.499126 -0.25361,8.141376 0.51283,11.535016 1.79154,8.27177 2.52913,11.27972 4.63937,19.26649 -0.46268,0.69751 0.18477,5.61831 0.93045,12.37627 0.40997,7.49758 -0.62206,7.32095 4.69939,12.98961 0,0 1.76661,6.99664 1.15928,8.35101 0,0 -3.54937,3.00013 -11.07528,5.53896 -3.1606,0.82717 -12.39458,2.12169 -15.55631,2.87042 -6.49949,2.33116 -3.50022,1.75094 -10.83904,1.53602 0,0 -5.97566,0.11707 -7.81955,0.0349 -1.55041,-0.0691 -7.69508,2.3457 -8.58164,3.60974 -0.97124,1.38478 -1.3528,3.35004 -2.8574,6.29875 -0.25253,0.49491 -1.56397,4.75686 -1.92859,10.73394 -0.31,5.08176 -2.39567,12.5767 -2.65472,20.69878 1.70362,13.55701 2.36484,20.33588 4.87975,36.35502 2.11635,13.4804 3.32357,23.59422 5.38589,41.46937 1.09728,9.51064 0.79139,18.22769 -2.17895,23.78838 -4.58353,1.00994 -2.38504,-1.16573 -3.43899,-8.6766 -0.27548,-1.96322 -0.45505,-6.55154 -0.44482,-9.02632 0.0158,-3.82674 -1.06624,-8.1368 -1.45447,-12.53356 -0.93834,-10.627 -3.41282,-22.38951 -5.40647,-34.22297 -2.05215,-12.18073 -3.86378,-24.06355 -4.76843,-33.54895 -0.79918,-8.37947 0.86382,-12.58497 1.60621,-16.81963 1.05552,-6.02074 2.31701,-9.42489 2.43692,-9.89861 0.0854,-0.33753 -3.6613,-19.75404 -7.00025,-20.58437 -1.77792,-0.44213 5.77675,-0.87072 5.7802,-1.0466 0.0143,-0.73022 9.42795,-2.23161 9.57788,-2.88576 1.34694,-5.87645 2.65988,-9.51822 2.71502,-9.70495 0.40237,-1.06834 2.32662,-4.85824 2.78156,-5.90468 0.61247,-1.35794 2.23911,-4.59744 2.92715,-5.918 L 387.29,138.7729 c 0.10419,-0.18712 1.48799,-3.59042 0.72123,-1.65111 0.30909,-0.62556 1.08078,-2.74026 1.37973,-3.36958 0.30291,-0.78317 0.36168,-1.65018 0.86543,-2.32432 0.5286,-0.93233 1.71671,-3.30982 2.17211,-4.28135 0.7339,-1.56243 0.17514,-2.66314 0.63253,-4.32444 0.36121,-1.30911 0.5373,-1.60848 0.90262,-2.91582 0.54256,-1.66884 0.32662,-0.44235 0.88653,-2.10508 0.52064,-1.94626 0.55926,-2.93023 0.91612,-4.91658 0.31586,-1.69076 0.27187,-2.36668 0.3533,-4.08803 0.16757,-1.51002 -0.4549,-5.29298 -0.14316,-6.78106 -0.73679,-9.424051 0.21482,-10.772172 -0.0393,-15.846195 -0.80408,-6.216937 -0.19635,-7.487273 -0.22607,-9.595812 -0.42524,-6.354197 0,0 -0.58814,-6.506531 -1.18115,-5.460087 -2.28354,-7.870636 -3.42767,-11.538112 -6.03284,-7.006065 -2.49253,-2.983862 -7.42245,-8.390526 -3.07803,-3.780593 -2.18653,-1.446762 -6.12434,-6.032096 -0.74364,-0.674559 -2.87233,-1.668764 -3.64046,-2.314837 -1.08155,-0.849758 -2.13932,-1.665511 -3.38509,-2.249164 -2.06065,-0.968637 -2.80157,-1.49703 -4.91656,-2.337942 -1.66411,-0.59604 -2.04062,-0.04915 -4.94217,-2.111484 -2.26682,-0.459007 -1.32544,-5.575786 -3.63277,-5.756391 -1.35198,3.241463 -7.04574,7.035093 -8.40811,6.960575 -2.00643,-0.125699 -6.68372,1.319402 -7.73918,4.24066 -2.26789,0.915838 -3.5705,2.302741 -4.26325,2.430646 -9.58842,0.800701 -2.39958,-0.363228 -9.50568,5.020194 -1.60766,1.339319 -1.55969,4.731889 -3.30827,5.887867 -1.73577,8.061252 0.11457,0.895045 0.52448,20.356078 5.70721,20.150915 5.30576,16.279883 7.9738,24.203943 6.24741,7.398037 4.53094,8.604717 5.76349,14.571477 0.16249,1.92881 0.46713,11.1053 0.84003,13.01007 0.34182,1.91234 1.6691,2.71886 1.92596,4.64403 0.1163,0.69728 1.03882,3.81293 1.22199,4.49693 0.22461,0.83876 3.78614,4.15582 4.02571,4.97984 0.73209,1.19688 1.38276,2.66976 1.42717,2.8468 0.43497,1.4487 3.00354,7.45776 3.59477,8.84922 0.8249,2.23864 2.93299,4.54706 3.70663,6.80369 0.7002,2.22838 2.54873,6.3793 3.63282,7.85164 2.23962,1.1801 2.77109,2.12131 7.11276,2.25773 3.12099,-1.15081 7.43309,14.41078 5.80305,14.69738 0.0115,2.62024 -7.24085,-3.02791 -12.27907,-3.78728 -1.47501,0.92449 -3.26357,-0.70031 -3.04754,0.38085 0.92076,4.6082 -0.904,8.21226 -1.19246,11.05941 l -1.43896,7.93484 c -4.73058,8.68333 -4.26825,10.63156 -2.51692,14.00756 2.61751,3.71828 3.80301,8.72957 4.95805,14.90847 1.15504,6.17889 3.18744,16.53411 3.16147,23.70804 -0.0265,7.30779 -2.73095,21.21307 -4.01259,29.21457 -2.3434,8.05976 -5.02358,12.37072 -6.23799,16.97782 -2.43183,6.57225 -6.17293,12.28086 -5.7765,13.39034 0.46008,1.28757 -3.10971,0.98965 -5.18096,-0.27775 -1.30338,-0.79754 -1.19059,-2.47264 -1.68725,-2.82989 0,0 3.26961,-5.60918 4.97189,-9.65631 2.69442,-6.4059 3.90933,-12.0519 5.64341,-18.78157 1.34587,-5.22309 4.5325,-15.21487 5.14378,-20.57382 0.8967,-7.86119 0.64102,-11.17092 -0.8583,-17.85277 -1.62763,-7.25366 -5.40521,-16.4725 -6.70333,-18.96981 -3.76601,-6.5874 -4.74374,-7.47708 -5.11967,-9.62443 0.45112,-5.02483 0.12053,-7.0115 1.11429,-9.06201 2.78461,-4.46095 3.97129,-8.06624 5.52469,-13.32216 0.54567,-2.71966 -0.52062,-4.30004 -0.52062,-4.30004 0,0 -8.46069,-2.78339 -12.21887,-6.24399 -6.49838,-3.79094 -18.83203,-12.44011 -18.83203,-12.44011 z"
       inkscape:connector-curvature="0"
       sodipodi:nodetypes="ccccccccccccccccccccccccccccccccccccccccssscsscsssssssssscccccccccccccccccccccccccccccccccccsccccccccscccccccsscccccccccccc" />
    <path
       style="fill:#00ff00"
       id="path3356"
       d="m 370.01644,343.20196 c 7.42698,-0.16507 39.53268,-3.76954 39.06792,-0.11963 -0.85438,5.27867 8.78146,30.19495 8.41433,35.52936 6.3914,22.80935 6.7655,17.94195 11.98242,33.34198 0.86919,4.34405 7.23243,16.52196 4.55716,27.8116 -1.42687,6.02138 -2.24272,10.15547 -4.59987,14.34815 -1.89894,5.35645 -16.67245,6.12475 -20.63508,5.25051 -8.17551,-1.80369 -5.14042,1.94562 -21.74097,2.26488 -13.01712,3.02282 -13.80773,1.39991 -22.39874,2.01542 l -11.36877,-0.0298 -6.27447,-0.0746 c -7.34911,-0.0712 -2.5619,2.27577 -28.79337,1.1638 -12.13573,0.0611 -7.2979,-1.27533 -18.54403,-3.78534 -15.47898,-4.12829 -21.59756,-10.57017 -24.40939,-18.06176 -7.46239,-14.22147 -7.97767,-9.26071 -11.05815,-29.77729 -0.0854,-2.10953 1.00543,-15.10339 1.1959,-17.20678 0.0925,-1.58907 2.44544,-4.14572 3.7778,-7.18646 2.09353,-4.77789 3.64818,-11.52751 5.0953,-14.37428 3.28064,-7.52765 6.64008,-11.68313 10.47905,-17.52255 3.52354,-5.28606 7.78454,-11.94262 7.9069,-15.52065 l 45.19894,1.25235 z"
       inkscape:connector-curvature="0"
       sodipodi:nodetypes="ccccscscccccccccsccccc" />
    <path
       style="fill:#ffff00"
       id="path3358"
       d="m 283.45943,209.48188 c 1.60209,3.08191 3.8062,5.81921 5.74193,8.6998 1.30675,2.04326 2.58757,4.07161 3.44709,6.34664 1.40931,4.22757 3.3873,8.23626 5.29429,12.25481 1.7761,4.10859 4.09591,7.95505 5.88383,12.05315 1.10833,2.53409 1.83255,5.14408 2.30224,7.85921 0.59551,2.54188 0.58527,5.16707 1.01726,7.72823 0.51074,2.45645 0.90863,4.93428 1.4919,7.37476 0.4044,2.52057 0.6701,5.05989 1.02618,7.5893 0.2513,2.77136 0.6773,5.5197 1.20257,8.25059 0.34102,2.02312 0.69816,4.036 1.12515,6.04259 0.47341,2.20423 0.43733,4.47373 0.42182,6.71584 -0.0375,3.73252 6.7e-4,7.46511 0.0237,11.19755 0.18474,1.58706 0.0647,3.34735 0.81285,4.81878 0.38362,0.75446 1.08516,1.45256 1.63153,2.06807 2.80441,2.3917 6.14819,4.00063 9.60682,5.19776 2.20566,0.89309 4.45793,1.60943 6.82846,1.85191 2.23315,0.14702 16.6097,-16.44247 18.84637,-16.45854 2.22213,-0.0388 -0.94949,-6.94302 1.27273,-6.94302 3.08607,0.008 0.39253,-0.9326 3.47862,-0.9516 2.78306,-0.0275 -1.75453,-7.91291 1.0285,-7.89121 3.78702,0.0102 1.21679,-2.27947 5.00385,-2.28667 3.30012,0.004 -1.10554,-0.79126 2.19441,-0.82236 2.35099,-0.0271 -3.77403,-7.13265 -1.42308,-7.11255 2.77866,-0.0144 -2.91895,-13.67339 -3.12621,-20.04149 0.57853,-5.45353 1.64351,-11.55672 0.70358,-18.17604 -2.1129,-14.87981 -2.84513,-18.57253 -6.1788,-29.22593 -1.55554,-2.34753 -1.74659,-2.89875 -2.70279,-5.89135 -0.24114,-0.75471 0.20358,-3.48511 0.45556,-4.15967 1.89081,-5.06173 3.41256,-7.18823 3.60172,-7.93017 0,0 0.1762,-2.17781 0.72008,-5.06301 0.64853,-3.44038 1.60161,-6.84213 1.81876,-8.6001 0.005,-2.13915 -0.68194,-3.65148 -0.17429,-4.2385 0.42299,-0.48912 1.82282,-0.24751 3.7711,-0.0147 3.75791,0.89022 5.53766,2.7563 5.53766,2.7563 2.45589,2.17821 2.3331,6.71338 1.9087,7.91485 -1.56804,4.4391 -1.10667,4.47437 -2.18517,7.98618 0,0 -1.81619,8.97936 -1.95498,10.87666 -0.51064,6.98036 0.9105,15.74557 0.43267,11.60695 -0.66714,-5.77813 1.8541,12.73931 2.57133,17.43307 1.19328,5.90848 5.18527,31.73904 6.05003,36.44779 0.28774,1.56676 1.11185,10.06796 2.94577,20.01466 0.24044,7.13962 0.34185,12.3258 0.38089,13.00519 0.0447,0.77795 0.12808,2.60665 0.12857,2.88866 0.004,2.34452 0.14343,3.33911 0.17861,3.51372 0.23381,0.77685 1.05324,0.94548 1.05324,0.94548 0.90628,0.0577 1.04317,-0.0827 1.58278,-0.092 0.19434,-0.003 0.42957,-0.28002 0.61929,-0.67043 0.86034,-2.09742 1.39289,-3.81304 1.48651,-4.43117 0.37307,-0.63042 1.06683,-6.10869 0.97103,-9.99082 0.0209,-4.57747 -0.21128,-6.13431 -0.52784,-8.89246 -0.29277,-3.37098 -0.64887,-5.43849 -1.09863,-8.63891 -0.39245,-3.54084 -0.56113,-5.20015 -1.52811,-13.73911 -1.42874,-12.61657 -4.18746,-28.3245 -4.63501,-30.35163 -0.98386,-9.78046 -2.70457,-21.85262 -3.06615,-25.74317 0.45521,-3.61449 0.35438,-2.0104 0.41851,-5.81839 0.42778,-1.27659 1.99465,-11.91516 2.8189,-18.40479 0.36567,-2.87904 0.61091,-4.43469 0.7909,-5.00403 1.585,-5.73956 2.64897,-5.56982 3.10208,-7.37815 0.80714,-2.69566 5.35363,-3.3514 7.34419,-3.80951 2.25173,-0.67837 10.32456,0.0485 15.71896,-0.10757 5.28414,-2.72807 9.92299,-2.34561 19.91084,-4.53042 3.29842,-1.2043 8.75253,-3.52128 11.16283,-5.72464 -0.29198,-4.36386 -0.528,-6.02406 -0.94954,-8.28279 3.03479,5.40713 6.31973,5.72464 9.43371,6.55224 3.95682,1.05161 7.97248,1.88035 14.50842,3.58265 l 9.53517,4.63137 c -0.0335,3.15203 14.51037,6.98526 14.50007,10.13744 -0.001,1.83536 -8.24421,0.74613 -9.59129,4.28993 -1.16409,3.06243 -1.03857,7.11411 -1.0967,8.69939 -3.66745,4.34327 -12.19986,27.85596 -9.67384,37.12123 5.17381,10.62486 6.76799,14.89385 14.47369,28.27587 4.34412,7.54418 16.35388,12.55826 17.7508,20.73952 1.7161,2.91677 4.03648,8.62132 1.16025,10.08598 -0.80217,-0.53035 -0.60793,-3.35587 -5.35344,-1.84126 -5.31228,0.59402 -10.55894,6.45985 -11.63295,10.76333 -0.81271,3.85416 -0.68896,13.29421 -1.75955,17.08048 -0.41388,2.11374 -35.40993,-47.8828 -35.70819,-45.74451 -0.69439,2.59076 -1.77146,5.07467 -2.48391,7.66514 -0.63175,2.35841 -1.16629,4.74464 -1.85994,7.08616 -0.79574,2.68615 -0.86956,2.6003 -1.73964,5.25478 -0.27513,0.8394 -0.52599,1.68656 -0.78898,2.52983 -0.48155,1.6037 -0.89446,3.22761 -1.38393,4.82891 -0.54534,1.78408 -1.34681,3.44572 -1.97253,5.19618 -0.1603,0.44847 -0.2812,0.91006 -0.4218,1.36509 -0.82055,2.1063 -1.91694,4.10001 -2.86571,6.15118 -0.95485,2.74652 -2.11838,5.42211 -4.23819,7.48964 -5.46601,5.17633 -11.83386,8.87099 -18.55129,12.34948 -1.89766,1.03773 -3.82741,2.014 -5.80717,2.88569 -2.00794,0.99199 -4.06975,1.76503 -6.35528,1.56093 -2.7725,-0.011 -5.54489,0.008 -8.31741,-0.007 -2.36481,0.0198 -4.72977,0.0423 -7.09462,0.0151 -3.25245,-0.0314 -6.50485,-0.0563 -9.75749,-0.0518 -3.80993,-0.007 -7.61967,0.0149 -11.42957,0.0249 -2.78928,0.0212 -5.57827,0.0345 -8.36759,0.007 -3.09925,-0.0191 -6.19806,0.004 -9.29727,0.0193 -2.2346,0.008 -4.46903,0.0514 -6.70374,0.0351 -2.27681,-0.008 -4.56202,0.0261 -6.8294,-0.21082 -2.36485,-0.38684 -4.58468,-1.25233 -6.78822,-2.17708 -3.56256,-1.37484 -7.09331,-3.05966 -9.97312,-5.61204 -0.73923,-0.81877 -1.37888,-1.42066 -1.90156,-2.40253 -0.84796,-1.59293 -0.7852,-3.47175 -0.91384,-5.21394 0.0284,-3.72644 0.0791,-7.45396 -0.0211,-11.17983 -0.0785,-2.15295 -0.0899,-4.32225 -0.47935,-6.44817 -0.39591,-2.02956 -0.7695,-4.05211 -1.04254,-6.10321 -0.51948,-2.75012 -0.92755,-5.51945 -1.23886,-8.30108 -0.31939,-2.49366 -0.63545,-4.9891 -1.02508,-7.47099 -0.54916,-2.47059 -0.87745,-4.97847 -1.46126,-7.44293 -0.5257,-2.54836 -0.411,-5.19094 -1.00448,-7.73895 -0.51787,-2.62125 -1.086,-5.20796 -2.08998,-7.6998 -1.68062,-4.12934 -3.95698,-7.98753 -5.6724,-12.10595 -1.98522,-4.00368 -3.98673,-8.01183 -5.63813,-12.16742 -0.85968,-2.17496 -2.11927,-4.14749 -3.24362,-6.1923 -1.86133,-2.94363 -3.97831,-5.7043 -5.94278,-8.56904 l 9.83907,-5.7654 z"
       inkscape:connector-curvature="0"
       sodipodi:nodetypes="cccccccccccccccccccccccccscsssscscsscsscscscccscccccscccscccccccscccsccscccccccsscscccccccccccccccccsccccccccccccccc" />
    <path
       sodipodi:nodetypes="cscsssssssscsssssssssscsssccccccscsssscscsscsscscscccscccccscccscccccccscccsccsccccccsscscssccsscccccccccccsccsccsccscccccccccsssccc"
       inkscape:connector-curvature="0"
       d="m 254.07401,167.26042 c 7.23803,-2.15397 15.14975,-2.47492 28.66626,-8.95966 0,0 9.37996,-5.75491 13.4886,-8.00181 3.70605,3.02836 6.37231,7.85555 8.86529,10.14798 0.64765,0.59555 6.18387,4.44105 15.56504,10.2831 3.7307,2.32327 24.7641,15.15963 25.26004,15.33214 0,0 0.92275,1.5525 0.59883,3.63382 -0.45602,2.93016 -2.38214,7.1827 -2.78207,8.37747 -1.49492,4.4659 -3.09028,4.24964 -3.72583,10.49254 -0.38371,3.76912 0.41499,6.20817 1.55982,7.89197 1.30801,1.92379 3.5995,5.74594 5.46554,10.28178 2.57159,6.25088 4.64137,13.67345 4.98538,17.68887 1.60483,3.08255 0.30313,14.4381 0.32818,14.52175 0.50381,1.68274 -7.51729,30.39039 -7.44123,30.07642 0.20872,-0.86159 -0.681,2.32777 -0.76327,2.60272 -0.52273,1.74706 -1.84812,5.27109 -1.96078,5.63155 -0.40367,1.29151 -1.97171,4.23565 -2.08503,4.57739 -0.15962,0.48139 -1.63216,3.12669 -1.50023,2.89194 0.0556,-0.099 -0.49405,0.9207 -1.037,1.8783 -0.47852,0.84397 -1.04455,1.69078 -0.99405,1.62982 0.4297,-0.51862 0.7867,1.93859 1.2821,2.32851 0.37409,0.29444 1.32075,0.73992 1.84356,0.94487 0.79612,0.31211 1.25052,0.4497 1.34375,0.45504 0.64553,0.11208 1.38434,0.12563 1.62117,0.0844 0.56164,-0.0977 0.98364,-0.1585 0.92352,-0.58616 0,0 -0.0635,-0.6164 0.0344,-0.91637 0.10578,-0.32405 0.20406,-0.65071 0.41336,-1.01274 1.60472,-3.92526 0.78416,-1.52855 2.09943,-4.61242 0.80792,-1.52589 1.71899,-3.21344 2.6631,-5.23499 0.51782,-1.89683 1.12966,-3.78753 2.2605,-6.72339 2.24974,-5.13168 2.20373,-4.65657 3.39049,-8.41567 2.87015,-12.09426 2.8155,-12.84642 4.14935,-21.52619 0.57853,-5.45353 1.64351,-11.55672 0.70358,-18.17604 -2.1129,-14.87981 -2.84513,-18.57253 -6.1788,-29.22593 -1.55554,-2.34753 -1.74659,-2.89875 -2.70279,-5.89135 -0.24114,-0.75471 0.20358,-3.48511 0.45556,-4.15967 1.89081,-5.06173 3.41256,-7.18823 3.60172,-7.93017 0,0 0.1762,-2.17781 0.72008,-5.06301 0.64853,-3.44038 1.60161,-6.84213 1.81876,-8.6001 0.005,-2.13915 -0.68194,-3.65148 -0.17429,-4.2385 0.42299,-0.48912 1.82282,-0.24751 3.7711,-0.0147 3.75791,0.89022 5.53766,2.7563 5.53766,2.7563 2.45589,2.17821 2.3331,6.71338 1.9087,7.91485 -1.56804,4.4391 -1.10667,4.47437 -2.18517,7.98618 0,0 -1.81619,8.97936 -1.95498,10.87666 -0.51064,6.98036 0.9105,15.74557 0.43267,11.60695 -0.66714,-5.77813 1.8541,12.73931 2.57133,17.43307 1.19328,5.90848 5.18527,31.73904 6.05003,36.44779 0.28774,1.56676 1.11185,10.06796 2.94577,20.01466 0.24044,7.13962 0.34185,12.3258 0.38089,13.00519 0.0447,0.77795 0.12808,2.60665 0.12857,2.88866 0.004,2.34452 0.14343,3.33911 0.17861,3.51372 0.23381,0.77685 1.05324,0.94548 1.05324,0.94548 0.90628,0.0577 1.04317,-0.0827 1.58278,-0.092 0.19434,-0.003 0.42957,-0.28002 0.61929,-0.67043 0.86034,-2.09742 1.39289,-3.81304 1.48651,-4.43117 0.37307,-0.63042 1.06683,-6.10869 0.97103,-9.99082 0.0209,-4.57747 -0.21128,-6.13431 -0.52784,-8.89246 -0.29277,-3.37098 -0.64887,-5.43849 -1.09863,-8.63891 -0.39245,-3.54084 -0.56113,-5.20015 -1.52811,-13.73911 -1.42874,-12.61657 -4.18746,-28.3245 -4.63501,-30.35163 -0.98386,-9.78046 -2.70457,-21.85262 -3.06615,-25.74317 0.45521,-3.61449 0.35438,-2.0104 0.41851,-5.81839 0.42778,-1.27659 1.99465,-11.91516 2.8189,-18.40479 0.36567,-2.87904 0.61091,-4.43469 0.7909,-5.00403 1.585,-5.73956 2.64897,-5.56982 3.10208,-7.37815 0.80714,-2.69566 5.35363,-3.3514 7.34419,-3.80951 2.25173,-0.67837 10.32456,0.0485 15.71896,-0.10757 5.28414,-2.72807 9.92299,-2.34561 19.91084,-4.53042 3.29842,-1.2043 8.75253,-3.52128 11.16283,-5.72464 -0.29198,-4.36386 -0.528,-6.02406 -0.94954,-8.28279 3.03479,5.40713 6.31973,5.72464 9.43371,6.55224 3.95682,1.05161 7.97248,1.88035 14.50842,3.58265 l 9.53517,4.63137 c -0.0335,3.15203 14.51037,6.98526 14.50007,10.13744 -10e-4,1.83536 -8.24421,0.74613 -9.59129,4.28993 -1.16409,3.06243 -1.03857,7.11411 -1.0967,8.69939 -3.66745,4.34327 -12.19986,27.85596 -9.67384,37.12123 5.17381,10.62486 6.76799,14.89385 14.47369,28.27587 4.34412,7.54418 16.35388,12.55826 17.7508,20.73952 5.25323,9.90241 0.0615,6.97947 -4.19319,8.24472 -5.31228,0.59402 -9.59574,8.38624 -10.66975,12.68972 -0.81271,3.85416 -1.8448,8.47823 -2.14483,13.99825 0.8743,9.84281 0.9989,22.04528 0.70064,24.18357 0.84672,5.86563 0.5232,13.5649 -1.53772,30.41068 -4.48454,27.40153 -14.622,76.23858 -15.31565,78.5801 -0.79574,2.68615 -18.14231,33.1675 -19.22759,25.5718 0,0 -20.65014,-12.09902 -27.84815,-11.83367 1.33924,-1.00307 8.51446,1.30135 10.35081,-1.30389 0.79548,-1.12855 6.30353,-1.44901 7.25721,-3.47246 0.68572,-0.65803 2.45528,-4.63249 3.26598,-7.39358 1.24574,-4.24275 3.0809,-13.62209 2.24467,-17.45457 -0.38444,-1.76191 -1.0808,-7.47438 -3.18484,-11.77292 -1.37028,-4.84986 -2.13391,-6.3274 -4.2082,-13.03056 -3.62835,-7.19795 -2.47763,-5.83335 -4.91041,-11.00617 -0.52527,-1.11688 -0.8714,-4.4032 -3.11406,-11.02528 -0.89548,-2.64413 -4.9719,-18.15823 -6.14249,-22.53751 -0.70516,-2.88884 -3.46129,-13.73457 -3.46129,-13.73457 l -0.0794,-4.50432 c -17.36552,-0.33436 -18.15314,-0.19966 -23.33684,-0.0892 -5.8708,0.39977 -4.4672,0.34693 -17.03778,1.13479 -13.14171,-0.24679 -18.24447,-0.5493 -29.43362,-0.65354 -3.09925,-0.0191 -9.18397,-0.28495 -12.28318,-0.26965 -2.2346,0.008 -3.21688,-0.23756 -5.45159,-0.25386 l -4.39029,0.0401 c -12.00799,-0.0856 -16.9807,-0.11934 -23.81079,-0.49223 -1.56348,3.57642 -1.13214,2.50839 -4.23514,7.94184 -3.98924,5.89102 -6.23079,9.73605 -8.29615,12.6996 -4.22756,6.06606 -6.57441,12.32937 -10.65333,24.48127 -2.27994,4.89038 -3.5875,4.68804 -5.35746,9.72259 -0.60494,7.33138 -0.17325,8.03496 -0.75602,16.98215 -0.13792,2.11745 1.55973,8.10207 2.65362,13.14196 2.83974,6.89118 7.68146,16.47869 12.32168,23.45325 3.95549,4.38538 7.32636,4.95448 14.38691,8.54003 4.76572,2.42016 9.75243,3.15995 16.02645,5.58038 2.68585,1.53517 -39.89202,-1.32137 -45.818,-1.01915 -7.15932,-13.53694 -10.60937,-29.32309 -11.26264,-34.93619 -1.79969,-15.46336 -2.87385,-43.98305 -4.62527,-60.82185 -0.0785,-2.15295 -0.31158,-21.05684 -0.70103,-23.18276 0,0 0.29688,-11.49562 0.0238,-13.54672 0.32445,-7.78528 2.85156,-11.90941 3.28388,-18.28841 -0.54916,-2.47059 0.27272,-16.27076 -0.31109,-18.73522 1.65376,-8.26946 0.15322,-9.15491 -0.44026,-11.70292 -0.51787,-2.62125 13.62539,-9.83932 12.62141,-12.33116 -1.68062,-4.12934 6.12305,-32.50652 4.40763,-36.62494 -1.98522,-4.00368 0.3722,-9.37399 -1.2792,-13.52958 -4.73803,-11.54645 -0.13997,-10.39091 -6.43697,-18.67316 -4.20031,-5.52453 -3.11657,-11.80623 -4.22397,-13.10336 -2.78548,-3.26274 -2.88726,-6.06037 -4.68215,-9.008 -2.60347,-4.27554 -6.19609,-8.22321 -6.19609,-8.22321 15.41836,-3.9322 8.46981,-2.42195 9.96971,-3.1149 z"
       id="path3360"
       style="fill:#ffff00" />
    <path
       style="fill:#000080"
       id="path3362"
       d="m 242.57238,170.35276 c 2.84152,-0.8298 7.6583,6.97698 11.77423,17.45616 3.0897,7.86638 5.98145,12.82115 7.2924,17.44924 1.50976,5.05773 5.30513,8.98319 4.72053,17.27261 -0.4468,6.33545 0.43334,8.01504 0.20742,15.08288 -0.13776,4.30953 -2.10808,15.04622 -3.1099,21.83801 0,0 -0.0913,9.58471 -1.72228,11.50586 -3.32838,3.92053 -10.52131,8.09274 -12.52533,9.50548 -1.86245,1.27545 -4.52979,5.75203 -9.48911,11.70867 -1.32364,1.09438 -4.33306,-1.6213 -7.978,1.10231 -11.14192,8.32559 -28.26904,24.24309 -31.61551,26.63163 -3.75922,2.75672 -22.93602,9.42089 -33.92941,12.60844 -2.89388,1.73508 -22.57376,5.934 -25.51493,7.58665 -19.11902,6.01124 -23.28253,2.97802 -40.33493,10.46653 -12.308165,3.28291 -18.578707,3.65949 -19.529143,4.03352 -1.530801,0.13328 -3.275571,0.86618 -18.978268,2.85359 -1.666082,0.21087 -14.864509,0.2763 -18.097341,-0.67665 -1.999184,-5.97238 -6.736638,-16.05916 -8.179513,-20.02572 -5.751556,-10.82672 -1.964467,-4.97614 -5.617818,-10.04813 l -8.717862,-9.53516 c 1.684429,-0.54664 0.365912,-7.78557 2.029483,-8.39347 12.325302,-10.71138 11.476619,-10.94639 19.558196,-17.85414 9.334286,-7.32076 16.227862,-15.07103 24.862426,-22.05415 5.99645,-1.66139 12.99899,-7.91404 18.244855,-12.48058 5.245865,-4.56655 9.189084,-8.31501 14.070064,-9.9802 22.255001,-12.92857 18.343681,-11.00064 35.791981,-20.96358 7.61684,-5.32929 17.78864,-11.12403 25.14291,-15.29422 3.54527,-3.42116 41.56397,-18.67918 44.79673,-22.40031 0,0 16.15306,-10.23895 24.93173,-13.91536 3.81684,-1.59845 11.91639,-3.47991 11.91639,-3.47991 z"
       inkscape:connector-curvature="0"
       sodipodi:nodetypes="sscscscccscccccsccccccczcccccs" />
    <path
       style="fill:#000080"
       id="path3366"
       d="m 492.74578,188.12543 c 3.25824,3.06711 44.95678,12.38503 48.35347,15.29296 1.9444,2.03214 3.44222,4.42701 5.15425,6.64874 2.01636,2.21512 4.43394,3.98164 6.68316,5.94134 2.00282,2.10177 4.23006,3.96367 6.30188,5.99269 2.24978,2.51109 4.38161,5.12316 6.5849,7.676 2.18921,2.56968 4.4155,5.11121 6.55363,7.72381 1.51897,2.11609 3.23633,4.09064 5.00616,5.99943 1.58421,1.6699 3.33181,3.17644 4.8817,4.87807 1.76558,1.45493 3.5083,2.92993 5.01462,4.65587 1.93549,2.14435 3.77417,4.3725 5.71041,6.51698 1.82907,2.40098 3.68406,4.75932 5.6891,7.0172 2.59076,2.82899 5.44439,5.40914 8.20958,8.06932 2.73562,2.45868 5.39992,4.99045 8.18098,7.39864 2.41643,2.40977 4.78533,4.85977 7.22504,7.24716 2.38649,2.52214 7.45819,7.5188 9.7461,10.12938 1.69302,2.00552 20.31261,20.86034 28.62359,34.43529 1.7085,2.3585 14.76445,21.92226 16.86939,23.91799 1.95602,9.7001 2.74574,-3.61948 -0.54475,17.83101 -4.27942,5.66726 -5.88345,2.84243 -9.00483,7.19593 -1.08287,1.13366 -5.11193,0.54677 -7.81657,2.48095 -3.85036,2.75355 -7.52298,9.04908 -13.75587,8.83444 -4.32561,0.64401 -6.81758,1.03973 -11.37975,1.31572 -6.22931,-1.06978 -22.79096,-6.94819 -38.93225,-14.02718 -17.3,-7.58715 -13.27891,-5.03206 -46.49762,-19.28138 -1.57937,-1.66902 -7.45292,-2.54447 -9.15959,-4.07572 -1.53898,-1.70353 -33.98589,-18.1236 -35.543,-19.81165 -1.76639,-1.9419 -9.51851,-12.25179 -11.03296,-14.39878 -1.34114,-1.69044 -6.52076,-11.42932 -11.60551,-16.64424 -2.83126,-2.90374 -4.15552,-7.38319 -4.94717,-8.2867 -1.13113,-1.33051 2.09373,-7.23802 4.69438,-9.65733 2.37709,-2.21134 1.51258,-1.37858 3.17491,-2.69556 1.67711,-1.09941 3.40828,-2.1758 5.40368,-1.09058 0.55424,0.30143 1.30123,0.30498 1.59008,0.76829 0.47881,0.76802 0.29392,1.96611 0.26387,1.74861 -0.0701,-0.5075 0.48431,0.21799 0.86831,-0.21963 0.67266,-0.76661 0.72486,-1.0729 0.84288,-2.86228 0.39809,-6.24737 -9.17541,-17.09834 -11.21092,-19.3949 -0.6144,0.91462 -4.07278,-4.28698 -12.39043,-15.46618 -3.27183,-2.97617 -7.15402,-12.69238 -10.33439,-20.3992 -2.85389,-2.43729 -1.71983,-14.16009 2.40933,-24.16639 1.43035,-3.4662 2.66061,-7.00973 4.10196,-10.00581 1.03263,-2.14646 1.69111,-3.07671 2.37543,-3.96371 0.0608,-3.04453 0.0878,-4.4566 0.0712,-4.76867 0,0 0.0625,-3.60151 2.29185,-5.52973 0.95955,-0.82992 2.62931,-0.8457 4.64843,-1.30684 1.55332,-0.35476 1.77614,-0.26705 2.4567,-0.47567 1.03941,-0.31863 1.11206,-0.60333 1.14505,-0.69024 0.0895,-0.23572 0.041,-0.28941 0.10808,-0.37378 0,0 -0.23441,-0.55225 -0.75622,-1.10277 0,0 12.46497,9.93825 13.67778,10.9791 z"
       inkscape:connector-curvature="0"
       sodipodi:nodetypes="ccccccccccccccccccccsccsccccscscssssccccssccsssscscc" />
    <path
       style="fill:#800080"
       id="path3368"
       d="m 357.97526,29.198986 c 1.41304,0.940784 0.75962,1.918172 2.06649,4.515101 0.28006,0.556505 1.99775,2.176129 4.28951,3.007356 7.67752,2.784669 13.06614,5.200335 13.51179,6.859016 3.76903,3.731814 10.53037,7.518242 13.95377,14.860396 4.20597,9.020527 4.22425,14.387054 4.14357,25.916362 0.13241,6.627046 0.82008,17.326703 -0.26695,29.927203 -1.10206,5.26038 -3.37192,8.90634 -2.96716,11.50947 0.40037,2.96453 -5.19481,12.50858 -7.01928,16.52106 -1.18714,2.66188 -4.70113,9.86277 -6.17452,12.75392 -0.97741,3.20424 -1.89639,5.64077 -1.86824,6.44048 0,0 -0.0821,1.23437 -1.20154,4.34949 0,0 -6.98011,2.40725 -10.00309,2.75768 -1.1016,0.1277 -3.19653,0.19467 -4.69021,-0.36497 -1.64211,-0.61525 -2.75431,-1.85928 -3.26821,-2.78587 0,0 -1.16223,-2.13433 -2.22217,-4.22846 -1.58571,-3.38382 -1.71755,-3.18132 -3.90301,-7.49862 -5.364,-14.91246 -9.55605,-18.21457 -9.55605,-18.21457 l -1.39664,-5.20127 c -0.88137,-2.23815 -1.29145,-1.87575 -2.08117,-4.64125 -0.11534,-1.31898 -0.28672,-2.1023 -0.18174,-3.4299 0.005,-3.01937 -0.2993,-7.87054 -0.65262,-10.87331 -1.18751,-7.90684 -2.40649,-8.49294 -5.60659,-12.962709 -2.02752,-5.93276 -4.61246,-11.772149 -5.68611,-15.583239 -0.9488,-3.367917 -1.70184,-6.268479 -2.19998,-8.729071 -1.16552,-3.664093 -0.20785,-8.501848 -0.69615,-11.899251 -0.25104,-0.80467 -0.37935,-1.840674 -0.68501,-3.411108 -0.2302,-1.182773 0.29009,-3.482347 0.68834,-4.538837 1.57068,-2.475948 2.259,-4.672439 2.93052,-5.826984 2.96173,-2.419739 4.35661,-4.382346 4.6332,-4.953453 2.98781,-0.56076 2.85229,-0.14215 5.73675,-0.951395 1.30444,-0.365962 1.70016,-0.67314 2.77593,-1.415348 2.60871,-1.785894 0.97309,-2.358931 5.03197,-4.05071 3.64034,-0.853134 5.14335,-0.925055 6.71397,-2.066015 2.45941,-1.786618 4.32138,-3.404819 4.84646,-4.457814 0.21431,-0.513476 1.00417,-1.33338 1.00417,-1.33338 z"
       inkscape:connector-curvature="0"
       sodipodi:nodetypes="csscsccccccssssccccccccsccscccsccscc" />
    <path
       style="fill:#00ffff"
       id="path3370"
       d="m 21.054803,317.58898 c 0.545838,0.50453 2.394671,1.90798 4.495841,4.00056 2.076741,2.06824 4.406665,4.82527 4.839426,5.41806 0.855943,1.15467 4.539587,7.5962 5.042507,8.90751 0.483196,1.09636 4.166282,10.3664 4.529662,11.50291 0.346836,1.03645 1.400409,2.60961 1.966496,4.20498 0.456839,1.28748 0.958003,2.47854 1.285752,3.29784 0.432886,1.20206 -0.02114,0.74488 0.482614,1.92032 0.159229,0.32719 -4.432557,1.55295 -9.924574,2.43021 -12.43029,3.53257 -4.224173,1.24117 -12.845351,3.32435 -5.021284,1.71407 -6.23123,3.18828 -7.545053,1.54461 -0.694219,-1.86447 -1.409169,-4.99943 -2.149996,-6.84318 -2.763112,-5.67078 -2.4679768,-6.9538 -3.2743755,-10.52285 -0.5918857,-0.84199 -2.5015597,-2.72033 -4.1349905,-5.36189 -0.5969729,-0.96542 -1.7316644,-2.17345 -1.0732925,-4.27659 0,0 6.6756683,-6.53236 9.7790495,-9.92692 4.342958,-4.32593 8.526285,-9.61992 8.526285,-9.61992 z"
       inkscape:connector-curvature="0"
       sodipodi:nodetypes="cscccsccccccccccc" />
    <path
       style="fill:#00ffff"
       id="path3374"
       d="m 697.5748,378.51644 c -1.74055,5.15047 -4.68108,9.4367 -9.0032,12.14475 l -11.53463,11.79637 -7.68882,1.07573 -7.79755,-4.82396 c 0,0 -7.53261,-2.7649 -14.94167,-4.33725 -0.0304,-1.15078 -2.03681,0.33453 3.26118,-1.13648 0,0 2.2588,-0.35835 6.25254,-4.2489 6.21944,-8.39746 11.87044,-5.97592 11.87044,-5.97592 2.38104,-3.86642 4.21476,-3.42716 8.36536,-6.07118 0,0 0.81723,-2.11176 1.00664,-3.4714 0.42078,-3.02044 1.92173,-7.56193 1.95961,-10.74233 3.01615,1.92917 6.52951,5.38033 10.0532,8.5652 4.20699,3.80247 8.1969,7.22537 8.1969,7.22537 z"
       inkscape:connector-curvature="0"
       sodipodi:nodetypes="ccccccccccscsc" />
    <path
       style="fill:#00ffff"
       id="path3372"
       d="m 281.21067,463.56614 c 3.6992,0.10862 11.48732,0.97145 15.18778,1.02738 9.301,0.1236 20.50995,0.12562 29.81147,0.0795 5.4581,-0.1117 12.28839,-1.6446 17.74273,-1.9034 4.317,-0.26608 7.68623,0.76951 12.01,0.74779 6.36507,-0.0126 15.99816,0.1733 22.36314,0.1349 4.53341,-1.00969 5.31039,-1.91907 9.16986,-1.92697 3.85401,0.071 13.96434,-3.24602 17.81823,-3.12611 3.42632,0.089 14.95984,0.49049 17.88454,-0.44179 4.9858,-0.97128 5.35783,4.33493 7.18414,4.42928 1.56073,0.32569 2.23256,3.80513 3.81558,4.02907 1.65619,0.18699 4.98599,5.11791 6.65067,5.12617 0.74449,-1.9e-4 0.77184,6.19904 -0.12954,9.63741 -0.97462,3.71777 -1.34731,3.34797 -1.8908,5.65704 -1.25016,2.97334 -2.49254,7.94134 -4.1308,8.82151 -8.8129,0.25283 -8.05812,-0.69379 -16.32776,-3.55018 -4.92091,-3.19669 -5.6262,-6.76744 -24.64743,-8.77878 -5.44803,0.14813 -5.60517,0.246 -16.69513,0.32293 -3.76796,-0.0103 -15.8323,-0.68165 -19.59998,-0.72696 -6.37648,-0.0336 -20.92658,1.06263 -27.30236,1.17323 -4.38333,0.096 -12.85116,1.06322 -17.22877,1.31214 -5.28771,0.14162 -14.394,0.61225 -19.68316,0.67885 -9.37451,-0.0471 -5.94503,1.04814 -15.31905,1.16924 -3.89325,0.0565 -6.15285,-18.42196 -10.04498,-18.31538 l -4.0741,-6.1216 z"
       inkscape:connector-curvature="0"
       sodipodi:nodetypes="ccccccccccccsccccccccccccc" />
  </g>
  <g
     inkscape:label="Layer 1"
     inkscape:groupmode="layer"
     id="layer1"
     transform="translate(0,-552.36216)"
     sodipodi:insensitive="true"
     style="display:inline">
    <image
       sodipodi:absref="F:\DesignMySelf\clothes_raw_model\hoodie_front.png"
       y="553.69946"
       x="1.8684853"
       id="image3344"
       xlink:href="file:///F:/DesignMySelf/clothes_raw_model/hoodie_front.png"
       style="image-rendering:optimizeQuality"
       preserveAspectRatio="none"
       height="494.4404"
       width="694.42706" />
  </g>
</svg>
