<?xml version="1.0" encoding="UTF-8" standalone="no"?>
<!-- Created with Inkscape (http://www.inkscape.org/) -->

<svg
   xmlns:dc="http://purl.org/dc/elements/1.1/"
   xmlns:cc="http://creativecommons.org/ns#"
   xmlns:rdf="http://www.w3.org/1999/02/22-rdf-syntax-ns#"
   xmlns:svg="http://www.w3.org/2000/svg"
   xmlns="http://www.w3.org/2000/svg"
   xmlns:xlink="http://www.w3.org/1999/xlink"
   xmlns:sodipodi="http://sodipodi.sourceforge.net/DTD/sodipodi-0.dtd"
   xmlns:inkscape="http://www.inkscape.org/namespaces/inkscape"
   width="750"
   height="500"
   viewBox="0 0 750.00001 500.00002"
   id="svg2"
   version="1.1"
   inkscape:version="0.91 r13725"
   sodipodi:docname="rug1_back_final.svg">
  <defs
     id="defs4" />
  <sodipodi:namedview
     id="base"
     pagecolor="#ffffff"
     bordercolor="#666666"
     borderopacity="1.0"
     inkscape:pageopacity="0.0"
     inkscape:pageshadow="2"
     inkscape:zoom="0.70710678"
     inkscape:cx="550.76435"
     inkscape:cy="295.92854"
     inkscape:document-units="px"
     inkscape:current-layer="layer1"
     showgrid="false"
     units="px"
     inkscape:window-width="1304"
     inkscape:window-height="746"
     inkscape:window-x="54"
     inkscape:window-y="-8"
     inkscape:window-maximized="1"
     showguides="false" />
  <metadata
     id="metadata7">
    <rdf:RDF>
      <cc:Work
         rdf:about="">
        <dc:format>image/svg+xml</dc:format>
        <dc:type
           rdf:resource="http://purl.org/dc/dcmitype/StillImage" />
        <dc:title></dc:title>
      </cc:Work>
    </rdf:RDF>
  </metadata>
  <g
     inkscape:label="Layer 1"
     inkscape:groupmode="layer"
     id="layer1"
     transform="translate(0,-552.36216)">
    <path
       style="fill:#ff0000"
       id="path3439"
       d="m 383.0832,554.96576 c 1.53007,2.28136 44.96403,30.16776 46.80728,32.17491 7.61554,12.00955 3.17225,4.2943 7.61554,12.00955 1.0908,1.8941 -1.90519,48.42541 -0.12596,49.63947 -0.51761,8.17001 2.25495,31.29665 5.17172,36.87974 l 1.13226,5.89774 1.22185,13.22593 -49.86749,4.18179 c -6.93932,-0.27244 -13.88784,-0.7813 -20.08763,0.0288 -7.85348,-0.35357 -65.21874,-3.83906 -65.21874,-3.83906 0,0 3.93228,-7.91007 5.56403,-16.43181 0.16386,-10.24214 0.79287,-26.22571 1.87087,-35.74408 -0.19382,-14.93477 2.31097,-40.51721 2.67846,-44.09708 0.22249,-2.16717 5.87647,-17.67064 7.17797,-19.00045 l 12.80636,-13.08486 35.942,-21.36171 z"
       inkscape:connector-curvature="0"
       sodipodi:nodetypes="ccscccccccccssccc" />
    <path
       style="fill:#008000"
       id="path3875"
       d="m 269.89059,721.82863 c 2.85751,9.80152 3.34757,12.51495 4.44301,22.98453 -0.26223,10.98811 1.94909,17.29781 1.94909,17.29781 1.16044,13.0286 -1.34798,24.32376 1.35992,45.07395 -0.004,6.17434 -0.64105,7.73038 -1.71542,14.22658 -2.04005,4.1912 -4.32403,6.83035 -7.53159,11.40974 -3.71981,2.55774 -9.10663,3.01889 -9.10663,3.01889 -10.70774,-1.1156 -13.53736,-1.13175 -18.21579,3.31492 l -6.01678,5.94325 c 0,0 -4.12608,0.44482 -17.66551,9.93954 l -21.60721,5.71265 -12.82801,2.75486 c 0,0 -11.43683,3.1129 -33.35475,8.97106 -31.45802,3.17851 -41.56434,4.35476 -78.190387,6.62484 -17.060183,-0.30672 -26.084457,-2.09381 -29.147594,-1.58971 l -3.143625,0.51735 c -9.326196,-8.56709 -12.320631,-20.56691 -12.376163,-21.75362 -0.06373,-1.09047 -3.454073,-3.12327 -6.828966,-9.83794 -0.256884,-0.5111 3.564892,-2.80222 3.564892,-2.80222 0,0 -0.193147,-3.17958 -0.220958,-3.28606 12.324093,-20.65872 9.778556,-19.7493 24.815087,-31.76843 13.725783,-10.97141 21.105016,-13.40818 52.969544,-28.10195 37.17613,-19.03005 29.28025,-16.02058 58.36459,-27.75251 8.58361,-3.46244 14.24965,-4.13251 15.47204,-3.88899 1.18677,-4.5373 38.10315,-17.31644 47.16472,-21.52632 l 20.73947,-9.73393 12.74642,-4.93397 9.75876,-1.95676 z"
       inkscape:connector-curvature="0"
       sodipodi:nodetypes="ccccccccccccccsccsccscscccccc" />
    <path
       style="fill:#008000"
       id="path3877"
       d="m 479.6109,718.18286 c 3.58888,1.00289 13.86149,6.85722 19.19418,7.61542 5.97416,0.84941 2.36072,0.24712 5.97416,0.84941 6.07419,2.96788 7.64585,3.46927 13.24858,5.77213 19.43547,8.98778 38.70771,19.98103 58.53014,27.1251 44.64225,26.57912 106.74787,49.85327 151.57602,85.41942 l -1.75817,6.07956 -2.80007,5.26459 -0.70499,16.0675 -3.36172,12.00352 -4.54247,8.35074 c -2.63604,-0.0547 -8.35084,-1.16969 -15.02806,-0.80082 -12.33644,0.68151 -28.18861,2.56252 -38.65703,0.46364 -9.97514,-2.05496 -35.57831,-6.04719 -69.09818,-10.97294 -37.9626,-7.94818 -58.76165,-12.27641 -65.54901,-15.00767 -4.02177,-1.44706 -4.25574,-2.05258 -6.55026,-2.31069 -2.6278,-0.59322 -8.34871,-3.32969 -9.75718,-4.78138 -3.22294,-1.08233 -2.15875,-0.88212 -12.93751,-6.39201 -5.04102,-3.74439 -7.44578,-0.6378 -10.43707,-2.8787 -1.3928,-1.04102 -6.1647,-6.82811 -7.01041,-24.66103 -1.29077,-27.21725 -0.42113,-74.0265 -1.58336,-86.21895 z"
       inkscape:connector-curvature="0"
       sodipodi:nodetypes="cscccccccccscccccccscc" />
    <path
       style="fill:#008080"
       id="path3879"
       d="m 390.80407,708.28749 c 23.79837,-0.8894 54.09019,-3.57171 54.09019,-3.57171 1.31308,5.61273 8.4644,6.69159 14.61755,9.48477 11.74894,1.07941 20.28606,4.13668 20.28606,4.13668 -0.96434,7.34746 -1.17069,30.80904 -0.75613,35.90458 0.8292,4.23181 -0.0565,43.64838 0.44177,47.92945 0.39689,3.09992 -0.99723,12.62827 2.3062,29.23684 0.36021,2.72327 -0.45064,5.54009 0.20222,8.53538 1.29056,5.92108 5.6075,10.74283 5.6075,10.74283 0.25689,4.40795 1.20704,27.1602 1.22847,31.57492 -1.37414,9.56692 0.70671,15.81093 -0.94559,23.56511 -0.7634,3.91927 -5.73417,19.77708 -9.60667,44.84616 -3.59631,15.07381 -4.44996,17.97964 -4.46326,19.6373 -1.16405,7.0112 -2.92244,14.96699 -4.86854,22.36532 -0.89688,5.58565 -1.58759,4.51818 -3.91352,11.25818 -3.27706,5.7358 -5.73263,5.9171 -7.33441,11.4163 -1.98949,2.3502 -1.5,2.125 -5.70027,6.7057 -18.896,-3.4905 -27.50853,-5.8146 -41.75253,-5.18 -13.498,-0.966 -12.577,0.01 -47.50572,-4.0482 l -32.9923,0.2156 -60.73745,7.7348 c -1.80085,-3.117 -2.16641,-10.9077 -3.02533,-24.68154 9.8e-4,-1.8856 -1.48023,-6.93231 -1.48823,-8.81789 0.002,-2.01501 -3.58401,-21.35977 -4.99049,-24.25088 0.22031,-7.57271 -2.754,-18.37459 -2.67855,-20.81753 -0.26727,-9.3245 -0.0698,-11.52812 -0.74305,-16.66652 -1.71939,-10.43751 -1.48317,-27.83145 -1.63685,-32.94995 -0.0474,-1.62114 -0.01,-9.50772 -0.19353,-11.12056 -0.29055,-2.50389 1.01476,-8.11465 1.12293,-10.64433 0.0425,-4.28226 5.67712,-23.41384 5.65097,-27.69644 -0.012,-2.42243 -0.47817,-7.22501 -0.47817,-7.22501 1.62084,-1.20832 3.81458,-0.70708 7.27159,-3.16765 2.1982,-2.13052 3.44145,-3.60589 5.19826,-6.68854 1.22268,-2.14543 1.59463,-2.17483 3.0125,-5.08443 0.33567,-0.68882 -0.0173,-0.0444 0.0394,-0.66595 0.0812,-0.88952 0.47756,-2.93053 0.47756,-2.93053 0.69032,-2.54603 0.83988,-4.31395 0.99429,-9.51605 -0.2614,-3.12391 -0.69148,-8.19507 -1.0349,-11.31227 -0.0951,-5.72128 -0.99975,-38.19044 -1.84414,-42.4222 -0.90303,-4.91725 -0.70598,-6.29932 -0.52871,-9.51642 -0.51375,-4.81605 -4.51946,-21.58151 -5.70873,-26.28787 -0.75356,-1.72174 -3.12353,-7.54729 -3.12353,-7.54729 0.13457,-0.73316 9.89602,-2.16679 11.49427,-3.5871 2.61866,-2.32711 8.58076,-3.17281 13.48805,-2.97827 3.45102,0.13681 7.98286,1.8529 9.91981,1.89255 5.24229,1.09856 8.54336,1.99203 9.46182,-1.06529 l 42.63945,2.50795 z"
       inkscape:connector-curvature="0"
       sodipodi:nodetypes="cccccccsccccccccccccccccccccccscssssccccccsscccc" />
    <path
       style="fill:#800080"
       id="path3883"
       d="m 293.26708,1017.5554 c 5.88055,-0.4491 8.27158,-0.9131 13.00193,-1.5835 9.40983,-1.1433 14.7133,-2.4881 23.31807,-2.966 4.78257,-0.2809 17.13227,-0.1497 21.92227,-0.2272 2.98135,-0.033 8.21395,-0.222 11.19501,-0.148 2.72864,0.097 21.72656,2.2082 24.40183,2.7145 2.81412,0.5915 9.45843,0.6118 12.32086,0.883 2.41598,0.2082 9.76498,0.4926 12.188,0.5055 1.88608,-0.045 9.05159,0.088 10.92883,0.2685 0.59505,0.074 2.76292,-0.036 9.5729,1.1452 7.34237,1.2739 19.36302,3.8482 19.99187,3.995 -0.45358,1.9869 -3.04937,10.96 -5.9842,17.6344 -2.88061,6.5511 -6.54809,12.503 -6.46791,12.5265 l -15.05572,-7.2511 -7.84624,-3.4064 c -10.55204,-0.3157 -25.64174,-1.8601 -25.64174,-1.8601 -1.18229,-0.2874 -3.57687,-0.446 -4.77989,-0.626 -1.85178,-0.1865 -4.27966,-0.6433 -6.13999,-0.6274 -2.40723,-0.026 -5.28438,0.052 -7.68278,-0.1676 -2.86675,-0.3052 -5.06731,-0.1353 -7.07936,-0.09 -2.66365,-0.5013 -5.46201,-0.4906 -8.17965,-0.5653 -2.94716,-0.061 -5.57232,0.034 -9.51996,-0.036 -4.68647,0.041 -8.87423,0.081 -13.55701,0.2788 -8.54041,0.335 -7.63994,0.084 -16.18015,0.4241 -2.89859,0.1307 -12.54832,1.4462 -15.44549,1.6053 -2.19602,0.1205 -18.54235,5.8926 -20.74126,5.9629 l -5.03261,-13.9775 -7.71028,-11.393 z"
       inkscape:connector-curvature="0"
       sodipodi:nodetypes="cccccccccscsccccccccccccccccc" />
    <path
       style="fill:#800080"
       id="path3885"
       d="m 16.898174,847.49666 c 1.110191,-1.15352 2.951268,-1.15923 2.951268,-1.15923 1.137171,0.12017 4.443654,6.49132 5.066832,7.46626 1.011469,0.74988 1.627052,1.7902 1.908601,2.72841 0,0 0.45183,0.76801 0.647286,2.21632 0.591209,1.24942 2.999295,7.79847 3.630791,9.02808 2.25868,3.07322 2.736014,4.04554 6.553923,8.33117 l -8.165883,3.58936 -7.689787,4.77297 c -3.169082,0.84464 -6.318916,1.6696 -6.771259,0.80188 -0.601786,-1.24947 -2.423222,-2.50608 -3.017105,-3.75939 -0.670903,-1.41865 -2.965661,-4.67748 -3.867169,-5.96776 -1.499567,-2.17992 -3.092795,-1.35056 -4.549738,-3.55944 -0.596538,-0.88691 0.095104,-3.81026 -0.5538602,-4.651 -0.7438718,-0.9637 -4.1662011,-6.43431 -1.5669524,-10.08674 z"
       inkscape:connector-curvature="0"
       sodipodi:nodetypes="cscccccccccccscc" />
    <path
       style="fill:#800080"
       id="path3887"
       d="m 737.43499,856.15976 c 5.5363,5.64788 2.33857,3.78237 7.21127,7.55691 4.995,3.90376 3.45195,3.21103 3.46495,5.36477 0.0107,1.69556 -0.0421,9.58237 -0.0207,11.27785 -0.20284,4.18698 -1.20462,4.25907 -2.14543,5.44935 -1.24392,1.99292 -0.36042,1.25528 -1.68932,3.25597 -2.86202,3.59628 -1.54847,1.78132 -3.94505,5.60555 -0.54413,0.90146 -2.77203,1.84851 -5.10108,2.41546 -1.75859,0.85765 -2.65269,0.52116 -3.16992,1.02098 0,0 -0.90938,2.21885 -0.98842,2.28971 l -9.26145,-0.29084 -0.80438,-2.39017 c -5.2951,-0.0686 -5.75108,-1.94972 -5.67113,-2.01833 0.54381,-0.46854 -1.13888,-1.97584 -0.75475,-2.58542 0.58235,-0.87411 0.29936,-0.58684 0.80403,-1.5097 0.3529,-0.60288 0.57903,-0.11332 0.85143,-0.76138 0.22313,-0.64118 0.33714,-0.87725 0.67116,-1.48012 0.279,-0.61332 1.03816,-2.06084 1.17357,-2.71788 0.26678,-0.98497 1.3348,-1.43998 1.53137,-2.44185 0.22759,-1.26561 0.71033,-2.59935 1.05791,-3.83736 0.349,-1.27757 0.78238,-2.75171 1.09959,-4.0372 0.22537,-1.09941 0.7811,-3.01909 0.97467,-4.1246 0.0966,-1.10151 0.5806,-8.21141 0.53707,-9.32003 0.0213,-1.7063 0.0212,-4.56179 0.47375,-6.35656 0.0122,-2.15569 3.0112,-6.02518 3.0112,-6.02518 -0.002,-1.74644 0.62672,-3.14067 1.24312,-5.23891 l 4.98204,6.08374 z"
       inkscape:connector-curvature="0"
       sodipodi:nodetypes="cccccccccccccccccccccccccccc" />
  </g>
  <g
     inkscape:groupmode="layer"
     id="layer2"
     inkscape:label="Layer 2"
     style="display:inline"
     transform="translate(0,175)"
     sodipodi:insensitive="true">
    <image
       sodipodi:absref="F:\DesignMySelf\clothes_raw_model\Hoodie.png"
       y="-173.17693"
       x="0.85714793"
       id="image3356"
       xlink:href="file:///F:/DesignMySelf/clothes_raw_model/Hoodie.png"
       style="image-rendering:optimizeQuality"
       preserveAspectRatio="none"
       height="497.53406"
       width="746.85999" />
  </g>
</svg>
