<?xml version="1.0" encoding="UTF-8" standalone="no"?>
<svg
   xmlns:dc="http://purl.org/dc/elements/1.1/"
   xmlns:cc="http://creativecommons.org/ns#"
   xmlns:rdf="http://www.w3.org/1999/02/22-rdf-syntax-ns#"
   xmlns:svg="http://www.w3.org/2000/svg"
   xmlns="http://www.w3.org/2000/svg"
   xmlns:sodipodi="http://sodipodi.sourceforge.net/DTD/sodipodi-0.dtd"
   xmlns:inkscape="http://www.inkscape.org/namespaces/inkscape"
   width="700"
   height="500"
   viewBox="0 0 560 399.99998"
   version="1.1"
   id="svg3336"
   inkscape:version="0.91 r13725"
   sodipodi:docname="rug1_back_final - 副本.svg">
  <metadata
     id="metadata3537">
    <rdf:RDF>
      <cc:Work
         rdf:about="">
        <dc:format>image/svg+xml</dc:format>
        <dc:type
           rdf:resource="http://purl.org/dc/dcmitype/StillImage" />
        <dc:title />
      </cc:Work>
    </rdf:RDF>
  </metadata>
  <sodipodi:namedview
     pagecolor="#ffffff"
     bordercolor="#666666"
     borderopacity="1"
     objecttolerance="10"
     gridtolerance="10"
     guidetolerance="10"
     inkscape:pageopacity="0"
     inkscape:pageshadow="2"
     inkscape:window-width="1304"
     inkscape:window-height="746"
     id="namedview3535"
     showgrid="false"
     units="px"
     inkscape:zoom="4.2646901"
     inkscape:cx="307.72741"
     inkscape:cy="204.81093"
     inkscape:window-x="54"
     inkscape:window-y="-8"
     inkscape:window-maximized="1"
     inkscape:current-layer="surface1033" />
  <defs
     id="defs3338">
    <clipPath
       id="clip1">
      <path
         d="m 235.62109,422.79687 85.11719,-0.35156 0.35156,-132.50781 c 0,-12.40234 3.50391,-14.17188 3.50391,-14.17188 -5.25391,-4.60546 -4.90625,-11.33984 -4.90625,-11.33984 -2.45313,-18.42187 1.05078,-67.66797 1.05078,-67.66797 -25.92187,-2.48047 -59.89844,-10.98437 -59.89844,-10.98437 -3.85547,21.96484 -24.87109,22.32031 -24.87109,22.32031 l -1.05078,0 c 0,0 -21.01563,-0.35547 -24.86719,-22.32031 0,0 -33.98047,8.5039 -59.90234,10.98437 0,0 3.50781,49.2461 1.05468,67.66797 0,0 0.34766,6.73438 -4.90234,11.33984 0,0 3.5,1.76954 3.5,14.17188 l 0.34766,132.50781 85.12109,0.35156 z"
         id="path3341"
         inkscape:connector-curvature="0" />
    </clipPath>
    <clipPath
       id="clip2">
      <path
         d="m 319.85937,196.57812 c 0,0 151.28907,23.15625 153.48438,39.51954 -1.13672,8.47656 -4.59375,33.52343 -5.98828,39.96484 -7.53125,6.84375 -80.28516,3.68359 -119.71875,1.42969 -15.94531,0 -26.48047,-0.0664 -26.48047,-0.0664 0,0 -13.30859,-36.25 -1.29688,-80.84766"
         id="path3344"
         inkscape:connector-curvature="0" />
    </clipPath>
    <clipPath
       id="clip3">
      <path
         d="m 150.75,197.10937 -77.277344,11.27735 c 0,0 -16.535156,27.28906 -16.082031,47.5 7.480469,19.625 80.101565,81.41406 90.058595,76.14453 5.85547,-9.37109 17.09765,-25.26172 22.13672,-33.8125 1.58593,-10.99219 -19.4336,-25.39063 -19.4336,-25.39063 0,0 12.29688,-38.23437 0.58203,-76.07031"
         id="path3347"
         inkscape:connector-curvature="0" />
    </clipPath>
    <clipPath
       id="clip4">
      <path
         d="m 394.16406,495.1875 77.28125,11.27344 c 0,0 16.53516,27.28906 16.08203,47.5039 -7.48047,19.625 -80.10156,81.41407 -90.05859,76.14063 -5.85938,-9.3711 -17.10156,-25.26172 -22.13672,-33.8086 -1.58594,-10.99218 19.43359,-25.39453 19.43359,-25.39453 0,0 -12.29687,-38.23047 -0.58593,-76.0664"
         id="path3350"
         inkscape:connector-curvature="0" />
    </clipPath>
    <clipPath
       id="clip5">
      <path
         d="m 309.29687,720.87109 -85.11718,-0.35156 -0.35157,-132.50781 c 0,-12.39844 -3.5,-14.17188 -3.5,-14.17188 5.25,-4.60156 4.90235,-11.33593 4.90235,-11.33593 2.45312,-18.42188 -1.05078,-67.66797 -1.05078,-67.66797 25.92187,-2.48047 59.89843,-10.98438 59.89843,-10.98438 17.85547,8.71875 35.25391,8.71875 50.78907,0 0,0 33.98047,8.50391 59.89843,10.98438 0,0 -3.5039,49.24609 -1.05078,67.66797 0,0 -0.34765,6.73437 4.90235,11.33593 0,0 -3.5,1.77344 -3.5,14.17188 l -0.35157,132.50781 -85.12109,0.35156 z"
         id="path3353"
         inkscape:connector-curvature="0" />
    </clipPath>
    <clipPath
       id="clip6">
      <path
         d="m 394.16406,495.1875 77.28125,11.27344 c 0,0 16.53516,27.28906 16.08203,47.5039 -24.17968,1.33594 -45.83203,15.55469 -65.52343,21.51953 l -26.80079,0 c -1.30468,-3.13671 -12.73437,-42.8125 -1.02343,-80.64843"
         id="path3356"
         inkscape:connector-curvature="0" />
    </clipPath>
    <clipPath
       id="clip7">
      <path
         d="m 224.91016,494.57031 c 0,0 -151.292972,23.15235 -153.484379,39.51563 1.136719,8.48047 4.59375,33.52734 5.984375,39.96875 7.535157,6.84375 80.289064,3.68359 119.722654,1.42968 15.94531,0 26.47656,-0.0664 26.47656,-0.0664 0,0 13.3125,-36.25 1.30079,-80.84766"
         id="path3359"
         inkscape:connector-curvature="0" />
    </clipPath>
    <clipPath
       id="clip8">
      <path
         d="m 150.15234,272.82812 c 0,0 21.01953,14.39844 19.4336,25.39063 -5.03907,8.55078 -16.28125,24.44141 -22.13672,33.8125 -9.95703,5.26953 -82.578126,-56.51953 -90.058595,-76.14453 -0.453125,-20.21094 16.082031,-47.5 16.082031,-47.5 0,0 69.261714,59 76.679684,64.4414"
         id="path3362"
         inkscape:connector-curvature="0" />
    </clipPath>
  </defs>
  <g
     id="surface1033"
     transform="translate(0,-441.89007)">
    <path
       style="fill:#ffffff;fill-opacity:1;fill-rule:nonzero;stroke:#211e1e;stroke-width:1.45330274;stroke-linecap:round;stroke-linejoin:miter;stroke-miterlimit:4;stroke-dasharray:1.92659549, 1.92659549, 1.92659549, 1.92659549, 1.92659549, 1.92659549;stroke-opacity:1"
       d="m 435.19969,804.93705 -211.28441,0"
       id="path3463"
       inkscape:connector-curvature="0" />
    <path
       style="fill:#ffffff;fill-opacity:1;fill-rule:nonzero;stroke:#211e1e;stroke-width:1.45330274;stroke-linecap:round;stroke-linejoin:miter;stroke-miterlimit:4;stroke-dasharray:1.92659549, 1.92659549, 1.92659549, 1.92659549, 1.92659549, 1.92659549;stroke-opacity:1"
       d="m 435.19969,808.06962 -211.28441,0"
       id="path3465"
       inkscape:connector-curvature="0" />
    <path
       style="fill:#ffffff;fill-opacity:1;fill-rule:nonzero;stroke:#211e1e;stroke-width:1.45330274;stroke-linecap:round;stroke-linejoin:miter;stroke-miterlimit:4;stroke-opacity:1"
       d="M 423.8881,698.26802 438.85017,686.9931 411.2672,638.4919 396.30515,649.76682 Z"
       id="path3467"
       inkscape:connector-curvature="0" />
    <path
       style="fill:#ffffff;fill-opacity:1;fill-rule:nonzero;stroke:none"
       d="m 434.73242,493.44216 96.29458,16.1727 c 0,0 20.60327,39.1484 20.03865,68.14825 -9.32088,28.15367 -99.80876,116.79519 -112.21548,109.22999 -7.30096,-13.44362 -21.30902,-36.24002 -27.58297,-48.50121 -1.97612,-15.7692 24.21479,-36.43055 24.21479,-36.43055 0,0 -15.32223,-54.84476 -0.73007,-109.12352"
       id="path3469"
       inkscape:connector-curvature="0" />
    <g
       clip-path="url(#clip4)"
       id="g3471"
       style="clip-rule:nonzero"
       transform="matrix(1.2460276,0,0,1.4345823,-56.406852,-216.94505)">
      <path
         style="fill:#ffffff;fill-opacity:1;fill-rule:nonzero;stroke:#211e1e;stroke-width:1;stroke-linecap:butt;stroke-linejoin:miter;stroke-miterlimit:4;stroke-opacity:1"
         d="m 458.05312,281.38136 15.83687,-11.71991 -12.05781,-12.54262 -23.49112,16.93644 z"
         transform="matrix(1,0,0,-1,0,841.89)"
         id="path3473"
         inkscape:connector-curvature="0"
         sodipodi:nodetypes="ccccc" />
      <path
         style="fill:#ffffff;fill-opacity:1;fill-rule:nonzero;stroke:#211e1e;stroke-width:1;stroke-linecap:butt;stroke-linejoin:miter;stroke-miterlimit:4;stroke-opacity:1"
         d="m 469.70184,311.00476 18.38649,-23.56071 -4.79782,-7.31193 -66.71239,36.64069 z"
         transform="matrix(1,0,0,-1,0,841.89)"
         id="path3475"
         inkscape:connector-curvature="0"
         sodipodi:nodetypes="ccccc" />
    </g>
    <path
       style="fill:none;stroke:#211e1e;stroke-width:1.33698499;stroke-linecap:butt;stroke-linejoin:miter;stroke-miterlimit:4;stroke-opacity:1"
       d="m 434.73242,493.44216 96.29458,16.1727 c 0,0 20.60327,39.1484 20.03865,68.14825 -9.32088,28.15367 -99.80876,116.79519 -112.21548,109.22999 -7.30096,-13.44361 -21.30902,-36.24002 -27.58297,-48.5012 -1.97612,-15.76921 24.21479,-36.43056 24.21479,-36.43056 0,0 -15.32223,-54.84475 -0.73007,-109.12352"
       id="path3477"
       inkscape:connector-curvature="0" />
    <path
       style="fill:#ffffff;fill-opacity:1;fill-rule:nonzero;stroke:none"
       d="m 328.98556,817.20385 -106.05834,-0.50434 -0.43808,-190.09336 c 0,-17.78658 -4.36108,-20.33072 -4.36108,-20.33072 6.54164,-6.60133 6.10846,-16.26234 6.10846,-16.26234 3.05666,-26.4277 -1.3093,-97.07527 -1.3093,-97.07527 32.29937,-3.55844 74.63509,-15.75799 74.63509,-15.75799 22.24842,12.50776 43.92734,12.50776 63.28459,0 0,0 42.3406,12.19955 74.63509,15.75799 0,0 -4.36596,70.64757 -1.3093,97.07527 0,0 -0.43319,9.66101 6.10846,16.26234 0,0 -4.3611,2.54414 -4.3611,20.33072 l -0.43806,190.09336 -106.06323,0.50434 z"
       id="path3479"
       inkscape:connector-curvature="0" />
    <g
       clip-path="url(#clip5)"
       id="g3481"
       style="clip-rule:nonzero"
       transform="matrix(1.2460276,0,0,1.4345823,-56.406852,-216.94505)">
      <path
         style="fill:#ffffff;fill-opacity:1;fill-rule:nonzero;stroke:#211e1e;stroke-width:1;stroke-linecap:butt;stroke-linejoin:miter;stroke-miterlimit:4;stroke-opacity:1"
         d="m 398.94545,243.59654 -177.87907,0.73969 0.42581,13.92877 175.75,0 z"
         transform="matrix(1,0,0,-1,0,841.89)"
         id="path3483"
         inkscape:connector-curvature="0"
         sodipodi:nodetypes="ccccc" />
      <path
         style="fill:#ffffff;fill-opacity:1;fill-rule:nonzero;stroke:#211e1e;stroke-width:1;stroke-linecap:butt;stroke-linejoin:miter;stroke-miterlimit:4;stroke-opacity:1"
         d="m 397.24219,213.2871 -173.19512,0.73969 -0.59776,16.332 174.99726,-0.52304 z"
         transform="matrix(1,0,0,-1,0,841.89)"
         id="path3485"
         inkscape:connector-curvature="0"
         sodipodi:nodetypes="ccccc" />
      <path
         style="fill:#ffffff;fill-opacity:1;fill-rule:nonzero;stroke:#211e1e;stroke-width:1;stroke-linecap:butt;stroke-linejoin:miter;stroke-miterlimit:4;stroke-opacity:1"
         d="m 395.53893,183.21829 -171.91767,1.10954 0,15.40424 171.06605,0 z"
         transform="matrix(1,0,0,-1,0,841.89)"
         id="path3487"
         inkscape:connector-curvature="0"
         sodipodi:nodetypes="ccccc" />
    </g>
    <path
       style="fill:none;stroke:#211e1e;stroke-width:1.45330274;stroke-linecap:butt;stroke-linejoin:miter;stroke-miterlimit:4;stroke-opacity:1"
       d="m 328.98556,817.20385 -106.05834,-0.50434 -0.43808,-190.09336 c 0,-17.78658 -4.36108,-20.33072 -4.36108,-20.33072 6.54164,-6.60133 6.10846,-16.26234 6.10846,-16.26234 3.05666,-26.4277 -1.3093,-97.07527 -1.3093,-97.07527 32.29937,-3.55844 74.63509,-15.75799 74.63509,-15.75799 22.24842,12.50776 43.92734,12.50776 63.28459,0 0,0 42.3406,12.19955 74.63509,15.75799 0,0 -4.36596,70.64757 -1.3093,97.07527 0,0 -0.43319,9.66101 6.10846,16.26234 0,0 -4.3611,2.54414 -4.3611,20.33072 l -0.43806,190.09336 -106.06323,0.50434 z"
       id="path3489"
       inkscape:connector-curvature="0" />
    <path
       style="fill:#ffffff;fill-opacity:1;fill-rule:nonzero;stroke:#211e1e;stroke-width:1.76615715;stroke-linecap:butt;stroke-linejoin:miter;stroke-miterlimit:4;stroke-opacity:1"
       d="m 326.07979,490.51696 c 21.24575,-0.93023 47.86501,-8.05831 47.86501,-8.05831 l -9.27708,-24.13012 c 0,0 -13.37047,5.06027 -39.30826,5.30124 -25.94757,-0.24097 -39.31804,-5.30124 -39.31804,-5.30124 l -9.27705,24.13012 c 0,0 26.6241,7.12808 47.86498,8.05831 l 0,0.056 c 0.2385,-0.005 0.48186,-0.0223 0.73011,-0.0279 0.23848,0.005 0.48185,0.0223 0.72033,0.0279 z"
       id="path3491"
       inkscape:connector-curvature="0" />
    <path
       style="fill:#ffffff;fill-opacity:1;fill-rule:nonzero;stroke:#211e1e;stroke-width:1.45330274;stroke-linecap:round;stroke-linejoin:miter;stroke-miterlimit:4;stroke-dasharray:1.92659549, 1.92659549, 1.92659549, 1.92659549, 1.92659549, 1.92659549;stroke-opacity:1"
       d="m 435.66209,806.45009 -213.29461,0"
       id="path3493"
       inkscape:connector-curvature="0" />
    <path
       style="fill:#ffffff;fill-opacity:1;fill-rule:nonzero;stroke:#211e1e;stroke-width:1.45330274;stroke-linecap:round;stroke-linejoin:miter;stroke-miterlimit:4;stroke-dasharray:1.92659549, 1.92659549, 1.92659549, 1.92659549, 1.92659549, 1.92659549;stroke-opacity:1"
       d="m 435.03908,803.28954 -213.29949,0"
       id="path3495"
       inkscape:connector-curvature="0" />
    <path
       style="fill:#ffffff;fill-opacity:1;fill-rule:nonzero;stroke:#211e1e;stroke-width:1.45330274;stroke-linecap:round;stroke-linejoin:miter;stroke-miterlimit:4;stroke-opacity:1"
       d="m 22.55041,609.7498 17.682883,-3.04847 -7.456696,-57.33286 -17.682884,3.04849 z"
       id="path3497"
       inkscape:connector-curvature="0" />
    <path
       style="fill:#ffffff;fill-opacity:1;fill-rule:nonzero;stroke:none"
       d="m 434.73242,493.44216 96.29458,16.1727 c 0,0 20.60327,39.1484 20.03865,68.14825 -30.12854,1.91651 -57.10798,22.31447 -81.644,30.87153 l -33.39452,0 c -1.62567,-4.49986 -15.86737,-61.41806 -1.27521,-115.69682"
       id="path3499"
       inkscape:connector-curvature="0" />
    <g
       clip-path="url(#clip6)"
       id="g3501"
       style="clip-rule:nonzero"
       transform="matrix(1.2460276,0,0,1.4345823,-56.406852,-216.94505)">
      <path
         style="fill:#ffffff;fill-opacity:1;fill-rule:nonzero;stroke:#211e1e;stroke-width:1;stroke-linecap:butt;stroke-linejoin:miter;stroke-miterlimit:4;stroke-opacity:1"
         d="m 461.65453,336.61855 -3.53289,-54.32986 -17.61561,-5.93526 -0.0997,-0.71349 4.14662,63.86007 z"
         transform="matrix(1,0,0,-1,0,841.89)"
         id="path3503"
         inkscape:connector-curvature="0"
         sodipodi:nodetypes="cccccc" />
      <path
         style="fill:#ffffff;fill-opacity:1;fill-rule:nonzero;stroke:#211e1e;stroke-width:1;stroke-linecap:butt;stroke-linejoin:miter;stroke-miterlimit:4;stroke-opacity:1"
         d="m 488.19346,288.42188 -0.68632,-0.80416 -13.97647,-1.24779 1.74014,41.86301 z"
         transform="matrix(1,0,0,-1,0,841.89)"
         id="path3505"
         inkscape:connector-curvature="0"
         sodipodi:nodetypes="ccccc" />
    </g>
    <path
       style="fill:none;stroke:#211e1e;stroke-width:1.33698499;stroke-linecap:butt;stroke-linejoin:miter;stroke-miterlimit:4;stroke-opacity:1"
       d="m 434.73242,493.44216 96.29458,16.1727 c 0,0 20.60327,39.1484 20.03865,68.14825 -30.12854,1.91651 -52.78015,15.04962 -77.31617,23.60669 l -37.72235,7.26485 c -1.62567,-4.49987 -15.86737,-61.41806 -1.27521,-115.69683"
       id="path3507"
       inkscape:connector-curvature="0"
       sodipodi:nodetypes="cccccc" />
    <path
       style="fill:#ffffff;fill-opacity:1;fill-rule:nonzero;stroke:none"
       d="m 223.83739,492.55676 c 0,0 -188.515197,33.21395 -191.245752,56.68843 1.416384,12.16593 5.723939,48.09771 7.456698,57.33844 9.389012,9.81794 100.042384,5.28443 149.177724,2.05101 19.86831,0 32.99051,-0.0952 32.99051,-0.0952 0,0 16.58775,-52.00362 1.62082,-115.98263"
       id="path3509"
       inkscape:connector-curvature="0" />
    <g
       clip-path="url(#clip7)"
       id="g3511"
       style="clip-rule:nonzero"
       transform="matrix(1.2460276,0,0,1.4345823,-56.406852,-216.94505)">
      <path
         style="fill:#ffffff;fill-opacity:1;fill-rule:nonzero;stroke:#211e1e;stroke-width:0.88437217;stroke-linecap:butt;stroke-linejoin:miter;stroke-miterlimit:4;stroke-opacity:1"
         d="m 167.81093,505.2182 14.20318,71.07713 15.95692,-0.80041 -14.46258,-73.53401 z"
         id="path3513"
         inkscape:connector-curvature="0"
         sodipodi:nodetypes="ccccc" />
      <path
         style="fill:#ffffff;fill-opacity:1;fill-rule:nonzero;stroke:#211e1e;stroke-width:0.83968443;stroke-linecap:butt;stroke-linejoin:miter;stroke-miterlimit:4;stroke-opacity:1"
         d="m 136.43705,510.78958 16.1138,66.98412 16.06677,-1.28884 -14.43505,-69.20797 z"
         id="path3515"
         inkscape:connector-curvature="0"
         sodipodi:nodetypes="ccccc" />
      <path
         style="fill:#ffffff;fill-opacity:1;fill-rule:nonzero;stroke:#211e1e;stroke-width:1;stroke-linecap:butt;stroke-linejoin:miter;stroke-miterlimit:4;stroke-opacity:1"
         d="m 106.68728,323.8601 13.74562,-61.20216 17.74346,-0.0565 -16.47689,65.42912 z"
         transform="matrix(1,0,0,-1,0,841.89)"
         id="path3517"
         inkscape:connector-curvature="0"
         sodipodi:nodetypes="ccccc" />
    </g>
    <path
       style="fill:none;stroke:#211e1e;stroke-width:1.45330274;stroke-linecap:butt;stroke-linejoin:miter;stroke-miterlimit:4;stroke-opacity:1"
       d="m 223.83739,492.55676 c 0,0 -88.15002,15.5309 -144.766719,32.85823 -26.178758,8.01191 -45.61567,16.4079 -46.479033,23.8302 1.416384,12.16593 5.723939,48.09771 7.456698,57.33844 9.389012,9.81794 100.042384,5.28443 149.177724,2.05102 19.86831,0 32.99051,-0.0952 32.99051,-0.0952 0,0 16.58775,-52.00362 1.62082,-115.98263 z"
       id="path3519"
       inkscape:connector-curvature="0"
       sodipodi:nodetypes="cscccccc" />
    <path
       style="fill:#ffffff;fill-opacity:1;fill-rule:nonzero;stroke:#211e1e;stroke-width:1.33698499;stroke-linecap:butt;stroke-linejoin:miter;stroke-miterlimit:4;stroke-opacity:1"
       d="m 222.71304,647.18344 -33.48698,-38.54879 33.39451,0 z"
       id="path3521"
       inkscape:connector-curvature="0" />
    <path
       style="fill:#ffffff;fill-opacity:1;fill-rule:nonzero;stroke:#211e1e;stroke-width:1.38483942;stroke-linecap:butt;stroke-linejoin:miter;stroke-miterlimit:4;stroke-opacity:1"
       d="m 436.02381,626.12479 18.74009,-20.33859 -18.70839,2.10706 z"
       id="path3523"
       inkscape:connector-curvature="0"
       sodipodi:nodetypes="cccc" />
    <g
       class="collar"
       id="g54">
      <path
         d="m 393.10562,58.353823 c -11.26908,-1.290777 -43.68467,-7.571114 -44.79169,-8.678139 -0.27576,-0.275761 9.36955,-26.189838 10.04129,-26.97795 0.11834,-0.138842 2.23717,0.255473 4.70852,0.876255 25.41891,6.385024 60.23664,6.502865 85.94728,0.290888 3.20776,-0.77503 5.92677,-1.297897 6.04223,-1.161926 0.66973,0.788634 10.31033,26.698487 10.03608,26.972733 -1.18877,1.188772 -33.40185,7.333651 -45.78652,8.734114 -6.94606,0.785462 -19.07735,0.759541 -26.19719,-0.05598 z"
         id="path3764"
         inkscape:connector-curvature="0"
         transform="matrix(0.8,0,0,0.79999999,0,441.89006)" />
      <path
         d=""
         id="path3766"
         inkscape:connector-curvature="0"
         transform="matrix(0.8,0,0,0.79999999,0,441.89006)" />
    </g>
    <g
       class="cuff"
       id="g58">
      <path
         d="m 28.997923,207.50128 c 0,-0.45036 -2.119331,-14.87173 -4.506973,-33.2634 -2.387643,-18.39166 -3.937919,-34.63878 -3.647709,-34.88881 0.722344,-0.62233 18.593503,-4.3769 19.022039,-3.94836 0.188922,0.18892 1.459463,14.03722 3.431375,29.76074 1.971912,15.72352 3.820579,30.12562 4.310799,33.22057 0.49022,3.09495 1.034242,6.62327 1.006285,6.62482 -0.02796,10e-4 -3.716296,1.07928 -8.804261,1.98966 -10.773485,1.92768 -10.811555,1.55881 -10.811555,0.50478 z"
         id="path3768"
         inkscape:connector-curvature="0"
         transform="matrix(0.8,0,0,0.79999999,0,441.89006)"
         sodipodi:nodetypes="sssssscss" />
      <path
         d="m 545.70229,305.37711 c 0,-1.06549 0.0216,-1.93725 0.0479,-1.93725 0.0733,0 1.47691,2.5262 1.47142,2.64819 -0.003,0.0588 -0.34558,0.35884 -0.76207,0.66665 l -0.75726,0.55967 0,-1.93726 z"
         id="path3802"
         inkscape:connector-curvature="0"
         transform="matrix(0.8,0,0,0.79999999,0,441.89006)" />
    </g>
    <g
       class="main_body"
       id="g62">
      <path
         d="m 545.30208,205.51491 c -12.30351,-45.25712 -10.99123,-89.73369 -4.39593,-127.01358 0.77706,-4.392347 2.0146,-9.013576 2.43836,-10.587291 0.70826,-2.630276 1.03194,-2.479962 2.67403,-2.142811 0.98248,0.20172 10.87773,1.876776 21.98945,3.722347 11.11171,1.84557 10.86481,1.759467 21.08776,3.41953 8.07038,1.310516 32.59602,5.473056 32.59602,5.473056 0,0 -2.91745,36.857409 -3.99969,57.783969 l -2.81484,54.42846 -22.83218,7.84679 -22.86953,4.36809 -12.04423,2.54659 -11.67385,1.24016 z"
         id="path3772"
         inkscape:connector-curvature="0"
         transform="matrix(0.8,0,0,0.79999999,0,441.89006)"
         sodipodi:nodetypes="cssssscscccccc" />
      <path
         d="m 278.97865,213.14207 c 0.0893,-6.61984 0.95497,-9.66422 1.91857,-13.95178 2.91615,-12.97545 5.09845,-26.93394 6.4897,-41.97256 0.80236,-8.67304 0.78817,-41.43413 -0.0217,-50.29675 -0.87458,-9.570657 -2.61163,-22.284242 -4.4942,-32.707219 -0.88484,-4.898925 -1.88363,-9.57023 -1.78966,-9.664199 0.094,-0.09397 4.45682,-1.006664 8.40557,-1.598324 14.1675,-2.122786 24.33239,-3.796512 42.70381,-7.940583 6.10343,-1.37676 12.08971,-2.973162 13.71729,-2.982458 1.66662,-0.0095 7.67444,1.439007 14.39523,2.871615 33.12568,7.061085 46.51771,7.623022 67.91052,4.451693 18.35918,-2.721616 36.66997,-7.636097 40.62711,-9.546379 2.2098,-1.066769 0.23492,0.133281 19.63319,4.590481 18.81773,4.323808 28.53454,6.231825 44.03051,8.645944 4.87189,0.758991 3.98216,0.261631 9.92939,1.408941 -0.6183,2.554213 -0.84337,3.444326 -1.46413,6.185709 -1.56202,6.898144 -3.76151,20.154711 -4.62165,27.726134 -2.64275,23.262925 -2.01593,53.309005 1.62446,78.240995 1.25948,8.62584 4.51807,26.02706 5.75218,30.7939 0.64906,2.50704 0.85488,2.68708 0.65262,7.15174 l 0.0331,7.62072 -132.48297,0.23448 -133.06917,-0.35172 z"
         id="path3776"
         inkscape:connector-curvature="0"
         transform="matrix(0.8,0,0,0.79999999,0,441.89006)"
         sodipodi:nodetypes="ssssscsscssssscssssscccs" />
      <path
         d="m 237.53833,206.79024 c -0.4691,-3.80412 -21.56267,-129.687884 -21.03288,-130.198896 0.34037,-0.328308 14.97729,-3.180912 31.45175,-6.339121 22.39641,-4.293467 30.48054,-6.689671 30.99992,-5.849294 0.89991,1.45609 3.78911,15.847907 5.79465,30.078505 2.23402,15.851766 2.11081,59.066596 -0.12764,75.503726 -1.66952,12.25928 -6.61959,36.49101 -7.60387,37.54074 -0.31436,0.33526 -9.14108,0.0932 -19.58692,0.0196 -15.56777,-0.10975 -18.25842,0.12496 -19.77773,-0.11042 z"
         id="path3786"
         inkscape:connector-curvature="0"
         transform="matrix(0.8,0,0,0.79999999,0,441.89006)"
         sodipodi:nodetypes="cssssssscc" />
      <path
         d="m 133.96035,611.25828 c 0,0 -5.06424,-24.41123 -10.02465,-48.55366 -4.96042,-24.14243 -9.7736,-47.00485 -9.70814,-46.32692 0,0 2.41944,-0.43457 9.83285,-2.18083 5.05344,-1.19035 10.85505,-3.39133 10.92656,-3.03215 4.84073,24.31229 18.08805,98.72985 18.08805,98.72985 0,0 -4.22624,0.67877 -8.92225,0.81705 -8.42097,0.24796 -10.19242,0.54666 -10.19242,0.54666 z"
         id="path3788"
         inkscape:connector-curvature="0"
         sodipodi:nodetypes="csssscsc" />
      <path
         d="m 93.928988,612.57908 -16.62882,-85.70987 c 0,0 4.489691,-1.91969 9.048873,-2.93328 l 9.101146,-2.56873 9.287563,43.96208 c 5.13741,24.31761 10.62401,46.5033 10.42885,46.6971 -0.19516,0.19382 -6.1336,-0.10384 -11.09882,-0.19437 l -9.975439,-0.18189 z"
         id="path3790"
         inkscape:connector-curvature="0"
         sodipodi:nodetypes="ccscscscc" />
      <path
         d="m 668.5401,149.26139 c 0.37203,-12.07289 1.05696,-27.57699 1.30182,-34.25685 l 0.51183,-13.96266 5.13944,12.22659 c 7.49255,17.82455 12.95154,42.47235 12.95154,53.62714 0,2.7374 -0.19814,2.05768 -5.94499,2.63228 -3.22415,0.32237 -8.04096,0.95252 -10.01571,1.46755 l -4.65104,1.21303 z"
         id="path3792"
         inkscape:connector-curvature="0"
         transform="matrix(0.8,0,0,0.79999999,0,441.89006)"
         sodipodi:nodetypes="sscsssscs" />
      <path
         d=""
         id="path3794"
         inkscape:connector-curvature="0"
         transform="matrix(0.8,0,0,0.79999999,0,441.89006)" />
      <path
         d="m 678.50732,180.50541 c -1.28966,-0.86448 -4.31937,-2.54449 -6.34759,-3.80238 l -4.66598,-2.89383 5.38002,-1.30244 c 4.10327,-0.99336 14.53873,-1.8936 14.79999,-1.66308 0.54849,0.48395 -5.11716,11.55787 -5.90452,11.5117 0,0 -1.97226,-0.98548 -3.26192,-1.84997 z"
         id="path3796"
         inkscape:connector-curvature="0"
         transform="matrix(0.8,0,0,0.79999999,0,441.89006)"
         sodipodi:nodetypes="sscsscs" />
      <path
         d="m 632.42418,210.47775 c -8.76969,-7.24577 -20.68012,-16.99567 -20.82759,-17.51272 0,0 2.58214,-1.29542 4.40287,-2.00114 0.71045,-0.90736 -1.54838,0.92518 15.57604,-6.31069 5.15269,-2.17725 10.26048,-4.03797 10.34758,-3.77669 0.0871,0.26128 0.92516,1.70904 1.2892,1.56934 0.4027,-0.15453 4.12131,4.17081 11.37102,10.25458 l 12.14326,10.19033 -3.49013,4.21973 c -4.9393,5.97185 -14.12543,16.68196 -14.45557,16.67329 -0.1581,-0.004 -7.587,-6.06025 -16.35668,-13.30603 z"
         id="path3798"
         inkscape:connector-curvature="0"
         transform="matrix(0.8,0,0,0.79999999,0,441.89006)"
         sodipodi:nodetypes="sscsscscscs" />
      <path
         d="m 257.17972,231.03744 -18.71869,-21.7437 19.81522,-0.0203 c 10.12554,-0.0104 18.90494,-0.10818 19.09793,0.0848 0.19299,0.19299 0.42506,10.54399 0.0569,22.23122 l 0.12061,22.83371 -19.50159,-22.30806 z"
         id="path3800"
         inkscape:connector-curvature="0"
         transform="matrix(0.8,0,0,0.79999999,0,441.89006)"
         sodipodi:nodetypes="ccscsccc" />
      <path
         d="m 546.03786,217.86111 -0.0341,-9.02905 8.989,-1.13145 c 4.94394,-0.6223 9.1249,-0.99097 9.29101,-0.81926 0.16611,0.1717 -3.86359,4.74393 -8.9549,10.1605 l -9.25692,9.84831 -0.0341,-9.02905 z"
         id="path3832"
         inkscape:connector-curvature="0"
         transform="matrix(0.8,0,0,0.79999999,0,441.89006)" />
    </g>
    <g
       class="stripe_1"
       id="g75">
      <path
         d="m 92.852631,212.12179 c -17.860908,-0.60934 -33.103116,-1.83507 -38.398028,-4.55408 l -3.615557,-1.85663 -1.338866,-8.80995 c -0.591765,-3.89391 -2.571402,-18.50496 -4.532307,-34.19011 -2.149035,-17.18999 -3.4165,-27.14639 -3.224428,-29.06712 0.159488,-1.59487 2.707206,-4.80273 5.573241,-6.94184 4.69583,-3.5048 9.787534,-6.16915 18.708695,-9.99422 7.223791,-3.09729 29.1942,-10.85845 29.551367,-10.47289 0.09077,0.098 4.684752,23.92973 10.208832,52.19948 5.52409,28.26974 10.25539,52.94265 10.44746,53.581 0.3217,1.06925 -0.69084,0.54381 -8.82778,0.42081 -4.8578,-0.0734 -9.601661,-0.31456 -12.728774,-0.31449 z"
         id="path3804"
         inkscape:connector-curvature="0"
         transform="matrix(0.8,0,0,0.79999999,0,441.89006)"
         sodipodi:nodetypes="cscssssscscssc" />
      <path
         d="m 143.97769,211.90413 c -0.45261,-1.3653 -23.86817,-111.82046 -23.86545,-112.632789 0.002,-0.66801 21.13815,-6.381323 21.62978,-5.849135 0.34283,0.371108 24.55422,117.630264 24.33334,117.851144 -0.099,0.099 -4.96128,0.19652 -10.66188,0.43174 -8.58869,0.35439 -11.17973,0.97141 -11.43579,0.19904 z"
         id="path3806"
         inkscape:connector-curvature="0"
         transform="matrix(0.8,0,0,0.79999999,0,441.89006)"
         sodipodi:nodetypes="ccsssc" />
      <path
         d="m 192.23323,208.33178 c -0.21949,-0.83606 -5.43274,-28.11176 -11.26551,-60.2116 -5.83277,-32.09984 -10.7531,-60.184453 -10.93406,-60.97729 -0.30664,-1.343493 0.66036,-0.565985 7.79254,-2.224544 4.20893,-0.978767 8.77067,-2.095749 9.88967,-2.284923 l 2.2957,-0.388104 11.34778,63.289551 c 6.17632,34.44696 11.2202,63.32522 11.2202,63.32522 0.33741,0.35695 -4.70724,0.66509 -9.89163,0.84864 l -10.00025,0.35407 z"
         id="path3808"
         inkscape:connector-curvature="0"
         transform="matrix(0.8,0,0,0.79999999,0,441.89006)"
         sodipodi:nodetypes="ssssscscscs" />
      <path
         d="m 279.54387,460.05793 0.0639,-7.63708 10.03715,0.36057 c 8.60583,0.30915 9.48916,0.0201 9.29391,-0.99483 -0.18868,-0.98076 -1.33404,-0.78072 -9.16026,-0.86144 -6.05695,-0.0625 -9.74675,-0.37595 -10.0767,0.13563 -0.26799,0.41551 -0.43322,-20.40111 -0.4388,-46.61739 l -0.0102,-47.90044 47.84062,0.0638 c 52.77162,0.0703 197.81374,1.85232 209.41167,1.86372 l 7.29542,0.008 0,46.01643 c 0,45.12704 -0.29016,46.4462 -0.29016,46.4462 0,0 -2.86014,-0.17235 -2.86014,0.40896 0,0.61477 0.016,1.34708 0.78758,1.34708 0.72954,0 2.03111,-0.15751 2.03111,0.20726 0,0.39596 0.0655,1.81277 0.0655,1.81277 0,0 -3.00792,0.18807 -4.66658,0.0882 -2.15343,-0.12964 -2.16702,-0.0417 -2.36273,0.82859 -0.13749,0.61142 0.35175,1.0633 2.15547,0.96454 2.41739,-0.13235 5.0262,-0.0608 5.0262,-0.0608 0,0 -0.28618,2.94701 -0.25637,5.73465 l 0.0586,5.48162 -131.85809,0.58621 -132.15117,-0.52759 0.18119,-4.35432 z m 54.01612,-4.41906 c 0,-1.04279 -0.90171,-1.15495 -9.28508,-1.15495 -5.70975,0 -9.28508,0.25382 -9.28508,0.65916 0,0.43273 -0.28477,0.43016 -0.82902,-0.007 -0.45597,-0.36666 -3.51507,-0.66665 -6.79801,-0.66665 -3.28294,0 -6.34204,0.29999 -6.798,0.66665 -0.54425,0.43765 -0.82903,0.44022 -0.82903,0.007 0,-0.40534 -3.69257,-0.19019 -9.40231,-0.19019 -8.38338,0 -9.16784,-0.35681 -9.16784,0.68598 0,1.0783 1.73875,1.15495 26.19718,1.15495 24.45843,0 26.19719,-0.0766 26.19719,-1.15495 z m 19.23337,0.0199 c 0,-1.06837 -0.8415,-1.17485 -9.28508,-1.17485 -8.44357,0 -9.28507,0.10648 -9.28507,1.17485 0,1.06837 0.8415,1.17485 9.28507,1.17485 8.44358,0 9.28508,-0.10648 9.28508,-1.17485 z m 19.23338,0 c 0,-1.06837 -0.84151,-1.17485 -9.28508,-1.17485 -8.44357,0 -9.28508,0.10648 -9.28508,1.17485 0,1.06837 0.84151,1.17485 9.28508,1.17485 8.44357,0 9.28508,-0.10648 9.28508,-1.17485 z m 53.05759,-0.0446 c 0,-1.05192 -0.70027,-1.17677 -6.4664,-1.15289 -3.55651,0.0147 -6.83945,0.32248 -7.29542,0.68388 -0.5611,0.44475 -0.82902,0.41652 -0.82902,-0.0873 0,-0.40942 -0.89535,-0.74441 -1.98966,-0.74441 -1.09431,0 -1.98966,0.33499 -1.98966,0.74443 0,0.50894 -0.26224,0.53354 -0.82902,0.0778 -0.45597,-0.36666 -3.51507,-0.66665 -6.79801,-0.66665 -3.28294,0 -6.34204,0.29999 -6.798,0.66665 -0.54425,0.43765 -0.82903,0.44022 -0.82903,0.007 0,-0.40534 -3.57533,-0.65916 -9.28507,-0.65916 -8.38338,0 -9.28508,0.11216 -9.28508,1.15495 0,1.0783 1.73875,1.15495 26.19718,1.15495 24.66865,0 26.19719,-0.0688 26.19719,-1.17967 l 0,-2e-5 z m 19.23337,0.0446 c 0,-1.06837 -0.84151,-1.17485 -9.28508,-1.17485 -8.44357,0 -9.28507,0.10648 -9.28507,1.17485 0,1.06837 0.8415,1.17485 9.28507,1.17485 8.44357,0 9.28508,-0.10648 9.28508,-1.17485 z m 19.23338,0 c 0,-1.06837 -0.84151,-1.17485 -9.28508,-1.17485 -8.44357,0 -9.28508,0.10648 -9.28508,1.17485 0,1.06837 0.84151,1.17485 9.28508,1.17485 8.44357,0 9.28508,-0.10648 9.28508,-1.17485 z m 19.23337,0 c 0,-1.06837 -0.8415,-1.17485 -9.28507,-1.17485 -8.44358,0 -9.28508,0.10648 -9.28508,1.17485 0,1.06837 0.8415,1.17485 9.28508,1.17485 8.44357,0 9.28507,-0.10648 9.28507,-1.17485 z m 53.05759,-0.0199 c 0,-1.04279 -0.9017,-1.15495 -9.28508,-1.15495 -5.70974,0 -9.28507,0.25382 -9.28507,0.65916 0,0.43273 -0.28478,0.43016 -0.82903,-0.007 -0.45596,-0.36666 -3.51506,-0.66665 -6.798,-0.66665 -3.28294,0 -6.34204,0.29999 -6.79801,0.66665 -0.56678,0.45576 -0.82902,0.43116 -0.82902,-0.0778 0,-0.40944 -0.89535,-0.74443 -1.98966,-0.74443 -1.09431,0 -1.98966,0.33499 -1.98966,0.74443 0,0.50384 -0.26792,0.53207 -0.82903,0.0873 -0.45596,-0.3614 -3.7389,-0.66915 -7.29541,-0.68389 -5.76613,-0.0239 -6.4664,0.10097 -6.4664,1.1529 0,1.11084 1.52854,1.17967 26.19719,1.17967 24.45843,0 26.19718,-0.0766 26.19718,-1.15495 z m -217.67486,-3.87889 c -0.18228,-0.94773 -1.43076,-1.10758 -9.32094,-1.19337 -8.36642,-0.091 -9.11047,-0.002 -9.11047,1.09431 0,1.09241 0.78858,1.19338 9.32094,1.19338 8.30477,0 9.29799,-0.1193 9.11047,-1.09432 z m 19.37213,-0.0805 c 0,-1.06837 -0.84151,-1.17485 -9.28508,-1.17485 -8.44358,0 -9.28508,0.10648 -9.28508,1.17485 0,1.06837 0.8415,1.17485 9.28508,1.17485 8.44357,0 9.28508,-0.10648 9.28508,-1.17485 z m 72.15006,0.0694 c -0.17954,-0.93354 -1.46694,-1.09687 -9.31879,-1.18224 -5.8258,-0.0634 -9.11047,0.14526 -9.11047,0.57862 0,0.45555 -0.27174,0.45917 -0.82902,0.011 -0.45597,-0.36665 -3.51507,-0.66665 -6.798,-0.66665 -3.28294,0 -6.34204,0.3 -6.79801,0.66665 -0.56678,0.45577 -0.82902,0.43116 -0.82902,-0.0778 0,-0.40941 -0.89535,-0.7444 -1.98966,-0.7444 -1.09432,0 -1.98966,0.33499 -1.98966,0.74443 0,0.50894 -0.26225,0.53354 -0.82903,0.0778 -0.45596,-0.36666 -3.51506,-0.66665 -6.798,-0.66665 -3.28294,0 -6.34204,0.29999 -6.798,0.66665 -0.55728,0.44813 -0.82903,0.44451 -0.82903,-0.011 0,-0.43336 -3.28467,-0.64198 -9.11046,-0.57863 -7.85185,0.0854 -9.13925,0.24871 -9.3188,1.18225 -0.19065,0.99131 2.83487,1.08317 35.67298,1.08317 32.8381,0 35.86362,-0.0919 35.67297,-1.08317 z m 19.37427,-0.0694 c 0,-1.06837 -0.8415,-1.17485 -9.28507,-1.17485 -8.44357,0 -9.28508,0.10648 -9.28508,1.17485 0,1.06837 0.84151,1.17485 9.28508,1.17485 8.44357,0 9.28507,-0.10648 9.28507,-1.17485 z m 19.23338,-0.0185 c 0,-1.09592 -0.74405,-1.18529 -9.11046,-1.09432 -7.89019,0.0858 -9.13866,0.24565 -9.32094,1.19338 -0.18753,0.97501 0.8057,1.09431 9.11046,1.09431 8.53237,-2e-5 9.32094,-0.10099 9.32094,-1.1934 z m 52.91756,0.0924 c -0.18065,-0.93928 -1.45222,-1.1012 -9.31966,-1.18675 -5.8258,-0.0634 -9.11047,0.14524 -9.11047,0.5786 0,0.45555 -0.27174,0.45917 -0.82902,0.011 -0.45597,-0.36665 -3.51507,-0.66665 -6.79801,-0.66665 -3.28293,0 -6.34204,0.3 -6.798,0.66665 -0.55728,0.44813 -0.82902,0.44451 -0.82902,-0.011 0,-0.43336 -3.28467,-0.64197 -9.11047,-0.57862 -7.86744,0.0855 -9.13901,0.24746 -9.31966,1.18674 -0.19104,0.99331 2.06985,1.08768 26.05715,1.08768 23.98731,0 26.2482,-0.0944 26.05716,-1.08768 z m 19.23465,0.007 c -0.18228,-0.94773 -1.43076,-1.10758 -9.32094,-1.19338 -8.36641,-0.091 -9.11046,-0.001 -9.11046,1.09432 0,1.09241 0.78857,1.19337 9.32094,1.19337 8.30476,0 9.29799,-0.1193 9.11046,-1.09431 z m 19.37213,-0.0991 c 0,-1.09591 -0.6197,-0.85368 -8.98612,-0.7627 -7.89018,0.0858 -9.263,-0.086 -9.44528,0.86176 -0.18753,0.97502 0.8057,0.80416 9.11046,0.80416 8.53237,0 9.32094,0.18919 9.32094,-0.90322 z"
         id="path3810"
         inkscape:connector-curvature="0"
         transform="matrix(0.8,0,0,0.79999999,0,441.89006)"
         sodipodi:nodetypes="ccssssscsccscssscssscscccccssscssssssssssssssssscscssscsssssssccsssssssssssssssssscssssscsssssssssssssssccscscssscsssscsccssssscssscccsscssssssccssssssssss" />
      <path
         d="m 278.95589,321.13349 c -0.002,-3.37414 0.13003,-9.15626 0.1493,-12.22477 l 0.036,-5.73827 111.79089,0.36682 c 61.06598,0.20038 120.71071,0.25207 132.47457,0.48027 l 21.38884,0.41488 -1.00383,10.19364 c 0,0 0.18432,11.58217 -0.0774,12.39056 l -0.0268,0.0829 -132.27646,-0.12435 -131.57179,0 -0.59021,-0.0382 z"
         id="path3812"
         inkscape:connector-curvature="0"
         transform="matrix(0.8,0,0,0.79999999,0,441.89006)"
         sodipodi:nodetypes="cscssccsccccc" />
      <path
         d="m 336.29577,272.9228 -57.61722,-0.6708 0.1658,-2.71175 c 0.14111,-2.30789 0.0534,-9.06817 -0.0607,-12.99942 l -0.22651,-7.80059 103.35719,0.61278 c 56.0252,0.33216 115.32766,0.81386 131.83421,0.64914 l 30.1765,-0.30114 0.0415,12.68859 -0.0829,10.69894 -75.77287,-0.24489 c -42.03972,-0.13587 -101.08493,0.43692 -131.81494,0.0791 z"
         id="path3814"
         inkscape:connector-curvature="0"
         transform="matrix(0.8,0,0,0.79999999,0,441.89006)"
         sodipodi:nodetypes="scsscsscccss" />
      <path
         d="m 547.11678,302.67484 -1.40934,-3.14108 0.0989,-34.40419 0.016,-33.98967 11.88439,-12.92291 c 6.53641,-7.1076 12.42357,-13.14368 13.08259,-13.4135 0.65901,-0.26983 5.97339,-1.38952 11.80972,-2.4882 7.74135,-1.4573 12.94353,-2.89479 19.23338,-5.31463 4.74202,-1.82436 8.9203,-3.31106 9.28507,-3.30376 0.36478,0.007 1.25867,0.46323 1.98643,1.01319 1.03918,0.78529 1.13395,1.11689 0.4415,1.54485 -0.62237,0.38465 4.4475,4.27236 16.53639,14.3574 l 17.50099,14.60003 -4.82399,5.34721 c -7.16186,7.93866 -34.87562,35.37879 -44.4912,43.73192 -17.93799,15.58286 -30.67803,25.09154 -39.44243,29.33375 -7.4111,3.58718 -9.56882,4.78488 -11.7084,-0.95041 z"
         id="path3816"
         inkscape:connector-curvature="0"
         transform="matrix(0.8,0,0,0.79999999,0,441.89006)"
         sodipodi:nodetypes="scccscsscssscssss" />
      <path
         d="m 656.10038,191.88055 c -6.01872,-5.11274 -11.59557,-9.34249 -12.13968,-9.65275 -0.54412,-0.31025 -0.70673,-1.38554 -0.46268,-1.62959 0.45221,-0.45221 16.09173,-5.62377 21.59357,-6.4732 0.71202,-0.10993 1.90657,0.60664 8.11875,4.86995 l 7.63317,4.83621 -4.12334,6.00203 c -4.71315,6.86058 -8.49146,11.66293 -8.92048,11.6496 -0.18239,-0.006 -5.68059,-4.4895 -11.69931,-9.60225 z"
         id="path3818"
         inkscape:connector-curvature="0"
         transform="matrix(0.8,0,0,0.79999999,0,441.89006)"
         sodipodi:nodetypes="scssscscs" />
      <path
         d="m 643.79133,178.01709 c 0.16675,-0.82074 1.0957,-23.80642 2.92132,-48.89128 l 2.8242,-46.220725 3.07451,0.682535 c 1.08136,0.24006 3.5215,0.490333 6.22349,0.955356 l 4.47541,0.770235 2.94525,5.969591 2.86235,6.218298 -1.1256,36.6476 c -0.62666,20.40292 -1.24969,38.03535 -1.39416,38.17982 -0.14447,0.14447 -3.77396,0.85419 -6.63257,1.57716 -2.85862,0.72297 -6.82242,2.04213 -9.66822,2.93148 -6.33304,1.97915 -6.88355,3.03836 -6.50598,1.17993 z"
         id="path3820"
         inkscape:connector-curvature="0"
         transform="matrix(0.8,0,0,0.79999999,0,441.89006)"
         sodipodi:nodetypes="sscsscccsssss" />
    </g>
    <g
       class="stripe_2"
       id="g86">
      <path
         d="m 169.72587,602.28253 c -0.94615,-5.40297 -4.59714,-26.84505 -8.54247,-49.02333 l -8.01966,-45.08171 10.03067,-2.319 c 4.63182,-1.07083 9.08041,-1.95614 9.08041,-1.95614 0.26595,0.55377 5.80484,33.25449 10.48519,61.77312 3.60733,21.98047 6.70465,41.47661 6.48465,41.85511 -0.25444,0.43772 -2.67821,0.57022 -7.4147,0.77978 l -10.96358,0.48505 z"
         id="path3822"
         inkscape:connector-curvature="0"
         sodipodi:nodetypes="sscssscscs" />
      <path
         d="m 314.94472,247.33349 -36.14893,-0.14292 0.46897,-11.6443 -0.23448,-11.99603 133.85662,0.46897 131.51178,-0.35173 -0.35173,12.5644 0,12.32992 -97.4732,-0.65994 C 392.771,247.53759 333.73142,247.40777 314.94472,247.33349 Z"
         id="path3824"
         inkscape:connector-curvature="0"
         transform="matrix(0.8,0,0,0.79999999,0,441.89006)"
         sodipodi:nodetypes="scccccccss" />
      <path
         d="m 309.10965,301.89155 -29.84489,-0.43205 0,-14.38367 0,-13.44575 15.91728,0.0308 c 8.22094,0.0159 67.30893,0.41679 131.68937,0.87421 l 117.29278,0.35772 -0.11724,13.96785 -0.11724,13.96785 -97.24217,-0.42663 c -52.70917,-0.23125 -101.73346,-0.28395 -122.66865,-0.72477 z"
         id="path3826"
         inkscape:connector-curvature="0"
         transform="matrix(0.8,0,0,0.79999999,0,441.89006)"
         sodipodi:nodetypes="ccccsscccscc" />
      <path
         d="m 382.96154,356.0528 c -56.5395,-0.47536 -103.51439,-0.79899 -103.69678,-0.90742 -0.18239,-0.10843 0,-6.89567 0,-13.46154 l 0,-12.76698 132.14655,0 132.31236,0 0.16581,13.92761 0,14.25922 -27.16844,-0.58237 c 0,0 -77.22001,0.007 -133.7595,-0.46852 z"
         id="path3828"
         inkscape:connector-curvature="0"
         transform="matrix(0.8,0,0,0.79999999,0,441.89006)"
         sodipodi:nodetypes="sssccccccs" />
      <path
         d="m 616.87967,181.4568 c -0.006,-4.86917 5.57248,-102.604273 5.86491,-102.878827 0.10583,-0.09935 6.46225,1.0887 13.12415,2.419571 l 12.06125,2.268605 -0.43028,6.533898 c -0.22221,3.374282 -1.2597,20.277363 -2.33996,38.151143 -2.08435,34.48703 -2.82149,51.05435 -2.82149,51.05435 0,0 -3.07692,1.1596 -4.41495,1.67653 -1.92737,0.74461 -7.17619,2.93524 -11.83601,4.37139 l -9.7825,4.13673 0.36807,-5.53647 z"
         id="path3830"
         inkscape:connector-curvature="0"
         transform="matrix(0.8,0,0,0.79999999,0,441.89006)"
         sodipodi:nodetypes="ccscsscssccc" />
    </g>
  </g>
</svg>
