<?xml version="1.0" encoding="UTF-8" standalone="no"?>
<!-- Created with Inkscape (http://www.inkscape.org/) -->

<svg
   xmlns:dc="http://purl.org/dc/elements/1.1/"
   xmlns:cc="http://creativecommons.org/ns#"
   xmlns:rdf="http://www.w3.org/1999/02/22-rdf-syntax-ns#"
   xmlns:svg="http://www.w3.org/2000/svg"
   xmlns="http://www.w3.org/2000/svg"
   xmlns:xlink="http://www.w3.org/1999/xlink"
   xmlns:sodipodi="http://sodipodi.sourceforge.net/DTD/sodipodi-0.dtd"
   xmlns:inkscape="http://www.inkscape.org/namespaces/inkscape"
   width="300"
   height="500"
   viewBox="0 0 300 500.00001"
   id="svg2"
   version="1.1"
   inkscape:version="0.91 r13725"
   sodipodi:docname="basketball_front.svg">
  <defs
     id="defs4" />
  <sodipodi:namedview
     id="base"
     pagecolor="#ffffff"
     bordercolor="#666666"
     borderopacity="1.0"
     inkscape:pageopacity="0.0"
     inkscape:pageshadow="2"
     inkscape:zoom="0.98994949"
     inkscape:cx="-46.81526"
     inkscape:cy="195.9671"
     inkscape:document-units="px"
     inkscape:current-layer="layer2"
     showgrid="false"
     units="px"
     inkscape:window-width="1304"
     inkscape:window-height="746"
     inkscape:window-x="54"
     inkscape:window-y="-8"
     inkscape:window-maximized="1" />
  <metadata
     id="metadata7">
    <rdf:RDF>
      <cc:Work
         rdf:about="">
        <dc:format>image/svg+xml</dc:format>
        <dc:type
           rdf:resource="http://purl.org/dc/dcmitype/StillImage" />
        <dc:title />
      </cc:Work>
    </rdf:RDF>
  </metadata>
  <g
     inkscape:groupmode="layer"
     id="layer2"
     inkscape:label="Layer 2">
    <path
	   class="part_1"
       style="fill:#ff0000;fill-opacity:1;stroke:none;stroke-width:1;stroke-linecap:butt;stroke-linejoin:miter;stroke-miterlimit:4;stroke-dasharray:6, 1;stroke-dashoffset:0;stroke-opacity:1"
       id="path4143"
       d="m 150.62873,108.54332 c -0.0436,0.49188 11.50945,-11.062697 23.00358,-25.955578 5.90899,-7.656241 11.01414,-16.720259 16.16583,-24.386242 8.80642,-13.104427 12.36811,-25.868656 12.34147,-25.435514 -0.14199,2.308692 16.46499,9.807443 32.54789,16.227508 9.13275,3.645666 8.55729,2.699504 19.68014,8.270483 -2.82096,11.749668 -8.60928,45.334503 -5.35745,73.078503 1.72393,14.70821 2.75472,27.80115 6.14966,39.00228 4.32524,14.27055 10.91414,25.15568 10.59355,28.98445 -0.19349,2.31083 -4.16614,51.41283 -4.6518,99.65022 -0.73169,72.67522 1.96197,151.26108 1.67706,154.74316 -11.03355,4.6953 -15.78071,4.85345 -30.62204,6.65676 -16.02052,1.5691 -15.32983,2.31639 -38.35413,3.71589 -17.2169,0.37886 -23.75346,0.74175 -32.63123,0.7213 -8.87776,-0.0204 -8.15424,-0.12723 -20.62018,-0.55085 l -22.69658,-0.27031 -35.892853,-1.7857 c -21.316391,-2.23316 -31.33865,-3.96018 -44.369293,-6.93793 -0.941858,-24.40363 1.567773,-96.7919 0.874225,-158.31209 -0.480324,-42.60642 -3.053514,-83.11566 -4.71682,-99.02714 0.158928,-2.85621 7.114768,-18.04299 11.209573,-32.07472 3.152973,-11.24274 4.033313,-17.3536 4.991514,-23.75939 0.671845,-19.78119 1.336291,-40.35873 1.08236,-52.22834 C 48.712488,71.254148 47.32944,65.017321 45.870214,56.309023 75.602652,45.473234 97.955453,33.703575 97.955453,33.703575 c 0,0 7.141927,15.599745 15.635267,28.328562 3.70066,5.546125 11.46055,16.351888 18.75477,25.355942 9.44662,11.660998 18.28324,21.155241 18.28324,21.155241 z"
       inkscape:connector-curvature="0"
       sodipodi:nodetypes="csssscssssccccccccscccccccsc" />
    <path
	   class="part_1"
       style="fill:#ff0000;fill-opacity:1;stroke:none;stroke-width:1;stroke-linecap:butt;stroke-linejoin:miter;stroke-miterlimit:4;stroke-dasharray:6, 1;stroke-dashoffset:0;stroke-opacity:1"
       id="path4144"
       d="m 113.76263,36.103698 c 2.14267,0.01534 30.30138,0.852703 31.80724,0.947487 2.44611,0.153966 36.61066,-1.71741 41.49531,-1.743354 -2.62967,8.104965 -4.70463,10.597721 -8.60963,18.430165 l -6.43323,8.753146 -8.20749,11.490486 c -4.26189,3.86948 -9.33774,11.334145 -14.03157,17.013694 -1.8286,-0.450151 -14.18656,-19.300121 -16.16226,-21.88426 -1.9757,-2.58414 -7.53431,-10.403743 -9.79988,-14.299567 -7.96267,-11.919618 -9.29697,-14.429983 -10.05849,-18.707797 z"
       inkscape:connector-curvature="0"
       sodipodi:nodetypes="cscccccccc" />
    <path
	   class="part_2"
       style="fill:#00ff00;fill-opacity:1;stroke:none;stroke-width:1;stroke-linecap:butt;stroke-linejoin:miter;stroke-miterlimit:4;stroke-dasharray:6, 1;stroke-dashoffset:0;stroke-opacity:1"
       id="path4146"
       d="m 104.35209,27.397385 c 3.33805,-1.94611 4.25828,-3.088935 5.62905,-3.199574 3.44629,-0.344606 10.47696,0.05414 13.93702,-0.05709 3.47929,-0.08938 7.2273,-0.23021 10.7072,-0.290298 1.43747,0.01851 5.9037,0.08084 7.33498,-0.03222 12.12066,0.342919 11.64127,0.08275 21.09623,0.262139 3.28959,-0.02169 8.84357,-0.427867 12.12191,-0.188373 12.53356,-0.29022 13.21759,-0.749468 16.07122,0.165355 4.03665,1.575389 5.7448,3.461091 6.16974,3.921699 0.45939,0.625556 4.38809,4.249214 4.56633,4.996092 0.2121,0.514733 -1.04287,3.783511 -2.34217,6.862941 -2.68748,5.665798 -1.69772,3.92652 -5.58933,11.527057 -1.56193,2.87093 -2.73012,4.837848 -4.25981,7.148058 -0.94539,1.385614 -2.16229,2.944563 -3.03659,4.376943 -3.24298,4.899726 -6.73542,10.976987 -10.09716,15.424349 -0.64841,0.953538 -1.27733,2.250248 -5.28438,7.187823 -4.08462,4.932377 -4.8089,6.551806 -8.90697,11.040866 -2.31928,2.183366 -7.82644,8.633248 -11.87743,11.845058 -9.54231,-9.869171 -10.76693,-11.313778 -18.46534,-21.557997 -6.48042,-7.785342 -11.66934,-13.816695 -16.66384,-21.285602 -0.88378,-1.365689 -3.44783,-6.14108 -4.44481,-7.422126 -0.86479,-1.132748 -5.10463,-8.185944 -5.75112,-9.452814 -0.7255,-1.432777 -5.957239,-11.831437 -7.336655,-15.194044 5.306845,-1.597289 7.508785,-9.56593 15.728925,2.859589 0.87519,1.356232 2.6835,6.220686 3.43977,7.649449 0.41198,1.706064 3.46896,6.416158 4.58828,7.768008 7.08304,10.285371 9.75453,14.387985 17.8882,25.693873 8.35276,11.356895 6.8031,8.622329 10.24679,12.872124 3.57726,-4.812275 5.12963,-5.891556 9.51268,-11.545286 4.43254,-5.041132 5.99815,-7.380966 13.07898,-16.76924 4.36994,-5.282076 4.91145,-6.59179 6.33964,-8.66227 1.19385,-2.538108 5.48152,-10.023129 5.33407,-10.66296 -0.14625,-0.683426 3.5394,-7.194559 3.10025,-7.750632 -6.93917,0.770055 -7.82775,0.76027 -14.90834,1.048496 -8.30731,0.827186 -10.06034,1.18004 -18.22628,0.948818 -6.70298,-0.09672 -8.26476,0.381075 -13.69507,0.133009 -1.39049,0.08585 -8.3161,-0.373514 -9.70989,-0.446144 -3.41605,-0.0382 -8.17215,-0.572125 -11.58705,-0.461525 -3.53301,0.129208 -1.88291,-0.466936 -5.39355,-0.03391 -1.42433,0.150967 -9.01304,-4.441925 -10.43056,-4.238688 l -5.313461,1.769044 z"
       inkscape:connector-curvature="0"
       sodipodi:nodetypes="cccccccccccccccccccccccccccccccccccccccccc" />
    <path
	   class="part_3"
       style="fill:#0000ff;fill-opacity:1;stroke:none;stroke-width:1;stroke-linecap:butt;stroke-linejoin:miter;stroke-miterlimit:4;stroke-dasharray:6, 1;stroke-dashoffset:0;stroke-opacity:1"
       id="path4148"
       d="m 47.573336,63.58864 c 1.659085,7.157404 2.043566,9.992507 2.517671,14.684188 1.163661,10.201637 0.998927,14.734332 0.933396,22.370732 0.09425,4.96183 0.144337,8.43546 0.08971,12.0959 -0.621056,5.59559 -0.41781,14.16367 -0.561549,19.42014 -0.06517,6.75371 -0.849097,12.85255 -1.728859,16.95411 -0.142706,0.54505 -0.437704,2.45433 -1.746886,8.24427 -0.443874,1.96306 -1.339594,4.26047 -1.93361,7.25267 -1.742041,6.73597 -5.338518,16.82807 -8.087228,23.13 -2.053418,4.70785 -3.342193,9.08897 -3.400669,9.47772 l -7.531284,-9.67278 7.197337,-17.29886 c 0.323282,-1.56464 4.905243,-21.35929 5.322759,-22.90864 0.27414,-6.93016 0.450135,-9.36373 0.516793,-13.9059 0.06358,-2.72395 -0.08375,-5.31751 0.203053,-8.02933 0.230889,-2.72589 -0.09584,-6.8386 -0.186059,-9.57418 0.464068,-9.03639 -0.459996,-11.77212 -0.629275,-15.72066 -0.0047,-1.9429 -0.478647,-7.929982 -0.641399,-9.868181 -0.27288,-2.709066 -0.994589,-11.67042 -1.840875,-14.260108 -0.991347,-3.321353 -2.941168,-12.252793 -3.515873,-15.671062 l 13.507606,-3.791096 c 0,0 0.361231,2.060238 1.515241,7.071067 z"
       inkscape:connector-curvature="0"
       sodipodi:nodetypes="ccccccscsccccccccccccc" />
    <path
	   class="part_3"
       style="fill:#0000ff;fill-opacity:1;stroke:none;stroke-width:1;stroke-linecap:butt;stroke-linejoin:miter;stroke-miterlimit:4;stroke-dasharray:6, 1;stroke-dashoffset:0;stroke-opacity:1"
       id="path4150"
       d="m 263.50566,78.080442 c -2.77358,16.543025 -2.10887,15.433149 -3.39774,33.436918 0.004,3.49313 -0.70822,12.28913 -0.64437,15.78161 0.0867,1.98374 1.21429,15.5889 1.36139,17.56908 0.10703,1.28354 2.00054,12.52511 6.15899,26.48941 2.72606,9.15423 5.77223,15.61121 5.90834,16.44315 l -6.96633,9.17783 c -5.3033,-10.52242 -8.33376,-20.28723 -11.61675,-29.29442 -0.29929,-2.12881 -5.07219,-23.16522 -5.29492,-25.30446 -0.20557,-2.01465 -0.0789,-4.04698 -0.0726,-6.06946 0.0624,-3.52981 -0.90351,-11.10046 -0.90291,-14.63092 -0.0105,-4.19512 0.24654,-5.10682 0.18244,-9.30164 -0.0871,-13.766896 -0.40626,-20.627374 2.31022,-36.843441 0.64512,-2.615185 3.16882,-17.119542 3.60826,-19.774279 l 12.64896,4.642953 z"
       inkscape:connector-curvature="0"
       sodipodi:nodetypes="ccccsccccccccccc" />
    <path
	   class="part_4"
       style="fill:#ff00ff;fill-opacity:1;stroke:none;stroke-width:1;stroke-linecap:butt;stroke-linejoin:miter;stroke-miterlimit:4;stroke-dasharray:6, 1;stroke-dashoffset:0;stroke-opacity:1"
       id="path4152"
       d="m 77.590285,460.67514 c 20.476273,1.47577 26.929495,1.76577 34.108855,1.98674 8.29475,0.54982 16.55582,0.0565 21.44177,0.62441 17.1657,-0.28662 15.45324,0.24162 29.28973,0.23527 2.90339,-0.003 25.62813,-0.51762 28.53147,-0.50672 18.2323,-1.06975 18.48928,-0.75218 27.99641,-2.20548 1.42925,0.0604 15.52026,-1.93992 16.94157,-2.0376 9.60083,-1.19356 10.27862,-1.3413 15.59683,-2.22776 5.31846,-1.04723 10.08185,-3.56648 11.31249,-3.57943 -1.09079,3.73705 -1.08671,10.85203 -1.08671,10.85203 0,0 -10.65143,5.27624 -22.67858,6.60715 -12.02714,1.33091 -23.62492,4.12677 -57.786,6.02476 -17.35104,0.17792 -14.16236,1.3428 -52.08581,0.14545 -17.02896,-0.29412 -25.50291,-0.66977 -42.116096,-3.23502 -3.103187,-0.86082 -10.667614,-0.34073 -15.542507,-1.38703 -5.274722,-0.90849 -31.627705,-6.11077 -33.405085,-7.21299 0,0 -1.755115,-5.50964 -0.339766,-9.97747 7.129635,-0.004 14.14925,2.71913 20.790633,3.69208 6.641384,0.97295 19.030796,2.20161 19.030796,2.20161 z"
       inkscape:connector-curvature="0"
       sodipodi:nodetypes="ccccccccccccccccccc" />
  </g>
  <g
     inkscape:label="Layer 1"
     inkscape:groupmode="layer"
     id="layer1"
     sodipodi:insensitive="true"
     style="opacity:0.6">
    <image
       sodipodi:absref="F:\DesignMySelf\BLK\shadow_mask\basketball_shadow_front.png"
       y="0"
       x="0"
       id="image4144"
       xlink:href="file:///F:/DesignMySelf/BLK/shadow_mask/basketball_shadow_front.png"
       style="image-rendering:optimizeQuality"
       preserveAspectRatio="none"
       height="500"
       width="300" />
  </g>
</svg>
