<?xml version="1.0" encoding="UTF-8" standalone="no"?>
<!-- Created with Inkscape (http://www.inkscape.org/) -->

<svg
   xmlns:dc="http://purl.org/dc/elements/1.1/"
   xmlns:cc="http://creativecommons.org/ns#"
   xmlns:rdf="http://www.w3.org/1999/02/22-rdf-syntax-ns#"
   xmlns:svg="http://www.w3.org/2000/svg"
   xmlns="http://www.w3.org/2000/svg"
   xmlns:xlink="http://www.w3.org/1999/xlink"
   xmlns:sodipodi="http://sodipodi.sourceforge.net/DTD/sodipodi-0.dtd"
   xmlns:inkscape="http://www.inkscape.org/namespaces/inkscape"
   width="300"
   height="500"
   viewBox="0 0 300 500.00001"
   id="svg2"
   version="1.1"
   inkscape:version="0.91 r13725"
   sodipodi:docname="basketball_back.svg">
  <defs
     id="defs4" />
  <sodipodi:namedview
     id="base"
     pagecolor="#ffffff"
     bordercolor="#666666"
     borderopacity="1.0"
     inkscape:pageopacity="0.0"
     inkscape:pageshadow="2"
     inkscape:zoom="0.98994949"
     inkscape:cx="12.127203"
     inkscape:cy="218.32919"
     inkscape:document-units="px"
     inkscape:current-layer="layer2"
     showgrid="false"
     units="px"
     inkscape:window-width="1304"
     inkscape:window-height="746"
     inkscape:window-x="54"
     inkscape:window-y="-8"
     inkscape:window-maximized="1" />
  <metadata
     id="metadata7">
    <rdf:RDF>
      <cc:Work
         rdf:about="">
        <dc:format>image/svg+xml</dc:format>
        <dc:type
           rdf:resource="http://purl.org/dc/dcmitype/StillImage" />
        <dc:title />
      </cc:Work>
    </rdf:RDF>
  </metadata>
  <g
     inkscape:groupmode="layer"
     id="color-layer"
     inkscape:label="Layer 2">
    <path
	class="part_1"
       style="fill-opacity:1;stroke:none;stroke-width:1;stroke-linecap:butt;stroke-linejoin:miter;stroke-miterlimit:4;stroke-dasharray:6, 1;stroke-dashoffset:0;stroke-opacity:1"
       id="path4143"
       d="m 173.89504,39.195839 c 8.3023,-0.640384 23.57958,-1.29252 31.84194,-4.885982 9.38036,5.799474 16.39869,8.136095 29.70664,13.956389 1.40956,0.650424 6.21673,0.768188 9.77812,3.087102 -1.93474,21.265717 -6.24892,49.556572 -6.30593,53.375252 -0.79853,9.29639 -1.70912,20.48719 1.48105,41.58807 6.95446,23.52379 18.46032,43.4506 18.46032,43.4506 0,0 4.17852,7.3191 9.64255,11.48191 -2.36251,19.42453 -4.76719,30.57083 -4.7726,51.32426 -0.0753,19.49665 1.13552,45.15731 0.46514,68.56962 0.32698,15.27284 1.74506,34.81023 0.78021,40.94467 -0.92094,7.24136 -0.6938,39.83552 -1.50115,47.09089 -0.41313,4.73309 0.29354,45.66931 0.14208,47.86733 -15.80882,5.22847 -71.45568,8.92183 -110.05996,8.91736 -29.81133,0.93494 -65.819183,-1.99253 -93.742397,-5.36187 -4.958209,-0.59828 -9.744292,-1.24556 -13.708785,-2.40346 -3.695782,-1.07941 -6.607414,-2.66103 -10.148172,-3.50262 0.226085,-2.2434 0.678934,-25.0055 1.190394,-29.82137 0.77825,-7.20396 1.131502,-33.97796 1.899072,-41.18288 1.210799,-19.34014 0.329313,-39.7523 0.380502,-44.20636 0.35418,-17.52754 0.407339,-35.65267 -1.391048,-56.21523 -3.285269,-37.56341 -5.312285,-46.7838 -5.745325,-82.92675 3.730272,-4.82698 8.423008,-7.53898 12.963295,-19.43738 4.988645,-7.01892 12.080232,-23.52751 13.906585,-37.51391 2.516336,-19.27036 0.588725,-42.49175 -1.202943,-60.546607 C 56.643904,69.636552 56.11023,60.502282 53.92979,52.181308 77.55819,43.850353 84.562337,39.227791 93.01037,35.377839 c 31.1278,4.137143 35.73705,4.449644 47.18703,3.900941 13.80607,0.187577 24.89026,0.304906 33.69764,-0.08294 z"
       inkscape:connector-curvature="0"
       sodipodi:nodetypes="ccccccccccccccsscccccccsscccc" />
    <path
	class="part_2"
       style="fill-opacity:1;stroke:none;stroke-width:1;stroke-linecap:butt;stroke-linejoin:miter;stroke-miterlimit:4;stroke-dasharray:6, 1;stroke-dashoffset:0;stroke-opacity:1"
       id="path4145"
       d="m 108.68713,21.909874 c 0.82967,0.08531 13.17826,0.741788 14.84363,0.837481 3.72199,0.189955 11.61638,0.225156 15.34242,0.247139 3.62638,0.014 8.89434,0.0021 12.52059,-0.03064 10.20989,-0.392328 9.18747,0.07205 19.09323,0.225136 3.91989,0.08026 7.58782,-0.939273 11.50831,-0.937233 3.72783,-0.04903 3.48517,-0.19977 8.82242,-0.419387 4.44439,4.244669 8.41827,7.381459 15.03837,12.464965 -4.8239,2.029392 -6.00571,2.271744 -12.45901,3.086316 -12.2187,1.669604 -14.08861,1.828993 -26.53504,1.806035 -8.23885,0.428873 -16.33585,0.218628 -23.46454,0.222264 -9.00983,0.463692 1.474,0.215814 -11.58001,0.142688 -3.78147,-0.02367 -5.03839,-0.408157 -8.81855,-0.520438 -1.7475,-0.05813 -14.72306,-1.910674 -15.59559,-1.967011 -6.04957,-0.308875 -13.74225,-1.646509 -13.74225,-1.646509 0,0 8.84006,-6.834253 15.02602,-13.510806 z"
       inkscape:connector-curvature="0"
       sodipodi:nodetypes="cccccccccccccccc" />
    <path
		class="part_3"

       style="fill-opacity:1;stroke:none;stroke-width:1;stroke-linecap:butt;stroke-linejoin:miter;stroke-miterlimit:4;stroke-dasharray:6, 1;stroke-dashoffset:0;stroke-opacity:1"
       id="path4147"
       d="m 54.143321,51.55506 c 1.257131,5.13894 2.628382,15.990602 2.802706,18.446442 0.462777,4.968798 1.638046,19.537455 2.311365,24.479701 0.338327,2.744193 1.264905,16.602407 1.260373,28.911907 -0.0033,9.033 -0.92011,17.31443 -0.859383,19.34222 -0.306552,2.80347 -1.773853,10.50321 -4.290874,17.39882 -1.665487,4.56274 -1.25,5 -3.677178,10.32361 0,0 -5.392888,11.18496 -10.13379,19.26022 -3.163564,5.38856 -6.612955,8.28326 -8.725504,10.10197 -3.492692,-3.84862 -4.477168,-4.01929 -5.931144,-8.52976 9.806712,-12.69185 13.171386,-17.2988 16.785715,-28.92857 2.89903,-11.14879 4.919822,-17.53739 6.185574,-27.37819 2.054,-15.96916 0.673304,-29.98746 0.5725,-32.22443 -0.199239,-4.774647 0.04983,-9.901954 -0.550606,-14.64587 -0.649254,-4.942355 -2.859713,-12.009422 -3.4628,-16.95809 -0.288422,-2.391854 -3.744892,-13.894109 -3.787881,-16.304602 z"
       inkscape:connector-curvature="0"
       sodipodi:nodetypes="cccscscscccsccccc" />
    <path
		class="part_3"

       style="fill-opacity:1;stroke:none;stroke-width:1;stroke-linecap:butt;stroke-linejoin:miter;stroke-miterlimit:4;stroke-dasharray:6, 1;stroke-dashoffset:0;stroke-opacity:1"
       id="path4149"
       d="m 255.7553,54.724161 c -0.0395,1.042711 -2.81903,14.529242 -2.87164,16.615636 -0.19417,5.244282 -2.46044,11.556658 -2.79978,16.793526 -0.31459,5.317986 -0.53601,8.266976 -1.31404,13.531917 -0.2249,1.63829 -0.39065,22.74694 2.06665,37.45132 3.13007,18.73019 10.49953,33.09939 10.31176,34.22792 -0.33518,2.01451 9.4035,14.25649 12.24666,18.23746 0,0 -3.67121,3.70049 -5.50675,9.68623 -0.87086,-1.13294 -2.80447,-2.60309 -4.97489,-5.35404 -1.75745,-2.22752 -3.90097,-6.12599 -5.68028,-8.28662 -2.85301,-6.68029 -11.48498,-22.22997 -15.02726,-34.96913 -0.42729,-1.53667 -1.81925,-4.84709 -2.33004,-8.55156 -1.32458,-9.6064 -1.78358,-22.94697 -1.78358,-22.94697 0.0776,-6.32677 0.1869,-8.45749 0.1869,-8.45749 0.0941,-4.82009 0.39467,-8.75807 0.9421,-12.54957 1.81148,-12.25678 1.17045,-11.032841 3.78809,-27.316573 -0.0523,-2.020818 1.98952,-20.230436 1.94978,-21.240321 -0.0397,-1.009886 5.65725,0.29984 10.79632,3.128265 z"
       inkscape:connector-curvature="0"
       sodipodi:nodetypes="ccccscccscsscccccc" />
    <path
		class="part_4"
       style="fill-opacity:1;stroke:none;stroke-width:1;stroke-linecap:butt;stroke-linejoin:miter;stroke-miterlimit:4;stroke-dasharray:6, 1;stroke-dashoffset:0;stroke-opacity:1"
       id="path4153"
       d="m 86.875052,463.39849 c 9.394075,0.65948 21.932818,1.9225 34.676438,2.02998 11.90656,0.85035 16.51218,0.31648 27.87923,-0.0924 0,0 69.61017,-2.38505 92.77855,-4.30572 18.05449,-3.12023 18.17313,-2.86251 21.49205,-3.95296 1.13918,4.79937 1.02012,4.25716 1.1689,7.6801 -1.8155,8.95867 -36.51011,7.03174 -59.39039,10.6434 -18.46086,1.8439 -45.09099,2.06005 -45.09099,2.06005 -12.99154,0.599 -27.18435,0.61447 -39.94256,-0.34796 -10.55862,-1.5022 -12.67988,-1.5253 -26.855482,-1.94777 -15.690828,-0.80127 -21.448055,-1.67665 -22.975741,-1.89503 -0.63076,-0.0902 -13.699207,-1.58318 -20.780353,-3.23769 -6.522355,-1.52395 -13.241363,-4.07016 -14.792525,-4.86884 0.601119,-5.07681 -1.03904,-8.07172 0.802481,-10.42035 0,0 1.829685,0.38838 3.177896,0.85714 4.323411,1.50323 13.642131,4.66203 24.548924,5.38738 11.995057,1.75141 13.909497,1.75121 23.303572,2.41069 z"
       inkscape:connector-curvature="0"
       sodipodi:nodetypes="zcccccccccssccscz" />
  </g>
  <g
     inkscape:label="Layer 1"
     inkscape:groupmode="layer"
     id="layer1"
     style="display:inline;opacity:0.6"
     sodipodi:insensitive="true">
    <image
       xlink:href="F:\DesignMySelf\BLK\shadow_mask\basketball_shadow_back.png"
       width="300"
       height="500"
       preserveAspectRatio="none"
       style="image-rendering:optimizeQuality"
       id="image4144"
       x="0"
       y="0" />
  </g>
</svg>
