<?xml version="1.0" encoding="utf-8"?>
<!-- Generator: Adobe Illustrator 12.0.0, SVG Export Plug-In . SVG Version: 6.00 Build 51448)  -->
<!DOCTYPE svg PUBLIC "-//W3C//DTD SVG 1.1//EN" "http://www.w3.org/Graphics/SVG/1.1/DTD/svg11.dtd" [
	<!ENTITY ns_svg "http://www.w3.org/2000/svg">
	<!ENTITY ns_xlink "http://www.w3.org/1999/xlink">
]>
<svg  version="1.1" id="Layer_1" xmlns="&ns_svg;" xmlns:xlink="&ns_xlink;" width="1114.043" height="703.936"
	 viewBox="0 0 1114.043 703.936" overflow="visible" enable-background="new 0 0 1114.043 703.936" xml:space="preserve">
<g>
	<polygon fill="none" stroke="#000000" stroke-width="5" stroke-miterlimit="10" points="727.642,80.12 734.136,83.354 
		748.729,78.459 751.963,71.964 747.069,57.372 740.574,54.138 727.197,58.624 723.119,46.463 735.279,42.384 736.299,45.425 
		742.38,43.386 740.952,39.129 734.457,35.897 719.863,40.791 716.631,47.287 721.524,61.879 728.02,65.113 741.396,60.627 
		745.476,72.787 733.314,76.865 732.295,73.825 726.214,75.865 	"/>
	<polygon fill="none" stroke="#000000" stroke-width="5" stroke-miterlimit="10" points="812.961,63.023 811.126,53.581 
		804.83,54.805 805.441,57.952 792.852,60.399 790.403,47.809 796.699,46.585 797.311,49.733 803.606,48.509 801.158,35.917 
		794.863,37.142 795.475,40.29 789.18,41.513 786.732,28.923 799.323,26.475 799.935,29.623 806.229,28.399 804.395,18.957 
		776.065,24.464 777.289,30.759 780.437,30.147 786.556,61.624 783.408,62.235 784.632,68.531 	"/>
	<polygon fill="none" stroke="#000000" stroke-width="5" stroke-miterlimit="10" points="857.652,58.342 857.352,51.936 
		854.148,52.085 853.005,27.742 870.464,57.74 876.871,57.439 875.065,19.002 878.269,18.851 877.968,12.445 865.155,13.047 
		865.456,19.453 868.659,19.302 869.803,43.646 852.344,13.649 842.734,14.101 843.035,20.506 846.238,20.355 847.742,52.387 
		844.539,52.537 844.84,58.944 	"/>
	<polygon fill="none" stroke="#000000" stroke-width="5" stroke-miterlimit="10" points="924.946,59.62 925.471,53.228 
		922.274,52.966 924.898,21.007 928.094,21.271 928.619,14.878 915.836,13.829 915.312,20.221 918.507,20.483 915.883,52.442 
		912.688,52.179 912.163,58.571 	"/>
	<path fill="none" stroke="#000000" stroke-width="5" stroke-miterlimit="10" d="M970.643,27.287l12.574,2.53l-6.323,31.437
		l-12.574-2.53L970.643,27.287z M976.887,67.793l6.041-4.018l6.83-33.952l-4.019-6.041l-15.089-3.035l-6.042,4.018l-6.829,33.951
		l4.018,6.042L976.887,67.793z"/>
	<path fill="none" stroke="#000000" stroke-width="5" stroke-miterlimit="10" d="M1034.576,43.793l12.128,4.173l-4.171,12.129
		l-12.129-4.172L1034.576,43.793z M1025.092,81.223l2.086-6.064l-3.031-1.042l4.171-12.129l12.129,4.172l-4.171,12.128l-3.033-1.043
		l-2.086,6.064l12.129,4.172l2.086-6.064l-3.032-1.043l4.59-13.342l-1.194-2.445l2.445-1.193l5.007-14.555l-3.183-6.521
		l-22.438-7.719l-2.087,6.064l3.033,1.044l-10.431,30.322l-3.031-1.044l-2.087,6.064L1025.092,81.223z"/>
	<polygon fill="none" stroke="#000000" stroke-width="5" stroke-miterlimit="10" points="769.762,279.054 778.74,292.523 
		778.74,305.99 774.25,305.99 774.25,314.968 792.207,314.968 792.207,305.99 787.719,305.99 787.719,292.523 796.696,279.054 
		801.187,279.054 801.187,270.076 783.871,270.076 783.871,279.054 787.719,279.054 783.229,285.789 778.74,279.054 
		782.588,279.054 782.588,270.076 765.271,270.076 765.271,279.054 	"/>
	<polygon fill="none" stroke="#000000" stroke-width="5" stroke-miterlimit="10" points="865.96,314.968 865.96,301.501 
		856.981,301.501 856.981,305.99 848.003,305.99 848.003,297.011 856.981,297.011 856.981,288.033 848.003,288.033 848.003,279.054 
		856.981,279.054 856.981,283.544 865.96,283.544 865.96,270.076 834.534,270.076 834.534,279.054 839.025,279.054 839.025,305.99 
		834.534,305.99 834.534,314.968 	"/>
	<path fill="none" stroke="#000000" stroke-width="5" stroke-miterlimit="10" d="M918.388,292.522h-2.244l1.122-4.489
		L918.388,292.522z M916.624,314.968v-8.979h-3.848l1.122-4.488h6.733l1.123,4.488h-3.848v8.979h17.315v-8.979h-4.489l-8.979-35.914
		h-8.979l-8.979,35.914h-4.49v8.979H916.624z"/>
	<path fill="none" stroke="#000000" stroke-width="5" stroke-miterlimit="10" d="M982.039,279.054h8.979v8.979h-8.979V279.054z
		 M985.887,314.968v-8.979h-3.848v-8.979h8.978v8.979h-3.848v8.979h17.315v-8.979h-4.488v-10.774l-2.694-2.693l2.694-2.693v-12.569
		l-7.185-7.184H968.57v8.979h4.49v26.936h-4.49v8.979H985.887z"/>
	<path fill="none" stroke="#000000" stroke-width="9" d="M781.69,213.046v29.945h85.646v-29.945h-17.771V99.917h-35.758
		l-32.117,26.269v21.189h22.481v65.672H781.69z M779.977,148.426v-23.117l33.188-27.145h38.113V211.12h17.985v32.923h-89.287V211.12
		h22.269v-62.694H779.977z"/>
	<path fill="none" stroke="#000000" stroke-width="9" d="M867.338,99.565v38.703h36.614v-8.756h43.037l-51.174,113.128h47.319
		l52.887-117.157V99.565H867.338z M944.42,244.042h-51.389l51.389-113.13h-38.541v8.756h-40.254V98.165h132.324v28.019
		L944.42,244.042z"/>
	<polygon fill="none" stroke="#000000" stroke-width="8" points="1056.473,139.501 1066.119,158.055 1087.688,161.03 
		1072.08,175.472 1075.763,195.865 1056.473,186.235 1037.181,195.865 1040.864,175.472 1025.26,161.03 1046.828,158.055 	"/>
	<polygon fill="none" stroke="#000000" stroke-width="8" points="719.63,139.501 729.274,158.055 750.844,161.029 735.236,175.472 
		738.921,195.864 719.63,186.236 700.338,195.864 704.021,175.472 688.415,161.029 709.982,158.055 	"/>
	<line fill="#FFFFFF" stroke="#000000" x1="835.445" y1="100.134" x2="835.445" y2="241.908"/>
	
		<line fill="none" stroke="#000000" stroke-width="4" stroke-miterlimit="10" x1="835.445" y1="100.134" x2="835.445" y2="241.908"/>
	<line fill="#FFFFFF" stroke="#000000" x1="992.041" y1="101.353" x2="927.045" y2="245.968"/>
	
		<line fill="none" stroke="#000000" stroke-width="4" stroke-miterlimit="10" x1="992.041" y1="101.353" x2="927.045" y2="245.968"/>
</g>
<g>
	<defs>
		<rect id="XMLID_1_" width="1114.043" height="703.936"/>
	</defs>
	<clipPath id="XMLID_3_">
		<use xlink:href="#XMLID_1_" />
	</clipPath>
	
		<line clip-path="url(#XMLID_3_)" fill="none" stroke="#000000" stroke-width="4" stroke-miterlimit="10" x1="703.186" y1="178.458" x2="735.388" y2="156.235"/>
	
		<line clip-path="url(#XMLID_3_)" fill="none" stroke="#000000" stroke-width="4" stroke-miterlimit="10" x1="1037.396" y1="178.458" x2="1069.598" y2="156.235"/>
</g>
</svg>
