<?xml version="1.0" encoding="utf-8"?>
<!-- Generator: Adobe Illustrator 12.0.0, SVG Export Plug-In . SVG Version: 6.00 Build 51448)  -->
<!DOCTYPE svg PUBLIC "-//W3C//DTD SVG 1.1//EN" "http://www.w3.org/Graphics/SVG/1.1/DTD/svg11.dtd" [
	<!ENTITY ns_svg "http://www.w3.org/2000/svg">
	<!ENTITY ns_xlink "http://www.w3.org/1999/xlink">
]>
<svg  version="1.1" id="Layer_1" xmlns="&ns_svg;" xmlns:xlink="&ns_xlink;" width="255.975" height="197.036"
	 viewBox="0 0 255.975 197.036" overflow="visible" enable-background="new 0 0 255.975 197.036" xml:space="preserve">
<g>
	<defs>
		<rect id="XMLID_4_" width="255.934" height="197.036"/>
	</defs>
	<clipPath id="XMLID_6_">
		<use xlink:href="#XMLID_4_" />
	</clipPath>
	<path clip-path="url(#XMLID_6_)" fill="#FBFCFB" d="M88.299,170.417c3.955,5.454,10.305,8.917,15.439,10.393
		c4.137,1.19,14.898,4.248,17.513-1.566c-5.64-4.655-7.722-6.553-16.132-9.748C101.904,168.276,90.84,167.767,88.299,170.417"/>
	<path clip-path="url(#XMLID_6_)" fill="none" stroke="#231F20" stroke-width="2.479" d="M88.299,170.417
		c3.955,5.454,10.305,8.917,15.439,10.393c4.137,1.19,14.898,4.248,17.513-1.566c-5.64-4.655-7.722-6.553-16.132-9.748
		C101.904,168.276,90.84,167.767,88.299,170.417z"/>
	<path clip-path="url(#XMLID_6_)" fill="#FBFCFB" d="M103.199,173.057c4.043,5.391,10.454,8.738,15.615,10.126
		c4.156,1.115,14.969,3.987,17.482-1.869c-5.722-4.56-7.834-6.418-16.299-9.468C116.762,170.684,105.69,170.364,103.199,173.057"/>
	<path clip-path="url(#XMLID_6_)" fill="none" stroke="#231F20" stroke-width="2.479" d="M103.199,173.057
		c4.043,5.391,10.454,8.738,15.615,10.126c4.156,1.115,14.969,3.987,17.482-1.869c-5.722-4.56-7.834-6.418-16.299-9.468
		C116.762,170.684,105.69,170.364,103.199,173.057z"/>
	<path clip-path="url(#XMLID_6_)" fill="#FBFCFB" d="M59.203,132.771c0.611,6.708,4.301,12.931,7.961,16.824
		c2.949,3.134,10.635,11.26,15.854,7.599c-2.465-6.885-3.289-9.577-8.885-16.622C71.991,137.883,62.741,131.79,59.203,132.771"/>
	<path clip-path="url(#XMLID_6_)" fill="#2B7A3E" d="M59.203,132.771c0.611,6.708,4.301,12.931,7.961,16.824
		c2.949,3.134,10.635,11.26,15.854,7.599c-2.465-6.885-3.289-9.577-8.885-16.622C71.991,137.883,62.741,131.79,59.203,132.771"/>
	<path clip-path="url(#XMLID_6_)" fill="#FFFFFF" stroke="#000000" stroke-width="2.479" d="M59.203,132.771
		c0.611,6.708,4.301,12.931,7.961,16.824c2.949,3.134,10.635,11.26,15.854,7.599c-2.465-6.885-3.289-9.577-8.885-16.622
		C71.991,137.883,62.741,131.79,59.203,132.771z"/>
	<path clip-path="url(#XMLID_6_)" fill="#FBFCFB" d="M71.982,162.35c4.131,5.323,10.593,8.575,15.773,9.88
		c4.174,1.051,15.028,3.75,17.455-2.143c-5.793-4.467-7.936-6.296-16.449-9.212C85.508,159.766,74.434,159.621,71.982,162.35"/>
	<path clip-path="url(#XMLID_6_)" fill="none" stroke="#231F20" stroke-width="2.479" d="M71.982,162.35
		c4.131,5.323,10.593,8.575,15.773,9.88c4.174,1.051,15.028,3.75,17.455-2.143c-5.793-4.467-7.936-6.296-16.449-9.212
		C85.508,159.766,74.434,159.621,71.982,162.35z"/>
	<path clip-path="url(#XMLID_6_)" fill="#FBFCFB" d="M107.191,163.195c4.354,5.146,10.941,8.12,16.175,9.207
		c4.212,0.879,15.171,3.122,17.345-2.872c-5.974-4.222-8.191-5.956-16.816-8.512C120.596,160.047,109.524,160.364,107.191,163.195"
		/>
	<path clip-path="url(#XMLID_6_)" fill="none" stroke="#231F20" stroke-width="2.479" d="M107.191,163.195
		c4.354,5.146,10.941,8.12,16.175,9.207c4.212,0.879,15.171,3.122,17.345-2.872c-5.974-4.222-8.191-5.956-16.816-8.512
		C120.596,160.047,109.524,160.364,107.191,163.195z"/>
	<path clip-path="url(#XMLID_6_)" fill="#FBFCFB" d="M116.013,169.858c4.394,5.107,11.013,8.027,16.255,9.069
		c4.221,0.838,15.199,2.985,17.319-3.025c-6.011-4.172-8.243-5.884-16.892-8.365C129.389,166.592,118.322,167.009,116.013,169.858"
		/>
	<path clip-path="url(#XMLID_6_)" fill="none" stroke="#231F20" stroke-width="2.479" d="M116.013,169.858
		c4.394,5.107,11.013,8.027,16.255,9.069c4.221,0.838,15.199,2.985,17.319-3.025c-6.011-4.172-8.243-5.884-16.892-8.365
		C129.389,166.592,118.322,167.009,116.013,169.858z"/>
	<path clip-path="url(#XMLID_6_)" fill="#FBFCFB" d="M42.202,97.548c-2.914,6.078-2.927,13.309-1.772,18.531
		c0.93,4.202,3.375,15.117,9.73,14.644c1.4-7.178,2.076-9.914,0.87-18.828C50.566,108.485,45.742,98.518,42.202,97.548"/>
	<path clip-path="url(#XMLID_6_)" fill="none" stroke="#231F20" stroke-width="2.479" d="M42.202,97.548
		c-2.914,6.078-2.927,13.309-1.772,18.531c0.93,4.202,3.375,15.117,9.73,14.644c1.4-7.178,2.076-9.914,0.87-18.828
		C50.566,108.485,45.742,98.518,42.202,97.548z"/>
	<path clip-path="url(#XMLID_6_)" fill="#FBFCFB" d="M37.743,123.084c1.879,6.469,6.69,11.87,11.028,14.988
		c3.494,2.513,12.593,9.021,17.013,4.435c-3.735-6.29-5.058-8.774-11.899-14.616C51.27,125.655,41.025,121.447,37.743,123.084"/>
	<path clip-path="url(#XMLID_6_)" fill="#2B7A3E" d="M37.743,123.084c1.879,6.469,6.69,11.87,11.028,14.988
		c3.494,2.513,12.593,9.021,17.013,4.435c-3.735-6.29-5.058-8.774-11.899-14.616C51.27,125.655,41.025,121.447,37.743,123.084"/>
	<path clip-path="url(#XMLID_6_)" fill="#FFFFFF" stroke="#000000" stroke-width="2.479" d="M37.743,123.084
		c1.879,6.469,6.69,11.87,11.028,14.988c3.494,2.513,12.593,9.021,17.013,4.435c-3.735-6.29-5.058-8.774-11.899-14.616
		C51.27,125.655,41.025,121.447,37.743,123.084z"/>
	<path clip-path="url(#XMLID_6_)" fill="#FBFCFB" d="M75.709,152.85c3.807,5.56,10.061,9.189,15.157,10.803
		c4.101,1.294,14.78,4.638,17.548-1.101c-5.516-4.806-7.545-6.759-15.867-10.172C89.361,151.072,78.318,150.271,75.709,152.85"/>
	<path clip-path="url(#XMLID_6_)" fill="#2B7A3E" d="M75.709,152.85c3.807,5.56,10.061,9.189,15.157,10.803
		c4.101,1.294,14.78,4.638,17.548-1.101c-5.516-4.806-7.545-6.759-15.867-10.172C89.361,151.072,78.318,150.271,75.709,152.85"/>
	<path clip-path="url(#XMLID_6_)" fill="#FFFFFF" stroke="#000000" stroke-width="2.479" d="M75.709,152.85
		c3.807,5.56,10.061,9.189,15.157,10.803c4.101,1.294,14.78,4.638,17.548-1.101c-5.516-4.806-7.545-6.759-15.867-10.172
		C89.361,151.072,78.318,150.271,75.709,152.85z"/>
	<path clip-path="url(#XMLID_6_)" fill="#FFFFFF" d="M119.341,169.829c1.515,3.88,7.138-1.787,3.782-3.489
		c-2.702-1.375-5.786,1.933-3.375,4.005"/>
	<path clip-path="url(#XMLID_6_)" fill="none" stroke="#010101" d="M119.341,169.829c1.515,3.88,7.138-1.787,3.782-3.489
		c-2.702-1.375-5.786,1.933-3.375,4.005"/>
	<path clip-path="url(#XMLID_6_)" fill="#FBFCFB" d="M88.28,164.901c4.411,5.093,11.037,7.991,16.283,9.017
		c4.221,0.828,15.206,2.94,17.312-3.077c-6.025-4.149-8.261-5.86-16.918-8.313C101.649,161.592,90.58,162.041,88.28,164.901"/>
	<path clip-path="url(#XMLID_6_)" fill="none" stroke="#231F20" stroke-width="2.479" d="M88.28,164.901
		c4.411,5.093,11.037,7.991,16.283,9.017c4.221,0.828,15.206,2.94,17.312-3.077c-6.025-4.149-8.261-5.86-16.918-8.313
		C101.649,161.592,90.58,162.041,88.28,164.901z"/>
	<path clip-path="url(#XMLID_6_)" fill="#FBFCFB" d="M51.884,141.368c2.531,6.247,7.867,11.131,12.504,13.791
		c3.728,2.144,13.444,7.69,17.374,2.673c-4.359-5.874-5.925-8.214-13.326-13.327C65.605,142.55,54.984,139.403,51.884,141.368"/>
	<path clip-path="url(#XMLID_6_)" fill="#2B7A3E" d="M51.884,141.368c2.531,6.247,7.867,11.131,12.504,13.791
		c3.728,2.144,13.444,7.69,17.374,2.673c-4.359-5.874-5.925-8.214-13.326-13.327C65.605,142.55,54.984,139.403,51.884,141.368"/>
	<path clip-path="url(#XMLID_6_)" fill="#FFFFFF" stroke="#000000" stroke-width="2.479" d="M51.884,141.368
		c2.531,6.247,7.867,11.131,12.504,13.791c3.728,2.144,13.444,7.69,17.374,2.673c-4.359-5.874-5.925-8.214-13.326-13.327
		C65.605,142.55,54.984,139.403,51.884,141.368z"/>
	<path clip-path="url(#XMLID_6_)" fill="#FBFCFB" d="M167.515,170.417c-3.955,5.454-10.306,8.917-15.44,10.393
		c-4.136,1.19-14.897,4.248-17.513-1.566c5.642-4.655,7.722-6.553,16.134-9.748C153.91,168.276,164.973,167.767,167.515,170.417"/>
	<path clip-path="url(#XMLID_6_)" fill="none" stroke="#231F20" stroke-width="2.479" d="M167.515,170.417
		c-3.955,5.454-10.306,8.917-15.44,10.393c-4.136,1.19-14.897,4.248-17.513-1.566c5.642-4.655,7.722-6.553,16.134-9.748
		C153.91,168.276,164.973,167.767,167.515,170.417z"/>
	<path clip-path="url(#XMLID_6_)" fill="#FBFCFB" d="M152.614,173.057c-4.044,5.391-10.453,8.738-15.616,10.126
		c-4.154,1.115-14.968,3.987-17.48-1.869c5.721-4.56,7.832-6.418,16.298-9.468C139.051,170.684,150.123,170.364,152.614,173.057"/>
	<path clip-path="url(#XMLID_6_)" fill="none" stroke="#231F20" stroke-width="2.479" d="M152.614,173.057
		c-4.044,5.391-10.453,8.738-15.616,10.126c-4.154,1.115-14.968,3.987-17.48-1.869c5.721-4.56,7.832-6.418,16.298-9.468
		C139.051,170.684,150.123,170.364,152.614,173.057z"/>
	<path clip-path="url(#XMLID_6_)" fill="#FBFCFB" d="M196.609,132.771c-0.611,6.708-4.301,12.931-7.961,16.824
		c-2.948,3.134-10.634,11.26-15.854,7.599c2.465-6.885,3.289-9.577,8.885-16.622C183.821,137.883,193.072,131.79,196.609,132.771"/>
	<path clip-path="url(#XMLID_6_)" fill="#FFFFFF" d="M196.609,132.771c-0.611,6.708-4.301,12.931-7.961,16.824
		c-2.948,3.134-10.634,11.26-15.854,7.599c2.465-6.885,3.289-9.577,8.885-16.622C183.821,137.883,193.072,131.79,196.609,132.771"/>
	<path clip-path="url(#XMLID_6_)" fill="none" stroke="#000000" stroke-width="2.479" d="M196.609,132.771
		c-0.611,6.708-4.301,12.931-7.961,16.824c-2.948,3.134-10.634,11.26-15.854,7.599c2.465-6.885,3.289-9.577,8.885-16.622
		C183.821,137.883,193.072,131.79,196.609,132.771z"/>
	<path clip-path="url(#XMLID_6_)" fill="#FBFCFB" d="M183.83,162.35c-4.129,5.323-10.592,8.575-15.773,9.88
		c-4.174,1.051-15.028,3.75-17.453-2.143c5.793-4.467,7.935-6.296,16.449-9.212C170.305,159.766,181.38,159.621,183.83,162.35"/>
	<path clip-path="url(#XMLID_6_)" fill="none" stroke="#231F20" stroke-width="2.479" d="M183.83,162.35
		c-4.129,5.323-10.592,8.575-15.773,9.88c-4.174,1.051-15.028,3.75-17.453-2.143c5.793-4.467,7.935-6.296,16.449-9.212
		C170.305,159.766,181.38,159.621,183.83,162.35z"/>
	<path clip-path="url(#XMLID_6_)" fill="#FBFCFB" d="M148.622,163.195c-4.353,5.146-10.94,8.12-16.176,9.207
		c-4.209,0.879-15.171,3.122-17.345-2.872c5.974-4.222,8.191-5.956,16.817-8.512C135.217,160.047,146.288,160.364,148.622,163.195"
		/>
	<path clip-path="url(#XMLID_6_)" fill="none" stroke="#231F20" stroke-width="2.479" d="M148.622,163.195
		c-4.353,5.146-10.94,8.12-16.176,9.207c-4.209,0.879-15.171,3.122-17.345-2.872c5.974-4.222,8.191-5.956,16.817-8.512
		C135.217,160.047,146.288,160.364,148.622,163.195z"/>
	<path clip-path="url(#XMLID_6_)" fill="#FBFCFB" d="M139.8,169.858c-4.394,5.107-11.011,8.027-16.254,9.069
		c-4.222,0.838-15.199,2.985-17.319-3.025c6.012-4.172,8.243-5.884,16.893-8.365C126.425,166.592,137.492,167.009,139.8,169.858"/>
	<path clip-path="url(#XMLID_6_)" fill="none" stroke="#231F20" stroke-width="2.479" d="M139.8,169.858
		c-4.394,5.107-11.011,8.027-16.254,9.069c-4.222,0.838-15.199,2.985-17.319-3.025c6.012-4.172,8.243-5.884,16.893-8.365
		C126.425,166.592,137.492,167.009,139.8,169.858z"/>
	<path clip-path="url(#XMLID_6_)" fill="#FBFCFB" d="M213.611,97.548c2.912,6.078,2.925,13.309,1.773,18.531
		c-0.93,4.202-3.375,15.117-9.731,14.644c-1.399-7.178-2.076-9.914-0.87-18.828C205.245,108.485,210.073,98.518,213.611,97.548"/>
	<path clip-path="url(#XMLID_6_)" fill="none" stroke="#231F20" stroke-width="2.479" d="M213.611,97.548
		c2.912,6.078,2.925,13.309,1.773,18.531c-0.93,4.202-3.375,15.117-9.731,14.644c-1.399-7.178-2.076-9.914-0.87-18.828
		C205.245,108.485,210.073,98.518,213.611,97.548z"/>
	<path clip-path="url(#XMLID_6_)" fill="#FBFCFB" d="M218.07,123.084c-1.879,6.469-6.693,11.87-11.029,14.988
		c-3.494,2.513-12.592,9.021-17.015,4.435c3.739-6.29,5.062-8.774,11.903-14.616C204.543,125.655,214.788,121.447,218.07,123.084"/>
	<path clip-path="url(#XMLID_6_)" fill="#2B7A3E" d="M218.07,123.084c-1.879,6.469-6.693,11.87-11.029,14.988
		c-3.494,2.513-12.592,9.021-17.015,4.435c3.739-6.29,5.062-8.774,11.903-14.616C204.543,125.655,214.788,121.447,218.07,123.084"/>
	<path clip-path="url(#XMLID_6_)" fill="#FFFFFF" stroke="#000000" stroke-width="2.479" d="M218.07,123.084
		c-1.879,6.469-6.693,11.87-11.029,14.988c-3.494,2.513-12.592,9.021-17.015,4.435c3.739-6.29,5.062-8.774,11.903-14.616
		C204.543,125.655,214.788,121.447,218.07,123.084z"/>
	<path clip-path="url(#XMLID_6_)" fill="#FBFCFB" d="M180.104,152.85c-3.807,5.56-10.063,9.189-15.154,10.803
		c-4.104,1.294-14.781,4.638-17.55-1.101c5.517-4.806,7.544-6.759,15.868-10.172C166.451,151.072,177.496,150.271,180.104,152.85"/>
	<path clip-path="url(#XMLID_6_)" fill="#FFFFFF" d="M180.104,152.85c-3.807,5.56-10.063,9.189-15.154,10.803
		c-4.104,1.294-14.781,4.638-17.55-1.101c5.517-4.806,7.544-6.759,15.868-10.172C166.451,151.072,177.496,150.271,180.104,152.85"/>
	<path clip-path="url(#XMLID_6_)" fill="none" stroke="#000000" stroke-width="2.479" d="M180.104,152.85
		c-3.807,5.56-10.063,9.189-15.154,10.803c-4.104,1.294-14.781,4.638-17.55-1.101c5.517-4.806,7.544-6.759,15.868-10.172
		C166.451,151.072,177.496,150.271,180.104,152.85z"/>
	<path clip-path="url(#XMLID_6_)" fill="#FFFFFF" d="M169.989,164.15c-1.515,3.88-7.136-1.788-3.78-3.492
		c2.7-1.371,5.784,1.934,3.375,4.008"/>
	<path clip-path="url(#XMLID_6_)" fill="none" stroke="#010101" d="M169.989,164.15c-1.515,3.88-7.136-1.788-3.78-3.492
		c2.7-1.371,5.784,1.934,3.375,4.008"/>
	<path clip-path="url(#XMLID_6_)" fill="#FFFFFF" d="M136.473,169.829c-1.516,3.88-7.139-1.787-3.781-3.489
		c2.7-1.375,5.784,1.933,3.375,4.005"/>
	<path clip-path="url(#XMLID_6_)" fill="none" stroke="#010101" d="M136.473,169.829c-1.516,3.88-7.139-1.787-3.781-3.489
		c2.7-1.375,5.784,1.933,3.375,4.005"/>
	<path clip-path="url(#XMLID_6_)" fill="#FBFCFB" d="M167.532,164.901c-4.41,5.093-11.036,7.991-16.282,9.017
		c-4.221,0.828-15.206,2.94-17.311-3.077c6.023-4.149,8.26-5.86,16.918-8.313C154.165,161.592,165.232,162.041,167.532,164.901"/>
	<path clip-path="url(#XMLID_6_)" fill="none" stroke="#231F20" stroke-width="2.479" d="M167.532,164.901
		c-4.41,5.093-11.036,7.991-16.282,9.017c-4.221,0.828-15.206,2.94-17.311-3.077c6.023-4.149,8.26-5.86,16.918-8.313
		C154.165,161.592,165.232,162.041,167.532,164.901z"/>
	<path clip-path="url(#XMLID_6_)" fill="#FBFCFB" d="M203.929,141.368c-2.53,6.247-7.866,11.131-12.502,13.791
		c-3.729,2.144-13.446,7.69-17.376,2.673c4.361-5.874,5.925-8.214,13.328-13.327C190.209,142.55,200.828,139.403,203.929,141.368"/>
	<path clip-path="url(#XMLID_6_)" fill="#FFFFFF" d="M203.929,141.368c-2.53,6.247-7.866,11.131-12.502,13.791
		c-3.729,2.144-13.446,7.69-17.376,2.673c4.361-5.874,5.925-8.214,13.328-13.327C190.209,142.55,200.828,139.403,203.929,141.368"/>
	<path clip-path="url(#XMLID_6_)" fill="none" stroke="#000000" stroke-width="2.479" d="M203.929,141.368
		c-2.53,6.247-7.866,11.131-12.502,13.791c-3.729,2.144-13.446,7.69-17.376,2.673c4.361-5.874,5.925-8.214,13.328-13.327
		C190.209,142.55,200.828,139.403,203.929,141.368z"/>
	<path clip-path="url(#XMLID_6_)" fill="#FBFCFB" d="M35.762,64.959c-4.258,5.221-5.977,12.245-6.083,17.59
		c-0.091,4.301-0.283,15.487,6.006,16.524c3.052-6.646,4.353-9.145,5.281-18.094C41.32,77.559,38.974,66.735,35.762,64.959"/>
	<path clip-path="url(#XMLID_6_)" fill="#FFFFFF" d="M35.762,64.959c-4.258,5.221-5.977,12.245-6.083,17.59
		c-0.091,4.301-0.283,15.487,6.006,16.524c3.052-6.646,4.353-9.145,5.281-18.094C41.32,77.559,38.974,66.735,35.762,64.959"/>
	<path clip-path="url(#XMLID_6_)" fill="none" stroke="#000000" stroke-width="2.479" d="M35.762,64.959
		c-4.258,5.221-5.977,12.245-6.083,17.59c-0.091,4.301-0.283,15.487,6.006,16.524c3.052-6.646,4.353-9.145,5.281-18.094
		C41.32,77.559,38.974,66.735,35.762,64.959z"/>
	<path clip-path="url(#XMLID_6_)" fill="#FBFCFB" d="M37.031,80.036c-4.171,5.293-5.764,12.347-5.779,17.691
		c-0.014,4.303-0.016,15.49,6.289,16.416c2.94-6.697,4.194-9.217,4.969-18.18C42.805,92.537,40.274,81.754,37.031,80.036"/>
	<path clip-path="url(#XMLID_6_)" fill="#FFFFFF" d="M37.031,80.036c-4.171,5.293-5.764,12.347-5.779,17.691
		c-0.014,4.303-0.016,15.49,6.289,16.416c2.94-6.697,4.194-9.217,4.969-18.18C42.805,92.537,40.274,81.754,37.031,80.036"/>
	<path clip-path="url(#XMLID_6_)" fill="none" stroke="#000000" stroke-width="2.479" d="M37.031,80.036
		c-4.171,5.293-5.764,12.347-5.779,17.691c-0.014,4.303-0.016,15.49,6.289,16.416c2.94-6.697,4.194-9.217,4.969-18.18
		C42.805,92.537,40.274,81.754,37.031,80.036z"/>
	<path clip-path="url(#XMLID_6_)" fill="#FBFCFB" d="M64.684,27.181c-6.327,2.311-11.395,7.471-14.221,12.009
		c-2.271,3.654-8.153,13.167-3.274,17.272c6.019-4.149,8.412-5.636,13.786-12.853C63.022,40.85,66.539,30.348,64.684,27.181"/>
	<path clip-path="url(#XMLID_6_)" fill="#FFFFFF" d="M64.684,27.181c-6.327,2.311-11.395,7.471-14.221,12.009
		c-2.271,3.654-8.153,13.167-3.274,17.272c6.019-4.149,8.412-5.636,13.786-12.853C63.022,40.85,66.539,30.348,64.684,27.181"/>
	<path clip-path="url(#XMLID_6_)" fill="none" stroke="#000000" stroke-width="2.479" d="M64.684,27.181
		c-6.327,2.311-11.395,7.471-14.221,12.009c-2.271,3.654-8.153,13.167-3.274,17.272c6.019-4.149,8.412-5.636,13.786-12.853
		C63.022,40.85,66.539,30.348,64.684,27.181z"/>
	<path clip-path="url(#XMLID_6_)" fill="#FBFCFB" d="M84.179,14.44c-6.739,0.224-13.156,3.552-17.252,6.983
		c-3.302,2.762-11.854,9.973-8.5,15.393c7.019-2.07,9.751-2.734,17.106-7.923C78.342,26.912,84.949,18.027,84.179,14.44"/>
	<path clip-path="url(#XMLID_6_)" fill="#FFFFFF" d="M84.179,14.44c-6.739,0.224-13.156,3.552-17.252,6.983
		c-3.302,2.762-11.854,9.973-8.5,15.393c7.019-2.07,9.751-2.734,17.106-7.923C78.342,26.912,84.949,18.027,84.179,14.44"/>
	<path clip-path="url(#XMLID_6_)" fill="none" stroke="#000000" stroke-width="2.479" d="M84.179,14.44
		c-6.739,0.224-13.156,3.552-17.252,6.983c-3.302,2.762-11.854,9.973-8.5,15.393c7.019-2.07,9.751-2.734,17.106-7.923
		C78.342,26.912,84.949,18.027,84.179,14.44z"/>
	<path clip-path="url(#XMLID_6_)" fill="#FBFCFB" d="M53.183,108.736c-2.595,6.221-2.239,13.443-0.817,18.594
		c1.144,4.151,4.147,14.926,10.469,14.128c1.033-7.242,1.564-10.008-0.1-18.849C62.102,119.229,56.769,109.522,53.183,108.736"/>
	<path clip-path="url(#XMLID_6_)" fill="#FFFFFF" d="M53.183,108.736c-2.595,6.221-2.239,13.443-0.817,18.594
		c1.144,4.151,4.147,14.926,10.469,14.128c1.033-7.242,1.564-10.008-0.1-18.849C62.102,119.229,56.769,109.522,53.183,108.736"/>
	<path clip-path="url(#XMLID_6_)" fill="none" stroke="#000000" stroke-width="2.479" d="M53.183,108.736
		c-2.595,6.221-2.239,13.443-0.817,18.594c1.144,4.151,4.147,14.926,10.469,14.128c1.033-7.242,1.564-10.008-0.1-18.849
		C62.102,119.229,56.769,109.522,53.183,108.736z"/>
	<path clip-path="url(#XMLID_6_)" fill="#FBFCFB" d="M39.372,47.117c-4.086,5.359-5.569,12.438-5.502,17.782
		c0.056,4.303,0.231,15.488,6.548,16.318c2.834-6.745,4.051-9.283,4.684-18.262C45.34,59.528,42.641,48.787,39.372,47.117"/>
	<path clip-path="url(#XMLID_6_)" fill="#2B7A3E" d="M39.372,47.117c-4.086,5.359-5.569,12.438-5.502,17.782
		c0.056,4.303,0.231,15.488,6.548,16.318c2.834-6.745,4.051-9.283,4.684-18.262C45.34,59.528,42.641,48.787,39.372,47.117"/>
	<path clip-path="url(#XMLID_6_)" fill="#FFFFFF" stroke="#000000" stroke-width="2.479" d="M39.372,47.117
		c-4.086,5.359-5.569,12.438-5.502,17.782c0.056,4.303,0.231,15.488,6.548,16.318c2.834-6.745,4.051-9.283,4.684-18.262
		C45.34,59.528,42.641,48.787,39.372,47.117z"/>
	<path clip-path="url(#XMLID_6_)" fill="#2B7A3E" d="M47.588,81.366c-3.855,5.524-5.042,12.656-4.749,17.995
		c0.229,4.294,0.873,15.464,7.226,16.028c2.547-6.857,3.653-9.445,3.912-18.438C54.068,93.513,50.923,82.895,47.588,81.366"/>
	<path clip-path="url(#XMLID_6_)" fill="none" stroke="#000000" stroke-width="2.479" d="M47.588,81.366
		c-3.855,5.524-5.042,12.656-4.749,17.995c0.229,4.294,0.873,15.464,7.226,16.028c2.547-6.857,3.653-9.445,3.912-18.438
		C54.068,93.513,50.923,82.895,47.588,81.366"/>
	<path clip-path="url(#XMLID_6_)" fill="#FFFFFF" stroke="#231F20" stroke-width="2.479" d="M47.588,81.366
		c-3.855,5.524-5.042,12.656-4.749,17.995c0.229,4.294,0.873,15.464,7.226,16.028c2.547-6.857,3.653-9.445,3.912-18.438
		C54.068,93.513,50.923,82.895,47.588,81.366z"/>
	<path clip-path="url(#XMLID_6_)" fill="#FBFCFB" d="M33.737,109.012c-1.526,6.564,0.022,13.629,2.28,18.473
		c1.814,3.9,6.568,14.028,12.67,12.191c-0.182-7.314-0.119-10.127-3.227-18.572C44.272,117.879,37.399,109.191,33.737,109.012"/>
	<path clip-path="url(#XMLID_6_)" fill="#2B7A3E" d="M34.737,109.012c-1.526,6.564,0.022,13.629,2.28,18.473
		c1.814,3.9,6.568,14.028,12.67,12.191c-0.182-7.314-0.119-10.127-3.227-18.572C45.272,117.879,38.399,109.191,34.737,109.012"/>
	<path clip-path="url(#XMLID_6_)" fill="#FFFFFF" stroke="#000000" stroke-width="2.479" d="M34.737,109.012
		c-1.526,6.564,0.022,13.629,2.28,18.473c1.814,3.9,6.568,14.028,12.67,12.191c-0.182-7.314-0.119-10.127-3.227-18.572
		C45.272,117.879,38.399,109.191,34.737,109.012z"/>
	<path clip-path="url(#XMLID_6_)" fill="#FBFCFB" d="M43.413,91.602c-3.813,5.558-4.937,12.702-4.599,18.036
		c0.273,4.295,1.014,15.456,7.367,15.963c2.49-6.878,3.573-9.475,3.752-18.472C49.999,103.692,46.756,93.102,43.413,91.602"/>
	<path clip-path="url(#XMLID_6_)" fill="#2B7A3E" d="M43.413,91.602c-3.813,5.558-4.937,12.702-4.599,18.036
		c0.273,4.295,1.014,15.456,7.367,15.963c2.49-6.878,3.573-9.475,3.752-18.472C49.999,103.692,46.756,93.102,43.413,91.602"/>
	<path clip-path="url(#XMLID_6_)" fill="#FFFFFF" stroke="#000000" stroke-width="2.479" d="M43.413,91.602
		c-3.813,5.558-4.937,12.702-4.599,18.036c0.273,4.295,1.014,15.456,7.367,15.963c2.49-6.878,3.573-9.475,3.752-18.472
		C49.999,103.692,46.756,93.102,43.413,91.602z"/>
	<path clip-path="url(#XMLID_6_)" fill="#FBFCFB" d="M45.49,114.949c-1.658,6.531-0.246,13.627,1.909,18.513
		c1.737,3.939,6.284,14.158,12.424,12.442c-0.039-7.313,0.086-10.124-2.854-18.631C55.846,124.026,49.151,115.202,45.49,114.949"/>
	<path clip-path="url(#XMLID_6_)" fill="#2B7A3E" d="M45.49,114.949c-1.658,6.531-0.246,13.627,1.909,18.513
		c1.737,3.939,6.284,14.158,12.424,12.442c-0.039-7.313,0.086-10.124-2.854-18.631C55.846,124.026,49.151,115.202,45.49,114.949"/>
	<path clip-path="url(#XMLID_6_)" fill="#FFFFFF" stroke="#000000" stroke-width="2.479" d="M45.49,114.949
		c-1.658,6.531-0.246,13.627,1.909,18.513c1.737,3.939,6.284,14.158,12.424,12.442c-0.039-7.313,0.086-10.124-2.854-18.631
		C55.846,124.026,49.151,115.202,45.49,114.949z"/>
	<path clip-path="url(#XMLID_6_)" fill="#FBFCFB" d="M94.367,1.71c-6.621-1.255-13.613,0.587-18.366,3.04
		c-3.823,1.978-13.745,7.141-11.655,13.162c7.297-0.486,10.112-0.535,18.418-3.988C85.94,12.603,94.34,5.38,94.367,1.71"/>
	<path clip-path="url(#XMLID_6_)" fill="#FFFFFF" d="M94.367,1.71c-6.621-1.255-13.613,0.587-18.366,3.04
		c-3.823,1.978-13.745,7.141-11.655,13.162c7.297-0.486,10.112-0.535,18.418-3.988C85.94,12.603,94.34,5.38,94.367,1.71"/>
	<path clip-path="url(#XMLID_6_)" fill="none" stroke="#000000" stroke-width="2.479" d="M94.367,1.71
		c-6.621-1.255-13.613,0.587-18.366,3.04c-3.823,1.978-13.745,7.141-11.655,13.162c7.297-0.486,10.112-0.535,18.418-3.988
		C85.94,12.603,94.34,5.38,94.367,1.71z"/>
	<path clip-path="url(#XMLID_6_)" fill="#FBFCFB" d="M68.542,3.951c-5.771,3.476-9.758,9.514-11.658,14.506
		c-1.534,4.021-5.489,14.484,0.079,17.582c5.12-5.228,7.184-7.141,11.074-15.252C69.525,17.685,70.967,6.705,68.542,3.951"/>
	<path clip-path="url(#XMLID_6_)" fill="#2B7A3E" d="M68.542,3.951c-5.771,3.476-9.758,9.514-11.658,14.506
		c-1.534,4.021-5.489,14.484,0.079,17.582c5.12-5.228,7.184-7.141,11.074-15.252C69.525,17.685,70.967,6.705,68.542,3.951"/>
	<path clip-path="url(#XMLID_6_)" fill="#FFFFFF" stroke="#000000" stroke-width="2.479" d="M68.542,3.951
		c-5.771,3.476-9.758,9.514-11.658,14.506c-1.534,4.021-5.489,14.484,0.079,17.582c5.12-5.228,7.184-7.141,11.074-15.252
		C69.525,17.685,70.967,6.705,68.542,3.951z"/>
	<path clip-path="url(#XMLID_6_)" fill="#FBFCFB" d="M49.512,48.282c-4.396,5.105-6.3,12.081-6.557,17.422
		c-0.197,4.296-0.688,15.475,5.57,16.678c3.228-6.563,4.596-9.024,5.758-17.946C54.73,61.024,52.672,50.143,49.512,48.282"/>
	<path clip-path="url(#XMLID_6_)" fill="#2B7A3E" d="M49.512,48.282c-4.396,5.105-6.3,12.081-6.557,17.422
		c-0.197,4.296-0.688,15.475,5.57,16.678c3.228-6.563,4.596-9.024,5.758-17.946C54.73,61.024,52.672,50.143,49.512,48.282"/>
	<path clip-path="url(#XMLID_6_)" fill="#FFFFFF" stroke="#000000" stroke-width="2.479" d="M49.512,48.282
		c-4.396,5.105-6.3,12.081-6.557,17.422c-0.197,4.296-0.688,15.475,5.57,16.678c3.228-6.563,4.596-9.024,5.758-17.946
		C54.73,61.024,52.672,50.143,49.512,48.282z"/>
	<path clip-path="url(#XMLID_6_)" fill="#FBFCFB" d="M41.087,63.524c-3.79,5.57-4.892,12.718-4.537,18.052
		c0.281,4.292,1.058,15.451,7.413,15.941c2.466-6.886,3.546-9.486,3.697-18.483C47.715,75.598,44.441,65.015,41.087,63.524"/>
	<path clip-path="url(#XMLID_6_)" fill="#2B7A3E" d="M41.087,63.524c-3.79,5.57-4.892,12.718-4.537,18.052
		c0.281,4.292,1.058,15.451,7.413,15.941c2.466-6.886,3.546-9.486,3.697-18.483C47.715,75.598,44.441,65.015,41.087,63.524"/>
	<path clip-path="url(#XMLID_6_)" fill="#FFFFFF" stroke="#000000" stroke-width="2.479" d="M41.087,63.524
		c-3.79,5.57-4.892,12.718-4.537,18.052c0.281,4.292,1.058,15.451,7.413,15.941c2.466-6.886,3.546-9.486,3.697-18.483
		C47.715,75.598,44.441,65.015,41.087,63.524z"/>
	<path clip-path="url(#XMLID_6_)" fill="#FBFCFB" d="M54.495,22.311c-5.388,4.049-8.737,10.458-10.121,15.621
		c-1.116,4.154-3.983,14.969,1.874,17.481c4.559-5.724,6.419-7.834,9.462-16.302C56.874,35.874,57.189,24.804,54.495,22.311"/>
	<path clip-path="url(#XMLID_6_)" fill="#2B7A3E" d="M54.495,22.311c-5.388,4.049-8.737,10.458-10.121,15.621
		c-1.116,4.154-3.983,14.969,1.874,17.481c4.559-5.724,6.419-7.834,9.462-16.302C56.874,35.874,57.189,24.804,54.495,22.311"/>
	<path clip-path="url(#XMLID_6_)" fill="#FFFFFF" stroke="#000000" stroke-width="2.479" d="M54.495,22.311
		c-5.388,4.049-8.737,10.458-10.121,15.621c-1.116,4.154-3.983,14.969,1.874,17.481c4.559-5.724,6.419-7.834,9.462-16.302
		C56.874,35.874,57.189,24.804,54.495,22.311z"/>
	<path clip-path="url(#XMLID_6_)" fill="#FBFCFB" d="M46.643,133.905c0.855,6.686,4.771,12.765,8.573,16.523
		c3.065,3.025,11.044,10.861,16.122,7.014c-2.719-6.788-3.637-9.452-9.491-16.281C59.608,138.55,50.14,132.798,46.643,133.905"/>
	<path clip-path="url(#XMLID_6_)" fill="#2B7A3E" d="M45.643,133.905c0.855,6.686,4.771,12.765,8.573,16.523
		c3.065,3.025,11.044,10.861,16.122,7.014c-2.719-6.788-3.637-9.452-9.491-16.281C58.608,138.55,49.14,132.798,45.643,133.905"/>
	<path clip-path="url(#XMLID_6_)" fill="#FFFFFF" stroke="#000000" stroke-width="2.479" d="M45.643,133.905
		c0.855,6.686,4.771,12.765,8.573,16.523c3.065,3.025,11.044,10.861,16.122,7.014c-2.719-6.788-3.637-9.452-9.491-16.281
		C58.608,138.55,49.14,132.798,45.643,133.905z"/>
	<path clip-path="url(#XMLID_6_)" fill="#FBFCFB" d="M221.962,64.959c4.257,5.221,5.976,12.245,6.082,17.59
		c0.091,4.301,0.285,15.487-6.004,16.524c-3.054-6.646-4.354-9.145-5.283-18.094C216.402,77.559,218.749,66.735,221.962,64.959"/>
	<path clip-path="url(#XMLID_6_)" fill="#2B7A3E" d="M221.962,64.959c4.257,5.221,5.976,12.245,6.082,17.59
		c0.091,4.301,0.285,15.487-6.004,16.524c-3.054-6.646-4.354-9.145-5.283-18.094C216.402,77.559,218.749,66.735,221.962,64.959"/>
	<path clip-path="url(#XMLID_6_)" fill="#FFFFFF" stroke="#000000" stroke-width="2.479" d="M221.962,64.959
		c4.257,5.221,5.976,12.245,6.082,17.59c0.091,4.301,0.285,15.487-6.004,16.524c-3.054-6.646-4.354-9.145-5.283-18.094
		C216.402,77.559,218.749,66.735,221.962,64.959z"/>
	<path clip-path="url(#XMLID_6_)" fill="#FBFCFB" d="M220.692,80.036c4.17,5.293,5.763,12.347,5.778,17.691
		c0.015,4.303,0.017,15.49-6.289,16.416c-2.939-6.697-4.193-9.217-4.969-18.18C214.92,92.537,217.448,81.754,220.692,80.036"/>
	<path clip-path="url(#XMLID_6_)" fill="#FFFFFF" d="M220.692,80.036c4.17,5.293,5.763,12.347,5.778,17.691
		c0.015,4.303,0.017,15.49-6.289,16.416c-2.939-6.697-4.193-9.217-4.969-18.18C214.92,92.537,217.448,81.754,220.692,80.036"/>
	<path clip-path="url(#XMLID_6_)" fill="none" stroke="#000000" stroke-width="2.479" d="M220.692,80.036
		c4.17,5.293,5.763,12.347,5.778,17.691c0.015,4.303,0.017,15.49-6.289,16.416c-2.939-6.697-4.193-9.217-4.969-18.18
		C214.92,92.537,217.448,81.754,220.692,80.036z"/>
	<path clip-path="url(#XMLID_6_)" fill="#FBFCFB" d="M193.039,27.181c6.328,2.311,11.395,7.471,14.221,12.009
		c2.271,3.654,8.153,13.167,3.274,17.272c-6.019-4.149-8.412-5.636-13.786-12.853C194.7,40.85,191.184,30.348,193.039,27.181"/>
	<path clip-path="url(#XMLID_6_)" fill="#FFFFFF" d="M193.039,27.181c6.328,2.311,11.395,7.471,14.221,12.009
		c2.271,3.654,8.153,13.167,3.274,17.272c-6.019-4.149-8.412-5.636-13.786-12.853C194.7,40.85,191.184,30.348,193.039,27.181"/>
	<path clip-path="url(#XMLID_6_)" fill="none" stroke="#000000" stroke-width="2.479" d="M193.039,27.181
		c6.328,2.311,11.395,7.471,14.221,12.009c2.271,3.654,8.153,13.167,3.274,17.272c-6.019-4.149-8.412-5.636-13.786-12.853
		C194.7,40.85,191.184,30.348,193.039,27.181z"/>
	<path clip-path="url(#XMLID_6_)" fill="#FBFCFB" d="M173.544,14.44c6.739,0.224,13.155,3.552,17.253,6.983
		c3.301,2.762,11.854,9.973,8.499,15.393c-7.019-2.07-9.75-2.734-17.106-7.923C179.382,26.912,172.773,18.027,173.544,14.44"/>
	<path clip-path="url(#XMLID_6_)" fill="#2B7A3E" d="M173.544,14.44c6.739,0.224,13.155,3.552,17.253,6.983
		c3.301,2.762,11.854,9.973,8.499,15.393c-7.019-2.07-9.75-2.734-17.106-7.923C179.382,26.912,172.773,18.027,173.544,14.44"/>
	<path clip-path="url(#XMLID_6_)" fill="#FFFFFF" stroke="#000000" stroke-width="2.479" d="M173.544,14.44
		c6.739,0.224,13.155,3.552,17.253,6.983c3.301,2.762,11.854,9.973,8.499,15.393c-7.019-2.07-9.75-2.734-17.106-7.923
		C179.382,26.912,172.773,18.027,173.544,14.44z"/>
	<path clip-path="url(#XMLID_6_)" fill="#FBFCFB" d="M204.54,108.736c2.596,6.221,2.239,13.443,0.817,18.594
		c-1.144,4.151-4.146,14.926-10.467,14.128c-1.035-7.242-1.566-10.008,0.098-18.849C195.622,119.229,200.954,109.522,204.54,108.736
		"/>
	<path clip-path="url(#XMLID_6_)" fill="#FFFFFF" d="M204.54,108.736c2.596,6.221,2.239,13.443,0.817,18.594
		c-1.144,4.151-4.146,14.926-10.467,14.128c-1.035-7.242-1.566-10.008,0.098-18.849C195.622,119.229,200.954,109.522,204.54,108.736
		"/>
	<path clip-path="url(#XMLID_6_)" fill="none" stroke="#000000" stroke-width="2.479" d="M204.54,108.736
		c2.596,6.221,2.239,13.443,0.817,18.594c-1.144,4.151-4.146,14.926-10.467,14.128c-1.035-7.242-1.566-10.008,0.098-18.849
		C195.622,119.229,200.954,109.522,204.54,108.736z"/>
	<path clip-path="url(#XMLID_6_)" fill="#FBFCFB" d="M218.351,47.117c4.086,5.359,5.569,12.438,5.502,17.782
		c-0.056,4.303-0.229,15.488-6.548,16.318c-2.834-6.745-4.051-9.283-4.684-18.262C212.383,59.528,215.082,48.787,218.351,47.117"/>
	<path clip-path="url(#XMLID_6_)" fill="#FFFFFF" d="M218.351,47.117c4.086,5.359,5.569,12.438,5.502,17.782
		c-0.056,4.303-0.229,15.488-6.548,16.318c-2.834-6.745-4.051-9.283-4.684-18.262C212.383,59.528,215.082,48.787,218.351,47.117"/>
	<path clip-path="url(#XMLID_6_)" fill="none" stroke="#000000" stroke-width="2.479" d="M218.351,47.117
		c4.086,5.359,5.569,12.438,5.502,17.782c-0.056,4.303-0.229,15.488-6.548,16.318c-2.834-6.745-4.051-9.283-4.684-18.262
		C212.383,59.528,215.082,48.787,218.351,47.117z"/>
	<path clip-path="url(#XMLID_6_)" fill="#FBFCFB" d="M210.136,81.366c3.854,5.524,5.041,12.656,4.75,17.995
		c-0.231,4.294-0.875,15.464-7.228,16.028c-2.547-6.857-3.653-9.445-3.912-18.438C203.654,93.513,206.8,82.895,210.136,81.366"/>
	<path clip-path="url(#XMLID_6_)" fill="#FFFFFF" d="M210.136,81.366c3.854,5.524,5.041,12.656,4.75,17.995
		c-0.231,4.294-0.875,15.464-7.228,16.028c-2.547-6.857-3.653-9.445-3.912-18.438C203.654,93.513,206.8,82.895,210.136,81.366"/>
	<path clip-path="url(#XMLID_6_)" fill="none" stroke="#000000" stroke-width="2.479" d="M210.136,81.366
		c3.854,5.524,5.041,12.656,4.75,17.995c-0.231,4.294-0.875,15.464-7.228,16.028c-2.547-6.857-3.653-9.445-3.912-18.438
		C203.654,93.513,206.8,82.895,210.136,81.366z"/>
	<path clip-path="url(#XMLID_6_)" fill="#FBFCFB" d="M223.987,109.012c1.524,6.564-0.024,13.629-2.282,18.473
		c-1.814,3.9-6.568,14.028-12.67,12.191c0.184-7.314,0.119-10.127,3.227-18.572C213.45,117.879,220.323,109.191,223.987,109.012"/>
	<path clip-path="url(#XMLID_6_)" fill="#FFFFFF" d="M222.987,109.012c1.524,6.564-0.024,13.629-2.282,18.473
		c-1.814,3.9-6.568,14.028-12.67,12.191c0.184-7.314,0.119-10.127,3.227-18.572C212.45,117.879,219.323,109.191,222.987,109.012"/>
	<path clip-path="url(#XMLID_6_)" fill="none" stroke="#000000" stroke-width="2.479" d="M222.987,109.012
		c1.524,6.564-0.024,13.629-2.282,18.473c-1.814,3.9-6.568,14.028-12.67,12.191c0.184-7.314,0.119-10.127,3.227-18.572
		C212.45,117.879,219.323,109.191,222.987,109.012z"/>
	<path clip-path="url(#XMLID_6_)" fill="#FBFCFB" d="M214.311,91.602c3.813,5.558,4.936,12.702,4.598,18.036
		c-0.273,4.295-1.013,15.456-7.365,15.963c-2.492-6.878-3.574-9.475-3.752-18.472C207.724,103.692,210.965,93.102,214.311,91.602"/>
	<path clip-path="url(#XMLID_6_)" fill="#FFFFFF" d="M214.311,91.602c3.813,5.558,4.936,12.702,4.598,18.036
		c-0.273,4.295-1.013,15.456-7.365,15.963c-2.492-6.878-3.574-9.475-3.752-18.472C207.724,103.692,210.965,93.102,214.311,91.602"/>
	<path clip-path="url(#XMLID_6_)" fill="none" stroke="#000000" stroke-width="2.479" d="M214.311,91.602
		c3.813,5.558,4.936,12.702,4.598,18.036c-0.273,4.295-1.013,15.456-7.365,15.963c-2.492-6.878-3.574-9.475-3.752-18.472
		C207.724,103.692,210.965,93.102,214.311,91.602z"/>
	<path clip-path="url(#XMLID_6_)" fill="#FBFCFB" d="M212.232,114.949c1.658,6.531,0.247,13.627-1.909,18.513
		c-1.737,3.939-6.284,14.158-12.424,12.442c0.04-7.313-0.086-10.124,2.854-18.631C201.879,124.026,208.573,115.202,212.232,114.949"
		/>
	<path clip-path="url(#XMLID_6_)" fill="#FFFFFF" d="M212.232,114.949c1.658,6.531,0.247,13.627-1.909,18.513
		c-1.737,3.939-6.284,14.158-12.424,12.442c0.04-7.313-0.086-10.124,2.854-18.631C201.879,124.026,208.573,115.202,212.232,114.949"
		/>
	<path clip-path="url(#XMLID_6_)" fill="none" stroke="#000000" stroke-width="2.479" d="M212.232,114.949
		c1.658,6.531,0.247,13.627-1.909,18.513c-1.737,3.939-6.284,14.158-12.424,12.442c0.04-7.313-0.086-10.124,2.854-18.631
		C201.879,124.026,208.573,115.202,212.232,114.949z"/>
	<path clip-path="url(#XMLID_6_)" fill="#FBFCFB" d="M163.355,1.71c6.623-1.255,13.614,0.587,18.366,3.04
		c3.823,1.978,13.745,7.141,11.657,13.162c-7.299-0.486-10.114-0.535-18.42-3.988C171.783,12.603,163.385,5.38,163.355,1.71"/>
	<path clip-path="url(#XMLID_6_)" fill="#FFFFFF" d="M163.355,1.71c6.623-1.255,13.614,0.587,18.366,3.04
		c3.823,1.978,13.745,7.141,11.657,13.162c-7.299-0.486-10.114-0.535-18.42-3.988C171.783,12.603,163.385,5.38,163.355,1.71"/>
	<path clip-path="url(#XMLID_6_)" fill="none" stroke="#000000" stroke-width="2.479" d="M163.355,1.71
		c6.623-1.255,13.614,0.587,18.366,3.04c3.823,1.978,13.745,7.141,11.657,13.162c-7.299-0.486-10.114-0.535-18.42-3.988
		C171.783,12.603,163.385,5.38,163.355,1.71z"/>
	<path clip-path="url(#XMLID_6_)" fill="#FBFCFB" d="M189.182,3.951c5.771,3.476,9.758,9.514,11.656,14.506
		c1.535,4.021,5.49,14.484-0.077,17.582c-5.121-5.228-7.183-7.141-11.075-15.252C188.197,17.685,186.757,6.705,189.182,3.951"/>
	<path clip-path="url(#XMLID_6_)" fill="#FFFFFF" d="M189.182,3.951c5.771,3.476,9.758,9.514,11.656,14.506
		c1.535,4.021,5.49,14.484-0.077,17.582c-5.121-5.228-7.183-7.141-11.075-15.252C188.197,17.685,186.757,6.705,189.182,3.951"/>
	<path clip-path="url(#XMLID_6_)" fill="none" stroke="#000000" stroke-width="2.479" d="M189.182,3.951
		c5.771,3.476,9.758,9.514,11.656,14.506c1.535,4.021,5.49,14.484-0.077,17.582c-5.121-5.228-7.183-7.141-11.075-15.252
		C188.197,17.685,186.757,6.705,189.182,3.951z"/>
	<path clip-path="url(#XMLID_6_)" fill="#FBFCFB" d="M208.211,48.282c4.396,5.105,6.3,12.081,6.557,17.422
		c0.197,4.296,0.689,15.475-5.57,16.678c-3.227-6.563-4.594-9.024-5.758-17.946C202.992,61.024,205.051,50.143,208.211,48.282"/>
	<path clip-path="url(#XMLID_6_)" fill="#FFFFFF" d="M208.211,48.282c4.396,5.105,6.3,12.081,6.557,17.422
		c0.197,4.296,0.689,15.475-5.57,16.678c-3.227-6.563-4.594-9.024-5.758-17.946C202.992,61.024,205.051,50.143,208.211,48.282"/>
	<path clip-path="url(#XMLID_6_)" fill="none" stroke="#000000" stroke-width="2.479" d="M208.211,48.282
		c4.396,5.105,6.3,12.081,6.557,17.422c0.197,4.296,0.689,15.475-5.57,16.678c-3.227-6.563-4.594-9.024-5.758-17.946
		C202.992,61.024,205.051,50.143,208.211,48.282z"/>
	<path clip-path="url(#XMLID_6_)" fill="#FBFCFB" d="M216.636,63.524c3.79,5.57,4.894,12.718,4.538,18.052
		c-0.282,4.292-1.059,15.451-7.413,15.941c-2.467-6.886-3.547-9.486-3.697-18.483C210.008,75.598,213.281,65.015,216.636,63.524"/>
	<path clip-path="url(#XMLID_6_)" fill="#FFFFFF" d="M216.636,63.524c3.79,5.57,4.894,12.718,4.538,18.052
		c-0.282,4.292-1.059,15.451-7.413,15.941c-2.467-6.886-3.547-9.486-3.697-18.483C210.008,75.598,213.281,65.015,216.636,63.524"/>
	<path clip-path="url(#XMLID_6_)" fill="none" stroke="#000000" stroke-width="2.479" d="M216.636,63.524
		c3.79,5.57,4.894,12.718,4.538,18.052c-0.282,4.292-1.059,15.451-7.413,15.941c-2.467-6.886-3.547-9.486-3.697-18.483
		C210.008,75.598,213.281,65.015,216.636,63.524z"/>
	<path clip-path="url(#XMLID_6_)" fill="#FBFCFB" d="M203.228,22.311c5.388,4.049,8.737,10.458,10.121,15.621
		c1.116,4.154,3.983,14.969-1.874,17.481c-4.559-5.724-6.419-7.834-9.462-16.302C200.849,35.874,200.533,24.804,203.228,22.311"/>
	<path clip-path="url(#XMLID_6_)" fill="#FFFFFF" d="M203.228,22.311c5.388,4.049,8.737,10.458,10.121,15.621
		c1.116,4.154,3.983,14.969-1.874,17.481c-4.559-5.724-6.419-7.834-9.462-16.302C200.849,35.874,200.533,24.804,203.228,22.311"/>
	<path clip-path="url(#XMLID_6_)" fill="none" stroke="#000000" stroke-width="2.479" d="M203.228,22.311
		c5.388,4.049,8.737,10.458,10.121,15.621c1.116,4.154,3.983,14.969-1.874,17.481c-4.559-5.724-6.419-7.834-9.462-16.302
		C200.849,35.874,200.533,24.804,203.228,22.311z"/>
	<path clip-path="url(#XMLID_6_)" fill="#2B7A3E" d="M211.08,133.905c-0.855,6.686-4.77,12.765-8.572,16.523
		c-3.066,3.025-11.044,10.861-16.123,7.014c2.719-6.788,3.637-9.452,9.491-16.281C198.114,138.55,207.583,132.798,211.08,133.905"/>
	<path clip-path="url(#XMLID_6_)" fill="#FFFFFF" stroke="#000000" stroke-width="2.479" d="M211.08,133.905
		c-0.855,6.686-4.77,12.765-8.572,16.523c-3.066,3.025-11.044,10.861-16.123,7.014c2.719-6.788,3.637-9.452,9.491-16.281
		C198.114,138.55,207.583,132.798,211.08,133.905"/>
	<path clip-path="url(#XMLID_6_)" fill="none" stroke="#231F20" stroke-width="2.479" d="M212.08,133.905
		c-0.855,6.686-4.77,12.765-8.572,16.523c-3.066,3.025-11.044,10.861-16.123,7.014c2.719-6.788,3.637-9.452,9.491-16.281
		C199.114,138.55,208.583,132.798,212.08,133.905z"/>
	<polygon clip-path="url(#XMLID_6_)" fill="none" points="84.366,47.491 102.981,47.491 102.981,118.029 113.752,118.029 
		113.752,128.921 74.98,128.921 74.98,118.029 86.059,118.029 86.059,63.166 75.29,63.166 75.29,59.91 	"/>
	<polygon clip-path="url(#XMLID_6_)" fill="none" stroke="#000000" stroke-width="7.477" points="84.366,47.491 102.981,47.491 
		102.981,118.029 113.752,118.029 113.752,128.921 74.98,128.921 74.98,118.029 86.059,118.029 86.059,63.166 75.29,63.166 
		75.29,59.91 	"/>
	<polygon clip-path="url(#XMLID_6_)" fill="none" points="185.909,59.196 156.061,128.921 138.521,128.921 168.832,58.281 
		141.598,58.281 141.598,65.102 124.678,65.102 124.678,47.491 185.909,47.491 	"/>
	<polygon clip-path="url(#XMLID_6_)" fill="none" stroke="#000000" stroke-width="7.477" points="185.909,59.196 156.061,128.921 
		138.521,128.921 168.832,58.281 141.598,58.281 141.598,65.102 124.678,65.102 124.678,47.491 185.909,47.491 	"/>
	<rect x="58.457" y="156.999" clip-path="url(#XMLID_6_)" fill="#FFFFFF" width="139.074" height="31.608"/>
	<path clip-path="url(#XMLID_6_)" fill="none" d="M182.781,195.982v-32.375c0,0,63.391,0.014,71.662,0.167l-7.273,16.221
		l7.16,15.987h-71.611"/>
	<path clip-path="url(#XMLID_6_)" fill="none" stroke="#130D0F" stroke-width="2" d="M182.781,195.982v-32.375
		c0,0,63.391,0.014,71.662,0.167l-7.273,16.221l7.16,15.987h-71.611"/>
	<path clip-path="url(#XMLID_6_)" fill="none" stroke="#130D0F" stroke-width="2" d="M73.709,195.982v-32.375
		c0,0-63.391,0.014-71.662,0.167l7.273,16.221l-7.16,15.987h71.611"/>
	
		<polyline clip-path="url(#XMLID_6_)" fill="none" stroke="#130D0F" stroke-width="2" stroke-linecap="round" stroke-linejoin="round" points="
		197.531,195.982 182.707,195.982 197.494,188.607 	"/>
	
		<polyline clip-path="url(#XMLID_6_)" fill="none" stroke="#130D0F" stroke-width="2" stroke-linecap="round" stroke-linejoin="round" points="
		58.833,195.982 73.657,195.982 58.87,188.607 	"/>
</g>
<rect x="58.457" y="156.999" fill="#FFFFFF" width="139.074" height="31.608"/>
<rect x="58.457" y="156.999" fill="none" stroke="#130D0F" stroke-width="2" width="139.074" height="31.608"/>
<polygon fill="none" stroke="#000000" points="78.279,166.004 74.428,166.004 74.428,164.714 69.061,164.714 69.061,179.633 
	74.428,179.633 74.428,178.318 78.279,178.318 78.279,180.67 75.984,182.288 67.506,182.288 65.211,180.67 65.211,163.678 
	67.506,162.06 75.984,162.06 78.279,163.678 "/>
<polygon fill="none" stroke="#000000" points="84.129,162.06 84.129,179.633 93.236,179.633 93.236,182.288 80.277,182.288 
	80.277,162.06 "/>
<path fill="none" stroke="#000000" d="M103.049,164.714h-1.926l-1.333,9.685h4.628L103.049,164.714z M105.492,182.288l-0.704-5.209
	h-5.442l-0.703,5.209h-3.851l2.851-20.229h8.923l2.888,20.229H105.492z"/>
<polygon fill="none" stroke="#000000" points="125.337,163.678 125.337,166.004 121.449,166.004 121.449,164.714 116.007,164.714 
	116.007,170.656 122.967,170.656 125.337,172.274 125.337,180.67 122.967,182.288 114.525,182.288 112.156,180.67 112.156,178.318 
	116.007,178.318 116.007,179.633 121.449,179.633 121.449,173.312 114.525,173.312 112.156,171.693 112.156,163.678 114.525,162.06 
	122.967,162.06 "/>
<polygon fill="none" stroke="#000000" points="141.146,163.678 141.146,166.004 137.258,166.004 137.258,164.714 131.815,164.714 
	131.815,170.656 138.775,170.656 141.146,172.274 141.146,180.67 138.775,182.288 130.334,182.288 127.965,180.67 127.965,178.318 
	131.815,178.318 131.815,179.633 137.258,179.633 137.258,173.312 130.334,173.312 127.965,171.693 127.965,163.678 130.334,162.06 
	138.775,162.06 "/>
<path fill="none" stroke="#000000" d="M171.578,164.714h-5.441v14.919h5.441V164.714z M175.43,163.678v16.992l-2.369,1.618h-8.479
	l-2.297-1.618v-16.992l2.297-1.618h8.479L175.43,163.678z"/>
<polygon fill="none" stroke="#000000" points="191.498,164.714 182.354,164.714 182.354,170.656 186.98,170.656 186.98,173.312 
	182.354,173.312 182.354,182.288 178.466,182.288 178.466,162.06 191.498,162.06 "/>
<text transform="matrix(1.4642 0 0 1 212.2354 189.6074)" fill="#FFFFFF" font-family="'NHLVancouver'" font-size="25.2861">17</text>
<polygon fill="none" stroke="#000000" points="214.531,169.379 219.01,169.379 219.01,186.901 221.602,186.901 221.602,189.608 
	212.271,189.608 212.271,186.901 214.938,186.901 214.938,173.272 212.346,173.272 212.346,172.464 "/>
<polygon fill="none" stroke="#000000" points="238.967,172.286 231.783,189.607 227.564,189.607 234.857,172.059 228.304,172.059 
	228.304,173.753 224.232,173.753 224.232,169.379 238.967,169.379 "/>
<text transform="matrix(1.3173 0 0 1 16.5283 189.6074)" fill="none" font-family="'NHLVancouver'" font-size="25.2861">20</text>
<polygon fill="none" stroke="#000000" points="26.188,172.084 20.192,172.084 20.192,173.778 16.562,173.778 16.562,171.199 
	19.026,169.379 27.32,169.379 29.785,171.199 29.785,177.597 20.192,183.943 20.192,186.901 29.785,186.901 29.785,189.607 
	16.562,189.607 16.562,182.755 26.188,176.408 "/>
<path fill="none" stroke="#000000" d="M41.576,172.084h-5.93v14.817h5.93V172.084z M45.207,171.199v16.588l-2.465,1.82h-8.294
	l-2.466-1.82v-16.588l2.466-1.82h8.294L45.207,171.199z"/>
</svg>
