<?xml version="1.0" encoding="utf-8"?>
<!-- Generator: Adobe Illustrator 12.0.0, SVG Export Plug-In . SVG Version: 6.00 Build 51448)  -->
<!DOCTYPE svg PUBLIC "-//W3C//DTD SVG 1.1//EN" "http://www.w3.org/Graphics/SVG/1.1/DTD/svg11.dtd" [
	<!ENTITY ns_svg "http://www.w3.org/2000/svg">
	<!ENTITY ns_xlink "http://www.w3.org/1999/xlink">
]>
<svg  version="1.1" id="Layer_1" xmlns="&ns_svg;" xmlns:xlink="&ns_xlink;" width="1114.043" height="703.936"
	 viewBox="0 0 1114.043 703.936" overflow="visible" enable-background="new 0 0 1114.043 703.936" xml:space="preserve">
<polyline fill="#010101" points="175.207,605.742 177.937,606.444 260.178,627.58 293.07,608.311 "/>
<line fill="#FFFFFF" x1="52.822" y1="362.496" x2="78.871" y2="337.371"/>
<line fill="#FFFFFF" x1="53.008" y1="352.782" x2="69.349" y2="337.371"/>
<line fill="#FFFFFF" x1="298.957" y1="353.632" x2="281.912" y2="337.371"/>
<line fill="#FFFFFF" x1="298.342" y1="362.041" x2="272.791" y2="337.552"/>
<path fill="#FFFFFF" d="M62.436,603.882v-66.959V603.882z"/>
<path fill="#FFFFFF" d="M70.811,603.882v-66.959V603.882z"/>
<path fill="#FFFFFF" d="M280.982,603.882v-66.959V603.882z"/>
<path fill="#FFFFFF" d="M289.357,603.882v-66.959V603.882z"/>
<g>
	<defs>
		<rect id="XMLID_1_" width="1114.043" height="703.936"/>
	</defs>
	<clipPath id="XMLID_3_">
		<use xlink:href="#XMLID_1_" />
	</clipPath>
	<polygon clip-path="url(#XMLID_3_)" fill="none" stroke="#010101" stroke-width="4" points="176.826,699.667 315.39,618.643 
		315.39,317.455 175.28,317.455 181.281,317.455 38.262,317.455 38.262,618.643 	"/>
</g>
<polygon fill="#FFFFFF" points="94.983,497.684 97.81,497.684 97.81,514.594 63.888,514.594 63.888,497.684 70.569,497.684 
	90.271,477.037 70.569,456.389 63.888,456.389 63.888,439.528 97.81,439.528 97.81,456.389 94.983,456.389 103.548,465.406 
	112.114,456.389 109.201,456.389 109.201,439.528 142.095,439.528 142.095,456.389 136.442,456.389 116.825,477.037 
	136.442,497.684 142.095,497.684 142.095,514.594 109.201,514.594 109.201,497.684 112.114,497.684 103.548,488.667 "/>
<polygon fill="none" stroke="#010101" stroke-width="4" points="94.983,497.684 97.81,497.684 97.81,514.594 63.888,514.594 
	63.888,497.684 70.569,497.684 90.271,477.037 70.569,456.389 63.888,456.389 63.888,439.528 97.81,439.528 97.81,456.389 
	94.983,456.389 103.548,465.406 112.114,456.389 109.201,456.389 109.201,439.528 142.095,439.528 142.095,456.389 136.442,456.389 
	116.825,477.037 136.442,497.684 142.095,497.684 142.095,514.594 109.201,514.594 109.201,497.684 112.114,497.684 
	103.548,488.667 "/>
<polygon fill="none" points="188.771,456.389 188.771,439.528 218.324,439.528 218.324,456.389 211.9,456.389 198.795,497.684 
	202.479,497.684 202.479,514.594 164.53,514.594 164.53,497.684 167.613,497.684 154.595,456.389 148.855,456.389 148.855,439.528 
	177.637,439.528 177.637,456.389 175.238,456.389 183.205,481.455 191.086,456.389 "/>
<polygon fill="none" stroke="#010101" stroke-width="4" points="188.771,456.389 188.771,439.528 218.324,439.528 218.324,456.389 
	211.9,456.389 198.795,497.684 202.479,497.684 202.479,514.594 164.53,514.594 164.53,497.684 167.613,497.684 154.595,456.389 
	148.855,456.389 148.855,439.528 177.637,439.528 177.637,456.389 175.238,456.389 183.205,481.455 191.086,456.389 "/>
<polygon fill="none" points="225.072,514.594 225.072,497.685 229.355,497.685 229.355,456.389 225.072,456.389 225.072,439.528 
	253.238,439.528 253.238,456.389 248.956,456.389 248.956,497.685 253.238,497.685 253.238,514.594 "/>
<polygon fill="none" stroke="#010101" stroke-width="4" points="225.072,514.594 225.072,497.685 229.355,497.685 229.355,456.389 
	225.072,456.389 225.072,439.528 253.238,439.528 253.238,456.389 248.956,456.389 248.956,497.685 253.238,497.685 
	253.238,514.594 "/>
<polygon fill="none" points="259.334,514.594 259.334,497.685 263.617,497.685 263.617,456.389 259.334,456.389 259.334,439.528 
	287.501,439.528 287.501,456.389 283.219,456.389 283.219,497.685 287.501,497.685 287.501,514.594 "/>
<polygon fill="none" stroke="#010101" stroke-width="4" points="259.334,514.594 259.334,497.685 263.617,497.685 263.617,456.389 
	259.334,456.389 259.334,439.528 287.501,439.528 287.501,456.389 283.219,456.389 283.219,497.685 287.501,497.685 
	287.501,514.594 "/>
<path fill="#010101" d="M53.142,605.742H298.65H53.142z"/>
<path fill="#010101" d="M53.142,416.031H298.65H53.142z"/>
<path fill="#010101" d="M53.142,536.924H298.65H53.142z"/>
<polyline fill="#010101" points="175.896,605.742 173.168,606.444 90.927,627.58 58.034,608.311 "/>
<polyline fill="none" stroke="#010101" points="175.896,605.742 173.168,606.444 90.927,627.58 58.034,608.311 "/>
<line fill="#010101" x1="66.022" y1="440.666" x2="140.044" y2="513.06"/>
<line fill="none" stroke="#010101" stroke-width="3" x1="66.022" y1="440.666" x2="140.044" y2="513.06"/>
<path fill="#FFFFFF" d="M55.001,528.555H298.65H55.001z"/>
<path fill="#FFFFFF" d="M55.001,424.4H298.65H55.001z"/>
<polygon fill="#010101" points="56.66,606.59 70.546,615.187 102.815,606.194 "/>
<polygon fill="none" stroke="#010101" points="56.66,606.59 70.546,615.187 102.815,606.194 "/>
<polygon fill="#010101" points="252.643,606.281 281.678,614.658 295.512,606.469 "/>
<polygon fill="none" stroke="#010101" points="252.643,606.281 281.678,614.658 295.512,606.469 "/>
<path fill="#010101" d="M216.744,653.281l-81.757-0.111L216.744,653.281z"/>
<line fill="none" stroke="#010101" stroke-width="2" x1="134.987" y1="653.169" x2="216.744" y2="653.281"/>
<path fill="#010101" d="M146.138,658.75l60.881-0.065L146.138,658.75z"/>
<line fill="none" stroke="#010101" stroke-width="2" x1="146.138" y1="658.75" x2="207.021" y2="658.684"/>
<path fill="#010101" d="M151.825,664.329h46.912H151.825z"/>
<line fill="none" stroke="#010101" stroke-width="2" x1="151.825" y1="664.329" x2="198.736" y2="664.329"/>
<path fill="#010101" d="M161.017,669.909h29.759H161.017z"/>
<line fill="none" stroke="#010101" stroke-width="2" x1="161.018" y1="669.909" x2="190.775" y2="669.909"/>
<line fill="#FFFFFF" x1="158.233" y1="440.666" x2="180.377" y2="512.746"/>
<line fill="none" stroke="#010101" stroke-width="3" x1="158.233" y1="440.666" x2="180.377" y2="512.746"/>
<path fill="#FFFFFF" d="M238.229,514.605V440.21V514.605z"/>
<line fill="none" stroke="#010101" stroke-width="3" x1="238.229" y1="440.21" x2="238.229" y2="514.605"/>
<path fill="#FFFFFF" d="M272.643,514.605V440.21V514.605z"/>
<line fill="none" stroke="#010101" stroke-width="3" x1="272.643" y1="440.21" x2="272.643" y2="514.605"/>
<line fill="none" stroke="#010101" stroke-width="3" x1="52.822" y1="362.496" x2="78.871" y2="337.371"/>
<line fill="none" stroke="#010101" stroke-width="3" x1="53.008" y1="352.782" x2="69.349" y2="337.371"/>
<line fill="none" stroke="#010101" stroke-width="3" x1="298.957" y1="353.632" x2="281.912" y2="337.371"/>
<line fill="none" stroke="#010101" stroke-width="3" x1="298.342" y1="362.041" x2="272.791" y2="337.552"/>
<line fill="none" stroke="#010101" stroke-width="3" x1="62.436" y1="536.924" x2="62.436" y2="603.882"/>
<line fill="none" stroke="#010101" stroke-width="3" x1="70.811" y1="536.924" x2="70.811" y2="603.882"/>
<line fill="none" stroke="#010101" stroke-width="3" x1="280.982" y1="536.924" x2="280.982" y2="603.882"/>
<line fill="none" stroke="#010101" stroke-width="3" x1="289.357" y1="536.924" x2="289.357" y2="603.882"/>
<polygon fill="none" stroke="#010101" stroke-width="4" points="175.896,677.349 298.651,605.448 298.651,337.913 174.377,337.913 
	179.704,337.913 53.142,337.913 53.142,605.448 "/>
<line fill="none" stroke="#010101" stroke-width="4" x1="53.142" y1="605.742" x2="298.651" y2="605.742"/>
<line fill="none" stroke="#010101" stroke-width="4" x1="53.142" y1="416.031" x2="298.651" y2="416.031"/>
<line fill="none" stroke="#010101" stroke-width="4" x1="53.142" y1="536.924" x2="298.651" y2="536.924"/>
<line fill="none" stroke="#010101" stroke-width="3" x1="55.001" y1="528.555" x2="298.65" y2="528.555"/>
<line fill="none" stroke="#010101" stroke-width="3" x1="55.001" y1="424.4" x2="298.65" y2="424.4"/>
<polyline fill="#010101" stroke="#010101" points="175.207,605.742 177.937,606.444 260.178,627.58 293.07,608.311 "/>
<text transform="matrix(1.0102 0 0 1 63.873 402.0659)" fill="none" stroke="#000000" stroke-width="3" font-family="'CollegeBold'" font-size="67.399">SENIOR</text>
<g>
	
		<text transform="matrix(1.0102 0 0 1 88.9355 594.147)" fill="none" stroke="#000000" stroke-width="3" font-family="'CollegeBold'" font-size="67.399">YEAR</text>
</g>
<text transform="matrix(0.8693 0 0 1 136.6807 648.6987)" fill="none" stroke="#010101" stroke-width="2" font-family="'CollegeBold'" font-size="43.8621">2017</text>
</svg>
