<?xml version="1.0" encoding="utf-8"?>
<!-- Generator: Adobe Illustrator 12.0.0, SVG Export Plug-In . SVG Version: 6.00 Build 51448)  -->
<!DOCTYPE svg PUBLIC "-//W3C//DTD SVG 1.1//EN" "http://www.w3.org/Graphics/SVG/1.1/DTD/svg11.dtd" [
	<!ENTITY ns_svg "http://www.w3.org/2000/svg">
	<!ENTITY ns_xlink "http://www.w3.org/1999/xlink">
]>
<svg  version="1.1" id="Layer_1" xmlns="&ns_svg;" xmlns:xlink="&ns_xlink;" width="225.738" height="266.224"
	 viewBox="0 0 225.738 266.224" overflow="visible" enable-background="new 0 0 225.738 266.224" xml:space="preserve">
<pattern  x="-266.569" y="428.391" width="59.334" height="59.08" patternUnits="userSpaceOnUse" id="New_Pattern_Swatch_1" viewBox="0 -59.08 59.334 59.08">
	<g>
		<polygon fill="none" points="0,0 59.334,0 59.334,-59.08 0,-59.08 		"/>
		<polygon fill="#BC56A0" points="59.334,0 0,0 0,-59.08 59.334,-59.08 		"/>
	</g>
</pattern>
<g>
	<polygon fill="none" stroke="#000000" stroke-width="2.814" points="31.595,24.811 30.62,21.15 29.473,20.457 25.26,21.579 
		24.575,22.759 28.3,36.75 29.471,37.399 33.686,36.277 34.345,35.14 33.425,31.685 41.336,29.58 43,35.832 39.629,41.649 
		26.952,45.024 21.135,41.654 15.92,22.068 19.291,16.25 31.968,12.875 37.785,16.246 39.505,22.706 	"/>
	
		<text transform="matrix(0.9842 -0.1772 0.1772 0.9842 46.5278 39.9033)" fill="none" stroke="url(#New_Pattern_Swatch_1)" font-family="'CollegiateBlackFLF'" font-size="35.7464">L</text>
	<polygon fill="none" stroke="#000000" stroke-width="2.814" points="55.129,31.474 60.406,30.524 60.089,28.765 66.703,27.574 
		68.211,35.947 46.505,39.856 45.314,33.242 47.073,32.925 44.171,16.813 42.412,17.129 41.227,10.55 52.801,8.466 53.986,15.044 
		52.227,15.362 	"/>
	<g>
		
			<text transform="matrix(0.996 -0.0894 0.0894 0.996 69.8105 35.4844)" fill="none" stroke="url(#New_Pattern_Swatch_1)" font-family="'CollegiateBlackFLF'" font-size="35.7464">A</text>
	</g>
	<path fill="none" stroke="#000000" stroke-width="2.814" d="M85.237,20.292l-2.308-4.529l-1.465,4.868L85.237,20.292z
		 M90.528,10.451l-1.496,0.134l7.979,15.723l1.78-0.16l0.6,6.693l-11.393,1.022l-0.6-6.693l0.961-0.087l-0.549-1.314l-7.868,0.706
		l-0.341,1.395l0.961-0.086l0.6,6.693l-11.357,1.019l-0.601-6.693l1.781-0.16l5.052-16.891l-1.281,0.115l-0.598-6.658L89.93,3.792
		L90.528,10.451z"/>
	<g>
		
			<text transform="matrix(1 -0.0014 0.0014 1 100.9766 32.7954)" fill="none" stroke="#000000" stroke-width="2.814" font-family="'CollegiateBlackFLF'" font-size="35.7464">S</text>
	</g>
	<polygon fill="none" stroke="#000000" stroke-width="2.814" points="131.432,21.72 127.044,16.626 127.698,7.857 132.793,3.469 
		145.875,4.445 150.263,9.54 149.827,15.385 141.664,14.777 141.885,11.818 141.029,10.787 136.681,10.462 135.646,11.353 
		135.423,14.347 136.313,15.381 145.012,16.03 149.399,21.125 148.756,29.751 143.661,34.139 130.579,33.164 126.191,28.069 
		126.617,22.367 134.78,22.974 134.57,25.791 135.463,26.789 139.812,27.113 140.808,26.255 141.021,23.404 140.165,22.372 	"/>
	<g>
		
			<text transform="matrix(0.984 0.1779 -0.1779 0.984 160.8364 35.9487)" fill="none" stroke="#364099" font-family="'CollegiateBlackFLF'" font-size="35.7464">O</text>
	</g>
	<path fill="none" stroke="#000000" stroke-width="2.814" d="M178.249,15.653l-4.291-0.775l-1.121,0.777l-2.576,14.247l0.785,1.086
		l4.291,0.775l1.08-0.749l2.575-14.246L178.249,15.653z M170.82,7.517l12.91,2.334l3.833,5.523l-3.605,19.945l-5.524,3.833
		l-12.91-2.334l-3.832-5.524l3.604-19.944L170.82,7.517z"/>
	<polygon fill="none" stroke="#000000" stroke-width="2.814" points="197.912,31.698 196.727,36.375 200.055,37.217 198.407,43.732 
		185.412,40.445 187.059,33.93 188.792,34.368 192.807,18.497 191.075,18.058 192.713,11.578 213.957,16.952 212.029,24.576 
		205.514,22.926 205.803,21.784 200.744,20.503 199.551,25.217 200.729,25.515 201.018,24.372 207.499,26.01 205.281,34.779 
		198.801,33.139 199.09,31.996 	"/>
	<text transform="matrix(1 0 0 1 2.5 234.5425)"><tspan x="0" y="0" fill="none" font-family="'CollegiateFLF'" font-size="209.8112" letter-spacing="-13">1</tspan><tspan x="84.134" y="0" fill="none" font-family="'CollegiateFLF'" font-size="209.8112">7</tspan></text>
	<path fill="none" stroke="#000000" stroke-width="5" d="M80.34,204.749v20.143H12.151v-20.143h21.821v-94.415H12.151V96.486
		L39.217,69.21h23.709v135.538H80.34z M4.179,196.986v35.877h83.924v-35.877H70.688V61.448H35.65L4.179,92.919v25.388h22.029v78.679
		H4.179z M2.5,119.985V92.29l32.521-32.521h37.346v135.329h17.624v39.443H2.5v-39.443h21.82v-75.113H2.5z"/>
	<path fill="none" stroke="#000000" stroke-width="5" d="M156.503,224.051H127.76l49.725-134.698H116.22v10.49H96.078V69.211
		h110.361v20.142L156.503,224.051z M88.105,61.448v46.368h35.878v-10.49h42.172L116.01,232.863h46.369L214.201,92.5V61.448H88.105z
		 M163.636,234.542h-50.354l50.354-135.538h-37.766v10.49H86.427V59.769H216.09v33.57L163.636,234.542z"/>
</g>
</svg>
