<?xml version="1.0" encoding="utf-8"?>
<!-- Generator: Adobe Illustrator 12.0.0, SVG Export Plug-In . SVG Version: 6.00 Build 51448)  -->
<!DOCTYPE svg PUBLIC "-//W3C//DTD SVG 1.1//EN" "http://www.w3.org/Graphics/SVG/1.1/DTD/svg11.dtd" [
	<!ENTITY ns_svg "http://www.w3.org/2000/svg">
	<!ENTITY ns_xlink "http://www.w3.org/1999/xlink">
]>
<svg  version="1.1" id="Layer_1" xmlns="&ns_svg;" xmlns:xlink="&ns_xlink;" width="253.461" height="273.518"
	 viewBox="0 0 253.461 273.518" overflow="visible" enable-background="new 0 0 253.461 273.518" xml:space="preserve">
<g>
	<g>
		<defs>
			<rect id="XMLID_16_" width="253.461" height="273.518"/>
		</defs>
		<clipPath id="XMLID_26_">
			<use xlink:href="#XMLID_16_" />
		</clipPath>
		<path clip-path="url(#XMLID_26_)" fill="none" stroke="#0F0E0F" stroke-width="5.273" d="M127.322,270.574
			c-43.39,0-81.686-23.896-104.527-60.332c-3.266-5.205-5.82-11.012-8.424-16.696l30.865-9.655H209.74l30.682,9.655
			c-2.602,5.685-5.342,11.491-8.605,16.696c-22.844,36.437-61.139,60.332-104.529,60.332"/>
		<path clip-path="url(#XMLID_26_)" fill="none" stroke="#0F0E0F" stroke-width="5.273" d="M126.775,2.943
			c-28.951,0-55.09,9.485-76.429,27.39l19.239,26.442l0,0l114.553-0.251l0,0l19.111-26.191
			C181.911,12.429,155.729,2.943,126.775,2.943"/>
		<path clip-path="url(#XMLID_26_)" fill="#FFFFFF" d="M219.615,135.381c0,55.769-41.256,100.979-92.149,100.979
			s-92.151-45.21-92.151-100.979c0-55.77,41.258-100.979,92.151-100.979S219.615,79.611,219.615,135.381"/>
		
			<ellipse clip-path="url(#XMLID_26_)" fill="none" stroke="#0F0E0F" stroke-width="5.273" cx="127.465" cy="135.381" rx="92.15" ry="100.979"/>
		
			<ellipse clip-path="url(#XMLID_26_)" fill="none" stroke="#0F0E0F" stroke-width="5.273" cx="127.31" cy="136.94" rx="61.838" ry="67.764"/>
		<polygon clip-path="url(#XMLID_26_)" fill="#010101" points="64.607,180.732 61.049,180.134 58.54,182.725 58.011,179.157 
			54.77,177.569 58.001,175.963 58.509,172.392 61.036,174.968 64.588,174.348 62.921,177.545 		"/>
		<polygon clip-path="url(#XMLID_26_)" fill="none" stroke="#0F0E0F" stroke-width="3.661" points="64.607,180.732 61.049,180.134 
			58.54,182.725 58.011,179.157 54.77,177.569 58.001,175.963 58.509,172.392 61.036,174.968 64.588,174.348 62.921,177.545 		"/>
		<polygon clip-path="url(#XMLID_26_)" fill="#010101" points="190.037,181.008 193.516,180.421 195.971,182.955 196.488,179.466 
			199.656,177.914 196.496,176.344 196,172.851 193.531,175.371 190.057,174.764 191.688,177.89 		"/>
		<polygon clip-path="url(#XMLID_26_)" fill="none" stroke="#0F0E0F" stroke-width="3.58" points="190.037,181.008 193.516,180.421 
			195.971,182.955 196.488,179.466 199.656,177.914 196.496,176.344 196,172.851 193.531,175.371 190.057,174.764 191.688,177.89 		
			"/>
	</g>
	<g>
		<defs>
			<rect id="XMLID_18_" width="253.461" height="273.518"/>
		</defs>
		<clipPath id="XMLID_27_">
			<use xlink:href="#XMLID_18_" />
		</clipPath>
		<path clip-path="url(#XMLID_27_)" fill="none" d="M65.41,137.678c0,37.423,27.686,67.762,61.836,67.762
			c34.152,0,61.838-30.339,61.838-67.762c0-37.425-27.686-67.763-61.838-67.763C93.096,69.915,65.41,100.253,65.41,137.678"/>
	</g>
	<g>
		<defs>
			<path id="XMLID_20_" d="M65.41,137.678c0,37.423,27.686,67.762,61.836,67.762l0,0c34.153,0,61.838-30.339,61.838-67.762l0,0
				c0-37.424-27.685-67.762-61.838-67.762l0,0C93.096,69.916,65.41,100.254,65.41,137.678"/>
		</defs>
		<clipPath id="XMLID_28_">
			<use xlink:href="#XMLID_20_" />
		</clipPath>
		<line clip-path="url(#XMLID_28_)" fill="#92C84F" x1="79.389" y1="59.349" x2="79.389" y2="227.839"/>
		
			<line clip-path="url(#XMLID_28_)" fill="none" stroke="#000000" stroke-width="2" x1="79.389" y1="59.349" x2="79.389" y2="227.839"/>
		<line clip-path="url(#XMLID_28_)" fill="#92C84F" x1="69.822" y1="59.349" x2="69.822" y2="227.839"/>
		
			<line clip-path="url(#XMLID_28_)" fill="none" stroke="#000000" stroke-width="2" x1="69.822" y1="59.349" x2="69.822" y2="227.839"/>
		<line clip-path="url(#XMLID_28_)" fill="#92C84F" x1="184.602" y1="59.349" x2="184.602" y2="227.839"/>
		
			<line clip-path="url(#XMLID_28_)" fill="none" stroke="#000000" stroke-width="2" x1="184.602" y1="59.349" x2="184.602" y2="227.839"/>
		<line clip-path="url(#XMLID_28_)" fill="#92C84F" x1="175.773" y1="59.349" x2="175.773" y2="227.839"/>
		
			<line clip-path="url(#XMLID_28_)" fill="none" stroke="#000000" stroke-width="2" x1="175.773" y1="59.349" x2="175.773" y2="227.839"/>
		<line clip-path="url(#XMLID_28_)" fill="#92C84F" x1="166.943" y1="59.349" x2="166.943" y2="227.839"/>
		
			<line clip-path="url(#XMLID_28_)" fill="none" stroke="#000000" stroke-width="2" x1="166.943" y1="59.349" x2="166.943" y2="227.839"/>
		<line clip-path="url(#XMLID_28_)" fill="#92C84F" x1="158.115" y1="59.349" x2="158.115" y2="227.839"/>
		
			<line clip-path="url(#XMLID_28_)" fill="none" stroke="#000000" stroke-width="2" x1="158.115" y1="59.349" x2="158.115" y2="227.839"/>
		<line clip-path="url(#XMLID_28_)" fill="#92C84F" x1="149.285" y1="59.349" x2="149.285" y2="227.839"/>
		
			<line clip-path="url(#XMLID_28_)" fill="none" stroke="#000000" stroke-width="2" x1="149.285" y1="59.349" x2="149.285" y2="227.839"/>
		<line clip-path="url(#XMLID_28_)" fill="#92C84F" x1="140.455" y1="59.349" x2="140.455" y2="227.839"/>
		
			<line clip-path="url(#XMLID_28_)" fill="none" stroke="#000000" stroke-width="2" x1="140.455" y1="59.349" x2="140.455" y2="227.839"/>
		<line clip-path="url(#XMLID_28_)" fill="#92C84F" x1="131.627" y1="59.349" x2="131.627" y2="227.839"/>
		
			<line clip-path="url(#XMLID_28_)" fill="none" stroke="#000000" stroke-width="2" x1="131.627" y1="59.349" x2="131.627" y2="227.839"/>
		<line clip-path="url(#XMLID_28_)" fill="#92C84F" x1="122.797" y1="59.349" x2="122.797" y2="227.839"/>
		
			<line clip-path="url(#XMLID_28_)" fill="none" stroke="#000000" stroke-width="2" x1="122.797" y1="59.349" x2="122.797" y2="227.839"/>
		<line clip-path="url(#XMLID_28_)" fill="#92C84F" x1="113.969" y1="59.349" x2="113.969" y2="227.839"/>
		
			<line clip-path="url(#XMLID_28_)" fill="none" stroke="#000000" stroke-width="2" x1="113.969" y1="59.349" x2="113.969" y2="227.839"/>
		<line clip-path="url(#XMLID_28_)" fill="#92C84F" x1="105.139" y1="59.349" x2="105.139" y2="227.839"/>
		
			<line clip-path="url(#XMLID_28_)" fill="none" stroke="#000000" stroke-width="2" x1="105.139" y1="59.349" x2="105.139" y2="227.839"/>
		<line clip-path="url(#XMLID_28_)" fill="#92C84F" x1="96.311" y1="59.349" x2="96.311" y2="227.839"/>
		
			<line clip-path="url(#XMLID_28_)" fill="none" stroke="#000000" stroke-width="2" x1="96.311" y1="59.349" x2="96.311" y2="227.839"/>
		<line clip-path="url(#XMLID_28_)" fill="#92C84F" x1="87.48" y1="59.349" x2="87.48" y2="227.839"/>
		
			<line clip-path="url(#XMLID_28_)" fill="none" stroke="#000000" stroke-width="2" x1="87.48" y1="59.349" x2="87.48" y2="227.839"/>
	</g>
	<g>
		<defs>
			<rect id="XMLID_22_" width="253.461" height="273.518"/>
		</defs>
		<clipPath id="XMLID_29_">
			<use xlink:href="#XMLID_22_" />
		</clipPath>
		<line clip-path="url(#XMLID_29_)" fill="#231F20" x1="61.395" y1="207.68" x2="34.908" y2="226.019"/>
		
			<line clip-path="url(#XMLID_29_)" fill="none" stroke="#0F0E0F" stroke-width="3.296" x1="61.395" y1="207.68" x2="34.908" y2="226.019"/>
		<line clip-path="url(#XMLID_29_)" fill="#231F20" x1="50.242" y1="192.449" x2="20.553" y2="204.953"/>
		
			<line clip-path="url(#XMLID_29_)" fill="none" stroke="#0F0E0F" stroke-width="3.296" x1="50.242" y1="192.449" x2="20.553" y2="204.953"/>
		<line clip-path="url(#XMLID_29_)" fill="#231F20" x1="54.607" y1="200.894" x2="26.492" y2="216.62"/>
		
			<line clip-path="url(#XMLID_29_)" fill="none" stroke="#0F0E0F" stroke-width="3.296" x1="54.607" y1="200.894" x2="26.492" y2="216.62"/>
		<line clip-path="url(#XMLID_29_)" fill="#231F20" x1="194.195" y1="207.68" x2="220.682" y2="226.019"/>
		
			<line clip-path="url(#XMLID_29_)" fill="none" stroke="#0F0E0F" stroke-width="3.296" x1="194.195" y1="207.68" x2="220.682" y2="226.019"/>
		<line clip-path="url(#XMLID_29_)" fill="#231F20" x1="205.348" y1="192.449" x2="235.035" y2="204.953"/>
		
			<line clip-path="url(#XMLID_29_)" fill="none" stroke="#0F0E0F" stroke-width="3.296" x1="205.348" y1="192.449" x2="235.035" y2="204.953"/>
		<line clip-path="url(#XMLID_29_)" fill="#231F20" x1="200.982" y1="200.894" x2="229.1" y2="216.62"/>
		
			<line clip-path="url(#XMLID_29_)" fill="none" stroke="#0F0E0F" stroke-width="3.296" x1="200.982" y1="200.894" x2="229.1" y2="216.62"/>
		<line clip-path="url(#XMLID_29_)" fill="#231F20" x1="76.875" y1="49.547" x2="57.9" y2="23.511"/>
		
			<line clip-path="url(#XMLID_29_)" fill="none" stroke="#0F0E0F" stroke-width="3.296" x1="76.875" y1="49.547" x2="57.9" y2="23.511"/>
		<line clip-path="url(#XMLID_29_)" fill="#231F20" x1="177.178" y1="49.547" x2="196.152" y2="23.511"/>
		
			<line clip-path="url(#XMLID_29_)" fill="none" stroke="#0F0E0F" stroke-width="3.296" x1="177.178" y1="49.547" x2="196.152" y2="23.511"/>
	</g>
	<text transform="matrix(0.839 0.5441 -0.5441 0.839 57.0679 236.957)" font-family="'NHLTorontoAlternate'" font-size="20.0936">C</text>
	<text transform="matrix(0.9152 0.4029 -0.4029 0.9152 78.459 249.4219)" font-family="'NHLTorontoAlternate'" font-size="20.0936">O</text>
	
		<text transform="matrix(0.9748 0.2232 -0.2232 0.9748 102.0586 258.1592)" font-family="'NHLTorontoAlternate'" font-size="20.0935">L</text>
	<text transform="matrix(1 0 0 1 127.2461 261.7939)" font-family="'NHLTorontoAlternate'" font-size="20.0936">L</text>
	
		<text transform="matrix(0.9698 -0.2441 0.2441 0.9698 150.2871 260.1543)" font-family="'NHLTorontoAlternate'" font-size="20.0937">E</text>
	
		<text transform="matrix(0.8841 -0.4673 0.4673 0.8841 173.6592 252.2852)" font-family="'NHLTorontoAlternate'" font-size="20.0936">G</text>
	
		<text transform="matrix(0.7743 -0.6328 0.6328 0.7743 195.0313 239.0664)" font-family="'NHLTorontoAlternate'" font-size="20.0936">E</text>
	<g>
		
			<text transform="matrix(0.9129 -0.4081 0.4081 0.9129 85.3198 37.8799)" font-family="'NHLTorontoAlternate'" font-size="20.0937">Y</text>
	</g>
	<g>
		
			<text transform="matrix(0.9803 -0.1977 0.1977 0.9803 104.8008 30.4727)" font-family="'NHLTorontoAlternate'" font-size="20.0937">R</text>
	</g>
	<g>
		
			<text transform="matrix(0.9842 0.1769 -0.1769 0.9842 139.0547 28.2466)" font-family="'NHLTorontoAlternate'" font-size="20.0937">1</text>
	</g>
	<g>
		
			<text transform="matrix(0.9257 0.3784 -0.3784 0.9257 155.4541 32.1963)" font-family="'NHLTorontoAlternate'" font-size="20.0937">2</text>
	</g>
	<g>
		
			<text transform="matrix(0.7795 0.6264 -0.6264 0.7795 65.6973 201.4277)" font-family="'NHLTorontoAlternate'" font-size="20.0937">C</text>
	</g>
	<g>
		
			<text transform="matrix(0.8659 0.5002 -0.5002 0.8659 81.2788 212.9502)" font-family="'NHLTorontoAlternate'" font-size="20.0937">L</text>
	</g>
	<g>
		
			<text transform="matrix(0.9423 0.3346 -0.3346 0.9423 97.7437 221.5674)" font-family="'NHLTorontoAlternate'" font-size="20.0937">A</text>
	</g>
	<g>
		<text transform="matrix(0.9943 0.107 -0.107 0.9943 116.689 227.0605)" font-family="'NHLTorontoAlternate'" font-size="20.0937">S</text>
	</g>
	<g>
		
			<text transform="matrix(0.9865 -0.1636 0.1636 0.9865 136.1641 227.832)" font-family="'NHLTorontoAlternate'" font-size="20.0937">S</text>
	</g>
	<g>
		
			<text transform="matrix(0.8513 -0.5247 0.5247 0.8513 164.1768 219.041)" font-family="'NHLTorontoAlternate'" font-size="20.0937">O</text>
	</g>
	<g>
		
			<text transform="matrix(0.7365 -0.6764 0.6764 0.7365 180.3369 207.9258)" font-family="'NHLTorontoAlternate'" font-size="20.0937">F</text>
	</g>
	<g>
		
			<text transform="matrix(0.3109 -0.9504 0.9504 0.3109 60.6216 117.2715)" font-family="'NHLTorontoAlternate'" font-size="20.0937">S</text>
	</g>
	<g>
		
			<text transform="matrix(0.5079 -0.8614 0.8614 0.5079 67.6846 99.1177)" font-family="'NHLTorontoAlternate'" font-size="20.0937">E</text>
	</g>
	<g>
		
			<text transform="matrix(0.7264 -0.6873 0.6873 0.7264 78.4395 83.2939)" font-family="'NHLTorontoAlternate'" font-size="20.0937">N</text>
	</g>
	<g>
		
			<text transform="matrix(0.8892 -0.4575 0.4575 0.8892 93.7852 71.1509)" font-family="'NHLTorontoAlternate'" font-size="20.0937">I</text>
	</g>
	<g>
		
			<text transform="matrix(0.9785 -0.2063 0.2063 0.9785 106.8774 65.585)" font-family="'NHLTorontoAlternate'" font-size="20.0937">O</text>
	</g>
	<g>
		
			<text transform="matrix(0.9965 0.0835 -0.0835 0.9965 126.3599 62.8809)" font-family="'NHLTorontoAlternate'" font-size="20.0937">R</text>
	</g>
	<g>
		
			<text transform="matrix(0.8585 0.5127 -0.5127 0.8585 158.0674 70.7104)" font-family="'NHLTorontoAlternate'" font-size="20.0937">Y</text>
	</g>
	<g>
		
			<text transform="matrix(0.6722 0.7404 -0.7404 0.6722 173.7725 81.8584)" font-family="'NHLTorontoAlternate'" font-size="20.0937">E</text>
	</g>
	<g>
		
			<text transform="matrix(0.4395 0.8982 -0.8982 0.4395 185.5439 96.9229)" font-family="'NHLTorontoAlternate'" font-size="20.0937">A</text>
	</g>
	<g>
		
			<text transform="matrix(0.2247 0.9744 -0.9744 0.2247 192.9941 114.9502)" font-family="'NHLTorontoAlternate'" font-size="20.0937">R</text>
	</g>
	<g>
		<g>
			<path fill="#FFFFFF" d="M96.568,93.162h10.863v73.313h4.438v16.25H88.057v-16.25h4.5v-49.794h-4.5v-12.879L96.568,93.162z"/>
			<path fill="#FFFFFF" d="M169.548,111.745L151.414,166.6h3.381v16.125H130.92V166.6h4.5l18.457-57.188H135.42v9.5h-15.125v-25.75
				h46.119L169.548,111.745z"/>
		</g>
	</g>
	<g>
		<defs>
			<rect id="XMLID_24_" width="253.461" height="273.518"/>
		</defs>
		<clipPath id="XMLID_30_">
			<use xlink:href="#XMLID_24_" />
		</clipPath>
		<polygon clip-path="url(#XMLID_30_)" fill="none" stroke="#010101" stroke-width="5" points="88.107,103.808 88.107,116.681 
			92.586,116.681 92.586,166.493 88.107,166.493 88.107,182.725 111.949,182.725 111.949,166.493 107.584,166.493 107.584,93.174 
			96.663,93.174 		"/>
		<polygon clip-path="url(#XMLID_30_)" fill="none" stroke="#010101" stroke-width="5" points="166.463,93.174 120.346,93.174 
			120.346,118.919 135.344,118.919 135.344,109.404 153.926,109.404 135.344,166.493 130.979,166.493 130.979,182.725 
			154.82,182.725 154.82,166.493 151.463,166.493 169.6,111.728 		"/>
	</g>
</g>
</svg>
