<?xml version="1.0" encoding="utf-8"?>
<!-- Generator: Adobe Illustrator 12.0.0, SVG Export Plug-In . SVG Version: 6.00 Build 51448)  -->
<!DOCTYPE svg PUBLIC "-//W3C//DTD SVG 1.1//EN" "http://www.w3.org/Graphics/SVG/1.1/DTD/svg11.dtd" [
	<!ENTITY ns_svg "http://www.w3.org/2000/svg">
	<!ENTITY ns_xlink "http://www.w3.org/1999/xlink">
]>
<svg  version="1.1" id="Layer_1" xmlns="&ns_svg;" xmlns:xlink="&ns_xlink;" width="451.8" height="339.449"
	 viewBox="0 0 451.8 339.449" overflow="visible" enable-background="new 0 0 451.8 339.449" xml:space="preserve">
<g>
	<path fill="none" stroke="#000000" stroke-width="10" d="M391.669,169.725c0,90.975-73.751,164.725-164.726,164.725
		c-90.974,0-164.724-73.75-164.724-164.725c0-14.433,1.855-28.43,5.341-41.77C86.051,57.209,150.4,5,226.943,5
		C317.918,5,391.669,78.749,391.669,169.725"/>
	<line fill="#FFFFFF" stroke="#000000" x1="77.482" y1="98.716" x2="376.367" y2="98.716"/>
	<line fill="none" stroke="#000000" stroke-width="4" stroke-miterlimit="10" x1="77.482" y1="98.716" x2="376.367" y2="98.716"/>
	<line fill="#FFFFFF" stroke="#000000" x1="114.896" y1="45.816" x2="340.277" y2="45.816"/>
	<line fill="none" stroke="#000000" stroke-width="4" stroke-miterlimit="10" x1="114.896" y1="45.816" x2="340.277" y2="45.816"/>
	<line fill="#FFFFFF" stroke="#000000" x1="77.482" y1="241.229" x2="376.93" y2="241.229"/>
	<line fill="none" stroke="#000000" stroke-width="4" stroke-miterlimit="10" x1="77.482" y1="241.229" x2="376.93" y2="241.229"/>
	<line fill="#FFFFFF" stroke="#000000" x1="119.043" y1="294.126" x2="337.656" y2="294.126"/>
	
		<line fill="none" stroke="#000000" stroke-width="4" stroke-miterlimit="10" x1="119.043" y1="294.126" x2="337.656" y2="294.126"/>
	<line fill="#FFFFFF" stroke="#000000" x1="135.918" y1="309.076" x2="318.529" y2="309.076"/>
	
		<line fill="none" stroke="#000000" stroke-width="4" stroke-miterlimit="10" x1="135.918" y1="309.076" x2="318.529" y2="309.076"/>
	<line fill="#FFFFFF" stroke="#000000" x1="164.046" y1="322.876" x2="292.651" y2="322.876"/>
	
		<line fill="none" stroke="#000000" stroke-width="4" stroke-miterlimit="10" x1="164.046" y1="322.876" x2="292.651" y2="322.876"/>
	<line fill="#FFFFFF" stroke="#000000" x1="163.272" y1="16.986" x2="292.785" y2="16.986"/>
	<line fill="none" stroke="#000000" stroke-width="4" stroke-miterlimit="10" x1="163.272" y1="16.986" x2="292.785" y2="16.986"/>
	<line fill="#FFFFFF" stroke="#000000" x1="139.106" y1="30.784" x2="313.571" y2="30.784"/>
	<line fill="none" stroke="#000000" stroke-width="4" stroke-miterlimit="10" x1="139.106" y1="30.784" x2="313.571" y2="30.784"/>
</g>
<text transform="matrix(1.2353 0 0 1 87.9063 215.7148)" fill="none" stroke="#000000" stroke-width="5" font-family="'NHLNewJersey'" font-size="114.6981">2017</text>
<text transform="matrix(1.6237 0 0 1 126.9463 91.7773)" fill="none" stroke="#000000" stroke-width="2" font-family="'NHLNewJersey'" font-size="49.0216">SENIOR</text>
<text transform="matrix(1.7358 0 0 1 64.4473 286.8438)" fill="none" stroke="#000000" stroke-width="2" font-family="'NHLNewJersey'" font-size="47.8268">  YEAR</text>
<g>
	<circle fill="none" stroke="#010101" stroke-width="6" cx="21.974" cy="169.357" r="18.974"/>
	<path fill="#010101" d="M30.542,169.829c0,4.732-3.837,8.568-8.569,8.568c-4.731,0-8.568-3.836-8.568-8.568
		c0-4.733,3.837-8.569,8.568-8.569C26.705,161.26,30.542,165.096,30.542,169.829"/>
	<circle fill="none" stroke="#010101" stroke-width="6" cx="429.827" cy="169.357" r="18.973"/>
	<path fill="#010101" d="M438.778,169.829c0,4.732-3.836,8.568-8.568,8.568c-4.731,0-8.569-3.836-8.569-8.568
		c0-4.733,3.838-8.569,8.569-8.569C434.942,161.26,438.778,165.096,438.778,169.829"/>
</g>
</svg>
