<?xml version="1.0" encoding="utf-8"?>
<!-- Generator: Adobe Illustrator 12.0.0, SVG Export Plug-In . SVG Version: 6.00 Build 51448)  -->
<!DOCTYPE svg PUBLIC "-//W3C//DTD SVG 1.1//EN" "http://www.w3.org/Graphics/SVG/1.1/DTD/svg11.dtd" [
	<!ENTITY ns_svg "http://www.w3.org/2000/svg">
	<!ENTITY ns_xlink "http://www.w3.org/1999/xlink">
]>
<svg  version="1.1" id="Layer_1" xmlns="&ns_svg;" xmlns:xlink="&ns_xlink;" width="233.613" height="233.612"
	 viewBox="0 0 233.613 233.612" overflow="visible" enable-background="new 0 0 233.613 233.612" xml:space="preserve">
<g>
	<g>
		<defs>
			<rect id="XMLID_1_" width="233.613" height="233.612"/>
		</defs>
		<clipPath id="XMLID_43_">
			<use xlink:href="#XMLID_1_" />
		</clipPath>
		<path clip-path="url(#XMLID_43_)" fill="none" d="M230.613,116.806c0,62.854-50.953,113.807-113.808,113.807
			C53.953,230.612,3,179.66,3,116.806C3,53.953,53.953,3.001,116.806,3.001C179.66,3.001,230.613,53.953,230.613,116.806"/>
		<circle clip-path="url(#XMLID_43_)" fill="none" stroke="#000000" stroke-width="6" cx="116.807" cy="116.806" r="113.807"/>
	</g>
	
		<text transform="matrix(0.6453 -0.7782 0.7698 0.6383 43.0078 62.8237)" fill="#010101" font-family="'Bauhaus93'" font-size="20.7469">S</text>
	<g>
		<defs>
			<rect id="XMLID_3_" width="233.613" height="233.612"/>
		</defs>
		<clipPath id="XMLID_44_">
			<use xlink:href="#XMLID_3_" />
		</clipPath>
		<path clip-path="url(#XMLID_44_)" fill="none" stroke="#FFFFFF" d="M36.115,48.93c-0.833,1.004-1.186,2.167-1.061,3.492
			c0.127,1.324,0.691,2.401,1.695,3.233c0.831,0.69,1.862,1.141,3.09,1.353c0.774,0.135,1.238,0.268,1.395,0.397
			c0.238,0.198,0.359,0.456,0.363,0.774s-0.108,0.616-0.34,0.896c-0.195,0.235-0.517,0.427-0.961,0.571l3.079,2.555
			c0.653-0.311,1.192-0.724,1.619-1.238c0.89-1.072,1.283-2.277,1.183-3.616c-0.101-1.338-0.668-2.437-1.703-3.294
			c-0.707-0.586-1.623-0.974-2.748-1.162l-0.623-0.104c-0.485-0.082-0.834-0.211-1.047-0.389c-0.25-0.207-0.391-0.47-0.424-0.791
			c-0.033-0.319,0.051-0.6,0.252-0.842c0.104-0.127,0.291-0.273,0.562-0.438l-3.034-2.517C36.914,48.115,36.481,48.488,36.115,48.93
			z"/>
	</g>
	
		<text transform="matrix(0.7622 -0.664 0.6569 0.754 52.145 52.3203)" fill="#010101" font-family="'Bauhaus93'" font-size="20.7469">E</text>
	<g>
		<defs>
			<rect id="XMLID_5_" width="233.613" height="233.612"/>
		</defs>
		<clipPath id="XMLID_45_">
			<use xlink:href="#XMLID_5_" />
		</clipPath>
		<path clip-path="url(#XMLID_45_)" fill="none" stroke="#FFFFFF" d="M51.596,41.638c-0.33,0.286-0.593,0.446-0.791,0.479
			c-0.197,0.033-0.384-0.052-0.563-0.256c-0.301-0.346-0.182-0.754,0.358-1.226l2-1.742l-2.608-2.994l-2.726,2.375
			c-1.05,0.915-1.625,1.898-1.726,2.954c-0.1,1.054,0.285,2.08,1.154,3.078l3.561,4.087c0.9,1.033,1.896,1.557,2.986,1.57
			c1.088,0.015,2.213-0.483,3.371-1.492l2.463-2.146l-2.596-2.979l-2.107,1.837c-0.366,0.317-0.637,0.494-0.816,0.528
			c-0.178,0.034-0.361-0.058-0.553-0.276c-0.17-0.193-0.231-0.381-0.186-0.564c0.045-0.182,0.205-0.394,0.484-0.636l2.045-1.783
			l-2.023-2.322L51.596,41.638z"/>
	</g>
	
		<text transform="matrix(0.8696 -0.5156 0.51 0.8602 63.9834 42.5005)" fill="#010101" font-family="'Bauhaus93'" font-size="20.747">N</text>
	<g>
		<defs>
			<rect id="XMLID_7_" width="233.613" height="233.612"/>
		</defs>
		<clipPath id="XMLID_46_">
			<use xlink:href="#XMLID_7_" />
		</clipPath>
		<path clip-path="url(#XMLID_46_)" fill="none" stroke="#FFFFFF" d="M68.561,39.823l-4.505-7.598
			c-0.431-0.727-0.394-1.239,0.11-1.539c0.523-0.311,1-0.102,1.432,0.625l4.505,7.598l3.576-2.12l-4.505-7.599
			c-0.879-1.481-1.911-2.404-3.1-2.768c-1.188-0.363-2.46-0.143-3.816,0.661c-1.363,0.809-2.213,1.862-2.549,3.16
			c-0.338,1.299-0.105,2.626,0.697,3.979l4.577,7.721L68.561,39.823z"/>
	</g>
	
		<text transform="matrix(0.9422 -0.3663 0.3623 0.932 79.4639 34.1514)" fill="#010101" font-family="'Bauhaus93'" font-size="20.747">I</text>
	<g>
		<defs>
			<rect id="XMLID_9_" width="233.613" height="233.612"/>
		</defs>
		<clipPath id="XMLID_47_">
			<use xlink:href="#XMLID_9_" />
		</clipPath>
		
			<rect x="73.297" y="24.328" transform="matrix(-0.3623 -0.9321 0.9321 -0.3623 84.6572 110.7361)" clip-path="url(#XMLID_47_)" fill="none" stroke="#FFFFFF" width="13.828" height="4.159"/>
	</g>
	
		<text transform="matrix(0.9932 -0.1883 0.1862 0.9825 90.9688 29.7412)" fill="#010101" font-family="'Bauhaus93'" font-size="20.7469">O</text>
	<g>
		<defs>
			<rect id="XMLID_11_" width="233.613" height="233.612"/>
		</defs>
		<clipPath id="XMLID_48_">
			<use xlink:href="#XMLID_11_" />
		</clipPath>
		<path clip-path="url(#XMLID_48_)" fill="none" stroke="#FFFFFF" d="M99.113,18.861c0.701,0.496,1.136,1.179,1.299,2.048
			c0.166,0.869,0.012,1.663-0.459,2.381c-0.473,0.719-1.131,1.158-1.977,1.318c-0.832,0.157-1.602-0.013-2.312-0.511
			c-0.71-0.497-1.146-1.178-1.31-2.041c-0.162-0.861-0.008-1.654,0.467-2.377s1.131-1.164,1.97-1.321
			C97.637,18.198,98.41,18.366,99.113,18.861z M91.34,17.391c-1.157,1.649-1.547,3.47-1.169,5.46
			c0.373,1.971,1.396,3.52,3.069,4.646c1.672,1.126,3.504,1.501,5.496,1.124c2.006-0.381,3.578-1.397,4.717-3.05
			c1.14-1.652,1.521-3.472,1.146-5.454c-0.37-1.951-1.384-3.495-3.041-4.631c-1.657-1.137-3.458-1.521-5.403-1.151
			C94.102,14.723,92.496,15.742,91.34,17.391z"/>
	</g>
	
		<text transform="matrix(1.0106 0.0237 -0.0235 0.9997 111.7104 26.5132)" fill="#010101" font-family="'Bauhaus93'" font-size="20.7469">R</text>
	<g>
		<defs>
			<rect id="XMLID_13_" width="233.613" height="233.612"/>
		</defs>
		<clipPath id="XMLID_49_">
			<use xlink:href="#XMLID_13_" />
		</clipPath>
		<path clip-path="url(#XMLID_49_)" fill="none" stroke="#FFFFFF" d="M118.256,16.599c1.01,0.024,1.507,0.363,1.492,1.019
			c-0.018,0.743-0.463,1.104-1.337,1.084l-0.327-0.008L118,22.247l1.912,4.504l4.361,0.103l-2.262-5.759
			c1.258-0.929,1.903-2.093,1.936-3.49c0.033-1.37-0.439-2.514-1.414-3.428c-0.875-0.817-2.125-1.246-3.75-1.284l-5.334-0.125
			l-0.324,13.824l4.156,0.098l0.238-10.107L118.256,16.599z"/>
	</g>
	
		<text transform="matrix(0.9589 0.3202 -0.3167 0.9485 139.7617 29.6802)" fill="#010101" font-family="'Bauhaus93'" font-size="20.7469">Y</text>
	<g>
		<defs>
			<rect id="XMLID_15_" width="233.613" height="233.612"/>
		</defs>
		<clipPath id="XMLID_50_">
			<use xlink:href="#XMLID_15_" />
		</clipPath>
		<polygon clip-path="url(#XMLID_50_)" fill="none" stroke="#FFFFFF" points="150.894,18.831 148.156,20.918 147.349,17.646 
			143.347,16.311 145.178,23.404 142.746,30.688 146.688,32.005 149.121,24.722 154.817,20.141 		"/>
	</g>
	
		<text transform="matrix(0.89 0.4795 -0.4744 0.8803 154.6484 35.0869)" fill="#010101" font-family="'Bauhaus93'" font-size="20.747">E</text>
	<g>
		<defs>
			<rect id="XMLID_17_" width="233.613" height="233.612"/>
		</defs>
		<clipPath id="XMLID_51_">
			<use xlink:href="#XMLID_17_" />
		</clipPath>
		<path clip-path="url(#XMLID_51_)" fill="none" stroke="#FFFFFF" d="M164.373,30.814c-0.385-0.208-0.627-0.397-0.729-0.571
			c-0.101-0.173-0.086-0.378,0.041-0.616c0.219-0.404,0.644-0.437,1.274-0.096l2.335,1.258l1.885-3.496l-3.184-1.715
			c-1.227-0.66-2.35-0.853-3.373-0.575c-1.021,0.278-1.848,1-2.475,2.165l-2.57,4.771c-0.651,1.208-0.79,2.322-0.419,3.348
			c0.37,1.023,1.231,1.901,2.584,2.63l2.876,1.549l1.874-3.478l-2.461-1.326c-0.427-0.23-0.688-0.423-0.783-0.577
			c-0.095-0.155-0.073-0.36,0.063-0.616c0.123-0.226,0.276-0.35,0.463-0.372c0.187-0.021,0.442,0.055,0.767,0.229l2.39,1.287
			l1.461-2.711L164.373,30.814z"/>
	</g>
	
		<text transform="matrix(0.7885 0.6326 -0.6257 0.78 167.8633 42.7495)" fill="#010101" font-family="'Bauhaus93'" font-size="20.7469">A</text>
	<g>
		<defs>
			<rect id="XMLID_19_" width="233.613" height="233.612"/>
		</defs>
		<clipPath id="XMLID_52_">
			<use xlink:href="#XMLID_19_" />
		</clipPath>
		<path clip-path="url(#XMLID_52_)" fill="none" stroke="#FFFFFF" d="M176.387,40.64l1.078-1.343c0.6-0.748,1.152-0.92,1.658-0.513
			c0.262,0.209,0.377,0.436,0.347,0.68c-0.028,0.245-0.213,0.578-0.551,0.999l-5.421,6.756l3.244,2.603l5.59-6.97
			c1.117-1.391,1.636-2.665,1.557-3.822c-0.077-1.158-0.755-2.249-2.033-3.275c-1.326-1.063-2.65-1.521-3.972-1.374
			c-1.322,0.147-2.515,0.885-3.58,2.212l-5.502,6.86l3.243,2.601l2.06-2.567l0.935,0.75l2.283-2.846L176.387,40.64z"/>
	</g>
	
		<text transform="matrix(0.6505 0.7738 -0.7655 0.6435 181.3379 54.1919)" fill="#010101" font-family="'Bauhaus93'" font-size="20.7469">R</text>
	<g>
		<defs>
			<rect id="XMLID_21_" width="233.613" height="233.612"/>
		</defs>
		<clipPath id="XMLID_53_">
			<use xlink:href="#XMLID_21_" />
		</clipPath>
		<path clip-path="url(#XMLID_53_)" fill="none" stroke="#FFFFFF" d="M193.184,52.519c0.65,0.772,0.726,1.37,0.224,1.792
			c-0.569,0.479-1.134,0.383-1.696-0.286l-0.211-0.251l-2.722,2.288l-2.114,4.412l2.809,3.34l2.822-5.504
			c1.53,0.328,2.829,0.043,3.899-0.856c1.05-0.882,1.595-1.992,1.636-3.329c0.034-1.197-0.471-2.418-1.518-3.661l-3.433-4.084
			l-10.585,8.897l2.676,3.183l7.739-6.505L193.184,52.519z"/>
		<circle clip-path="url(#XMLID_53_)" fill="none" stroke="#000000" stroke-width="3.641" cx="19.232" cy="118.082" r="7.283"/>
		<circle clip-path="url(#XMLID_53_)" fill="none" stroke="#000000" stroke-width="3.641" cx="116.747" cy="215.425" r="7.282"/>
		<circle clip-path="url(#XMLID_53_)" fill="none" stroke="#000000" stroke-width="3.641" cx="213.847" cy="118.082" r="7.283"/>
	</g>
	<g>
		<defs>
			<path id="XMLID_23_" d="M34.447,118.449c0,45.364,36.777,82.139,82.14,82.139l0,0c45.364,0,82.14-36.774,82.14-82.139l0,0
				c0-45.364-36.775-82.139-82.14-82.139l0,0C71.225,36.311,34.447,73.085,34.447,118.449"/>
		</defs>
		<clipPath id="XMLID_54_">
			<use xlink:href="#XMLID_23_" />
		</clipPath>
		<circle clip-path="url(#XMLID_54_)" fill="none" stroke="#299ED9" stroke-width="4" cx="116.587" cy="118.449" r="82.14"/>
		
			<line clip-path="url(#XMLID_54_)" fill="none" stroke="#000000" stroke-width="4" x1="30.766" y1="54.485" x2="196.561" y2="33.728"/>
		
			<line clip-path="url(#XMLID_54_)" fill="none" stroke="#000000" stroke-width="4" x1="30.766" y1="65.091" x2="196.561" y2="44.334"/>
		
			<line clip-path="url(#XMLID_54_)" fill="none" stroke="#000000" stroke-width="4" x1="30.766" y1="75.697" x2="196.561" y2="54.94"/>
		
			<line clip-path="url(#XMLID_54_)" fill="none" stroke="#000000" stroke-width="4" x1="30.766" y1="86.302" x2="196.561" y2="65.547"/>
		
			<line clip-path="url(#XMLID_54_)" fill="none" stroke="#000000" stroke-width="4" x1="30.766" y1="96.907" x2="196.561" y2="76.152"/>
		
			<line clip-path="url(#XMLID_54_)" fill="none" stroke="#000000" stroke-width="4" x1="30.766" y1="107.515" x2="196.561" y2="86.757"/>
		
			<line clip-path="url(#XMLID_54_)" fill="none" stroke="#000000" stroke-width="4" x1="30.766" y1="118.12" x2="196.561" y2="97.364"/>
		
			<line clip-path="url(#XMLID_54_)" fill="none" stroke="#000000" stroke-width="4" x1="30.766" y1="128.728" x2="196.561" y2="107.971"/>
		
			<line clip-path="url(#XMLID_54_)" fill="none" stroke="#000000" stroke-width="4" x1="30.766" y1="139.334" x2="196.561" y2="118.577"/>
		
			<line clip-path="url(#XMLID_54_)" fill="none" stroke="#000000" stroke-width="4" x1="30.766" y1="149.941" x2="196.561" y2="129.185"/>
		
			<line clip-path="url(#XMLID_54_)" fill="none" stroke="#000000" stroke-width="4" x1="30.766" y1="160.547" x2="196.561" y2="139.791"/>
		
			<line clip-path="url(#XMLID_54_)" fill="none" stroke="#000000" stroke-width="4" x1="30.766" y1="171.152" x2="196.561" y2="150.396"/>
		
			<line clip-path="url(#XMLID_54_)" fill="none" stroke="#000000" stroke-width="4" x1="30.766" y1="181.759" x2="196.561" y2="161.002"/>
		
			<line clip-path="url(#XMLID_54_)" fill="none" stroke="#000000" stroke-width="4" x1="30.766" y1="192.364" x2="196.561" y2="171.608"/>
		
			<line clip-path="url(#XMLID_54_)" fill="none" stroke="#000000" stroke-width="4" x1="30.766" y1="202.971" x2="196.561" y2="182.214"/>
		
			<line clip-path="url(#XMLID_54_)" fill="none" stroke="#299ED9" stroke-width="4" x1="30.766" y1="213.576" x2="196.561" y2="192.82"/>
	</g>
	<g>
		<defs>
			<rect id="XMLID_25_" width="233.613" height="233.612"/>
		</defs>
		<clipPath id="XMLID_55_">
			<use xlink:href="#XMLID_25_" />
		</clipPath>
		<circle clip-path="url(#XMLID_55_)" fill="none" stroke="#000000" stroke-width="4" cx="116.587" cy="118.449" r="82.14"/>
		<polygon clip-path="url(#XMLID_55_)" fill="#FFFFFF" points="174.341,75.078 147.234,166.931 118.898,166.931 139.996,101.456 
			111.457,101.456 111.457,75.078 		"/>
		<polygon clip-path="url(#XMLID_55_)" fill="none" stroke="#010101" stroke-width="8" stroke-miterlimit="10" points="
			174.341,75.078 147.234,166.931 118.898,166.931 139.996,101.456 111.457,101.456 111.457,75.078 		"/>
		<rect x="61.357" y="75.078" clip-path="url(#XMLID_55_)" fill="#FFFFFF" width="26.422" height="91.853"/>
		
			<rect x="61.357" y="75.078" clip-path="url(#XMLID_55_)" fill="none" stroke="#010101" stroke-width="8" stroke-miterlimit="10" width="26.422" height="91.853"/>
	</g>
	
		<text transform="matrix(0.4486 0.8937 -0.8937 0.4486 17.6108 157.7148)" fill="#010101" font-family="'Bauhaus93'" font-size="20.5761">Y</text>
	<g>
		<defs>
			<rect id="XMLID_27_" width="233.613" height="233.612"/>
		</defs>
		<clipPath id="XMLID_56_">
			<use xlink:href="#XMLID_27_" />
		</clipPath>
		<polygon clip-path="url(#XMLID_56_)" fill="none" stroke="#FFFFFF" points="33.059,157.8 29.684,157.369 31.414,154.522 
			29.557,150.823 25.859,157.052 19.055,160.468 20.883,164.114 27.689,160.697 34.88,161.428 		"/>
	</g>
	
		<text transform="matrix(0.5688 0.8224 -0.8224 0.5688 24.9175 171.4297)" fill="#010101" font-family="'Bauhaus93'" font-size="20.5762">R</text>
	<g>
		<defs>
			<rect id="XMLID_29_" width="233.613" height="233.612"/>
		</defs>
		<clipPath id="XMLID_57_">
			<use xlink:href="#XMLID_29_" />
		</clipPath>
		<path clip-path="url(#XMLID_57_)" fill="none" stroke="#FFFFFF" d="M36.642,170.813c0.563,0.815,0.579,1.408,0.044,1.777
			c-0.605,0.42-1.152,0.275-1.641-0.429l-0.182-0.265l-2.9,2.006l-2.51,4.143l2.435,3.52l3.315-5.15
			c1.471,0.455,2.776,0.289,3.918-0.499c1.117-0.773,1.762-1.813,1.933-3.121c0.151-1.172-0.228-2.412-1.134-3.724l-2.978-4.305
			l-11.278,7.801l2.319,3.355l8.246-5.704L36.642,170.813z"/>
	</g>
	
		<text transform="matrix(0.7207 0.6932 -0.6932 0.7207 38.5562 189.3633)" fill="#010101" font-family="'Bauhaus93'" font-size="20.5761">1</text>
	<g>
		<defs>
			<rect id="XMLID_31_" width="233.613" height="233.612"/>
		</defs>
		<clipPath id="XMLID_58_">
			<use xlink:href="#XMLID_31_" />
		</clipPath>
		
			<rect x="40.678" y="186.575" transform="matrix(0.6932 -0.7208 0.7208 0.6932 -121.2919 92.0999)" clip-path="url(#XMLID_58_)" fill="none" stroke="#FFFFFF" width="13.713" height="3.888"/>
	</g>
	
		<text transform="matrix(0.8211 0.5707 -0.5707 0.8211 51.0195 200.7451)" fill="#010101" font-family="'Bauhaus93'" font-size="20.5761">2</text>
	<g>
		<defs>
			<rect id="XMLID_33_" width="233.613" height="233.612"/>
		</defs>
		<clipPath id="XMLID_59_">
			<use xlink:href="#XMLID_33_" />
		</clipPath>
		<path clip-path="url(#XMLID_59_)" fill="none" stroke="#FFFFFF" d="M60.16,202.335l3.143-1.67c0.655-0.344,1.201-0.83,1.637-1.456
			c0.761-1.095,1.025-2.289,0.796-3.583c-0.231-1.294-0.89-2.319-1.979-3.076c-1.084-0.753-2.277-1.009-3.578-0.768
			c-1.302,0.242-2.328,0.903-3.082,1.987c-0.484,0.698-0.767,1.449-0.842,2.253c-0.078,0.803,0.055,1.602,0.401,2.396l3.233-1.57
			c-0.068-0.324-0.022-0.603,0.138-0.834c0.142-0.203,0.341-0.328,0.597-0.374s0.486,0.001,0.689,0.144
			c0.522,0.363,0.63,0.767,0.32,1.213c-0.123,0.176-0.297,0.32-0.521,0.433l-0.284,0.146l-8.327,4.27l7.276,5.058l2.265-3.259
			L60.16,202.335z"/>
	</g>
	
		<text transform="matrix(0.826 -0.5638 0.5638 0.826 171.4756 207.9316)" fill="#010101" font-family="'Bauhaus93'" font-size="20.5762">2</text>
	<g>
		<defs>
			<rect id="XMLID_35_" width="233.613" height="233.612"/>
		</defs>
		<clipPath id="XMLID_60_">
			<use xlink:href="#XMLID_35_" />
		</clipPath>
		<path clip-path="url(#XMLID_60_)" fill="none" stroke="#FFFFFF" d="M176.146,199.884l-0.439-3.531
			c-0.088-0.734-0.348-1.418-0.777-2.049c-0.752-1.1-1.773-1.773-3.064-2.02s-2.484,0.005-3.58,0.752
			c-1.09,0.744-1.754,1.767-1.992,3.069s0.015,2.498,0.758,3.588c0.479,0.702,1.08,1.232,1.804,1.591s1.519,0.518,2.383,0.479
			l-0.315-3.58c-0.327-0.052-0.57-0.194-0.729-0.427c-0.139-0.205-0.185-0.435-0.136-0.691c0.048-0.256,0.174-0.454,0.379-0.594
			c0.525-0.357,0.941-0.313,1.247,0.135c0.121,0.177,0.194,0.391,0.219,0.642l0.034,0.316l1.021,9.303l7.318-4.996l-2.236-3.278
			L176.146,199.884z"/>
	</g>
	
		<text transform="matrix(0.7362 -0.6767 0.6767 0.7362 185.1553 198.0664)" fill="#010101" font-family="'Bauhaus93'" font-size="20.5761">0</text>
	<g>
		<defs>
			<rect id="XMLID_37_" width="233.613" height="233.612"/>
		</defs>
		<clipPath id="XMLID_61_">
			<use xlink:href="#XMLID_37_" />
		</clipPath>
		<path clip-path="url(#XMLID_61_)" fill="none" stroke="#FFFFFF" d="M182.396,186.482c0.482-0.444,1.008-0.358,1.575,0.259
			l3.127,3.402c0.567,0.616,0.608,1.146,0.125,1.591c-0.478,0.439-1,0.352-1.567-0.266l-3.127-3.401
			C181.963,187.45,181.918,186.922,182.396,186.482z M186.019,195.701c1.335,0.161,2.558-0.269,3.667-1.289
			c1.109-1.02,1.641-2.203,1.596-3.548c-0.045-1.346-0.66-2.665-1.849-3.957l-2.04-2.219c-1.188-1.292-2.449-2.017-3.784-2.172
			c-1.335-0.156-2.557,0.275-3.666,1.296c-1.11,1.02-1.642,2.201-1.596,3.541c0.045,1.342,0.661,2.657,1.849,3.949l2.04,2.22
			C183.423,194.814,184.685,195.54,186.019,195.701z"/>
	</g>
	
		<text transform="matrix(0.6206 -0.7842 0.7842 0.6206 197.2744 186.4619)" fill="#010101" font-family="'Bauhaus93'" font-size="20.5761">1</text>
	<g>
		<defs>
			<rect id="XMLID_39_" width="233.613" height="233.612"/>
		</defs>
		<clipPath id="XMLID_62_">
			<use xlink:href="#XMLID_39_" />
		</clipPath>
		
			<rect x="188.679" y="175.651" transform="matrix(-0.7841 -0.6206 0.6206 -0.7841 238.6531 438.2002)" clip-path="url(#XMLID_62_)" fill="none" stroke="#FFFFFF" width="13.714" height="3.888"/>
	</g>
	
		<text transform="matrix(0.4806 -0.877 0.877 0.4806 207.3877 172.9609)" fill="#010101" font-family="'Bauhaus93'" font-size="20.5762">7</text>
	<g>
		<defs>
			<rect id="XMLID_41_" width="233.613" height="233.612"/>
		</defs>
		<clipPath id="XMLID_63_">
			<use xlink:href="#XMLID_41_" />
		</clipPath>
		<polygon clip-path="url(#XMLID_63_)" fill="none" stroke="#FFFFFF" points="195.969,165.291 199.424,167.184 201.441,163.501 
			208.521,170.921 210.526,167.265 200.416,157.176 		"/>
	</g>
</g>
</svg>
