<?xml version="1.0" encoding="utf-8"?>
<!-- Generator: Adobe Illustrator 16.0.0, SVG Export Plug-In . SVG Version: 6.00 Build 0)  -->
<!DOCTYPE svg PUBLIC "-//W3C//DTD SVG 1.1//EN" "http://www.w3.org/Graphics/SVG/1.1/DTD/svg11.dtd">
<svg version="1.1" id="Layer_1" xmlns="http://www.w3.org/2000/svg" xmlns:xlink="http://www.w3.org/1999/xlink" x="0px" y="0px"
	 width="841.89px" height="595.28px" viewBox="0 0 841.89 595.28" enable-background="new 0 0 841.89 595.28" xml:space="preserve">
<g>
	<defs>
		<rect id="SVGID_1_" x="170" y="105.954" width="1114.043" height="703.936"/>
	</defs>
	<clipPath id="SVGID_2_">
		<use xlink:href="#SVGID_1_"  overflow="visible"/>
	</clipPath>
	<polygon clip-path="url(#SVGID_2_)" fill="#4EC4CF" stroke="#2D419A" stroke-width="7.13" points="258.677,350.135 
		258.677,314.932 233.257,314.932 233.257,326.666 207.836,326.666 207.836,303.197 238.34,303.197 258.677,284.421 
		258.677,251.565 238.34,232.789 202.752,232.789 182.416,251.565 182.416,267.992 207.836,267.992 207.836,256.258 
		233.257,256.258 233.257,279.728 202.752,279.728 182.416,298.503 182.416,350.135 	"/>
</g>
<path fill="#4EC4CF" stroke="#2D419A" stroke-width="7.13" d="M302.255,256.258h25.42v70.408h-25.42V256.258z M332.759,350.135
	l20.336-18.775v-79.794l-20.336-18.776h-35.588l-20.336,18.776v79.794l20.336,18.775H332.759z"/>
<polygon fill="#4EC4CF" stroke="#2D419A" stroke-width="7.13" points="434.804,350.135 434.804,326.666 422.094,326.666 
	422.094,232.789 396.674,232.789 383.962,250.223 383.962,267.992 396.674,267.992 396.674,326.666 383.962,326.666 
	383.962,350.135 "/>
<polygon fill="#4EC4CF" stroke="#2D419A" stroke-width="7.13" points="516.512,350.135 516.512,326.666 503.802,326.666 
	541.932,256.258 541.932,232.789 465.671,232.789 465.671,267.992 491.092,267.992 491.092,256.258 516.512,256.258 
	478.381,326.666 465.671,326.666 465.671,350.135 "/>
<g>
	<defs>
		<rect id="SVGID_3_" x="170" y="105.954" width="1114.043" height="703.936"/>
	</defs>
	<clipPath id="SVGID_4_">
		<use xlink:href="#SVGID_3_"  overflow="visible"/>
	</clipPath>
	<path clip-path="url(#SVGID_4_)" fill="#2D419A" stroke="#2D419A" d="M549.596,185.285c0,17.09-12.169,30.947-27.18,30.947H200.799
		c-15.01,0-27.179-13.856-27.179-30.947v-18.053c0-17.091,12.168-30.946,27.179-30.946h321.617c15.011,0,27.18,13.855,27.18,30.946
		V185.285z"/>
</g>
<g>
	<path fill="#EF4536" d="M205.764,202.71l-8.682-8.593v-36.522l8.682-8.594h15.192l8.682,8.594v7.519h-10.852v-5.371h-10.852v32.225
		h10.852v-5.371h10.852v7.52l-8.682,8.593H205.764z"/>
	<path fill="#EF4536" d="M237.389,202.71v-10.742h5.426v-32.225h-5.426v-10.742h21.704v10.742h-5.426v32.225h10.852v-5.371h10.852
		v16.113H237.389z"/>
	<path fill="#EF4536" d="M283.121,202.71v-10.742h5.426l10.852-42.967h10.852l10.852,42.967h5.426v10.742h-20.928v-10.742h4.651
		l-1.356-5.371h-8.139l-1.356,5.371h4.651v10.742H283.121z M304.824,170.485l-1.356,5.371h2.713L304.824,170.485z"/>
	<path fill="#EF4536" d="M334.278,186.598h10.852v5.371h10.852v-10.742H342.96l-8.682-8.594v-15.038l8.682-8.594h15.192l8.682,8.594
		v7.519h-10.852v-5.371H345.13v10.742h12.867l8.836,8.593v15.039l-8.682,8.593H342.96l-8.682-8.593V186.598z"/>
	<path fill="#EF4536" d="M374.584,186.598h10.852v5.371h10.852v-10.742h-13.022l-8.682-8.594v-15.038l8.682-8.594h15.192
		l8.682,8.594v7.519h-10.852v-5.371h-10.852v10.742h12.867l8.836,8.593v15.039l-8.682,8.593h-15.192l-8.682-8.593V186.598z"/>
	<path fill="#EF4536" d="M456.127,202.71l-8.682-8.593v-36.522l8.682-8.594h15.191l8.682,8.594v36.522l-8.682,8.593H456.127z
		 M458.297,191.969h10.852v-32.225h-10.852V191.969z"/>
	<path fill="#EF4536" d="M487.752,202.71v-10.742h5.426v-32.225h-5.426v-10.742h37.98v16.113h-10.852v-5.371h-10.852v10.742h10.852
		v10.742h-10.852v10.742h5.426v10.742H487.752z"/>
</g>
<g>
</g>
</svg>
