<?xml version="1.0" encoding="utf-8"?>
<!-- Generator: Adobe Illustrator 16.0.0, SVG Export Plug-In . SVG Version: 6.00 Build 0)  -->
<!DOCTYPE svg PUBLIC "-//W3C//DTD SVG 1.1//EN" "http://www.w3.org/Graphics/SVG/1.1/DTD/svg11.dtd">
<svg version="1.1" id="Layer_1" xmlns="http://www.w3.org/2000/svg" xmlns:xlink="http://www.w3.org/1999/xlink" x="0px" y="0px"
	 width="227.445px" height="257.75px" viewBox="0 0 227.445 257.75" enable-background="new 0 0 227.445 257.75"
	 xml:space="preserve">
<g>
<g class="part_1_stroke">
	<path fill="none" stroke-width="40" d="M154.772,220.438H69.668l-30.848-29.281V78.402H27.223v-41.09h76.364
		v41.09H91.983v94.931l6.242,5.711h28.218l6.015-5.711V78.402h-11.604v-41.09h76.37v41.09H185.62v112.754L154.772,220.438z"/>
</g>

<g class="part_2_fill">
	<path d="M154.772,220.438H69.668l-30.848-29.281V78.402H27.223v-41.09h76.364v41.09H91.983v94.931l6.242,5.711
		h28.218l6.015-5.711V78.402h-11.604v-41.09h76.37v41.09H185.62v112.754L154.772,220.438z"/>
</g>
<g class="part_3_stroke">
	<path fill="none" stroke-width="11.5" d="M154.772,220.438H69.668l-30.848-29.281V78.402H27.223v-41.09h76.364
		v41.09H91.983v94.931l6.242,5.711h28.218l6.015-5.711V78.402h-11.604v-41.09h76.37v41.09H185.62v112.754L154.772,220.438z"/>
</g>
</g>
</svg>
