<?xml version="1.0" encoding="utf-8"?>
<!-- Generator: Adobe Illustrator 16.0.0, SVG Export Plug-In . SVG Version: 6.00 Build 0)  -->
<!DOCTYPE svg PUBLIC "-//W3C//DTD SVG 1.1//EN" "http://www.w3.org/Graphics/SVG/1.1/DTD/svg11.dtd">
<svg version="1.1" id="Layer_1" xmlns="http://www.w3.org/2000/svg" xmlns:xlink="http://www.w3.org/1999/xlink" x="0px" y="0px"
	 width="251.743px" height="257.768px" viewBox="0 0 251.743 257.768" enable-background="new 0 0 251.743 257.768"
	 xml:space="preserve">
<g>
	<g class="part_1_stroke">
		<path fill="none"  stroke-width="40" d="M182.483,74.59h-9.673l42.159,107.653h11.523v44.274h-73.729v-44.274
			h6.223l-2.765-8.773h-50.914l-2.991,8.773h6.209v44.274H35.128v-44.274h11.506L88.737,74.591h-8.281V30.634h102.027V74.59
			L182.483,74.59z M142.958,136.131l-12.215-31.025l-12.205,31.025H142.958z"/>
	</g>
	<g class="part_2_fill">
		<path  d="M182.483,74.59h-9.673l42.159,107.653h11.523v44.274h-73.729v-44.274h6.223l-2.765-8.773h-50.914
			l-2.991,8.773h6.209v44.274H35.128v-44.274h11.506L88.737,74.591h-8.281V30.634h102.027V74.59L182.483,74.59z M142.958,136.131
			l-12.215-31.025l-12.205,31.025H142.958z"/>
	</g>
	<g class="part_3_stroke">
		<path fill="none" stroke-width="11.5" d="M182.483,74.59h-9.673l42.159,107.653h11.523v44.274h-73.729v-44.274
			h6.223l-2.765-8.773h-50.914l-2.991,8.773h6.209v44.274H35.128v-44.274h11.506L88.737,74.591h-8.281V30.634h102.027V74.59
			L182.483,74.59z M142.958,136.131l-12.215-31.025l-12.205,31.025H142.958z"/>
	</g>
</g>
</svg>
