<?xml version="1.0" encoding="utf-8"?>
<!-- Generator: Adobe Illustrator 16.0.0, SVG Export Plug-In . SVG Version: 6.00 Build 0)  -->
<!DOCTYPE svg PUBLIC "-//W3C//DTD SVG 1.1//EN" "http://www.w3.org/Graphics/SVG/1.1/DTD/svg11.dtd">
<svg version="1.1" id="Layer_1" xmlns="http://www.w3.org/2000/svg" xmlns:xlink="http://www.w3.org/1999/xlink" x="0px" y="0px"
	 width="197.174px" height="252.75px" viewBox="0 0 197.174 252.75" enable-background="new 0 0 197.174 252.75"
	 xml:space="preserve">
<g>
    <g class="part_1_stroke">
	<path fill="none" stroke-width="40" d="M143.55,32.75l28.213,30.189v128.748l-28.213,30.25H34.087v-42.766h10.606
		V75.2H34.087V32.75H143.55z M117.487,179.172l5.73-5.899V81.328l-5.73-6.128H93.307v103.972H117.487z"/>
	</g>
	
	<g class="part_2_fill">
	<path  d="M143.55,32.75l28.213,30.189v128.748l-28.213,30.25H34.087v-42.766h10.606V75.2H34.087V32.75H143.55z
		 M117.487,179.172l5.73-5.899V81.328l-5.73-6.128H93.307v103.972H117.487z"/>
	</g>
	
	<g class="part_3_stroke">
	<path fill="none" stroke-width="11.5" d="M143.55,32.75l28.213,30.189v128.748l-28.213,30.25H34.087v-42.766
		h10.606V75.2H34.087V32.75H143.55z M117.487,179.172l5.73-5.899V81.328l-5.73-6.128H93.307v103.972H117.487z"/>
	</g>
</g>
</svg>
