<?xml version="1.0" encoding="utf-8"?>
<!-- Generator: Adobe Illustrator 16.0.0, SVG Export Plug-In . SVG Version: 6.00 Build 0)  -->
<!DOCTYPE svg PUBLIC "-//W3C//DTD SVG 1.1//EN" "http://www.w3.org/Graphics/SVG/1.1/DTD/svg11.dtd">
<svg version="1.1" id="Layer_1" xmlns="http://www.w3.org/2000/svg" xmlns:xlink="http://www.w3.org/1999/xlink" x="0px" y="0px"
	 width="197.398px" height="257.75px" viewBox="0 0 197.398 257.75" enable-background="new 0 0 197.398 257.75"
	 xml:space="preserve">
<g>
<g class="part_1_stroke">
	<path fill="none"  stroke-width="40" d="M62.798,149.596l-28.949-29.353V65.967l28.949-29.342h79.826
		l28.925,29.342v36.188h-49.802V83.839l-5.652-5.956H89.558l-5.871,5.956v18.537l5.871,5.956h53.066l28.925,29.348v53.42
		l-28.925,29.401H62.798l-28.949-29.402v-35.326h49.84v17.43l5.87,5.734h26.536l5.652-5.734v-17.651l-5.652-5.956L62.798,149.596
		L62.798,149.596z"/>
</g>
<g class="part_2_fill">
	<path  d="M62.798,149.596l-28.949-29.353V65.967l28.949-29.342h79.826l28.925,29.342v36.188h-49.802V83.839
		l-5.652-5.956H89.558l-5.871,5.956v18.537l5.871,5.956h53.066l28.925,29.348v53.42l-28.925,29.401H62.798l-28.949-29.402v-35.326
		h49.84v17.43l5.87,5.734h26.536l5.652-5.734v-17.651l-5.652-5.956L62.798,149.596L62.798,149.596z"/>
	</g>
	<g class="part_3_stroke">
	<path fill="none"  stroke-width="11.5" d="M62.798,149.596l-28.949-29.353V65.967l28.949-29.342h79.826
		l28.925,29.342v36.188h-49.802V83.839l-5.652-5.956H89.558l-5.871,5.956v18.537l5.871,5.956h53.066l28.925,29.348v53.42
		l-28.925,29.401H62.798l-28.949-29.402v-35.326h49.84v17.43l5.87,5.734h26.536l5.652-5.734v-17.651l-5.652-5.956L62.798,149.596
		L62.798,149.596z"/>
	</g>
</g>
</svg>
