<?xml version="1.0" encoding="utf-8"?>
<!-- Generator: Adobe Illustrator 16.0.0, SVG Export Plug-In . SVG Version: 6.00 Build 0)  -->
<!DOCTYPE svg PUBLIC "-//W3C//DTD SVG 1.1//EN" "http://www.w3.org/Graphics/SVG/1.1/DTD/svg11.dtd">
<svg version="1.1" id="Layer_1" xmlns="http://www.w3.org/2000/svg" xmlns:xlink="http://www.w3.org/1999/xlink" x="0px" y="0px"
	 width="197.407px" height="257.75px" viewBox="0 0 197.407 257.75" enable-background="new 0 0 197.407 257.75"
	 xml:space="preserve">
<g>
<g class="part_1_stroke">
	<path fill="none" stroke-width="40" d="M169.555,196.322l-29.772,31.709H57.642l-29.79-31.709V61.364
		l29.79-31.646h82.143l29.771,31.646v44.265h-51.25V80.64l-5.821-6.423H85.185l-6.047,6.423v96.381l6.046,6.185h27.3l5.821-6.185
		v-18.798h-14.101v-40.458h65.351V196.322L169.555,196.322z"/>
		</g>
		<g class="part_2_fill">
	<path d="M169.555,196.322l-29.772,31.709H57.642l-29.79-31.709V61.364l29.79-31.646h82.143l29.771,31.646v44.265
		h-51.25V80.64l-5.821-6.423H85.185l-6.047,6.423v96.381l6.046,6.185h27.3l5.821-6.185v-18.798h-14.101v-40.458h65.351V196.322
		L169.555,196.322z"/>
		</g>
		<g class="part_3_stroke">
	<path fill="none"  stroke-width="11.5" d="M169.555,196.322l-29.772,31.709H57.642l-29.79-31.709V61.364
		l29.79-31.646h82.143l29.771,31.646v44.265h-51.25V80.64l-5.821-6.423H85.185l-6.047,6.423v96.381l6.046,6.185h27.3l5.821-6.185
		v-18.798h-14.101v-40.458h65.351V196.322L169.555,196.322z"/>

		</g>
		</g>
</svg>
