<?xml version="1.0" encoding="utf-8"?>
<!-- Generator: Adobe Illustrator 16.0.0, SVG Export Plug-In . SVG Version: 6.00 Build 0)  -->
<!DOCTYPE svg PUBLIC "-//W3C//DTD SVG 1.1//EN" "http://www.w3.org/Graphics/SVG/1.1/DTD/svg11.dtd">
<svg version="1.1" id="Layer_1" xmlns="http://www.w3.org/2000/svg" xmlns:xlink="http://www.w3.org/1999/xlink" x="0px" y="0px"
	 width="284.493px" height="257.75px" viewBox="0 0 284.493 257.75" enable-background="new 0 0 284.493 257.75"
	 xml:space="preserve">
<g>
   <g class="part_1_stroke">
	<path fill="none" stroke-width="40" d="M103.354,134.507v45.884h10.681v40.016H43.747v-40.016h10.675V83.097
		H43.747V43.375h57.227l41.21,68.403l41.211-68.403h57.226v39.722h-10.674v97.293h10.674v40.016h-70.281v-40.016h10.675v-45.884
		l-38.83,64.157L103.354,134.507z"/>
   </g>
   <g class="part_2_fill">
	<path  d="M103.354,134.507v45.884h10.681v40.016H43.747v-40.016h10.675V83.097H43.747V43.375h57.227l41.21,68.403
		l41.211-68.403h57.226v39.722h-10.674v97.293h10.674v40.016h-70.281v-40.016h10.675v-45.884l-38.83,64.157L103.354,134.507z"/>
	</g>
	
	<g class="part_3_stroke">
		<path fill="none"  stroke-width="11.5" d="M103.354,134.507v45.884h10.681v40.016H43.747v-40.016h10.675V83.097
		H43.747V43.375h57.227l41.21,68.403l41.211-68.403h57.226v39.722h-10.674v97.293h10.674v40.016h-70.281v-40.016h10.675v-45.884
		l-38.83,64.157L103.354,134.507z"/>
	</g>
</g>
</svg>
