<?xml version="1.0" encoding="utf-8"?>
<!-- Generator: Adobe Illustrator 16.0.0, SVG Export Plug-In . SVG Version: 6.00 Build 0)  -->
<!DOCTYPE svg PUBLIC "-//W3C//DTD SVG 1.1//EN" "http://www.w3.org/Graphics/SVG/1.1/DTD/svg11.dtd">
<svg version="1.1" id="Layer_1" xmlns="http://www.w3.org/2000/svg" xmlns:xlink="http://www.w3.org/1999/xlink" x="0px" y="0px"
	 width="202.225px" height="257.75px" viewBox="0 0 202.225 257.75" enable-background="new 0 0 202.225 257.75"
	 xml:space="preserve">
<g>
<g class="part_1_stroke">
	<path fill="none" stroke-width="40" d="M101.661,148.873v25.513h9.506v37.552H48.612v-37.552h9.5V83.088h-9.5
		V45.813H146.7l25.274,26.51v50.036L146.7,148.874L101.661,148.873L101.661,148.873z M123.322,111.668l5.134-5.386V88.544
		l-5.134-5.386h-21.661v28.509L123.322,111.668L123.322,111.668z"/>
</g>
<g class="part_2_fill">
	<path d="M104.671,153.216v26.588h10.046v39.134H48.612v-39.134h10.04V84.659h-10.04V45.813h103.653l26.709,27.627
		v52.145l-26.709,27.633L104.671,153.216L104.671,153.216z M127.561,114.443l5.425-5.613V90.345l-5.425-5.613h-22.891v29.71
		L127.561,114.443L127.561,114.443z"/>
</g>
<g class="part_3_stroke">
	<path fill="none"  stroke-width="11.5" d="M101.661,148.873v25.513h9.506v37.552H48.612v-37.552h9.5V83.088h-9.5
		V45.813H146.7l25.274,26.51v50.036L146.7,148.874L101.661,148.873L101.661,148.873z M123.322,111.668l5.134-5.386V88.544
		l-5.134-5.386h-21.661v28.509L123.322,111.668L123.322,111.668z"/>
</g>
</g>
</svg>
