<?xml version="1.0" encoding="utf-8"?>
<!-- Generator: Adobe Illustrator 16.0.0, SVG Export Plug-In . SVG Version: 6.00 Build 0)  -->
<!DOCTYPE svg PUBLIC "-//W3C//DTD SVG 1.1//EN" "http://www.w3.org/Graphics/SVG/1.1/DTD/svg11.dtd">
<svg version="1.1" id="Layer_1" xmlns="http://www.w3.org/2000/svg" xmlns:xlink="http://www.w3.org/1999/xlink" x="0px" y="0px"
	 width="217.24px" height="257.75px" viewBox="0 0 217.24 257.75" enable-background="new 0 0 217.24 257.75" xml:space="preserve">
<g>
<g class="part_1_stroke">
	<path fill="none"  stroke-width="40" d="M108.523,182.365v43.43H37.12v-43.43h10.844V76.779H37.12V33.669h111.92
		l28.845,30.658v49.106l-11.934,12.684l11.934,12.683v43.566h10.85v43.428h-60.559V154.01l-5.837-6.223H97.673v34.578H108.523z
		 M122.339,104.76l5.837-6.223V83.089l-5.837-6.229H97.673v27.899L122.339,104.76L122.339,104.76z"/>
</g>
<g class="part_2_fill">
	<path  d="M108.523,182.365v43.43H37.12v-43.43h10.844V76.779H37.12V33.669h111.92l28.845,30.658v49.106
		l-11.934,12.684l11.934,12.683v43.566h10.85v43.428h-60.559V154.01l-5.837-6.223H97.673v34.578H108.523z M122.339,104.76
		l5.837-6.223V83.089l-5.837-6.229H97.673v27.899L122.339,104.76L122.339,104.76z"/>
		
		</g>
		
		<g class="part_3_stroke">
	<path fill="none" stroke-width="11.5" d="M108.523,182.365v43.43H37.12v-43.43h10.844V76.779H37.12V33.669h111.92
		l28.845,30.658v49.106l-11.934,12.684l11.934,12.683v43.566h10.85v43.428h-60.559V154.01l-5.837-6.223H97.673v34.578H108.523z
		 M122.339,104.76l5.837-6.223V83.089l-5.837-6.229H97.673v27.899L122.339,104.76L122.339,104.76z"/>
		</g>
</g>
</svg>
