<?xml version="1.0" encoding="utf-8"?>
<!-- Generator: Adobe Illustrator 16.0.0, SVG Export Plug-In . SVG Version: 6.00 Build 0)  -->
<!DOCTYPE svg PUBLIC "-//W3C//DTD SVG 1.1//EN" "http://www.w3.org/Graphics/SVG/1.1/DTD/svg11.dtd">
<svg version="1.1" id="Layer_1" xmlns="http://www.w3.org/2000/svg" xmlns:xlink="http://www.w3.org/1999/xlink" x="0px" y="0px"
	 width="402.676px" height="257.75px" viewBox="0 0 402.676 257.75" enable-background="new 0 0 402.676 257.75"
	 xml:space="preserve">
<g>
<g class="part_1_stroke">
	<path fill="none"  stroke-width="40" d="M188.047,183.962v40.476H86.573v-40.476h6.429L56.798,85.554h-15.96
		V45.375h82.89v40.179h-7.857l21.917,59.086l21.673-59.086h-6.43V45.375h88.608v40.179h-6.19l21.672,59.086l21.919-59.086h-6.437
		V45.375h81.235v40.179h-15.727l-36.205,98.408h6.43v40.476H206.863v-40.476h6.435l-15.728-42.971l-15.958,42.971H188.047z"/>
</g>
<g class="part_2_fill">
	<path d="M188.047,183.962v40.476H86.573v-40.476h6.429L56.798,85.554h-15.96V45.375h82.89v40.179h-7.857
		l21.917,59.086l21.673-59.086h-6.43V45.375h88.608v40.179h-6.19l21.672,59.086l21.919-59.086h-6.437V45.375h81.235v40.179h-15.727
		l-36.205,98.408h6.43v40.476H206.863v-40.476h6.435l-15.728-42.971l-15.958,42.971H188.047z"/>
</g>

<g class="part_3_stroke">
	<path fill="none"  stroke-width="11.5" d="M188.047,183.962v40.476H86.573v-40.476h6.429L56.798,85.554h-15.96
		V45.375h82.89v40.179h-7.857l21.917,59.086l21.673-59.086h-6.43V45.375h88.608v40.179h-6.19l21.672,59.086l21.919-59.086h-6.437
		V45.375h81.235v40.179h-15.727l-36.205,98.408h6.43v40.476H206.863v-40.476h6.435l-15.728-42.971l-15.958,42.971H188.047z"/>
</g>
</g>
</svg>
