<?xml version="1.0" encoding="utf-8"?>
<!-- Generator: Adobe Illustrator 16.0.0, SVG Export Plug-In . SVG Version: 6.00 Build 0)  -->
<!DOCTYPE svg PUBLIC "-//W3C//DTD SVG 1.1//EN" "http://www.w3.org/Graphics/SVG/1.1/DTD/svg11.dtd">
<svg version="1.1" id="Layer_1" xmlns="http://www.w3.org/2000/svg" xmlns:xlink="http://www.w3.org/1999/xlink" x="0px" y="0px"
	 width="191.372px" height="257.75px" viewBox="0 0 191.372 257.75" enable-background="new 0 0 191.372 257.75"
	 xml:space="preserve">
<g>
   <g class="part_1_stroke">
	<path fill="none" stroke-width="40" d="M119.665,179.027v-7.247h38.021v48.626h-124v-41.379h10.11V78.42h-10.11
		V37.344h124v48.328h-38.021V78.42H90.139v29.873h6.875v-7.246h37.818v55.575H97.014v-7.247h-6.875v29.653H119.665z"/>
	</g>
	
	<g class="part_2_fill">
	<path  d="M119.665,179.027v-7.247h38.021v48.626h-124v-41.379h10.11V78.42h-10.11V37.344h124v48.328h-38.021V78.42
		H90.139v29.873h6.875v-7.246h37.818v55.575H97.014v-7.247h-6.875v29.653H119.665z"/>
	</g>
	
	<g class="part_3_stroke">
	<path fill="none" " stroke-width="11.5" d="M119.665,179.027v-7.247h38.021v48.626h-124v-41.379h10.11V78.42h-10.11
		V37.344h124v48.328h-38.021V78.42H90.139v29.873h6.875v-7.246h37.818v55.575H97.014v-7.247h-6.875v29.653H119.665z"/>
	</g>
	
</g>
</svg>
