<?xml version="1.0" encoding="UTF-8" standalone="no"?>
<!-- Created with Inkscape (http://www.inkscape.org/) -->

<svg
   xmlns:dc="http://purl.org/dc/elements/1.1/"
   xmlns:cc="http://creativecommons.org/ns#"
   xmlns:rdf="http://www.w3.org/1999/02/22-rdf-syntax-ns#"
   xmlns:svg="http://www.w3.org/2000/svg"
   xmlns="http://www.w3.org/2000/svg"
   xmlns:sodipodi="http://sodipodi.sourceforge.net/DTD/sodipodi-0.dtd"
   xmlns:inkscape="http://www.inkscape.org/namespaces/inkscape"
   width="500"
   height="430"
   viewBox="0 0 500.00001 430.00001"
   id="svg2"
   version="1.1"
   inkscape:version="0.91 r13725"
   sodipodi:docname="rug1_back.svg">
  <defs
     id="defs4" />
  <sodipodi:namedview
     id="base"
     pagecolor="#ffffff"
     bordercolor="#666666"
     borderopacity="1.0"
     inkscape:pageopacity="0.0"
     inkscape:pageshadow="2"
     inkscape:zoom="1.979899"
     inkscape:cx="259.18237"
     inkscape:cy="236.69682"
     inkscape:document-units="px"
     inkscape:current-layer="layer1"
     showgrid="false"
     units="px"
     inkscape:window-width="1304"
     inkscape:window-height="746"
     inkscape:window-x="54"
     inkscape:window-y="-8"
     inkscape:window-maximized="1" />
  <metadata
     id="metadata7">
    <rdf:RDF>
      <cc:Work
         rdf:about="">
        <dc:format>image/svg+xml</dc:format>
        <dc:type
           rdf:resource="http://purl.org/dc/dcmitype/StillImage" />
        <dc:title></dc:title>
      </cc:Work>
    </rdf:RDF>
  </metadata>
  <g
     inkscape:label="Layer 1"
     inkscape:groupmode="layer"
     id="layer1"
     transform="translate(0,-622.36216)">
    <g
       id="g3356"
       transform="translate(-134,24)">
      <path
         style="fill:#f9f9f9"
         d="m 149.85713,823.79077 0,-179 233,0 233,0 0,179 0,179.00003 -233,0 -233,0 0,-179.00003 z"
         id="path3360"
         inkscape:connector-curvature="0" />
      <path
         style="fill:#717171"
         d="m 262.60713,988.71067 c -1.64359,-0.9573 -1.75,-5.88369 -1.75,-81.01756 l 0,-79.99827 -2.75,-2.42043 c -1.5125,-1.33124 -3.0455,-2.43466 -3.40668,-2.45204 -0.36117,-0.0174 -0.9579,4.3559 -1.32608,9.7184 -1.42612,20.77162 -4.95181,36.45235 -10.62381,47.25 -2.49703,4.75356 -2.88943,6.60384 -2.89128,13.63337 -0.002,7.58841 -0.15291,8.17377 -2.25215,8.73634 -3.80943,1.02089 -28.7643,0.693 -30.81574,-0.40489 -1.66194,-0.88945 -1.93426,-2.14821 -1.93426,-8.94099 0,-4.59469 -0.45348,-8.18606 -1.08276,-8.57498 -0.59552,-0.36805 -1.92767,-2.64027 -2.96033,-5.04939 -1.03267,-2.40911 -3.63962,-6.74704 -5.79322,-9.63983 -13.30758,-17.87525 -24.52911,-46.07796 -30.26704,-76.06922 -1.14656,-5.99286 -2.71735,-12.41038 -3.49065,-14.26114 -3.18677,-7.62702 -5.12629,-5.24121 44.86908,-55.19379 l 46.27507,-46.23548 42.44457,0 42.44457,0 10.36103,-10.5 10.36104,-10.5 27.98506,0 c 17.19537,0 28.72332,0.3951 29.89987,1.02477 1.05314,0.56363 6.03969,5.28863 11.08122,10.5 l 9.16642,9.47523 43.091,0 43.09101,0 46.17817,46.25 46.17818,46.25 -0.81697,4.5 c -2.05776,11.33452 -7.44347,34.14493 -10.09794,42.7684 -6.32745,20.55574 -13.1515,35.39552 -23.30672,50.68347 -3.63586,5.47353 -6.61066,10.47534 -6.61066,11.11514 0,0.6398 -0.9,2.30744 -2,3.70586 -1.59926,2.03314 -2,4.05678 -2,10.09968 0,6.44801 -0.28387,7.70901 -1.93426,8.59227 -2.05144,1.09789 -27.00631,1.42578 -30.81574,0.40489 -2.09294,-0.56088 -2.25,-1.15527 -2.25,-8.51486 0,-6.79829 -0.42096,-8.74581 -2.99088,-13.83678 -5.78849,-11.46694 -9.17953,-26.66252 -10.54808,-47.26691 l -0.64752,-9.74884 -2.85143,2.24884 -2.85143,2.24884 -0.0553,80.21482 c -0.054,78.25291 -0.10264,80.24013 -1.98959,81.25 -2.66617,1.42689 -247.86434,1.38289 -250.31574,-0.0449 z m 248.0032,-155.1699 -0.2532,-152.25 -122.5,0 -122.5,0 -0.2532,152.25 -0.25321,152.25 123.00641,0 123.00641,0 -0.25321,-152.25 z m -274.2532,58.25 0,-6.5 -14,0 -14,0 -0.3068,5.3808 c -0.48656,8.53364 -1.07646,8.21314 14.5363,7.89755 l 13.7705,-0.27835 0,-6.5 z m 330,-1.5 0,-8 -14,0 -14,0 -0.29913,6.90079 c -0.16452,3.79543 -0.0612,7.52069 0.2295,8.27835 0.42096,1.09702 3.33304,1.32088 14.29913,1.09921 l 13.7705,-0.27835 0,-8 z m -327.09129,-10.75 c 5.54317,-8.57299 9.58275,-27.73718 10.27592,-48.75 l 0.51131,-15.5 -14.84797,-14.68573 c -17.01226,-16.82637 -11.25964,-14.13488 -48.68646,-22.77906 -12.01117,-2.77412 -22.21584,-4.81065 -22.67704,-4.52561 -0.46121,0.28504 0.022,3.09949 1.07383,6.25433 1.05181,3.15484 3.07361,11.36107 4.49288,18.23607 5.19901,25.18414 15.51781,51.30056 26.78239,67.78504 3.11384,4.55677 6.57178,10.06927 7.68431,12.25 l 2.02277,3.96496 15.95662,0 c 15.44989,0 16.00283,-0.0714 17.41144,-2.25 z m 336.90067,-10.54033 c 13.12229,-19.46103 23.72122,-45.38761 29.11089,-71.20967 1.43497,-6.875 3.46962,-15.08123 4.52143,-18.23607 1.05181,-3.15484 1.51167,-5.98373 1.02191,-6.28642 -0.87346,-0.53983 -52.33899,11.12416 -54.63221,12.38168 -0.64273,0.35244 -7.95523,7.71153 -16.25,16.35351 l -15.0814,15.71271 0,8.57671 c 0,17.46552 3.32034,37.65163 7.89382,47.99075 l 1.99372,4.50713 17.41018,0 17.41018,0 6.60148,-9.79033 z m -315.30938,-64.70967 0,-17.5 -17.20388,0 -17.20389,0 13.45389,13.88611 c 7.39963,7.63736 14.7357,15.51236 16.30237,17.5 1.56667,1.98764 3.25417,3.61389 3.75,3.61389 0.501,0 0.90151,-7.77461 0.90151,-17.5 z m 271.84922,0.59671 c 8.88293,-9.29681 16.15078,-17.17181 16.15078,-17.5 0,-0.32819 -7.65,-0.59671 -17,-0.59671 l -17,0 0,17.5 c 0,9.625 0.38215,17.5 0.84922,17.5 0.46708,0 8.11708,-7.60648 17,-16.90329 z m -271.84922,-72.59671 0,-50.5 -3.60194,0 c -3.40444,0 -5.96778,2.33622 -46.75,42.60784 -23.73143,23.43431 -43.28411,43.18525 -43.45039,43.89097 -0.21004,0.89148 4.52109,2.41687 15.5,4.99746 8.69128,2.04288 20.75233,4.96258 26.80233,6.48823 10.10098,2.54719 12.65502,2.78377 31.25,2.8947 l 20.25,0.1208 0,-50.5 z m 320.81449,43.7978 c 13.92297,-3.3514 25.60325,-6.38221 25.95618,-6.73514 0.35293,-0.35293 -18.91165,-20.19891 -42.81018,-44.10218 -39.46826,-39.47608 -43.75022,-43.46048 -46.70618,-43.46048 l -3.25431,0 0,50.55613 0,50.55613 20.75,-0.3605 20.75,-0.36051 25.31449,-6.09345 z M 429.85713,676.56429 c 0,-0.67457 -3.25124,-4.49957 -7.22497,-8.5 l -7.22497,-7.27352 -28.60603,0 -28.60603,0 -7.169,7.39342 c -3.94295,4.06638 -7.169,7.89138 -7.169,8.5 0,0.79162 12.23899,1.10658 43,1.10658 33.29362,0 43,-0.27685 43,-1.22648 z"
         id="path3358"
         inkscape:connector-curvature="0" />
    </g>
    <path
       style="fill:#e9afaf"
       d="m 94.679024,183.78366 c -5.594921,-0.20852 -11.070696,-0.69125 -13.131983,-1.15767 -10.45123,-2.36488 -39.966167,-9.6252 -43.538461,-10.70994 -2.278381,-0.69184 -4.301109,-1.5145 -4.494952,-1.82815 -0.371318,-0.6008 61.994075,-62.97968 76.065142,-76.081587 9.9775,-9.290281 11.28549,-10.203665 14.61195,-10.203665 l 2.56065,0 0,50.255092 0,50.25509 -11.23795,-0.0858 c -6.18087,-0.0472 -15.556349,-0.24669 -20.834396,-0.44341 z"
       id="path3362"
       inkscape:connector-curvature="0"
       transform="translate(0,622.36216)" />
    <path
       style="fill:#e9afaf"
       d="m 123.00758,220.44684 c -2.49178,-3.04089 -9.28362,-10.3318 -20.43287,-21.93429 l -9.276905,-9.65404 16.726785,0 16.72678,0 0,10.77985 c 0,14.45127 -0.47766,23.06026 -1.27947,23.06026 -0.34053,0 -1.44948,-1.0133 -2.46432,-2.25178 z"
       id="path3364"
       inkscape:connector-curvature="0"
       transform="translate(0,622.36216)" />
    <path
       style="fill:#e9afaf"
       d="m 71.855847,282.71988 c -0.298701,-0.37114 -1.170672,-1.92486 -1.937714,-3.45271 -0.767042,-1.52786 -3.606801,-6.18719 -6.310575,-10.35407 -2.703774,-4.16688 -6.042399,-9.6217 -7.419165,-12.12183 -7.673002,-13.93372 -14.565052,-32.30381 -18.845602,-50.23111 -3.790772,-15.87608 -5.538155,-23.01947 -6.594593,-26.95904 -0.583182,-2.17475 -0.930604,-4.08382 -0.772048,-4.24238 0.455092,-0.45509 10.712037,1.60968 29.852612,6.00945 18.817124,4.32543 23.985087,5.90784 27.871361,8.53412 1.33827,0.90438 8.197969,7.34663 15.243777,14.31613 l 12.81057,12.67181 -0.32548,10.85914 c -0.66647,22.23598 -3.49769,39.00132 -8.30706,49.19101 -3.08623,6.53884 -1.68559,6.08671 -19.468517,6.28456 -12.276615,0.13659 -15.360491,0.038 -15.797566,-0.50508 z"
       id="path3366"
       inkscape:connector-curvature="0"
       transform="translate(0,622.36216)" />
    <path
       style="fill:#e9afaf"
       d="m 131.29838,245.55332 c 7.3e-4,-77.99009 0.15045,-146.402666 0.33271,-152.027953 l 0.33137,-10.227795 122.14829,0 122.1483,0 0,92.092718 c 0,50.65099 0.1512,119.06358 0.33601,152.02796 l 0.33601,59.93524 -122.81701,0 -122.81701,0 0.001,-141.80017 z"
       id="path3368"
       inkscape:connector-curvature="0"
       transform="translate(0,622.36216)" />
    <path
       style="fill:#e9afaf"
       d="m 381.30981,134.0757 0,-50.273052 2.14657,3.18e-4 c 1.77603,2.63e-4 2.64295,0.389995 5.02207,2.257705 7.76088,6.092635 85.53858,84.023009 84.68318,84.849399 -0.33385,0.32253 -17.72675,4.73882 -34.52566,8.76655 l -16.66752,3.99622 -20.32932,0.33796 -20.32932,0.33796 0,-50.27306 z"
       id="path3370"
       inkscape:connector-curvature="0"
       transform="translate(0,622.36216)" />
    <path
       style="fill:#e9afaf"
       d="m 381.61638,221.8997 c -0.16861,-0.43941 -0.30657,-8.05343 -0.30657,-16.92005 l 0,-16.12114 16.41498,0 c 9.02824,0 16.41498,0.18363 16.41498,0.40805 0,0.81229 -31.03906,33.43206 -31.81198,33.43206 -0.22266,0 -0.54279,-0.35951 -0.71141,-0.79892 z"
       id="path3372"
       inkscape:connector-curvature="0"
       transform="translate(0,622.36216)" />
    <path
       style="fill:#e9afaf"
       d="m 399.55203,277.12059 c -5.20487,-11.62377 -8.62088,-32.63931 -8.64126,-53.16156 l -0.005,-4.54797 15.78363,-16.0857 15.78364,-16.08571 9.84898,-2.42373 c 19.85674,-4.88653 43.7419,-9.96257 44.29167,-9.4128 0.17869,0.1787 0.0817,1.29052 -0.21544,2.47073 -2.89445,11.4947 -5.39467,21.64608 -6.93495,28.15726 -5.85177,24.73698 -16.70361,49.14551 -30.93216,69.57425 l -3.254,4.67196 -17.15605,0 -17.15604,0 -1.41351,-3.15673 z"
       id="path3374"
       inkscape:connector-curvature="0"
       transform="translate(0,622.36216)" />
    <path
       style="fill:#ffff00"
       d="m 216.56849,78.810373 c -3.24216,-0.171064 -6.03269,-0.449904 -6.20118,-0.619645 -0.38207,-0.384909 2.9931,-4.271999 9.27068,-10.676789 l 4.82668,-4.924494 28.3531,0 28.3531,0 7.13799,7.325509 c 3.92589,4.02903 7.13798,7.52762 7.13798,7.774645 0,0.247024 -0.39774,0.625073 -0.88388,0.840107 -1.06952,0.473084 -69.66893,0.719942 -77.99447,0.280667 z"
       id="path3376"
       inkscape:connector-curvature="0"
       transform="translate(0,622.36216)" />
    <path
       style="fill:#ffff00"
       d="m 75.34597,299.18904 c -1.014675,-0.71071 -1.121872,-1.20815 -1.115638,-5.17703 0.0038,-2.41493 0.143944,-4.90217 0.311446,-5.5272 l 0.304549,-1.13642 13.578151,0 13.578152,0 0,6.31345 0,6.31345 -12.767062,0 c -10.737739,0 -12.945489,-0.12497 -13.889598,-0.78625 z"
       id="path3378"
       inkscape:connector-curvature="0"
       transform="translate(0,622.36216)" />
    <path
       style="fill:#ffff00"
       d="m 405.47831,299.63697 c -1.22825,-0.32615 -1.57339,-3.16337 -1.17007,-9.61838 l 0.35619,-5.70066 13.82904,0 13.82904,0 0,7.82868 0,7.82868 -13.00571,-0.0586 c -7.15314,-0.0322 -13.38046,-0.1581 -13.83849,-0.27973 z"
       id="path3380"
       inkscape:connector-curvature="0"
       transform="translate(0,622.36216)" />
  </g>
</svg>
