<?xml version="1.0" encoding="UTF-8" standalone="no"?>
<!-- Created with Inkscape (http://www.inkscape.org/) -->

<svg
   xmlns:dc="http://purl.org/dc/elements/1.1/"
   xmlns:cc="http://creativecommons.org/ns#"
   xmlns:rdf="http://www.w3.org/1999/02/22-rdf-syntax-ns#"
   xmlns:svg="http://www.w3.org/2000/svg"
   xmlns="http://www.w3.org/2000/svg"
   xmlns:sodipodi="http://sodipodi.sourceforge.net/DTD/sodipodi-0.dtd"
   xmlns:inkscape="http://www.inkscape.org/namespaces/inkscape"
   width="500"
   height="430"
   viewBox="0 0 500.00001 430.00001"
   id="svg2"
   version="1.1"
   inkscape:version="0.91 r13725"
   sodipodi:docname="rug2_back.svg">
  <defs
     id="defs4" />
  <sodipodi:namedview
     id="base"
     pagecolor="#ffffff"
     bordercolor="#666666"
     borderopacity="1.0"
     inkscape:pageopacity="0.0"
     inkscape:pageshadow="2"
     inkscape:zoom="0.98994949"
     inkscape:cx="206.57521"
     inkscape:cy="273.62136"
     inkscape:document-units="px"
     inkscape:current-layer="layer1"
     showgrid="false"
     units="px"
     inkscape:window-width="1304"
     inkscape:window-height="746"
     inkscape:window-x="54"
     inkscape:window-y="-8"
     inkscape:window-maximized="1" />
  <metadata
     id="metadata7">
    <rdf:RDF>
      <cc:Work
         rdf:about="">
        <dc:format>image/svg+xml</dc:format>
        <dc:type
           rdf:resource="http://purl.org/dc/dcmitype/StillImage" />
        <dc:title></dc:title>
      </cc:Work>
    </rdf:RDF>
  </metadata>
  <g
     inkscape:label="Layer 1"
     inkscape:groupmode="layer"
     id="layer1"
     transform="translate(0,-622.36216)">
    <g
       id="g3469"
       transform="translate(-12.571428,-5.7142857)">
      <path
         style="fill:#fcfcfc"
         d="m 24.785688,843.79077 0,-184.5 229.500002,0 229.5,0 0,184.5 0,184.50003 -229.5,0 -229.500002,0 0,-184.50003 z"
         id="path3477"
         inkscape:connector-curvature="0" />
      <path
         style="fill:#999999"
         d="m 126.35712,1014.7193 c -1.40221,-1.4022 -1.57143,-10.1299 -1.57143,-81.04792 l 0,-79.47654 -2.75,-2.42043 c -1.5125,-1.33124 -3.03428,-2.43466 -3.38172,-2.45204 -0.34745,-0.0174 -0.93408,3.9059 -1.30362,8.7184 -1.74696,22.75058 -5.19703,38.51914 -10.33801,47.25 -2.15701,3.66321 -2.74986,6.17358 -3.18819,13.5 l -0.53846,9 -17.000002,0 -17,0 -0.294749,-7.89916 c -0.224245,-6.00967 -0.762449,-8.49374 -2.25,-10.38486 -1.075388,-1.36713 -1.955251,-3.03845 -1.955251,-3.71404 0,-0.67558 -2.975608,-5.61673 -6.612463,-10.98032 -12.83995,-18.9362 -22.437618,-42.27077 -27.857667,-67.72965 -1.43929,-6.76058 -3.273488,-15.21697 -4.075995,-18.79197 -2.775867,-12.36589 -6.562363,-7.38854 44.313409,-58.25 l 45.762868,-45.75 42.48493,0.001 42.48492,10e-4 9.23042,-9.45557 c 5.07672,-5.20056 10.10964,-9.92612 11.18425,-10.50123 2.61703,-1.40059 55.5181,-1.41961 58.13162,-0.0209 1.05314,0.56362 6.03969,5.28862 11.08122,10.5 l 9.16642,9.47529 43.10304,-0.0243 43.10303,-0.0243 46.25,46.59726 c 34.14486,34.40124 44.55357,47.02197 44.55357,48.72359 0,1.26769 0.0924,3.91163 -0.66778,5.7663 -0.76015,1.85466 -2.14262,9.50011 -4.3484,16.46141 -8.69404,27.43791 -18.28804,49.68791 -28.12415,71.88044 -2.66249,6.00718 -6.16324,11.54677 -6.16324,12.18657 0,0.6398 -0.87986,2.28184 -1.95525,3.64897 -1.48755,1.89112 -2.02576,4.37519 -2.25,10.38486 l -0.29475,7.89916 -17,0 -17,0 -0.53846,-9 c -0.43833,-7.32642 -1.03118,-9.83679 -3.18819,-13.5 -5.18186,-8.80028 -11.53675,-79.29167 -11.02391,-58.71299 l 0.0695,2.78701 -2.90945,2.15105 -2.90945,2.15105 0,79.74051 c 0,71.15795 -0.16913,79.90955 -1.57143,81.31185 -1.41165,1.4117 -14.1645,1.5715 -125.42857,1.5715 -111.26407,0 -124.01692,-0.1598 -125.42857,-1.5715 z m -26.07143,-96.42853 0,-6.5 -14.000002,0 -14,0 -0.306796,5.3808 c -0.48656,8.53364 -1.076463,8.21314 14.536291,7.89755 l 13.770507,-0.27835 z m 330,-1.5 0,-8 -14,0 -14,0 -0.29913,6.90079 c -0.16452,3.79543 -0.0612,7.52069 0.2295,8.27835 0.42096,1.09702 3.33304,1.32088 14.29913,1.09921 l 13.7705,-0.27835 z m -325.1788,-14.82285 c 1.55166,-3.20257 3.87934,-10.62757 5.17262,-16.5 2.55953,-11.62215 5.01971,-36.56259 4.04456,-41.00241 -0.39352,-1.79166 -5.83945,-7.99198 -15.423867,-17.56042 L 84.084634,812.11422 56.685161,805.7121 c -15.06971,-3.52117 -27.939683,-6.20412 -28.59994,-5.96212 -0.886252,0.32484 -0.693781,1.95822 0.735343,6.2404 1.064696,3.19021 3.104564,11.42539 4.53304,18.30039 5.39077,25.94481 14.834646,49.87163 26.809079,67.92295 3.494142,5.26738 7.106017,11.05061 8.02639,12.85164 l 1.673404,3.27458 16.211606,-0.27458 16.211607,-0.27459 z m 334.95665,-6.42715 c 14.6416,-21.72859 26.57801,-58.26479 31.74131,-78.375 1.39327,-5.42659 1.56521,-11.03843 2.41603,-13.0715 0.98038,-2.34267 1.89643,-4.81483 1.26518,-5.20496 -0.96409,-0.59585 -52.94658,11.90162 -55.4321,13.27829 -16.49274,12.25766 -29.73752,21.67671 -33.01483,35.0617 0,0 0.78864,24.04982 5.71354,41.43237 1.08203,4.23069 2.8568,9.70297 3.94394,12.16063 l 1.97662,4.46847 17.41018,0 17.41018,0 z m -64.52785,-29.14285 c -0.0254,-0.41735 6.07143,-5.28572 -1.0103,-5.15696 -89.21142,0.95106 -247.2848,0.77084 -247.2848,0.77084 l -0.57999,3.55407 248.17875,-0.0481 z m -1.25,-83.10715 0,-75.5 -122.5,0 -122.5,0 -0.18702,74.94739 c -0.0197,7.91061 -0.53548,25.01195 -0.90121,36.68861 -0.0498,1.58828 246.39654,-0.36384 246.39654,-0.36384 l 2.36685,4.63513 c 0,0 -248.58604,0.36365 -248.59895,0.77671 -0.089,2.84775 -0.52433,8.37093 -0.52433,8.37093 l 248.92859,-0.54571 -0.32204,4.30916 c 0,0 -248.05836,-0.38335 -248.11159,0.34423 l -0.42871,5.85982 c 0,0 203.14385,0.88944 247.53071,1.2198 0.3665,0.003 1.65352,3.3533 1.65352,3.3533 0,0 -249.37161,-0.69435 -249.39319,-0.14382 -0.0679,1.73202 0.0428,2.8994 -0.0242,4.31867 -0.0495,1.04713 232.95868,0.13373 248.65759,0.21373 2.88765,0.0147 0.704,2.98211 0.704,2.98211 0,0 -249.68804,0.7526 -249.59842,1.35469 1.15417,-1.10836 -0.17103,2.14173 -0.16646,2.38045 82.33927,0.68518 159.67803,0.46978 247.01842,0.29864 4.5,-28 0,106.21932 0,-75.5 z m -249.5,47.5 0,-17.5 -17.2023,0 -17.202294,0 12.952294,13.29942 c 7.12377,7.31468 14.44021,15.18968 16.25876,17.5 1.81856,2.31032 3.73106,4.20058 4.25,4.20058 0.55544,0 0.94354,-7.19818 0.94354,-17.5 z m 288,-16.89204 c 0,-0.33438 -7.65,-0.60796 -17,-0.60796 l -17,0 0,17.5 c 0,9.625 0.39047,17.5 0.86771,17.5 11.53942,-11.99061 22.54131,-20.29623 33.13229,-34.39204 z m -288,-55.10796 0,-50.5 -3.80075,0 c -3.66915,0 -5.29649,1.4824 -46.999999,42.81403 -23.759589,23.54772 -43.199253,43.3081 -43.199253,43.91197 0,0.60386 7.9875,2.98269 17.75,5.28629 9.7625,2.30361 21.8,5.22726 26.75,6.49701 7.865543,2.01763 11.552528,2.32011 29.250002,2.39967 l 20.25,0.091 0,-50.5 z m 318.78546,44.14071 c 14.99655,-3.4976 30.34041,-5.68325 30.71453,-6.05737 0.37413,-0.37413 -21.64097,-21.21959 -45.5395,-45.12286 C 389.27792,712.27517 384.99596,708.29077 382.04,708.29077 l -3.25431,0 0,50.5 0,50.5 18.75951,0 18.75951,0 z"
         id="path3473"
         inkscape:connector-curvature="0"
         sodipodi:nodetypes="cscscssscccssssssscccsssscccsssssssscccssscccscsccccccssccccccscsccsssscsssssscccssssscscscccsccccccsccsssccscccscscssscccccsccsssssccsssccsssssscccsssscccccsss" />
      <path
         style="fill:#6a6a6a"
         d="m 126.45622,1014.628 c -0.36879,-0.3688 0.034,-36.71399 -0.68856,-80.7539 l -1.28069,-78.06302 c -7.26578,-6.3859 -4.06932,-5.36609 -6.50816,-7.39605 0,0 0.0145,4.65074 -0.23509,10.12828 -5.22225,41.18434 -10.96144,46.04518 -14.96153,58.50136 l -0.11767,10.49356 -16.63135,-0.12627 -16.757614,0.25254 -0.857029,-16.89193 c 4.236453,0.60656 3.638485,-0.88408 2.588894,13.51841 0,0 4.71708,0.48456 15.659566,0.48456 8.755424,0 13.918723,0.31523 13.918723,0.31523 -0.46561,-6.78909 -0.730563,-6.84148 -0.37358,-13.60852 0.0956,-1.81313 2.23761,-1.82896 3.36286,-4.97438 5.42087,-15.15306 9.54012,-27.40823 11.20252,-54.75902 l -0.49707,-8.65296 -15.881354,-15.61911 C 86.126765,815.4071 81.724509,812.02783 78.517741,811.18435 63.77714,807.30708 25.68141,798.77671 26.563394,798.71746 c 2.075716,10.54539 4.607707,13.70686 5.918965,22.35963 5.704102,26.82826 17.213922,51.23749 27.944692,70.12927 3.49312,6.14972 6.607817,12.939 7.751789,14.57754 1.908517,2.73362 0.396388,2.79564 1.908517,2.73362 13.008454,-0.5336 31.514173,-1.35326 32.021703,0.99217 0.75473,3.48779 -31.41561,4.45203 -33.719582,1.4636 l -3.361584,-4.36023 C 64.63397,906.10211 60.982985,899.34867 57.245133,892.79465 44.296839,870.0909 33.704342,850.47411 27.568599,818.42212 c -0.991581,-9.22831 -3.137968,-14.37038 -3.288167,-21.59642 0,-2.9974 4.484732,-3.95941 46.488663,-45.76666 l 45.731045,-47.03096 41.96946,0 42.72708,-0.25254 10.43661,-8.98477 10.18408,-11.00508 28.87821,0.50508 28.62566,0 10.46427,10.5 9.70666,9.17417 43.75599,0.31568 43.75599,0 44.24187,46.76015 c 24.52632,25.92237 47.06403,46.98591 47.26147,47.73258 0.19743,0.74667 -0.92037,4.35024 -2.04748,8.55357 -1.12711,4.20333 -3.7895,12.86385 -5.26167,19.46385 -4.13973,18.55913 -20.96717,55.29071 -29.65302,72.42534 -2.77563,5.47551 -6.16289,9.75151 -6.16289,9.75151 -0.99049,3.02062 -1.10173,3.30297 -2.1845,14.85915 -0.33648,3.59118 -3.13581,0.19302 -3.13581,0.19302 0.49219,-8.37534 0.0736,-6.53818 0.52286,-15.83616 -12.09108,0 -28.51251,-0.94242 -28.76429,1.0414 l 0.16482,15.86574 c 0.0119,1.14542 5.95155,-0.05 14.70697,-0.05 10.48196,1.28146 19.32749,-5.34812 15.59303,2.75 l -16,0 -16.53571,0.17857 -1.04773,-10.28571 c -0.67569,-6.63344 -0.032,-8.01952 -2.1663,-12.08539 -3.51514,-6.69642 -7.67451,-22.19285 -8.98672,-32.2236 -1.71462,-13.10687 -2.44514,-28.7316 -1.54191,-28.81601 0,0 1.96881,15.69464 2.61752,22.98214 1.35489,15.22062 3.86928,20.97036 6.34974,28.37104 l 3.31111,9.87896 18,0.21516 18,0.21516 6.64084,-10.21516 c 0,0 21.52356,-48.98783 29.68798,-75.59016 0.98077,-3.19565 1.76847,-10.31791 2.92341,-13.23822 1.55847,-3.94062 2.34485,-6.49327 1.50791,-7.33021 -0.83694,-0.83694 -6.44102,0.0943 -24.81892,4.3826 -13.61946,3.17799 -25.8013,6.28947 -27.50726,6.80527 -2.06823,0.62533 -8.70337,5.62505 -18.8409,16.25553 -11.7217,12.29167 -13.24477,11.79924 -16.4601,17.63209 0,0 -0.72078,15.05365 -1.13231,3.77865 -0.085,-2.33022 -1.29376,-0.60121 -5.15035,3.38568 l -2.98135,3.0821 -0.61305,78.9179 -0.2559,80.70364 -125.07947,0.2538 c -68.79371,0.1396 -125.38121,-0.048 -125.75,-0.4166 z m 247.65939,-3.0872 c 0.24637,-0.4125 0.77966,-68.58557 1.18508,-151.49567 0.58631,-119.90204 0.48168,-151.05344 -0.51138,-152.25 -1.09889,-1.32407 -15.84725,-2.76281 -123.00362,-1.50436 -107.51737,1.26269 -121.90773,0.1839 -122.99434,1.49318 -0.98073,1.18171 -1.08651,32.94122 -0.5071,152.25 0.40267,82.91625 0.93178,151.09435 1.1758,151.50685 0.24402,0.4125 55.29056,0.75 122.32564,0.75 67.03508,0 122.08354,-0.3375 122.32992,-0.75 z M 396.5714,831.01892 c 8.8,-9.3381 16.86181,-16.55224 17.04212,-17.34094 0.27702,-1.21173 -2.43544,-1.39162 -17.5,-1.1606 l -17.82783,0.27339 -0.27454,17.46487 1.2724,18.33582 c 0.70832,-0.32678 8.48785,-8.23443 17.28785,-17.57254 z M 123.77046,812.6645 108.2933,812.77024 c -13.035649,0.0891 -19.265226,-0.59385 -19.265226,0.26472 10.142155,8.88316 27.996596,28.61638 36.169136,37.8973 -0.25848,-19.06574 -0.68847,-20.00711 -1.42675,-38.26776 z m 1.51523,-53.87373 0,-51 -4.04412,-0.29744 -5.3068,0.71271 -43.004438,42.69034 c -36.314876,36.04964 -43.781994,43.29959 -42.703347,44.36832 0.721183,0.71455 11.295765,3.02875 26.164667,6.50863 l 29.272843,6.85095 20.000005,0.20444 18.86358,-0.30064 z m 316.55542,44.7009 c 14.17895,-3.72472 28.43377,-6.54524 29.80628,-6.88972 1.66555,-0.41803 1.1445,-0.1405 0.94188,-1.31576 -0.16697,-0.96847 -19.98273,-21.19277 -44.03503,-44.94288 -41.39509,-40.87503 -43.90607,-43.16521 -47,-42.86728 l -3.26855,0.31474 -0.26021,50 c -0.14312,27.5 -0.0447,50.5625 0.21861,51.25 0.35935,0.93809 5.12447,1.25 19.09681,1.25 l 18.61798,0 z M 292.78569,702.56429 c 0,-0.39957 -3.25124,-3.99957 -7.22497,-8 l -7.22497,-7.27352 -27.50152,0 -27.50151,0 -7.27351,7.22497 c -4.00044,3.97374 -10.55652,8.83643 -10.55652,9.26269 0,0.42627 22.183,-0.48766 45.283,-0.48766 23.1,0 42,-0.32692 42,-0.72648 z"
         id="path3471"
         inkscape:connector-curvature="0"
         sodipodi:nodetypes="csccccccccsssssccssccsssssssccscccccccccccscssscsccssccccssssssccccssssssssscccscccssssssscssscccscscccccccsssccccssssscscscssscccssss" />
    </g>
  </g>
</svg>
