<?xml version="1.0" encoding="UTF-8" standalone="no"?>
<!-- Created with Inkscape (http://www.inkscape.org/) -->

<svg
   xmlns:dc="http://purl.org/dc/elements/1.1/"
   xmlns:cc="http://creativecommons.org/ns#"
   xmlns:rdf="http://www.w3.org/1999/02/22-rdf-syntax-ns#"
   xmlns:svg="http://www.w3.org/2000/svg"
   xmlns="http://www.w3.org/2000/svg"
   xmlns:sodipodi="http://sodipodi.sourceforge.net/DTD/sodipodi-0.dtd"
   xmlns:inkscape="http://www.inkscape.org/namespaces/inkscape"
   width="500"
   height="430"
   viewBox="0 0 500.00001 430.00001"
   id="svg2"
   version="1.1"
   inkscape:version="0.91 r13725"
   sodipodi:docname="rug2_front.svg">
  <defs
     id="defs4" />
  <sodipodi:namedview
     id="base"
     pagecolor="#ffffff"
     bordercolor="#666666"
     borderopacity="1.0"
     inkscape:pageopacity="0.0"
     inkscape:pageshadow="2"
     inkscape:zoom="5.9644128"
     inkscape:cx="180.85142"
     inkscape:cy="299.66611"
     inkscape:document-units="px"
     inkscape:current-layer="g3492"
     showgrid="false"
     inkscape:window-width="1304"
     inkscape:window-height="746"
     inkscape:window-x="54"
     inkscape:window-y="-8"
     inkscape:window-maximized="1"
     units="px" />
  <metadata
     id="metadata7">
    <rdf:RDF>
      <cc:Work
         rdf:about="">
        <dc:format>image/svg+xml</dc:format>
        <dc:type
           rdf:resource="http://purl.org/dc/dcmitype/StillImage" />
        <dc:title></dc:title>
      </cc:Work>
    </rdf:RDF>
  </metadata>
  <g
     inkscape:label="Layer 1"
     inkscape:groupmode="layer"
     id="layer1"
     transform="translate(0,-622.36216)">
    <g
       id="g3492"
       transform="translate(-781.55504,-431.23412)">
      <path
         style="fill:#fdfdfd"
         d="m 809.51807,719.01184 0,-182.5 237.00003,0 237,0 0,182.5 0,182.5 -237,0 -237.00003,0 0,-182.5 z"
         id="path3500"
         inkscape:connector-curvature="0" />
      <path
         style="fill:#999999"
         d="m 901.74586,1367.5143 -0.018,-83.2194 -3.98198,-3.3867 -5.04263,-4.292 -0.35355,5.2145 c -1.10989,16.3694 -3.26683,44.0122 -8.33184,54.9242 -2.32157,5.0016 -2.82668,7.6719 -3.25127,17.1883 l -0.5027,11.2666 -17.25,0.2803 -17.25,0.2801 0,-10.1569 c 0,-7.1963 -0.36542,-10.3007 -1.25357,-10.6498 -0.68946,-0.2709 -1.84527,-2.1687 -2.56846,-4.2171 -0.72319,-2.0484 -4.25074,-8.2135 -7.83899,-13.7002 -11.56632,-17.6857 -20.21295,-38.7937 -25.90388,-63.2361 -1.83624,-7.8868 -4.06787,-17.3353 -4.95917,-20.9971 -3.49691,-14.366 -3.73668,-13.3662 5.60453,-23.3706 4.56688,-4.8911 25.32816,-26.4325 46.13619,-47.8697 l 37.83277,-38.977 41.72529,-0.2651 41.72529,-0.2652 10.51633,-10.6896 10.51628,-10.6897 29.079,0 29.0788,0 10.2157,10.7545 10.2157,10.7545 43.7147,0 43.7146,0 45.9745,47.1154 c 32.6488,33.459 46.0669,47.865 46.2934,49.702 0.1754,1.4227 -0.5627,5.225 -1.6401,8.4496 -1.0775,3.2246 -2.2686,7.9372 -2.647,10.4721 -1.2919,8.6543 -7.3016,31.2227 -11.0461,41.4819 -5.0031,13.7072 -12.5627,29.033 -18.9456,38.409 -8.2147,12.0665 -9.5401,15.9302 -9.5401,27.8094 l 0,10.1369 -16.75,-0.2809 -16.75,-0.2807 -0.285,-10.4985 c -0.1568,-5.7741 -0.6566,-10.4984 -1.1107,-10.4984 -1.5369,0 -6.9809,-11.8061 -8.9901,-19.4966 -2.6066,-9.9774 -4.193,-21.3107 -4.9786,-35.5698 l -0.6356,-11.5361 -3.75,2.7376 -3.75,2.7376 -2,82.7999 2,84.8483 -126.5,0 -126.50011,0 -0.018,-83.2195 z m -23.98197,-13.5711 0,-8.7061 -14.5,0 -14.5,0 0,8.7061 0,8.706 14.5,0 14.5,0 z m 332.00011,-0.5122 0,-9.2181 -14.5,0 -14.5,0 0,9.2181 0,9.2182 14.5,0 14.5,0 z m -328.45152,-16.486 c 3.36595,-6.8035 7.18045,-16.3884 9.02589,-30.8075 1.20556,-9.4195 0.41773,-27.8814 0.38426,-90.7754 l -0.0413,-77.5336 -43.95874,45.3686 c -24.17731,24.9528 -43.95874,46.0682 -43.95874,46.9231 0,0.8549 0.8932,4.4063 1.98489,7.8918 1.09169,3.4855 3.15546,12.0988 4.58615,19.1404 5.28468,26.0104 15.75658,52.5221 27.85314,70.5156 3.161,4.7019 6.20272,9.8871 6.75937,11.5227 l 1.0121,2.9737 16.88533,0 16.88533,0 2.58228,-5.2194 z m 330.86332,1.5979 c 0.5985,-1.7102 3.6589,-7.0361 6.8009,-11.8356 12.2601,-18.7271 22.9271,-45.7864 28.2266,-71.6034 1.4455,-7.0416 3.3472,-14.877 4.2262,-17.4121 3.379,-9.746 6.7056,-5.3658 -41.6132,-54.7924 l -44.0523,-45.0623 0,78.8891 c 0,78.6054 0.3367,88.2368 3.6333,103.9292 1.5705,7.4762 5.2685,17.3832 7.5305,20.1748 0.8751,1.08 4.7331,1.3211 17.6399,1.1022 l 16.5198,-0.2801 z m -59.9118,-45.414 c 0,0 -41.5849,-0.1312 -124.75,-0.3841 -81.16796,-0.2469 -124.29561,0.1939 -124.29561,0.1939 1.18069,2.8702 -5.94338,4.3811 0.43069,4.7998 11.74193,0.7711 81.32754,-0.8695 123.86492,-1.4089 39.7099,-0.5036 110.208,0.7546 124.257,0.9521 z m 0.3839,-2.9577 c 0,-0.1455 6.2532,-1.9659 -0.1627,-2.1752 -23.4375,-0.7651 -91.5514,-0.1493 -124.2212,-0.1163 -29.9227,0.031 -96.00889,0.023 -124.67413,-0.031 0,0 -0.57598,2.4011 -0.57598,2.5914 0,0.6772 83.79093,-0.6126 125.25011,-0.5121 43.5797,0.1053 124.3839,0.243 124.3839,0.243 z m 0.1768,-7.3248 c -29.3994,-0.3091 -83.0412,-0.3317 -124.5607,-0.088 -26.7939,0.1571 -92.95821,0.8092 -124.14149,0.4027 0,0 -0.70498,2.9284 -0.2425,2.9443 18.56155,0.6331 15.27277,-0.2743 124.38399,-0.2743 79.1211,0 113.9144,0.4491 124.0509,-0.1202 3.8421,-0.2158 0.874,-2.8608 0.5098,-2.8646 z m -251.06081,-21.0848 0,-18.9486 -4,0 -4,0 0,15.8012 0,15.8012 3.72784,3.1472 c 2.05032,1.7311 3.85032,3.1474 4,3.1474 0.14969,0 0.27216,-8.5268 0.27216,-18.9484 z m 251.23761,19.0726 c 0.7405,-0.014 5.9234,-4.7421 -0.539,-4.6152 -11.0612,0.2172 -47.1016,0.3941 -124.1985,0.3941 -70.67142,0 -110.06195,-0.014 -123.592,0.4141 0,0 -1.45994,3.8098 -0.61522,3.807 40.83542,-0.1354 1.37378,-0.1242 124.20722,-0.1242 122.8333,0 112.0096,0.351 124.7375,0.1242 z m 6.3159,-2.8788 5.391,-3.9029 -0.3535,-15.8008 -0.5302,-17.0682 -5.0607,0.3621 -5.7678,-0.7243 c 1.4214,11.9185 -0.3098,27.2269 2.3212,38.8645 -0.5534,3.3998 2.0197,-0.2967 4,-1.7304 z m -6.6695,-3.0856 c 0,0 2.6879,-3.8497 -0.6929,-3.93 -18.8253,-0.4478 -88.7872,-0.4697 -123.691,-0.4722 -25.6668,0 -109.86941,-0.045 -123.79799,0.08 0,0 -0.70212,3.0018 -0.70212,3.7793 0,0 1.66667,0.2379 124.50011,0.2379 122.8333,0 126.3728,0.3383 124.3839,0.3052 z m -0.8839,-11.5719 -123.5,0 -124.38399,0 0,4.9401 124.38399,0.1811 123.5,0 c 0.6761,-1.8571 0.3846,-3.2644 0,-5.1212 z m 0,-65.0393 0,-62.9907 -38,0 c -29.8467,0 -38,0.2762 -38,1.2875 0,0.7081 1.1194,5.4324 2.4876,10.4984 1.3681,5.066 2.4931,9.7871 2.5,10.4913 0.01,0.9398 -2.6477,1.2803 -9.9876,1.2803 l -10,0 0,4.4503 c 0,6.4384 -2.0231,7.8955 -11.9278,8.5908 l -8.0722,0.5667 -0.039,10.3521 c -0.03,8.1226 -0.7321,13.2198 -3.258,23.6672 l -3.2193,13.3151 -7.2837,-0.3017 c -8.5162,-0.3529 -6.683,0.074 -10.4859,-15.6549 -1.8829,-7.7882 -2.4769,-12.9059 -2.4769,-20.8845 l -0.7071,-11.4072 -9.5986,0.3757 c -8.2307,0.3223 -9.3416,-0.7977 -12.00008,-3.4064 -2.0871,-2.048 -2.9317,-3.8543 -2.9317,-6.27 l 0,-3.3932 -9,0 c -6.53999,0 -8.99663,-0.35 -8.98761,-1.2803 0.007,-0.7042 1.13184,-5.4253 2.5,-10.4913 1.36817,-5.066 2.48758,-9.7903 2.48758,-10.4984 0,-1.0098 -7.66079,-1.2875 -35.5,-1.2875 l -35.5,0 0,62.9907 0,62.9909 123.50011,0 123.5,0 0,-62.9909 z m -57.6531,16.5837 c -6.8218,-7.0687 -6.6806,-11.481 2.0512,-17.578 8.7035,-1.2198 9.7379,-0.2284 13.1839,8.6103 0,5.6206 0.1239,5.6688 -7.641,11.4242 -7.5941,-2.4565 -6.1182,-1.5188 -7.5941,-2.4565 z m -192.34701,-27.3382 0,-52.2362 -4,0 -4,0 0,52.2362 0,52.2362 4,0 4,0 z m 261.00011,0 0,-52.2362 -4,0 -4,0 0,52.2362 -0.8839,54.2279 4.7071,-0.362 4.5304,-0.1812 z m -127.1925,15.1076 c 2.3327,-9.7936 3.2269,-15.9234 3.2125,-22.0212 l -0.02,-8.45 -6.0307,0 -6.0306,0 0.088,9.9864 c 0.069,7.821 -0.545,12.5955 -2.8306,22.0211 l -2.9182,12.0348 5.6487,0 5.6486,0 3.2326,-13.5711 z"
         id="path3498"
         inkscape:connector-curvature="0"
         sodipodi:nodetypes="ccccssscccsssssssscccccccccccsccsssscccssssccccccccccccccccccccccccccccsscssssssccccccsscscscsscccscssccsssssssscsssssscscccssssscssssscsccccscscsssscccscccccscccscssccscssscssscscsssccccccccccccccccccccccccccccccccccccccccccccc" />
      <path
         style="fill:#0f0f0f"
         d="m 902.76389,1367.8502 0,-82.8837 -4.18,-3.6646 c -2.299,-2.0156 -4.549,-3.6646 -5,-3.6646 -0.451,0 -0.82,3.9737 -0.82,8.8305 0,17.4251 -4.51299,40.6918 -10.0643,51.8863 -2.66482,5.3738 -2.9357,6.8622 -2.9357,16.1318 l 0,10.2118 -16.5,0 -16.5,0 0,-10.1231 c 0,-9.0053 -0.20523,-10.1777 -1.85883,-10.6207 -1.02236,-0.2738 -2.18041,-1.8256 -2.57346,-3.4483 -0.39305,-1.6227 -3.32501,-6.868 -6.51546,-11.6563 -12.64147,-18.9728 -24.23137,-48.2248 -29.01553,-73.2333 -1.18543,-6.1966 -3.06146,-14.1354 -4.16896,-17.6416 -1.1075,-3.5063 -1.86831,-7.2567 -1.6907,-8.3341 0.17762,-1.0777 20.88627,-23.2132 46.01923,-49.1901 l 45.6963,-47.2308 42.11826,0 42.11827,0 2.65631,-3.3288 c 1.461,-1.8309 6.01,-6.9008 10.1089,-11.2666 l 7.45248,-7.9379 29.0767,0.028 29.0766,0.028 9.25,10.1277 c 5.0875,5.5702 9.25,10.6278 9.25,11.2392 0,0.7827 13.3567,1.1113 45.1592,1.1113 l 45.1591,0 45.0909,46.7514 c 48.9206,50.7224 47.2788,48.6032 44.2504,57.1156 -0.8199,2.3048 -2.4735,9.2516 -3.6745,15.4375 -5.6149,28.9183 -15.8401,55.4519 -29.0188,75.3012 -8.1067,12.2101 -8.9663,14.7751 -8.9663,26.7553 l 0,10.1174 -16.5,0 -16.5,0 0,-10.2424 c 0,-5.845 -0.4113,-10.2424 -0.9579,-10.2424 -1.4061,0 -5.726,-7.9681 -8.096,-14.9334 -2.8339,-8.3283 -5.936,-30.6118 -5.9415,-42.6802 0,-5.4924 -0.5467,-9.9863 -0.5467,-9.9863 -0.276,0.1155 -2.5305,1.4979 -4.961,3.3288 l -4.4189,3.3288 -0.039,83.7316 -0.039,83.7316 -125.5,0 -125.50011,0 0,-82.8837 z m 249.19921,4.2732 c 0.1096,-42.1091 0.2221,-112.7432 0.25,-156.9648 l 0.051,-80.4029 -37.9378,-0.2685 c -20.8658,-0.1478 -38.2967,0.099 -38.7353,0.5483 -0.4387,0.4492 0.3208,5.0972 1.6877,10.3287 1.367,5.2316 2.4854,10.1701 2.4854,10.9745 0,1.1644 -1.9356,1.4624 -9.5,1.4624 l -9.5,0 0,4.287 c 0,2.9919 -0.6569,5.0032 -2.1743,6.6576 -2.1378,2.3308 -2.5242,2.3706 -23,2.3706 l -20.8257,0 0,11.3521 c 0,10.2874 1.2014,18.0621 4.6165,29.8736 0.285,0.9858 0.1249,1.7923 -0.3558,1.7923 -1.8887,0 -4.639,-15.1893 -5.1929,-28.6787 l -0.5678,-13.8272 -9.7988,-0.6547 c -11.79578,-0.7881 -13.70128,-2.0011 -13.70128,-8.7223 l 0,-4.4503 -9,0 c -7.1312,0 -9.00003,-0.3037 -9.00003,-1.4624 0,-0.8044 1.11839,-5.7429 2.48532,-10.9745 1.36693,-5.2315 2.12608,-9.8798 1.687,-10.3296 -0.43908,-0.4497 -16.74497,-0.6964 -36.23532,-0.5482 l -35.437,0.2693 -0.25318,156.9648 -0.25319,156.9649 124.00328,0 124.0032,0 0.1991,-76.562 z m -59.7052,-157.2225 c -3.5089,-3.0913 -4.4208,-9.598 -1.9464,-13.8883 2.0743,-3.5966 5.2348,-5.3146 9.777,-5.3146 9.2042,0 13.8031,12.2533 7.1546,19.0629 -3.3108,3.3911 -11.2112,3.4649 -14.9852,0.14 z m 13.583,-1.712 c 6.0921,-6.2398 2.305,-15.4424 -6.3549,-15.4424 -6.7327,0 -10.9378,5.7542 -8.6961,11.8996 2.5275,6.9288 10.0226,8.6931 15.051,3.5428 z m -89.6829,-25.0863 c -0.2987,-0.7973 -0.3971,-2.7561 -0.2186,-4.3529 0.2944,-2.6336 0.6857,-2.9032 4.2156,-2.9032 4.5243,0 6.2272,1.9467 5.2372,5.9869 -0.5826,2.3775 -1.1704,2.7192 -4.6787,2.7192 -2.5376,0 -4.2119,-0.5329 -4.5555,-1.45 z m 7.4224,-2.903 c 0.2843,-2.531 0.01,-2.8167 -2.75,-2.8167 -2.5458,0 -3.0664,0.4057 -3.0664,2.3899 0,3.0188 0.8805,3.9207 3.4588,3.5426 1.3906,-0.2038 2.142,-1.1969 2.3576,-3.1158 z m -145.31651,168.7436 0,-9.2182 -15.25,-0.2829 -15.25,-0.2826 0,9.7837 0,9.7836 15.25,-0.2828 15.25,-0.2827 z m 332.28761,-0.2561 0.2875,-9.4742 -15.5375,0 -15.5375,0 0,9.0474 c 0,4.9761 0.3115,9.3666 0.6923,9.7565 0.3807,0.39 7.2432,0.5821 15.25,0.4268 l 14.5577,-0.2823 z m -328.77938,-16.6606 c 3.64108,-7.3878 6.38104,-18.7649 8.45709,-35.1161 1.26029,-9.9261 1.53468,-25.7362 1.53468,-88.426 0,-41.9863 -0.3679,-76.1852 -0.81756,-75.9974 -0.44966,0.1878 -20.78591,20.9969 -45.19168,46.2426 l -44.37412,45.9011 1.77752,4.7988 c 0.97764,2.6393 2.84924,10.0991 4.15912,16.5775 3.45086,17.067 7.89722,32.5469 13.06787,45.4953 5.14332,12.88 8.30213,18.9148 16.39516,31.3228 3.12318,4.7883 6.25177,10.2039 6.95242,12.0347 l 1.27391,3.3288 16.86429,0 16.86428,0 z m 330.94498,1.3001 c 0.7452,-2.1107 3.0298,-6.1437 5.0768,-8.962 12.547,-17.2747 24.2718,-46.6348 30.4735,-76.3092 1.4717,-7.0416 3.3104,-14.5407 4.0862,-16.6646 0.7757,-2.1239 1.4104,-4.8186 1.4104,-5.9883 0,-1.4288 -14.3078,-16.9715 -43.5879,-47.3505 -23.9733,-24.8729 -44.0226,-45.3855 -44.554,-45.5835 -0.6187,-0.2304 -0.8199,29.611 -0.5595,82.9635 0.3409,69.8396 0.6584,84.6787 1.9618,91.6983 2.0866,11.2375 4.4157,19.205 7.3446,25.1252 l 2.4287,4.9089 17.2822,0 17.2823,0 z m -310.95321,-76.565 0,-19.9728 -4.5,0 -4.5,0 -0.0155,16.1318 -0.0155,16.1319 4.26549,3.8102 c 2.34601,2.0957 4.37798,3.8241 4.51548,3.8408 0.1375,0.016 0.25,-8.957 0.25,-19.9419 z m 257.67271,15.2735 4.3785,-3.6749 -0.2756,-15.5296 -0.2755,-15.5297 -4.75,-0.3121 -4.75,-0.3122 0,19.5167 c 0,-6.2857 0.2911,19.5167 0.647,19.5167 0.3558,0 2.6173,-1.6538 5.0256,-3.6749 z m -257.67271,-89.0189 0,-52.7483 -4.5,0 -4.5,0 0,52.7483 0,52.7484 4.5,0 4.5,0 z m 261.50011,-0.5121 0,-52.7484 -4.75,-0.3122 -4.75,-0.3121 0,52.6337 c 0,28.9487 0.3211,52.9628 0.7137,53.3649 0.3925,0.402 2.53,0.594 4.75,0.4266 l 4.0363,-0.3042 z m -164.7599,-41.7377 c -0.2004,-12.8159 -0.7264,-24.3386 -1.169,-25.606 -1.2235,-3.505 0.8206,-2.7652 2.1228,0.7681 l 1.1323,3.0727 25.6389,0 25.6389,0 1.0458,-3.0727 c 0.5752,-1.69 1.4999,-3.0727 2.055,-3.0727 0.6169,0 0.6801,0.6966 0.1626,1.7924 -0.4656,0.9859 -0.9869,12.5085 -1.1584,25.606 -0.2715,20.7382 -0.116,23.8136 1.2044,23.8136 2.2128,0 3.5866,-3.309 3.5866,-8.6388 l 0,-4.6763 9.5,0 c 6.9454,0 9.4939,-0.3444 9.4772,-1.2803 -0.013,-0.7042 -1.3581,-6.3367 -2.9902,-12.5167 l -2.9675,-11.2363 -8.7389,-8.9924 -8.7389,-8.9924 -28.0396,0 -28.0397,0 -9.64778,9.9864 -9.6477,9.9863 -2.58354,10.0776 c -1.42092,5.5426 -2.58349,10.7099 -2.58349,11.4829 0,1.061 2.14229,1.4775 8.75003,1.701 l 8.75,0.296 0.5178,5.1212 c 0.64288,6.3584 1.43428,7.6818 4.59338,7.6818 l 2.4934,0 z m 7.2599,12.951 c 0,-8.1842 -0.5359,-12.1498 -2.5605,-18.9484 -1.4083,-4.7291 -2.7583,-8.5981 -3,-8.5981 -0.2418,0 -0.4395,8.5268 -0.4395,18.9484 l 0,18.9485 3,0 3,0 z m 12,4.2049 c -8.5824,-8.0242 -10,-8.0242 -10,0 l 0,6.1455 8.25,-0.034 8.25,-0.034 z m 27,0 c 0,-5.3125 -0.2526,-6.1454 -1.8635,-6.1454 -1.0249,0 -4.7374,2.7449 -8.25,6.1 l -6.3865,6.1002 8.25,0.045 8.25,0.045 0,-6.1455 z m 6.9275,-12.0347 -0.072,-18.1803 -2.9072,9.2181 c -2.2896,7.2594 -2.9116,11.1225 -2.9276,18.1803 l -0.02,8.9621 3,0 3,0 -0.072,-18.1802 z m -14.1976,6.7278 c 5.632,-5.863 6.4717,-7.3131 8.75,-15.1091 1.386,-4.7431 2.5201,-8.773 2.5201,-8.9554 0,-0.1823 -10.125,-0.3315 -22.5,-0.3315 -12.375,0 -22.5,0.3184 -22.5,0.7078 0,0.3891 1.0125,4.3349 2.25,8.7681 2.1689,7.7697 2.5642,8.3753 10.9657,16.7989 l 8.7158,8.7387 2.7842,-2.0659 c 1.5314,-1.1363 5.5877,-4.9845 9.0142,-8.5516 z m 13.1849,-28.749 c 0.4677,-1.2675 0.6516,-2.6502 0.4087,-3.0727 -0.2428,-0.4225 -11.7175,-0.7682 -25.4992,-0.7682 l -25.0576,0 0.603,2.3045 c 0.3316,1.2675 0.6091,2.6503 0.6166,3.0728 0.01,0.4225 10.8282,0.7681 24.0459,0.7681 24.0037,0 24.0332,0 24.8826,-2.3045 z"
         id="path3494"
         inkscape:connector-curvature="0"
         sodipodi:nodetypes="ccssssscccsssssssscccsscccssscsscsscccssccscccccccccscsccsscscscscsscsscssssscccccccssssssssscsscsccsssccccccccccccccscsccssscscssssscccsscscsscssccccsccccccscccccccccssccccccccccccccscsccscccccsscssscscscccccccssscsscssssscccssscccssssccccscccccccccscsssssccsccscccsc" />
      <path
         style="fill:#00ff00"
         d="m 123.27308,144.53815 0,-62.916514 32.94541,0.207697 c 30.1675,0.190185 37.07801,0.379467 37.73204,1.033501 0.12744,0.12744 -0.58281,3.428237 -1.57834,7.335104 -3.14523,12.343212 -3.42689,13.734962 -2.88856,14.273282 0.54174,0.54175 6.54083,1.00467 13.34464,1.02975 l 4.27536,0.0158 0.007,2.43108 c 0.009,2.92097 0.67017,4.57623 2.7144,6.79395 3.12586,3.39116 5.34229,3.91608 15.2522,3.61217 6.24357,-0.19147 6.50457,-0.17383 6.50494,0.4396 2.2e-4,0.35149 0.15536,4.26055 0.34476,8.6868 0.65562,15.3215 2.50107,28.13429 4.65883,32.34577 0.33433,0.65255 0.89188,1.9254 1.239,2.82856 0.98282,2.55715 1.68936,2.90417 6.66004,3.27099 2.34529,0.17308 5.19112,0.27015 6.32406,0.21571 l 2.05989,-0.099 2.10585,-8.71837 c 3.696,-15.30177 4.42992,-20.69699 4.43598,-32.61009 0.002,-4.40159 0.10314,-5.78463 0.4221,-5.78567 0.23053,-6.7e-4 2.53168,-0.1529 5.11366,-0.3381 8.58322,-0.61569 11.30661,-1.30557 12.97337,-3.2864 0.95184,-1.1312 1.13797,-1.97494 1.46312,-6.63244 l 0.21286,-3.04888 8.60313,-0.22267 c 9.00332,-0.23302 11.1165,-0.51647 11.12023,-1.49157 0.001,-0.31408 -1.14771,-5.143579 -2.55314,-10.732217 -1.40544,-5.588637 -2.46594,-10.250554 -2.35668,-10.359814 0.60215,-0.602154 8.40773,-0.792392 40.36795,-0.983848 l 35.29266,-0.211419 0,62.916888 0,62.9169 -123.39857,0 -123.39857,0 0,-62.91653 z m 200.28418,18.20035 c 3.4074,-1.66708 5.26833,-4.99781 5.26833,-9.42938 0,-3.22469 -0.89246,-5.6407 -2.91435,-7.88953 -2.174,-2.41801 -3.67664,-3.10722 -7.14532,-3.27731 -2.35953,-0.1157 -3.19124,-0.0112 -4.83094,0.60682 -3.85179,1.45185 -6.28734,4.94693 -6.51867,9.3545 -0.4035,7.68772 3.71919,11.91107 11.37672,11.65449 2.33292,-0.0782 3.23437,-0.27109 4.76423,-1.01959 z"
         id="path3456"
         inkscape:connector-curvature="0"
         transform="translate(781.55504,1053.5963)" />
      <path
         style="fill:#00ff00"
         d="m 239.76358,161.93469 c 0.47829,-1.56894 3.57042,-14.75655 4.18672,-17.85591 1.10462,-5.55517 1.37436,-8.98654 1.37731,-17.52058 l 0.003,-7.96391 5.90712,0 5.90712,0 -0.16761,7.79624 c -0.21316,9.91557 -0.62493,12.41707 -5.10568,31.01731 l -1.23187,5.11366 -5.52737,0 c -5.10877,0 -5.51383,-0.0444 -5.34849,-0.58681 z"
         id="path3458"
         inkscape:connector-curvature="0"
         transform="translate(781.55504,1053.5963)" />
      <path
         style="fill:#00ff00"
         d="m 112.20745,133.85145 0,-52.142599 3.8562,0 3.85621,0 0,52.142599 0,52.1426 -3.85621,0 -3.8562,0 0,-52.1426 z"
         id="path3460"
         inkscape:connector-curvature="0"
         transform="translate(781.55504,1053.5963)" />
      <path
         style="fill:#00ff00"
         d="m 62.817397,286.50688 c -0.659377,-2.0897 -2.92587,-6.12052 -6.929145,-12.32309 -5.168922,-8.00858 -7.861511,-12.84766 -11.600741,-20.84869 -7.468697,-15.98117 -12.265796,-30.96058 -17.377667,-54.26348 -1.031656,-4.70289 -2.62869,-11.24492 -3.548963,-14.53783 -2.397763,-8.57964 -2.361519,-7.81132 -0.469857,-9.96017 3.311027,-3.76119 9.001242,-9.87238 19.958162,-21.43471 12.109778,-12.77889 17.513636,-18.39436 46.891673,-48.7279 l 18.945701,-19.561903 0.25085,43.614543 c 0.13797,23.98799 0.20355,60.21298 0.14574,80.49998 -0.10118,35.50537 -0.13154,37.06108 -0.81146,41.57995 -2.76272,18.36153 -4.34251,24.13137 -9.33024,34.07662 l -1.829106,3.64713 -16.869731,0 -16.869734,0 -0.555482,-1.76045 z"
         id="path3462"
         inkscape:connector-curvature="0"
         transform="translate(781.55504,1053.5963)" />
      <path
         style="fill:#00ff00"
         d="m 115.97882,223.80163 -3.75954,-3.10173 -0.006,-15.67631 -0.006,-15.67631 3.8562,0 3.85621,0 0,18.77804 c 0,10.32792 -0.0408,18.77804 -0.0908,18.77804 -0.0499,0 -1.78254,-1.39578 -3.85028,-3.10173 z"
         id="path3464"
         inkscape:connector-curvature="0"
         transform="translate(781.55504,1053.5963)" />
      <path
         style="fill:#00ff00"
         d="m 67.274272,300.33892 0,-8.71837 14.418854,0 14.418855,0 0,8.71837 0,8.71838 -14.418855,0 -14.418854,0 0,-8.71838 z"
         id="path3466"
         inkscape:connector-curvature="0"
         transform="translate(781.55504,1053.5963)" />
      <path
         style="fill:#00ff00"
         d="m 967.40511,1268.2489 -63.29715,-0.043 0,-2.4307 0,-2.4308 123.98534,0 123.9855,0 0,2.5149 0,2.5149 -60.6884,-0.042 c -33.3784,-0.023 -89.1719,-0.061 -123.98529,-0.084 z"
         id="path3468"
         inkscape:connector-curvature="0" />
      <path
         style="fill:#00ff00"
         d="m 996.29246,1274.4059 c -50.63053,-0.054 -92.08347,-0.1123 -92.11763,-0.1303 -0.17845,-0.094 -0.0233,-1.8999 0.23606,-2.7472 l 0.29816,-0.9741 123.68485,0 123.6848,0 0,2.0119 0.1677,2.1796 -32.033,-0.2047 c -17.526,-0.021 -73.2904,-0.081 -123.92094,-0.1349 z"
         id="path3470"
         inkscape:connector-curvature="0"
         sodipodi:nodetypes="ccccccccccc" />
      <path
         style="fill:#00ff00"
         d="m 904.10796,1279.8599 c 0,-0.5373 0.18312,-1.3692 0.40692,-1.8486 l 0.40693,-0.8717 3.87624,-0.1072 c 5.24068,-0.1449 59.73708,-0.7642 159.65935,-0.8424 l 84.1244,0.1027 -0.6707,2.3283 0,2.3283 -105.4653,-0.3352 c -58.00565,-0.1844 -113.76164,0.05 -123.90158,0.1114 l -18.43626,0.1113 z"
         id="path3472"
         inkscape:connector-curvature="0"
         sodipodi:nodetypes="sscsscccsccs" />
      <path
         style="fill:#00ff00"
         d="m 910.07118,1286.1528 c -3.21144,-0.065 -5.86695,-0.1302 -5.90111,-0.1456 -0.0342,-0.015 -0.0621,-0.6206 -0.0621,-1.3448 l 0,-1.3168 63.66985,-0.1014 c 35.01837,-0.056 77.19887,-0.1752 93.73447,-0.2655 16.5355,-0.09 43.6775,-0.2119 60.3155,-0.2703 l 30.2509,-0.1063 0,1.6047 0,1.6046 -72.9873,0 c -40.1431,0 -86.74012,0.073 -103.54895,0.1595 -56.11855,0.2876 -59.603,0.2972 -65.47124,0.179 z"
         id="path3474"
         inkscape:connector-curvature="0" />
      <path
         style="fill:#00ff00"
         d="m 904.10796,1289.2485 0,-1.2575 91.31222,0 c 50.22172,-10e-5 105.97742,-0.05 123.90152,-0.1116 l 32.5894,-0.1115 0,1.0756 0,1.0756 -61.0197,0.014 c -37.8941,0.01 -77.4404,0.1197 -104.34793,0.2931 -23.83057,0.1536 -52.12743,0.2794 -62.88191,0.2796 l -19.5536,3e-4 0,-1.2574 z"
         id="path3476"
         inkscape:connector-curvature="0" />
      <path
         style="fill:#00ff00"
         d="m 906.40629,1297.7581 -2.29833,-0.055 0,-2.3212 0,-2.3212 10.87046,-0.1403 c 13.10037,-0.1691 224.31248,-0.1528 231.82038,0.018 l 5.2799,0.12 0,1.4904 0.503,3.167 c -68.8753,0.078 -109.972,0.048 -145.3596,0.249 -61.69353,-0.1496 -61.72362,-0.2973 -100.81581,-0.2089 z"
         id="path3478"
         inkscape:connector-curvature="0"
         sodipodi:nodetypes="ccccsccccccc" />
      <path
         style="fill:#00ff00"
         d="m 373.74151,225.92644 c -0.0371,-0.318 0.0277,-0.74957 0.14396,-0.95904 0.37061,-0.66745 0.26931,-1.3728 -0.27963,-1.94722 -0.27664,-0.28948 -0.50446,-0.62132 -0.50626,-0.73743 -0.002,-0.11611 -0.11847,-1.19192 -0.25927,-2.3907 -0.34855,-2.96757 -0.55733,-11.21976 -0.56738,-22.42614 l -0.008,-9.34857 0.88022,0.0884 c 0.48412,0.0486 2.57136,0.20001 4.6383,0.33647 2.06695,0.13646 3.7768,0.26711 3.79968,0.29034 0.04,0.0406 0.57728,28.06361 0.57494,29.98646 l -0.001,0.93885 -2.74918,2.28691 c -2.65058,2.20489 -3.68371,3.03453 -4.98739,4.00507 l -0.61097,0.45484 -0.0675,-0.5782 z"
         id="path3489"
         inkscape:connector-curvature="0"
         transform="translate(781.55504,1053.5963)" />
      <path
         style="fill:#00ff00"
         d="m 1155.4458,1240.3741 c -0.3505,-0.095 -0.7189,-0.2767 -0.8186,-0.4035 -0.1124,-0.1431 -0.2438,-2.4444 -0.346,-6.0586 -0.1261,-4.465 -0.081,-12.2144 0.1924,-33.1351 0.2066,-15.8064 0.3559,-35.4613 0.3545,-46.6677 l 0,-19.3604 3.9124,0 3.9123,0 0.1115,40.8008 c 0.061,22.4405 0.1613,46.1379 0.2223,52.6611 l 0.1109,11.8602 -0.9911,0.138 c -1.717,0.2392 -5.9937,0.3452 -6.6581,0.1652 z"
         id="path3491"
         inkscape:connector-curvature="0" />
      <path
         style="fill:#00ff00"
         d="m 384.58432,229.74252 c -0.0503,-1.637 -0.13503,-35.00382 -0.18834,-74.1485 l -0.0969,-71.172137 1.15937,1.173628 c 1.61922,1.639128 51.9337,53.162089 54.52162,55.831149 6.3072,6.50495 18.44123,19.40463 23.9291,25.43901 5.63604,6.19732 6.5368,7.37725 7.25154,9.4989 0.54345,1.61323 0.45863,2.62068 -0.4322,5.13309 -1.65353,4.66344 -2.77542,8.99543 -5.0037,19.32087 -2.44661,11.33711 -4.60698,19.25525 -7.83428,28.71403 l -1.0583,3.10174 -36.07825,0.0423 -36.07823,0.0423 -0.0914,-2.97637 z"
         id="path3502"
         inkscape:connector-curvature="0"
         transform="translate(781.55504,1053.5963)" />
      <path
         style="fill:#00ff00"
         d="m 400.07893,288.22117 c -3.0868,-0.19176 -3.97957,-0.41471 -4.70594,-1.17518 -0.6889,-0.72126 -2.28082,-3.87416 -3.43131,-6.79594 -3.21723,-8.17052 -5.21091,-17.01519 -6.27356,-27.83175 -0.34533,-3.51515 -0.57827,-7.82636 -0.92626,-17.14334 l -0.0955,-2.55683 36.05101,0 c 19.82806,0 36.05102,0.0395 36.05102,0.0878 0,0.17805 -2.26163,6.12489 -3.44726,9.06439 -4.65777,11.5479 -9.58227,21.19232 -15.91573,31.17029 -4.60911,7.26138 -6.10714,9.9617 -7.2084,12.99374 l -0.70029,1.9281 -5.35178,0.1037 c -10.81678,0.2096 -22.00607,0.28173 -24.046,0.15501 z"
         id="path3504"
         inkscape:connector-curvature="0"
         transform="translate(781.55504,1053.5963)" />
      <path
         style="fill:#00ff00"
         d="m 399.24063,299.8664 0,-9.13753 14.41885,0 14.41886,0 0,9.13753 0,9.13753 -14.41886,0 -14.41885,0 0,-9.13753 z"
         id="path3506"
         inkscape:connector-curvature="0"
         transform="translate(781.55504,1053.5963)" />
    </g>
  </g>
</svg>
