<?xml version="1.0" encoding="utf-8"?>
<!-- Generator: Adobe Illustrator 16.0.0, SVG Export Plug-In . SVG Version: 6.00 Build 0)  -->
<!DOCTYPE svg PUBLIC "-//W3C//DTD SVG 1.1//EN" "http://www.w3.org/Graphics/SVG/1.1/DTD/svg11.dtd">
<svg version="1.1" id="Layer_1" xmlns="http://www.w3.org/2000/svg" xmlns:xlink="http://www.w3.org/1999/xlink" x="0px" y="0px"
	 width="281.771px" height="257.75px" viewBox="0 0 281.771 257.75" enable-background="new 0 0 281.771 257.75"
	 xml:space="preserve">
<g>
	<path fill="none" stroke="#000000" stroke-width="40" d="M174.135,181.903h11.727v43.753h-77.136v-43.753h11.715v-43.666
		L57.144,75.525H38.852V32.094h92.848v43.432h-7.734l23.443,23.231l23.443-23.231h-7.969V32.094h90.035v43.432h-15.475
		l-63.309,62.712V181.903L174.135,181.903z"/>
	<path fill="#FFFFFF" d="M174.135,181.903h11.727v43.753h-77.136v-43.753h11.715v-43.666L57.144,75.525H38.852V32.094h92.848v43.432
		h-7.734l23.443,23.231l23.443-23.231h-7.969V32.094h90.035v43.432h-15.475l-63.309,62.712V181.903L174.135,181.903z"/>
	<path fill="none" stroke="#9D9FA1" stroke-width="11.5" d="M174.135,181.903h11.727v43.753h-77.136v-43.753h11.715v-43.666
		L57.144,75.525H38.852V32.094h92.848v43.432h-7.734l23.443,23.231l23.443-23.231h-7.969V32.094h90.035v43.432h-15.475
		l-63.309,62.712V181.903L174.135,181.903z"/>
</g>
</svg>
