<?xml version="1.0" encoding="utf-8"?>
<!-- Generator: Adobe Illustrator 16.0.0, SVG Export Plug-In . SVG Version: 6.00 Build 0)  -->
<!DOCTYPE svg PUBLIC "-//W3C//DTD SVG 1.1//EN" "http://www.w3.org/Graphics/SVG/1.1/DTD/svg11.dtd">
<svg version="1.1" id="Layer_1" xmlns="http://www.w3.org/2000/svg" xmlns:xlink="http://www.w3.org/1999/xlink" x="0px" y="0px"
	 width="197.404px" height="257.758px" viewBox="0 0 197.404 257.758" enable-background="new 0 0 197.404 257.758"
	 xml:space="preserve">
<g>
	<path fill="none" stroke="#000000" stroke-width="40" d="M116.451,107.819v-23.09l-5.267-5.879H86.455l-5.471,5.879v88.216
		l5.471,5.66h24.729l5.267-5.66v-21.779h46.413v39.446l-26.956,29.024H61.518l-26.979-29.025V67.085l26.979-28.965h74.392
		l26.956,28.965v40.735L116.451,107.819L116.451,107.819z"/>
	<path fill="#FFFFFF" d="M116.451,107.819v-23.09l-5.267-5.879H86.455l-5.471,5.879v88.216l5.471,5.66h24.729l5.267-5.66v-21.779
		h46.413v39.446l-26.956,29.024H61.518l-26.979-29.025V67.085l26.979-28.965h74.392l26.956,28.965v40.735L116.451,107.819
		L116.451,107.819z"/>
	<path fill="none" stroke="#9D9FA1" stroke-width="11.5" d="M116.451,107.819v-23.09l-5.267-5.879H86.455l-5.471,5.879v88.216
		l5.471,5.66h24.729l5.267-5.66v-21.779h46.413v39.446l-26.956,29.024H61.518l-26.979-29.025V67.085l26.979-28.965h74.392
		l26.956,28.965v40.735L116.451,107.819L116.451,107.819z"/>
</g>
</svg>
