<?xml version="1.0" encoding="utf-8"?>
<!-- Generator: Adobe Illustrator 16.0.0, SVG Export Plug-In . SVG Version: 6.00 Build 0)  -->
<!DOCTYPE svg PUBLIC "-//W3C//DTD SVG 1.1//EN" "http://www.w3.org/Graphics/SVG/1.1/DTD/svg11.dtd">
<svg version="1.1" id="Layer_1" xmlns="http://www.w3.org/2000/svg" xmlns:xlink="http://www.w3.org/1999/xlink" x="0px" y="0px"
	 width="225.24px" height="257.645px" viewBox="0 0 225.24 257.645" enable-background="new 0 0 225.24 257.645"
	 xml:space="preserve">
<g>
	<path fill="none" stroke="#000000" stroke-width="40" d="M58.938,31.322h84.181l30.509,29.871v103.755l20.184,19.537
		l-29.132,28.522l-8.026-7.857l-13.534,13.244H58.938L28.43,188.53V61.193L58.938,31.322z M115.173,73.237H87.187l-6.192,6.062
		v90.956l6.192,5.837h27.986l5.962-5.837l-31.199-30.766l28.91-28.523l2.289,2.243V79.298L115.173,73.237z"/>
	<path fill="#FFFFFF" d="M58.938,31.322h84.181l30.509,29.871v103.755l20.184,19.537l-29.132,28.522l-8.026-7.857l-13.534,13.244
		H58.938L28.43,188.53V61.193L58.938,31.322z M115.173,73.237H87.187l-6.192,6.062v90.956l6.192,5.837h27.986l5.962-5.837
		l-31.199-30.766l28.91-28.523l2.289,2.243V79.298L115.173,73.237z"/>
	<path fill="none" stroke="#9D9FA1" stroke-width="11.5" d="M58.938,31.322h84.181l30.509,29.871v103.755l20.184,19.537
		l-29.132,28.522l-8.026-7.857l-13.534,13.244H58.938L28.43,188.53V61.193L58.938,31.322z M115.173,73.237H87.187l-6.192,6.062
		v90.956l6.192,5.837h27.986l5.962-5.837l-31.199-30.766l28.91-28.523l2.289,2.243V79.298L115.173,73.237z"/>
</g>
</svg>
