<?xml version="1.0" encoding="utf-8"?>
<!-- Generator: Adobe Illustrator 16.0.0, SVG Export Plug-In . SVG Version: 6.00 Build 0)  -->
<!DOCTYPE svg PUBLIC "-//W3C//DTD SVG 1.1//EN" "http://www.w3.org/Graphics/SVG/1.1/DTD/svg11.dtd">
<svg version="1.1" id="Layer_1" xmlns="http://www.w3.org/2000/svg" xmlns:xlink="http://www.w3.org/1999/xlink" x="0px" y="0px"
	 width="251.01px" height="257.75px" viewBox="0 0 251.01 257.75" enable-background="new 0 0 251.01 257.75" xml:space="preserve">
<g>
	<path fill="none" stroke="#000000" stroke-width="40" d="M139.064,80.607V41.313h77.318v39.295h-16.803l-34.289,96.244h9.637
		v39.586H75.641v-39.586h8.068L49.644,80.607H34.628V41.313h75.302v39.295h-6.273l20.84,58.421l20.623-58.421H139.064z"/>
	<path fill="#FFFFFF" d="M139.064,80.607V41.313h77.318v39.295h-16.803l-34.289,96.244h9.637v39.586H75.641v-39.586h8.068
		L49.644,80.607H34.628V41.313h75.302v39.295h-6.273l20.84,58.421l20.623-58.421H139.064z"/>
	<path fill="none" stroke="#9D9FA1" stroke-width="11.5" d="M139.064,80.607V41.313h77.318v39.295h-16.803l-34.289,96.244h9.637
		v39.586H75.641v-39.586h8.068L49.644,80.607H34.628V41.313h75.302v39.295h-6.273l20.84,58.421l20.623-58.421H139.064z"/>
</g>
</svg>
