<?xml version="1.0" encoding="utf-8"?>
<!-- Generator: Adobe Illustrator 16.0.0, SVG Export Plug-In . SVG Version: 6.00 Build 0)  -->
<!DOCTYPE svg PUBLIC "-//W3C//DTD SVG 1.1//EN" "http://www.w3.org/Graphics/SVG/1.1/DTD/svg11.dtd">
<svg version="1.1" id="Layer_1" xmlns="http://www.w3.org/2000/svg" xmlns:xlink="http://www.w3.org/1999/xlink" x="0px" y="0px"
	 width="197.342px" height="257.645px" viewBox="0 0 197.342 257.645" enable-background="new 0 0 197.342 257.645"
	 xml:space="preserve">
<g>
<g class="part_1_stroke">
	<path fill="none" stroke="#000000" stroke-width="40" d="M54.676,40.74h88.57l32.091,27.743v118.266l-32.091,27.737h-88.57
		l-32.088-27.737V68.483L54.676,40.74z M113.841,79.669H84.396l-6.506,5.63v84.477l6.506,5.419h29.444l6.272-5.419V85.299
		L113.841,79.669z"/>
</g>

<g class="part_2_fill">
	<path fill="#FFFFFF" d="M54.676,40.74h88.57l32.091,27.743v118.266l-32.091,27.737h-88.57l-32.088-27.737V68.483L54.676,40.74z
		 M113.841,79.669H84.396l-6.506,5.63v84.477l6.506,5.419h29.444l6.272-5.419V85.299L113.841,79.669z"/>
</g>

<g class="part_3_fill">
	<path fill="none" stroke="#9D9FA1" stroke-width="11.5" d="M54.676,40.74h88.57l32.091,27.743v118.266l-32.091,27.737h-88.57
		l-32.088-27.737V68.483L54.676,40.74z M113.841,79.669H84.396l-6.506,5.63v84.477l6.506,5.419h29.444l6.272-5.419V85.299
		L113.841,79.669z"/>
</g>
</g>
</svg>
