<?xml version="1.0" encoding="utf-8"?>
<!-- Generator: Adobe Illustrator 16.0.0, SVG Export Plug-In . SVG Version: 6.00 Build 0)  -->
<!DOCTYPE svg PUBLIC "-//W3C//DTD SVG 1.1//EN" "http://www.w3.org/Graphics/SVG/1.1/DTD/svg11.dtd">
<svg version="1.1" id="Layer_1" xmlns="http://www.w3.org/2000/svg" xmlns:xlink="http://www.w3.org/1999/xlink" x="0px" y="0px"
	 width="239.307px" height="257.75px" viewBox="0 0 239.307 257.75" enable-background="new 0 0 239.307 257.75"
	 xml:space="preserve">
<g>
	<path fill="none" stroke="#000000" stroke-width="40" d="M108.307,182.058v43.88H42.701v-43.88h9.965V75.371h-9.965V31.813h65.605
		v43.558h-9.965v27.488l23.719-27.488h-4.384V31.813h78.927v43.558h-13.75l-45.049,52.645l46.24,54.042h12.559v43.88h-78.927v-43.88
		h4.58l-16.139-18.63l-7.775,9.315v9.314H108.307L108.307,182.058z"/>
	<path fill="#FFFFFF" d="M108.307,182.058v43.88H42.701v-43.88h9.965V75.371h-9.965V31.813h65.605v43.558h-9.965v27.488
		l23.719-27.488h-4.384V31.813h78.927v43.558h-13.75l-45.049,52.645l46.24,54.042h12.559v43.88h-78.927v-43.88h4.58l-16.139-18.63
		l-7.775,9.315v9.314H108.307L108.307,182.058z"/>
	<path fill="none" stroke="#9D9FA1" stroke-width="11.5" d="M108.307,182.058v43.88H42.701v-43.88h9.965V75.371h-9.965V31.813
		h65.605v43.558h-9.965v27.488l23.719-27.488h-4.384V31.813h78.927v43.558h-13.75l-45.049,52.645l46.24,54.042h12.559v43.88h-78.927
		v-43.88h4.58l-16.139-18.63l-7.775,9.315v9.314H108.307L108.307,182.058z"/>
</g>
</svg>
