<?xml version="1.0" encoding="utf-8"?>
<!-- Generator: Adobe Illustrator 16.0.0, SVG Export Plug-In . SVG Version: 6.00 Build 0)  -->
<!DOCTYPE svg PUBLIC "-//W3C//DTD SVG 1.1//EN" "http://www.w3.org/Graphics/SVG/1.1/DTD/svg11.dtd">
<svg version="1.1" id="Layer_1" xmlns="http://www.w3.org/2000/svg" xmlns:xlink="http://www.w3.org/1999/xlink" x="0px" y="0px"
	 width="281.771px" height="257.75px" viewBox="0 0 281.771 257.75" enable-background="new 0 0 281.771 257.75"
	 xml:space="preserve">
<g>
<g class="part_1_stroke">
	<path fill="none" stroke="#000000" stroke-width="40" d="M119.976,182.058h7.381v43.88H38.818v-43.88h17.438l51.427-53.347
		l-51.427-53.34H38.818V31.813h88.54v43.558h-7.381l22.362,23.299L164.7,75.371h-7.605V31.813h85.858v43.558h-14.757l-51.201,53.34
		l51.201,53.347h14.757v43.88h-85.858v-43.88h7.605l-22.361-23.293L119.976,182.058z"/>
</g>
<g class="part_2_fill">
	<path fill="#FFFFFF" d="M119.976,182.058h7.381v43.88H38.818v-43.88h17.438l51.427-53.347l-51.427-53.34H38.818V31.813h88.54
		v43.558h-7.381l22.362,23.299L164.7,75.371h-7.605V31.813h85.858v43.558h-14.757l-51.201,53.34l51.201,53.347h14.757v43.88h-85.858
		v-43.88h7.605l-22.361-23.293L119.976,182.058z"/>
</g>

<g class="part_3_stroke">
	<path fill="none" stroke="#9D9FA1" stroke-width="11.5" d="M119.976,182.058h7.381v43.88H38.818v-43.88h17.438l51.427-53.347
		l-51.427-53.34H38.818V31.813h88.54v43.558h-7.381l22.362,23.299L164.7,75.371h-7.605V31.813h85.858v43.558h-14.757l-51.201,53.34
		l51.201,53.347h14.757v43.88h-85.858v-43.88h7.605l-22.361-23.293L119.976,182.058z"/>
</g>
</g>
</svg>
