<?xml version="1.0" encoding="utf-8"?>
<!-- Generator: Adobe Illustrator 16.0.0, SVG Export Plug-In . SVG Version: 6.00 Build 0)  -->
<!DOCTYPE svg PUBLIC "-//W3C//DTD SVG 1.1//EN" "http://www.w3.org/Graphics/SVG/1.1/DTD/svg11.dtd">
<svg version="1.1" id="Layer_1" xmlns="http://www.w3.org/2000/svg" xmlns:xlink="http://www.w3.org/1999/xlink" x="0px" y="0px"
	 width="202.178px" height="257.766px" viewBox="0 0 202.178 257.766" enable-background="new 0 0 202.178 257.766"
	 xml:space="preserve">
<g>
	<g>
		<path fill="none" d="M181.131,199.494l-32.804,33.201H21.048v-46.93H33.38V71.659H21.048V25.07h127.28l32.804,33.133v53.067
			l-13.565,13.706l13.565,13.704V199.494L181.131,199.494z M118.028,71.751H89.906v30.146h28.12l6.661-6.728V78.475L118.028,71.751z
			 M118.028,148.397H89.906v37.369h28.12l6.661-6.479v-24.164L118.028,148.397z"/>
	</g>
	<g>
		<path d="M181.131,199.494l-32.804,33.201H21.048v-46.93H33.38V71.659H21.048V25.07h127.28l32.804,33.133v53.067l-13.565,13.706
			l13.565,13.704V199.494L181.131,199.494z M118.028,71.751H89.906v30.146h28.12l6.661-6.728V78.475L118.028,71.751z
			 M118.028,148.397H89.906v37.369h28.12l6.661-6.479v-24.164L118.028,148.397z"/>
	</g>
	<g>
		<path fill="none" d="M181.131,199.494l-32.804,33.201H21.048v-46.93H33.38V71.659H21.048V25.07h127.28l32.804,33.133v53.067
			l-13.565,13.706l13.565,13.704V199.494L181.131,199.494z M118.028,71.751H89.906v30.146h28.12l6.661-6.728V78.475L118.028,71.751z
			 M118.028,148.397H89.906v37.369h28.12l6.661-6.479v-24.164L118.028,148.397z"/>
	</g>
</g>
</svg>
