<?xml version="1.0" encoding="utf-8"?>
<!-- Generator: Adobe Illustrator 16.0.0, SVG Export Plug-In . SVG Version: 6.00 Build 0)  -->
<!DOCTYPE svg PUBLIC "-//W3C//DTD SVG 1.1//EN" "http://www.w3.org/Graphics/SVG/1.1/DTD/svg11.dtd">
<svg version="1.1" id="Layer_1" xmlns="http://www.w3.org/2000/svg" xmlns:xlink="http://www.w3.org/1999/xlink" x="0px" y="0px"
	 width="223.783px" height="257.75px" viewBox="0 0 223.783 257.75" enable-background="new 0 0 223.783 257.75"
	 xml:space="preserve">
<g>
	<path fill="none" stroke="#000000" stroke-width="40" d="M127.825,150.498h-34.72v30.546h10.693v41.394H33.392v-41.394h10.699
		V80.402H33.392v-41.09h70.407v41.09H93.105v25.054h34.72V80.402h-10.7v-41.09h70.408v41.09H176.84v100.642h10.693v41.394h-70.408
		v-41.394h10.7V150.498z"/>
	<path fill="#FFFFFF" d="M127.825,150.498h-34.72v30.546h10.693v41.394H33.392v-41.394h10.699V80.402H33.392v-41.09h70.407v41.09
		H93.105v25.054h34.72V80.402h-10.7v-41.09h70.408v41.09H176.84v100.642h10.693v41.394h-70.408v-41.394h10.7V150.498z"/>
	<path fill="none" stroke="#9D9FA1" stroke-width="11.5" d="M127.825,150.498h-34.72v30.546h10.693v41.394H33.392v-41.394h10.699
		V80.402H33.392v-41.09h70.407v41.09H93.105v25.054h34.72V80.402h-10.7v-41.09h70.408v41.09H176.84v100.642h10.693v41.394h-70.408
		v-41.394h10.7V150.498z"/>
</g>
</svg>
