<?xml version="1.0" encoding="utf-8"?>
<!-- Generator: Adobe Illustrator 16.0.0, SVG Export Plug-In . SVG Version: 6.00 Build 0)  -->
<!DOCTYPE svg PUBLIC "-//W3C//DTD SVG 1.1//EN" "http://www.w3.org/Graphics/SVG/1.1/DTD/svg11.dtd">
<svg version="1.1" id="Layer_1" xmlns="http://www.w3.org/2000/svg" xmlns:xlink="http://www.w3.org/1999/xlink" x="0px" y="0px"
	 width="191.363px" height="257.75px" viewBox="0 0 191.363 257.75" enable-background="new 0 0 191.363 257.75"
	 xml:space="preserve">
<g>
   <g class="part_1_stroke">
	<path fill="none" stroke-width="40" d="M90.544,154.16v28.528h17.995V222.5H38.216v-39.812h9.372V85.894h-9.372
		V46.375h114.932v46.497H117.91v-6.978H90.544v28.742h6.376v-6.972h35.049v53.468H96.92v-6.972H90.544z"/>
	</g>
	
	<g class="part_2_fill">
	<path  d="M90.544,154.16v28.528h17.995V222.5H38.216v-39.812h9.372V85.894h-9.372V46.375h114.932v46.497H117.91
		v-6.978H90.544v28.742h6.376v-6.972h35.049v53.468H96.92v-6.972H90.544z"/>
	</g>
	
	<g class="part_3_stroke">
	<path fill="none"  stroke-width="11.5" d="M90.544,154.16v28.528h17.995V222.5H38.216v-39.812h9.372V85.894h-9.372
		V46.375h114.932v46.497H117.91v-6.978H90.544v28.742h6.376v-6.972h35.049v53.468H96.92v-6.972H90.544z"/>
	</g>
</g>
</svg>
