<?xml version="1.0" encoding="utf-8"?>
<!-- Generator: Adobe Illustrator 16.0.0, SVG Export Plug-In . SVG Version: 6.00 Build 0)  -->
<!DOCTYPE svg PUBLIC "-//W3C//DTD SVG 1.1//EN" "http://www.w3.org/Graphics/SVG/1.1/DTD/svg11.dtd">
<svg version="1.1" id="Layer_1" xmlns="http://www.w3.org/2000/svg" xmlns:xlink="http://www.w3.org/1999/xlink" x="0px" y="0px"
	 width="241.311px" height="257.75px" viewBox="0 0 241.311 257.75" enable-background="new 0 0 241.311 257.75"
	 xml:space="preserve">
<g>
	<path fill="none" stroke="#000000" stroke-width="40" d="M97.871,141.761v39.976h10.333v40.701H40.179v-40.701h10.332V82.778
		H40.179V42.375h55.972l47.288,82.317V82.778h-10.332V42.375h68.025v40.403H190.8v98.958h10.332v40.701h-57.004L97.871,141.761z"/>
	<path fill="#FFFFFF" d="M97.871,141.761v39.976h10.333v40.701H40.179v-40.701h10.332V82.778H40.179V42.375h55.972l47.288,82.317
		V82.778h-10.332V42.375h68.025v40.403H190.8v98.958h10.332v40.701h-57.004L97.871,141.761z"/>
	<path fill="none" stroke="#9D9FA1" stroke-width="11.5" d="M97.871,141.761v39.976h10.333v40.701H40.179v-40.701h10.332V82.778
		H40.179V42.375h55.972l47.288,82.317V82.778h-10.332V42.375h68.025v40.403H190.8v98.958h10.332v40.701h-57.004L97.871,141.761z"/>
</g>
</svg>
