<?xml version="1.0" encoding="utf-8"?>
<!-- Generator: Adobe Illustrator 16.0.0, SVG Export Plug-In . SVG Version: 6.00 Build 0)  -->
<!DOCTYPE svg PUBLIC "-//W3C//DTD SVG 1.1//EN" "http://www.w3.org/Graphics/SVG/1.1/DTD/svg11.dtd">
<svg version="1.1" id="Layer_1" xmlns="http://www.w3.org/2000/svg" xmlns:xlink="http://www.w3.org/1999/xlink" x="0px" y="0px"
	 width="193.783px" height="257.75px" viewBox="0 0 193.783 257.75" enable-background="new 0 0 193.783 257.75"
	 xml:space="preserve">
<g>
	<path fill="none" stroke="#000000" stroke-width="40" d="M148.044,194.452l-27.529,30.36H57.372l-27.551-30.36v-46.047h47.433
		v27.566l5.592,5.921h12.206l5.594-5.921v-98.43H85.945V34.938h72.446v42.604h-10.348V194.452L148.044,194.452z"/>
	<path fill="#FFFFFF" d="M148.044,194.452l-27.529,30.36H57.372l-27.551-30.36v-46.047h47.433v27.566l5.592,5.921h12.206
		l5.594-5.921v-98.43H85.945V34.938h72.446v42.604h-10.348V194.452L148.044,194.452z"/>
	<path fill="none" stroke="#9D9FA1" stroke-width="11.5" d="M148.044,194.452l-27.529,30.36H57.372l-27.551-30.36v-46.047h47.433
		v27.566l5.592,5.921h12.206l5.594-5.921v-98.43H85.945V34.938h72.446v42.604h-10.348V194.452L148.044,194.452z"/>
</g>
</svg>
