<?xml version="1.0" encoding="utf-8"?>
<!-- Generator: Adobe Illustrator 12.0.0, SVG Export Plug-In . SVG Version: 6.00 Build 51448)  -->
<!DOCTYPE svg PUBLIC "-//W3C//DTD SVG 1.1//EN" "http://www.w3.org/Graphics/SVG/1.1/DTD/svg11.dtd" [
	<!ENTITY ns_svg "http://www.w3.org/2000/svg">
	<!ENTITY ns_xlink "http://www.w3.org/1999/xlink">
]>
<svg  version="1.1" id="Layer_1" xmlns="&ns_svg;" xmlns:xlink="&ns_xlink;" width="251.743" height="257.767"
	 viewBox="0 0 251.743 257.767" overflow="visible" enable-background="new 0 0 251.743 257.767" xml:space="preserve">
<g>
	<g>
		<path fill="none" stroke="#000000" stroke-width="40" d="M192.092,59.634h-12.395l54.028,138.09h14.767v56.793h-94.488v-56.793
			h7.975l-3.542-11.254h-65.25l-3.832,11.254h7.958v56.793H3.25v-56.793h14.746l53.955-138.09H61.339V3.25h130.753V59.634z
			 M141.438,138.575l-15.654-39.798l-15.642,39.798H141.438z"/>
	</g>
	<g>
		<path fill="#FFFFFF" d="M192.092,59.634h-12.395l54.028,138.09h14.767v56.793h-94.488v-56.793h7.975l-3.542-11.254h-65.25
			l-3.832,11.254h7.958v56.793H3.25v-56.793h14.746l53.955-138.09H61.339V3.25h130.753V59.634z M141.438,138.575l-15.654-39.798
			l-15.642,39.798H141.438z"/>
	</g>
	<g>
		<path fill="none" stroke="#9D9FA1" stroke-width="11.5" d="M192.092,59.634h-12.395l54.028,138.09h14.767v56.793h-94.488v-56.793
			h7.975l-3.542-11.254h-65.25l-3.832,11.254h7.958v56.793H3.25v-56.793h14.746l53.955-138.09H61.339V3.25h130.753V59.634z
			 M141.438,138.575l-15.654-39.798l-15.642,39.798H141.438z"/>
	</g>
</g>
</svg>
